%TF.GenerationSoftware,KiCad,Pcbnew,7.0.11*%
%TF.CreationDate,2024-05-10T14:22:36-04:00*%
%TF.ProjectId,stepper-interface,73746570-7065-4722-9d69-6e7465726661,1.0*%
%TF.SameCoordinates,Original*%
%TF.FileFunction,Drillmap*%
%TF.FilePolarity,Positive*%
%FSLAX45Y45*%
G04 Gerber Fmt 4.5, Leading zero omitted, Abs format (unit mm)*
G04 Created by KiCad (PCBNEW 7.0.11) date 2024-05-10 14:22:36*
%MOMM*%
%LPD*%
G01*
G04 APERTURE LIST*
%ADD10C,0.100000*%
%ADD11C,0.200000*%
G04 APERTURE END LIST*
D10*
X13240000Y-11710000D02*
X13240000Y-8610000D01*
X17240000Y-8610000D02*
X17240000Y-11710000D01*
X16790000Y-12160000D02*
G75*
G03*
X17240000Y-11710000I0J450000D01*
G01*
X17240000Y-8610000D02*
G75*
G03*
X16790000Y-8160000I-450000J0D01*
G01*
X13240000Y-11710000D02*
G75*
G03*
X13690000Y-12160000I450000J0D01*
G01*
X16790000Y-12160000D02*
X13690000Y-12160000D01*
X13690000Y-8160000D02*
G75*
G03*
X13240000Y-8610000I0J-450000D01*
G01*
X13690000Y-8160000D02*
X16790000Y-8160000D01*
D11*
D10*
X16052500Y-8185000D02*
X16127500Y-8260000D01*
X16127500Y-8185000D02*
X16052500Y-8260000D01*
X16052500Y-8460000D02*
X16127500Y-8535000D01*
X16127500Y-8460000D02*
X16052500Y-8535000D01*
D11*
X13495777Y-12476484D02*
X13495777Y-12276484D01*
X13495777Y-12276484D02*
X13543396Y-12276484D01*
X13543396Y-12276484D02*
X13571967Y-12286008D01*
X13571967Y-12286008D02*
X13591015Y-12305055D01*
X13591015Y-12305055D02*
X13600539Y-12324103D01*
X13600539Y-12324103D02*
X13610062Y-12362198D01*
X13610062Y-12362198D02*
X13610062Y-12390769D01*
X13610062Y-12390769D02*
X13600539Y-12428865D01*
X13600539Y-12428865D02*
X13591015Y-12447912D01*
X13591015Y-12447912D02*
X13571967Y-12466960D01*
X13571967Y-12466960D02*
X13543396Y-12476484D01*
X13543396Y-12476484D02*
X13495777Y-12476484D01*
X13695777Y-12476484D02*
X13695777Y-12343150D01*
X13695777Y-12381246D02*
X13705301Y-12362198D01*
X13705301Y-12362198D02*
X13714824Y-12352674D01*
X13714824Y-12352674D02*
X13733872Y-12343150D01*
X13733872Y-12343150D02*
X13752920Y-12343150D01*
X13819586Y-12476484D02*
X13819586Y-12343150D01*
X13819586Y-12276484D02*
X13810062Y-12286008D01*
X13810062Y-12286008D02*
X13819586Y-12295531D01*
X13819586Y-12295531D02*
X13829110Y-12286008D01*
X13829110Y-12286008D02*
X13819586Y-12276484D01*
X13819586Y-12276484D02*
X13819586Y-12295531D01*
X13943396Y-12476484D02*
X13924348Y-12466960D01*
X13924348Y-12466960D02*
X13914824Y-12447912D01*
X13914824Y-12447912D02*
X13914824Y-12276484D01*
X14048158Y-12476484D02*
X14029110Y-12466960D01*
X14029110Y-12466960D02*
X14019586Y-12447912D01*
X14019586Y-12447912D02*
X14019586Y-12276484D01*
X14276729Y-12476484D02*
X14276729Y-12276484D01*
X14276729Y-12276484D02*
X14343396Y-12419341D01*
X14343396Y-12419341D02*
X14410062Y-12276484D01*
X14410062Y-12276484D02*
X14410062Y-12476484D01*
X14591015Y-12476484D02*
X14591015Y-12371722D01*
X14591015Y-12371722D02*
X14581491Y-12352674D01*
X14581491Y-12352674D02*
X14562443Y-12343150D01*
X14562443Y-12343150D02*
X14524348Y-12343150D01*
X14524348Y-12343150D02*
X14505301Y-12352674D01*
X14591015Y-12466960D02*
X14571967Y-12476484D01*
X14571967Y-12476484D02*
X14524348Y-12476484D01*
X14524348Y-12476484D02*
X14505301Y-12466960D01*
X14505301Y-12466960D02*
X14495777Y-12447912D01*
X14495777Y-12447912D02*
X14495777Y-12428865D01*
X14495777Y-12428865D02*
X14505301Y-12409817D01*
X14505301Y-12409817D02*
X14524348Y-12400293D01*
X14524348Y-12400293D02*
X14571967Y-12400293D01*
X14571967Y-12400293D02*
X14591015Y-12390769D01*
X14686253Y-12343150D02*
X14686253Y-12543150D01*
X14686253Y-12352674D02*
X14705301Y-12343150D01*
X14705301Y-12343150D02*
X14743396Y-12343150D01*
X14743396Y-12343150D02*
X14762443Y-12352674D01*
X14762443Y-12352674D02*
X14771967Y-12362198D01*
X14771967Y-12362198D02*
X14781491Y-12381246D01*
X14781491Y-12381246D02*
X14781491Y-12438388D01*
X14781491Y-12438388D02*
X14771967Y-12457436D01*
X14771967Y-12457436D02*
X14762443Y-12466960D01*
X14762443Y-12466960D02*
X14743396Y-12476484D01*
X14743396Y-12476484D02*
X14705301Y-12476484D01*
X14705301Y-12476484D02*
X14686253Y-12466960D01*
X14867205Y-12457436D02*
X14876729Y-12466960D01*
X14876729Y-12466960D02*
X14867205Y-12476484D01*
X14867205Y-12476484D02*
X14857682Y-12466960D01*
X14857682Y-12466960D02*
X14867205Y-12457436D01*
X14867205Y-12457436D02*
X14867205Y-12476484D01*
X14867205Y-12352674D02*
X14876729Y-12362198D01*
X14876729Y-12362198D02*
X14867205Y-12371722D01*
X14867205Y-12371722D02*
X14857682Y-12362198D01*
X14857682Y-12362198D02*
X14867205Y-12352674D01*
X14867205Y-12352674D02*
X14867205Y-12371722D01*
D10*
X13160000Y-12767500D02*
X13235000Y-12842500D01*
X13235000Y-12767500D02*
X13160000Y-12842500D01*
D11*
X13533872Y-12696484D02*
X13552920Y-12696484D01*
X13552920Y-12696484D02*
X13571967Y-12706008D01*
X13571967Y-12706008D02*
X13581491Y-12715531D01*
X13581491Y-12715531D02*
X13591015Y-12734579D01*
X13591015Y-12734579D02*
X13600539Y-12772674D01*
X13600539Y-12772674D02*
X13600539Y-12820293D01*
X13600539Y-12820293D02*
X13591015Y-12858388D01*
X13591015Y-12858388D02*
X13581491Y-12877436D01*
X13581491Y-12877436D02*
X13571967Y-12886960D01*
X13571967Y-12886960D02*
X13552920Y-12896484D01*
X13552920Y-12896484D02*
X13533872Y-12896484D01*
X13533872Y-12896484D02*
X13514824Y-12886960D01*
X13514824Y-12886960D02*
X13505301Y-12877436D01*
X13505301Y-12877436D02*
X13495777Y-12858388D01*
X13495777Y-12858388D02*
X13486253Y-12820293D01*
X13486253Y-12820293D02*
X13486253Y-12772674D01*
X13486253Y-12772674D02*
X13495777Y-12734579D01*
X13495777Y-12734579D02*
X13505301Y-12715531D01*
X13505301Y-12715531D02*
X13514824Y-12706008D01*
X13514824Y-12706008D02*
X13533872Y-12696484D01*
X13686253Y-12877436D02*
X13695777Y-12886960D01*
X13695777Y-12886960D02*
X13686253Y-12896484D01*
X13686253Y-12896484D02*
X13676729Y-12886960D01*
X13676729Y-12886960D02*
X13686253Y-12877436D01*
X13686253Y-12877436D02*
X13686253Y-12896484D01*
X13762443Y-12696484D02*
X13895777Y-12696484D01*
X13895777Y-12696484D02*
X13810062Y-12896484D01*
X14067205Y-12696484D02*
X13971967Y-12696484D01*
X13971967Y-12696484D02*
X13962443Y-12791722D01*
X13962443Y-12791722D02*
X13971967Y-12782198D01*
X13971967Y-12782198D02*
X13991015Y-12772674D01*
X13991015Y-12772674D02*
X14038634Y-12772674D01*
X14038634Y-12772674D02*
X14057682Y-12782198D01*
X14057682Y-12782198D02*
X14067205Y-12791722D01*
X14067205Y-12791722D02*
X14076729Y-12810769D01*
X14076729Y-12810769D02*
X14076729Y-12858388D01*
X14076729Y-12858388D02*
X14067205Y-12877436D01*
X14067205Y-12877436D02*
X14057682Y-12886960D01*
X14057682Y-12886960D02*
X14038634Y-12896484D01*
X14038634Y-12896484D02*
X13991015Y-12896484D01*
X13991015Y-12896484D02*
X13971967Y-12886960D01*
X13971967Y-12886960D02*
X13962443Y-12877436D01*
X14200539Y-12696484D02*
X14219586Y-12696484D01*
X14219586Y-12696484D02*
X14238634Y-12706008D01*
X14238634Y-12706008D02*
X14248158Y-12715531D01*
X14248158Y-12715531D02*
X14257682Y-12734579D01*
X14257682Y-12734579D02*
X14267205Y-12772674D01*
X14267205Y-12772674D02*
X14267205Y-12820293D01*
X14267205Y-12820293D02*
X14257682Y-12858388D01*
X14257682Y-12858388D02*
X14248158Y-12877436D01*
X14248158Y-12877436D02*
X14238634Y-12886960D01*
X14238634Y-12886960D02*
X14219586Y-12896484D01*
X14219586Y-12896484D02*
X14200539Y-12896484D01*
X14200539Y-12896484D02*
X14181491Y-12886960D01*
X14181491Y-12886960D02*
X14171967Y-12877436D01*
X14171967Y-12877436D02*
X14162443Y-12858388D01*
X14162443Y-12858388D02*
X14152920Y-12820293D01*
X14152920Y-12820293D02*
X14152920Y-12772674D01*
X14152920Y-12772674D02*
X14162443Y-12734579D01*
X14162443Y-12734579D02*
X14171967Y-12715531D01*
X14171967Y-12715531D02*
X14181491Y-12706008D01*
X14181491Y-12706008D02*
X14200539Y-12696484D01*
X14352920Y-12896484D02*
X14352920Y-12763150D01*
X14352920Y-12782198D02*
X14362443Y-12772674D01*
X14362443Y-12772674D02*
X14381491Y-12763150D01*
X14381491Y-12763150D02*
X14410063Y-12763150D01*
X14410063Y-12763150D02*
X14429110Y-12772674D01*
X14429110Y-12772674D02*
X14438634Y-12791722D01*
X14438634Y-12791722D02*
X14438634Y-12896484D01*
X14438634Y-12791722D02*
X14448158Y-12772674D01*
X14448158Y-12772674D02*
X14467205Y-12763150D01*
X14467205Y-12763150D02*
X14495777Y-12763150D01*
X14495777Y-12763150D02*
X14514824Y-12772674D01*
X14514824Y-12772674D02*
X14524348Y-12791722D01*
X14524348Y-12791722D02*
X14524348Y-12896484D01*
X14619586Y-12896484D02*
X14619586Y-12763150D01*
X14619586Y-12782198D02*
X14629110Y-12772674D01*
X14629110Y-12772674D02*
X14648158Y-12763150D01*
X14648158Y-12763150D02*
X14676729Y-12763150D01*
X14676729Y-12763150D02*
X14695777Y-12772674D01*
X14695777Y-12772674D02*
X14705301Y-12791722D01*
X14705301Y-12791722D02*
X14705301Y-12896484D01*
X14705301Y-12791722D02*
X14714824Y-12772674D01*
X14714824Y-12772674D02*
X14733872Y-12763150D01*
X14733872Y-12763150D02*
X14762443Y-12763150D01*
X14762443Y-12763150D02*
X14781491Y-12772674D01*
X14781491Y-12772674D02*
X14791015Y-12791722D01*
X14791015Y-12791722D02*
X14791015Y-12896484D01*
X15181491Y-12686960D02*
X15010063Y-12944103D01*
X15438634Y-12696484D02*
X15457682Y-12696484D01*
X15457682Y-12696484D02*
X15476729Y-12706008D01*
X15476729Y-12706008D02*
X15486253Y-12715531D01*
X15486253Y-12715531D02*
X15495777Y-12734579D01*
X15495777Y-12734579D02*
X15505301Y-12772674D01*
X15505301Y-12772674D02*
X15505301Y-12820293D01*
X15505301Y-12820293D02*
X15495777Y-12858388D01*
X15495777Y-12858388D02*
X15486253Y-12877436D01*
X15486253Y-12877436D02*
X15476729Y-12886960D01*
X15476729Y-12886960D02*
X15457682Y-12896484D01*
X15457682Y-12896484D02*
X15438634Y-12896484D01*
X15438634Y-12896484D02*
X15419586Y-12886960D01*
X15419586Y-12886960D02*
X15410063Y-12877436D01*
X15410063Y-12877436D02*
X15400539Y-12858388D01*
X15400539Y-12858388D02*
X15391015Y-12820293D01*
X15391015Y-12820293D02*
X15391015Y-12772674D01*
X15391015Y-12772674D02*
X15400539Y-12734579D01*
X15400539Y-12734579D02*
X15410063Y-12715531D01*
X15410063Y-12715531D02*
X15419586Y-12706008D01*
X15419586Y-12706008D02*
X15438634Y-12696484D01*
X15591015Y-12877436D02*
X15600539Y-12886960D01*
X15600539Y-12886960D02*
X15591015Y-12896484D01*
X15591015Y-12896484D02*
X15581491Y-12886960D01*
X15581491Y-12886960D02*
X15591015Y-12877436D01*
X15591015Y-12877436D02*
X15591015Y-12896484D01*
X15724348Y-12696484D02*
X15743396Y-12696484D01*
X15743396Y-12696484D02*
X15762444Y-12706008D01*
X15762444Y-12706008D02*
X15771967Y-12715531D01*
X15771967Y-12715531D02*
X15781491Y-12734579D01*
X15781491Y-12734579D02*
X15791015Y-12772674D01*
X15791015Y-12772674D02*
X15791015Y-12820293D01*
X15791015Y-12820293D02*
X15781491Y-12858388D01*
X15781491Y-12858388D02*
X15771967Y-12877436D01*
X15771967Y-12877436D02*
X15762444Y-12886960D01*
X15762444Y-12886960D02*
X15743396Y-12896484D01*
X15743396Y-12896484D02*
X15724348Y-12896484D01*
X15724348Y-12896484D02*
X15705301Y-12886960D01*
X15705301Y-12886960D02*
X15695777Y-12877436D01*
X15695777Y-12877436D02*
X15686253Y-12858388D01*
X15686253Y-12858388D02*
X15676729Y-12820293D01*
X15676729Y-12820293D02*
X15676729Y-12772674D01*
X15676729Y-12772674D02*
X15686253Y-12734579D01*
X15686253Y-12734579D02*
X15695777Y-12715531D01*
X15695777Y-12715531D02*
X15705301Y-12706008D01*
X15705301Y-12706008D02*
X15724348Y-12696484D01*
X15867206Y-12715531D02*
X15876729Y-12706008D01*
X15876729Y-12706008D02*
X15895777Y-12696484D01*
X15895777Y-12696484D02*
X15943396Y-12696484D01*
X15943396Y-12696484D02*
X15962444Y-12706008D01*
X15962444Y-12706008D02*
X15971967Y-12715531D01*
X15971967Y-12715531D02*
X15981491Y-12734579D01*
X15981491Y-12734579D02*
X15981491Y-12753627D01*
X15981491Y-12753627D02*
X15971967Y-12782198D01*
X15971967Y-12782198D02*
X15857682Y-12896484D01*
X15857682Y-12896484D02*
X15981491Y-12896484D01*
X16076729Y-12896484D02*
X16114825Y-12896484D01*
X16114825Y-12896484D02*
X16133872Y-12886960D01*
X16133872Y-12886960D02*
X16143396Y-12877436D01*
X16143396Y-12877436D02*
X16162444Y-12848865D01*
X16162444Y-12848865D02*
X16171967Y-12810769D01*
X16171967Y-12810769D02*
X16171967Y-12734579D01*
X16171967Y-12734579D02*
X16162444Y-12715531D01*
X16162444Y-12715531D02*
X16152920Y-12706008D01*
X16152920Y-12706008D02*
X16133872Y-12696484D01*
X16133872Y-12696484D02*
X16095777Y-12696484D01*
X16095777Y-12696484D02*
X16076729Y-12706008D01*
X16076729Y-12706008D02*
X16067206Y-12715531D01*
X16067206Y-12715531D02*
X16057682Y-12734579D01*
X16057682Y-12734579D02*
X16057682Y-12782198D01*
X16057682Y-12782198D02*
X16067206Y-12801246D01*
X16067206Y-12801246D02*
X16076729Y-12810769D01*
X16076729Y-12810769D02*
X16095777Y-12820293D01*
X16095777Y-12820293D02*
X16133872Y-12820293D01*
X16133872Y-12820293D02*
X16152920Y-12810769D01*
X16152920Y-12810769D02*
X16162444Y-12801246D01*
X16162444Y-12801246D02*
X16171967Y-12782198D01*
X16352920Y-12696484D02*
X16257682Y-12696484D01*
X16257682Y-12696484D02*
X16248158Y-12791722D01*
X16248158Y-12791722D02*
X16257682Y-12782198D01*
X16257682Y-12782198D02*
X16276729Y-12772674D01*
X16276729Y-12772674D02*
X16324348Y-12772674D01*
X16324348Y-12772674D02*
X16343396Y-12782198D01*
X16343396Y-12782198D02*
X16352920Y-12791722D01*
X16352920Y-12791722D02*
X16362444Y-12810769D01*
X16362444Y-12810769D02*
X16362444Y-12858388D01*
X16362444Y-12858388D02*
X16352920Y-12877436D01*
X16352920Y-12877436D02*
X16343396Y-12886960D01*
X16343396Y-12886960D02*
X16324348Y-12896484D01*
X16324348Y-12896484D02*
X16276729Y-12896484D01*
X16276729Y-12896484D02*
X16257682Y-12886960D01*
X16257682Y-12886960D02*
X16248158Y-12877436D01*
X16438634Y-12696484D02*
X16438634Y-12734579D01*
X16514825Y-12696484D02*
X16514825Y-12734579D01*
X16810063Y-12972674D02*
X16800539Y-12963150D01*
X16800539Y-12963150D02*
X16781491Y-12934579D01*
X16781491Y-12934579D02*
X16771968Y-12915531D01*
X16771968Y-12915531D02*
X16762444Y-12886960D01*
X16762444Y-12886960D02*
X16752920Y-12839341D01*
X16752920Y-12839341D02*
X16752920Y-12801246D01*
X16752920Y-12801246D02*
X16762444Y-12753627D01*
X16762444Y-12753627D02*
X16771968Y-12725055D01*
X16771968Y-12725055D02*
X16781491Y-12706008D01*
X16781491Y-12706008D02*
X16800539Y-12677436D01*
X16800539Y-12677436D02*
X16810063Y-12667912D01*
X16876730Y-12715531D02*
X16886253Y-12706008D01*
X16886253Y-12706008D02*
X16905301Y-12696484D01*
X16905301Y-12696484D02*
X16952920Y-12696484D01*
X16952920Y-12696484D02*
X16971968Y-12706008D01*
X16971968Y-12706008D02*
X16981491Y-12715531D01*
X16981491Y-12715531D02*
X16991015Y-12734579D01*
X16991015Y-12734579D02*
X16991015Y-12753627D01*
X16991015Y-12753627D02*
X16981491Y-12782198D01*
X16981491Y-12782198D02*
X16867206Y-12896484D01*
X16867206Y-12896484D02*
X16991015Y-12896484D01*
X17229111Y-12896484D02*
X17229111Y-12696484D01*
X17314825Y-12896484D02*
X17314825Y-12791722D01*
X17314825Y-12791722D02*
X17305301Y-12772674D01*
X17305301Y-12772674D02*
X17286253Y-12763150D01*
X17286253Y-12763150D02*
X17257682Y-12763150D01*
X17257682Y-12763150D02*
X17238634Y-12772674D01*
X17238634Y-12772674D02*
X17229111Y-12782198D01*
X17438634Y-12896484D02*
X17419587Y-12886960D01*
X17419587Y-12886960D02*
X17410063Y-12877436D01*
X17410063Y-12877436D02*
X17400539Y-12858388D01*
X17400539Y-12858388D02*
X17400539Y-12801246D01*
X17400539Y-12801246D02*
X17410063Y-12782198D01*
X17410063Y-12782198D02*
X17419587Y-12772674D01*
X17419587Y-12772674D02*
X17438634Y-12763150D01*
X17438634Y-12763150D02*
X17467206Y-12763150D01*
X17467206Y-12763150D02*
X17486253Y-12772674D01*
X17486253Y-12772674D02*
X17495777Y-12782198D01*
X17495777Y-12782198D02*
X17505301Y-12801246D01*
X17505301Y-12801246D02*
X17505301Y-12858388D01*
X17505301Y-12858388D02*
X17495777Y-12877436D01*
X17495777Y-12877436D02*
X17486253Y-12886960D01*
X17486253Y-12886960D02*
X17467206Y-12896484D01*
X17467206Y-12896484D02*
X17438634Y-12896484D01*
X17619587Y-12896484D02*
X17600539Y-12886960D01*
X17600539Y-12886960D02*
X17591015Y-12867912D01*
X17591015Y-12867912D02*
X17591015Y-12696484D01*
X17771968Y-12886960D02*
X17752920Y-12896484D01*
X17752920Y-12896484D02*
X17714825Y-12896484D01*
X17714825Y-12896484D02*
X17695777Y-12886960D01*
X17695777Y-12886960D02*
X17686253Y-12867912D01*
X17686253Y-12867912D02*
X17686253Y-12791722D01*
X17686253Y-12791722D02*
X17695777Y-12772674D01*
X17695777Y-12772674D02*
X17714825Y-12763150D01*
X17714825Y-12763150D02*
X17752920Y-12763150D01*
X17752920Y-12763150D02*
X17771968Y-12772674D01*
X17771968Y-12772674D02*
X17781492Y-12791722D01*
X17781492Y-12791722D02*
X17781492Y-12810769D01*
X17781492Y-12810769D02*
X17686253Y-12829817D01*
X17857682Y-12886960D02*
X17876730Y-12896484D01*
X17876730Y-12896484D02*
X17914825Y-12896484D01*
X17914825Y-12896484D02*
X17933873Y-12886960D01*
X17933873Y-12886960D02*
X17943396Y-12867912D01*
X17943396Y-12867912D02*
X17943396Y-12858388D01*
X17943396Y-12858388D02*
X17933873Y-12839341D01*
X17933873Y-12839341D02*
X17914825Y-12829817D01*
X17914825Y-12829817D02*
X17886253Y-12829817D01*
X17886253Y-12829817D02*
X17867206Y-12820293D01*
X17867206Y-12820293D02*
X17857682Y-12801246D01*
X17857682Y-12801246D02*
X17857682Y-12791722D01*
X17857682Y-12791722D02*
X17867206Y-12772674D01*
X17867206Y-12772674D02*
X17886253Y-12763150D01*
X17886253Y-12763150D02*
X17914825Y-12763150D01*
X17914825Y-12763150D02*
X17933873Y-12772674D01*
X18010063Y-12972674D02*
X18019587Y-12963150D01*
X18019587Y-12963150D02*
X18038634Y-12934579D01*
X18038634Y-12934579D02*
X18048158Y-12915531D01*
X18048158Y-12915531D02*
X18057682Y-12886960D01*
X18057682Y-12886960D02*
X18067206Y-12839341D01*
X18067206Y-12839341D02*
X18067206Y-12801246D01*
X18067206Y-12801246D02*
X18057682Y-12753627D01*
X18057682Y-12753627D02*
X18048158Y-12725055D01*
X18048158Y-12725055D02*
X18038634Y-12706008D01*
X18038634Y-12706008D02*
X18019587Y-12677436D01*
X18019587Y-12677436D02*
X18010063Y-12667912D01*
X18371968Y-12972674D02*
X18362444Y-12963150D01*
X18362444Y-12963150D02*
X18343396Y-12934579D01*
X18343396Y-12934579D02*
X18333873Y-12915531D01*
X18333873Y-12915531D02*
X18324349Y-12886960D01*
X18324349Y-12886960D02*
X18314825Y-12839341D01*
X18314825Y-12839341D02*
X18314825Y-12801246D01*
X18314825Y-12801246D02*
X18324349Y-12753627D01*
X18324349Y-12753627D02*
X18333873Y-12725055D01*
X18333873Y-12725055D02*
X18343396Y-12706008D01*
X18343396Y-12706008D02*
X18362444Y-12677436D01*
X18362444Y-12677436D02*
X18371968Y-12667912D01*
X18448158Y-12763150D02*
X18448158Y-12896484D01*
X18448158Y-12782198D02*
X18457682Y-12772674D01*
X18457682Y-12772674D02*
X18476730Y-12763150D01*
X18476730Y-12763150D02*
X18505301Y-12763150D01*
X18505301Y-12763150D02*
X18524349Y-12772674D01*
X18524349Y-12772674D02*
X18533873Y-12791722D01*
X18533873Y-12791722D02*
X18533873Y-12896484D01*
X18657682Y-12896484D02*
X18638634Y-12886960D01*
X18638634Y-12886960D02*
X18629111Y-12877436D01*
X18629111Y-12877436D02*
X18619587Y-12858388D01*
X18619587Y-12858388D02*
X18619587Y-12801246D01*
X18619587Y-12801246D02*
X18629111Y-12782198D01*
X18629111Y-12782198D02*
X18638634Y-12772674D01*
X18638634Y-12772674D02*
X18657682Y-12763150D01*
X18657682Y-12763150D02*
X18686254Y-12763150D01*
X18686254Y-12763150D02*
X18705301Y-12772674D01*
X18705301Y-12772674D02*
X18714825Y-12782198D01*
X18714825Y-12782198D02*
X18724349Y-12801246D01*
X18724349Y-12801246D02*
X18724349Y-12858388D01*
X18724349Y-12858388D02*
X18714825Y-12877436D01*
X18714825Y-12877436D02*
X18705301Y-12886960D01*
X18705301Y-12886960D02*
X18686254Y-12896484D01*
X18686254Y-12896484D02*
X18657682Y-12896484D01*
X18781492Y-12763150D02*
X18857682Y-12763150D01*
X18810063Y-12696484D02*
X18810063Y-12867912D01*
X18810063Y-12867912D02*
X18819587Y-12886960D01*
X18819587Y-12886960D02*
X18838634Y-12896484D01*
X18838634Y-12896484D02*
X18857682Y-12896484D01*
X19076730Y-12763150D02*
X19076730Y-12963150D01*
X19076730Y-12772674D02*
X19095777Y-12763150D01*
X19095777Y-12763150D02*
X19133873Y-12763150D01*
X19133873Y-12763150D02*
X19152920Y-12772674D01*
X19152920Y-12772674D02*
X19162444Y-12782198D01*
X19162444Y-12782198D02*
X19171968Y-12801246D01*
X19171968Y-12801246D02*
X19171968Y-12858388D01*
X19171968Y-12858388D02*
X19162444Y-12877436D01*
X19162444Y-12877436D02*
X19152920Y-12886960D01*
X19152920Y-12886960D02*
X19133873Y-12896484D01*
X19133873Y-12896484D02*
X19095777Y-12896484D01*
X19095777Y-12896484D02*
X19076730Y-12886960D01*
X19286254Y-12896484D02*
X19267206Y-12886960D01*
X19267206Y-12886960D02*
X19257682Y-12867912D01*
X19257682Y-12867912D02*
X19257682Y-12696484D01*
X19448158Y-12896484D02*
X19448158Y-12791722D01*
X19448158Y-12791722D02*
X19438635Y-12772674D01*
X19438635Y-12772674D02*
X19419587Y-12763150D01*
X19419587Y-12763150D02*
X19381492Y-12763150D01*
X19381492Y-12763150D02*
X19362444Y-12772674D01*
X19448158Y-12886960D02*
X19429111Y-12896484D01*
X19429111Y-12896484D02*
X19381492Y-12896484D01*
X19381492Y-12896484D02*
X19362444Y-12886960D01*
X19362444Y-12886960D02*
X19352920Y-12867912D01*
X19352920Y-12867912D02*
X19352920Y-12848865D01*
X19352920Y-12848865D02*
X19362444Y-12829817D01*
X19362444Y-12829817D02*
X19381492Y-12820293D01*
X19381492Y-12820293D02*
X19429111Y-12820293D01*
X19429111Y-12820293D02*
X19448158Y-12810769D01*
X19514825Y-12763150D02*
X19591015Y-12763150D01*
X19543396Y-12696484D02*
X19543396Y-12867912D01*
X19543396Y-12867912D02*
X19552920Y-12886960D01*
X19552920Y-12886960D02*
X19571968Y-12896484D01*
X19571968Y-12896484D02*
X19591015Y-12896484D01*
X19733873Y-12886960D02*
X19714825Y-12896484D01*
X19714825Y-12896484D02*
X19676730Y-12896484D01*
X19676730Y-12896484D02*
X19657682Y-12886960D01*
X19657682Y-12886960D02*
X19648158Y-12867912D01*
X19648158Y-12867912D02*
X19648158Y-12791722D01*
X19648158Y-12791722D02*
X19657682Y-12772674D01*
X19657682Y-12772674D02*
X19676730Y-12763150D01*
X19676730Y-12763150D02*
X19714825Y-12763150D01*
X19714825Y-12763150D02*
X19733873Y-12772674D01*
X19733873Y-12772674D02*
X19743396Y-12791722D01*
X19743396Y-12791722D02*
X19743396Y-12810769D01*
X19743396Y-12810769D02*
X19648158Y-12829817D01*
X19914825Y-12896484D02*
X19914825Y-12696484D01*
X19914825Y-12886960D02*
X19895777Y-12896484D01*
X19895777Y-12896484D02*
X19857682Y-12896484D01*
X19857682Y-12896484D02*
X19838635Y-12886960D01*
X19838635Y-12886960D02*
X19829111Y-12877436D01*
X19829111Y-12877436D02*
X19819587Y-12858388D01*
X19819587Y-12858388D02*
X19819587Y-12801246D01*
X19819587Y-12801246D02*
X19829111Y-12782198D01*
X19829111Y-12782198D02*
X19838635Y-12772674D01*
X19838635Y-12772674D02*
X19857682Y-12763150D01*
X19857682Y-12763150D02*
X19895777Y-12763150D01*
X19895777Y-12763150D02*
X19914825Y-12772674D01*
X19991016Y-12972674D02*
X20000539Y-12963150D01*
X20000539Y-12963150D02*
X20019587Y-12934579D01*
X20019587Y-12934579D02*
X20029111Y-12915531D01*
X20029111Y-12915531D02*
X20038635Y-12886960D01*
X20038635Y-12886960D02*
X20048158Y-12839341D01*
X20048158Y-12839341D02*
X20048158Y-12801246D01*
X20048158Y-12801246D02*
X20038635Y-12753627D01*
X20038635Y-12753627D02*
X20029111Y-12725055D01*
X20029111Y-12725055D02*
X20019587Y-12706008D01*
X20019587Y-12706008D02*
X20000539Y-12677436D01*
X20000539Y-12677436D02*
X19991016Y-12667912D01*
M02*
