M48
; DRILL file {KiCad 7.0.11} date Fri 10 May 2024 02:22:34 PM EDT
; FORMAT={-:-/ absolute / metric / decimal}
; #@! TF.CreationDate,2024-05-10T14:22:34-04:00
; #@! TF.GenerationSoftware,Kicad,Pcbnew,7.0.11
; #@! TF.FileFunction,Plated,1,4,PTH
FMAT,2
METRIC
; #@! TA.AperFunction,Plated,PTH,ViaDrill
T1C0.200
; #@! TA.AperFunction,Plated,PTH,ComponentDrill
T2C0.200
; #@! TA.AperFunction,Plated,PTH,ComponentDrill
T3C0.300
; #@! TA.AperFunction,Plated,PTH,ViaDrill
T4C0.400
; #@! TA.AperFunction,Plated,PTH,ComponentDrill
T5C0.600
; #@! TA.AperFunction,Plated,PTH,ComponentDrill
T6C2.200
; #@! TA.AperFunction,Plated,PTH,ComponentDrill
T7C3.200
%
G90
G05
T1
X134.4Y-92.6
X145.4Y-100.1
X145.813Y-102.586
X146.4Y-100.6
X146.65Y-99.85
X147.4Y-99.1
X147.4Y-100.7
X149.4Y-106.6
X150.15Y-106.6
X155.9Y-106.6
X156.4Y-96.65
X156.9Y-105.6
X157.4Y-96.858
X157.4Y-100.1
X157.4Y-103.237
X157.4Y-104.6
X157.9Y-99.1
X160.4Y-96.65
X160.4Y-101.1
X160.4Y-102.058
X162.9Y-95.5
X168.15Y-101.6
X168.4Y-94.6
X168.4Y-95.6
X168.65Y-100.1
T2
X136.775Y-110.6
X137.4Y-110.1
X137.4Y-111.1
X138.025Y-110.6
X143.775Y-88.1
X144.4Y-87.6
X144.4Y-88.6
X145.025Y-88.1
T3
X150.15Y-116.6
X150.15Y-117.6
X150.9Y-117.1
X151.65Y-116.6
X151.65Y-117.6
T4
X134.9Y-95.6
X134.9Y-107.6
X135.9Y-97.6
X136.4Y-105.6
X140.4Y-84.325
X144.523Y-111.273
X145.9Y-91.6
X146.558Y-101.758
X147.9Y-86.6
X148.4Y-105.6
X151.9Y-91.727
X152.157Y-106.347
X152.598Y-93.289
X153.285Y-96.485
X153.9Y-93.6
X154.36Y-107.64
X156.9Y-91.6
X157.9Y-97.6
X157.9Y-106.6
X158.773Y-96.877
X160.9Y-90.1
X160.9Y-110.6
X162.4Y-100.6
X162.4Y-102.1
X162.9Y-103.973
X165.4Y-96.1
X165.4Y-107.1
X168.9Y-97.6
X168.9Y-105.6
T6
X149.9Y-111.6
X169.9Y-91.6
X169.9Y-111.6
T7
X136.9Y-86.1
X136.9Y-117.1
X167.9Y-86.1
X167.9Y-117.1
T5
X148.08Y-82.85G85X148.08Y-84.35
G05
X148.08Y-88.46G85X148.08Y-89.46
G05
X156.72Y-82.85G85X156.72Y-84.35
G05
X156.72Y-88.46G85X156.72Y-89.46
G05
M30
