G04 #@! TF.GenerationSoftware,KiCad,Pcbnew,7.0.11*
G04 #@! TF.CreationDate,2024-05-10T14:22:18-04:00*
G04 #@! TF.ProjectId,stepper-interface,73746570-7065-4722-9d69-6e7465726661,1.0*
G04 #@! TF.SameCoordinates,Original*
G04 #@! TF.FileFunction,Paste,Top*
G04 #@! TF.FilePolarity,Positive*
%FSLAX46Y46*%
G04 Gerber Fmt 4.6, Leading zero omitted, Abs format (unit mm)*
G04 Created by KiCad (PCBNEW 7.0.11) date 2024-05-10 14:22:18*
%MOMM*%
%LPD*%
G01*
G04 APERTURE LIST*
G04 Aperture macros list*
%AMRoundRect*
0 Rectangle with rounded corners*
0 $1 Rounding radius*
0 $2 $3 $4 $5 $6 $7 $8 $9 X,Y pos of 4 corners*
0 Add a 4 corners polygon primitive as box body*
4,1,4,$2,$3,$4,$5,$6,$7,$8,$9,$2,$3,0*
0 Add four circle primitives for the rounded corners*
1,1,$1+$1,$2,$3*
1,1,$1+$1,$4,$5*
1,1,$1+$1,$6,$7*
1,1,$1+$1,$8,$9*
0 Add four rect primitives between the rounded corners*
20,1,$1+$1,$2,$3,$4,$5,0*
20,1,$1+$1,$4,$5,$6,$7,0*
20,1,$1+$1,$6,$7,$8,$9,0*
20,1,$1+$1,$8,$9,$2,$3,0*%
G04 Aperture macros list end*
%ADD10C,0.010000*%
%ADD11R,0.500000X0.700000*%
%ADD12RoundRect,0.135000X0.185000X-0.135000X0.185000X0.135000X-0.185000X0.135000X-0.185000X-0.135000X0*%
%ADD13RoundRect,0.135000X-0.185000X0.135000X-0.185000X-0.135000X0.185000X-0.135000X0.185000X0.135000X0*%
%ADD14RoundRect,0.140000X0.170000X-0.140000X0.170000X0.140000X-0.170000X0.140000X-0.170000X-0.140000X0*%
%ADD15R,0.304800X0.609600*%
%ADD16R,1.193800X1.295400*%
%ADD17RoundRect,0.044118X0.105882X0.130882X-0.105882X0.130882X-0.105882X-0.130882X0.105882X-0.130882X0*%
%ADD18RoundRect,0.050000X0.250000X0.125000X-0.250000X0.125000X-0.250000X-0.125000X0.250000X-0.125000X0*%
%ADD19RoundRect,0.140000X-0.170000X0.140000X-0.170000X-0.140000X0.170000X-0.140000X0.170000X0.140000X0*%
%ADD20RoundRect,0.140000X-0.140000X-0.170000X0.140000X-0.170000X0.140000X0.170000X-0.140000X0.170000X0*%
%ADD21RoundRect,0.250000X0.625000X-0.312500X0.625000X0.312500X-0.625000X0.312500X-0.625000X-0.312500X0*%
%ADD22RoundRect,0.250000X0.250000X0.475000X-0.250000X0.475000X-0.250000X-0.475000X0.250000X-0.475000X0*%
%ADD23RoundRect,0.140000X0.140000X0.170000X-0.140000X0.170000X-0.140000X-0.170000X0.140000X-0.170000X0*%
%ADD24R,0.800000X0.900000*%
%ADD25R,0.254000X0.762000*%
%ADD26R,0.762000X0.254000*%
%ADD27R,6.350000X6.350000*%
%ADD28RoundRect,0.225000X-0.225000X-0.250000X0.225000X-0.250000X0.225000X0.250000X-0.225000X0.250000X0*%
%ADD29RoundRect,0.250000X-0.450000X0.262500X-0.450000X-0.262500X0.450000X-0.262500X0.450000X0.262500X0*%
%ADD30R,1.300000X2.150000*%
%ADD31R,0.800000X1.200000*%
%ADD32RoundRect,0.012400X0.142600X-0.287600X0.142600X0.287600X-0.142600X0.287600X-0.142600X-0.287600X0*%
G04 APERTURE END LIST*
D10*
X141150000Y-97150000D02*
X142250000Y-97150000D01*
X142250000Y-98450000D01*
X141150000Y-98450000D01*
X141150000Y-99650000D01*
X138650000Y-99650000D01*
X138650000Y-98450000D01*
X137550000Y-98450000D01*
X137550000Y-97150000D01*
X138650000Y-97150000D01*
X138650000Y-95250000D01*
X141150000Y-95250000D01*
X141150000Y-97150000D01*
G36*
X141150000Y-97150000D02*
G01*
X142250000Y-97150000D01*
X142250000Y-98450000D01*
X141150000Y-98450000D01*
X141150000Y-99650000D01*
X138650000Y-99650000D01*
X138650000Y-98450000D01*
X137550000Y-98450000D01*
X137550000Y-97150000D01*
X138650000Y-97150000D01*
X138650000Y-95250000D01*
X141150000Y-95250000D01*
X141150000Y-97150000D01*
G37*
X141150000Y-104750000D02*
X142250000Y-104750000D01*
X142250000Y-106050000D01*
X141150000Y-106050000D01*
X141150000Y-107950000D01*
X138650000Y-107950000D01*
X138650000Y-106050000D01*
X137550000Y-106050000D01*
X137550000Y-104750000D01*
X138650000Y-104750000D01*
X138650000Y-103550000D01*
X141150000Y-103550000D01*
X141150000Y-104750000D01*
G36*
X141150000Y-104750000D02*
G01*
X142250000Y-104750000D01*
X142250000Y-106050000D01*
X141150000Y-106050000D01*
X141150000Y-107950000D01*
X138650000Y-107950000D01*
X138650000Y-106050000D01*
X137550000Y-106050000D01*
X137550000Y-104750000D01*
X138650000Y-104750000D01*
X138650000Y-103550000D01*
X141150000Y-103550000D01*
X141150000Y-104750000D01*
G37*
X138175000Y-111270000D02*
X136625000Y-111270000D01*
X136625000Y-109930000D01*
X138175000Y-109930000D01*
X138175000Y-111270000D01*
G36*
X138175000Y-111270000D02*
G01*
X136625000Y-111270000D01*
X136625000Y-109930000D01*
X138175000Y-109930000D01*
X138175000Y-111270000D01*
G37*
X136425000Y-111040000D02*
X135700000Y-111040000D01*
X135700000Y-110810000D01*
X136425000Y-110810000D01*
X136425000Y-111040000D01*
G36*
X136425000Y-111040000D02*
G01*
X135700000Y-111040000D01*
X135700000Y-110810000D01*
X136425000Y-110810000D01*
X136425000Y-111040000D01*
G37*
X139100000Y-111040000D02*
X138375000Y-111040000D01*
X138375000Y-110810000D01*
X139100000Y-110810000D01*
X139100000Y-111040000D01*
G36*
X139100000Y-111040000D02*
G01*
X138375000Y-111040000D01*
X138375000Y-110810000D01*
X139100000Y-110810000D01*
X139100000Y-111040000D01*
G37*
X136425000Y-110390000D02*
X135700000Y-110390000D01*
X135700000Y-110160000D01*
X136425000Y-110160000D01*
X136425000Y-110390000D01*
G36*
X136425000Y-110390000D02*
G01*
X135700000Y-110390000D01*
X135700000Y-110160000D01*
X136425000Y-110160000D01*
X136425000Y-110390000D01*
G37*
X139100000Y-110390000D02*
X138375000Y-110390000D01*
X138375000Y-110160000D01*
X139100000Y-110160000D01*
X139100000Y-110390000D01*
G36*
X139100000Y-110390000D02*
G01*
X138375000Y-110390000D01*
X138375000Y-110160000D01*
X139100000Y-110160000D01*
X139100000Y-110390000D01*
G37*
D11*
X133400000Y-91150000D03*
X133400000Y-92050000D03*
X133400000Y-109150000D03*
X133400000Y-110050000D03*
X133400000Y-102050000D03*
X133400000Y-101150000D03*
D12*
X148400000Y-93110000D03*
X148400000Y-92090000D03*
D13*
X163400000Y-101090000D03*
X163400000Y-102110000D03*
D14*
X135400000Y-94080000D03*
X135400000Y-93120000D03*
D15*
X171049999Y-97545900D03*
X170400000Y-97545900D03*
X169750001Y-97545900D03*
X169750001Y-99654100D03*
X170400000Y-99654100D03*
X171049999Y-99654100D03*
D16*
X170680000Y-98600000D03*
D15*
X169635000Y-98600000D03*
D12*
X133400000Y-112110000D03*
X133400000Y-111090000D03*
D17*
X135185000Y-91925000D03*
X135615000Y-91925000D03*
D18*
X135400000Y-91275000D03*
D13*
X167400000Y-95090000D03*
X167400000Y-96110000D03*
D14*
X155400000Y-95080000D03*
X155400000Y-94120000D03*
X151400000Y-95080000D03*
X151400000Y-94120000D03*
D15*
X168049999Y-97545900D03*
X167400000Y-97545900D03*
X166750001Y-97545900D03*
X166750001Y-99654100D03*
X167400000Y-99654100D03*
X168049999Y-99654100D03*
D16*
X167680000Y-98600000D03*
D15*
X166635000Y-98600000D03*
D12*
X133400000Y-94110000D03*
X133400000Y-93090000D03*
X150400000Y-93110000D03*
X150400000Y-92090000D03*
D13*
X161400000Y-101090000D03*
X161400000Y-102110000D03*
D19*
X146900000Y-103620000D03*
X146900000Y-104580000D03*
D14*
X156400000Y-95080000D03*
X156400000Y-94120000D03*
D13*
X169400000Y-95090000D03*
X169400000Y-96110000D03*
D15*
X165049999Y-97545900D03*
X164400000Y-97545900D03*
X163750001Y-97545900D03*
X163750001Y-99654100D03*
X164400000Y-99654100D03*
X165049999Y-99654100D03*
D16*
X164680000Y-98600000D03*
D15*
X163635000Y-98600000D03*
D20*
X154420000Y-108600000D03*
X155380000Y-108600000D03*
D21*
X165400000Y-94562500D03*
X165400000Y-91637500D03*
D15*
X165049999Y-103545900D03*
X164400000Y-103545900D03*
X163750001Y-103545900D03*
X163750001Y-105654100D03*
X164400000Y-105654100D03*
X165049999Y-105654100D03*
D16*
X164680000Y-104600000D03*
D15*
X163635000Y-104600000D03*
D13*
X163400000Y-95090000D03*
X163400000Y-96110000D03*
D22*
X163850000Y-108100000D03*
X161950000Y-108100000D03*
D19*
X134900000Y-109120000D03*
X134900000Y-110080000D03*
D14*
X154400000Y-95080000D03*
X154400000Y-94120000D03*
D15*
X162049999Y-103545900D03*
X161400000Y-103545900D03*
X160750001Y-103545900D03*
X160750001Y-105654100D03*
X161400000Y-105654100D03*
X162049999Y-105654100D03*
D16*
X161680000Y-104600000D03*
D15*
X160635000Y-104600000D03*
D20*
X156420000Y-108600000D03*
X157380000Y-108600000D03*
D21*
X159400000Y-94562500D03*
X159400000Y-91637500D03*
D15*
X162049999Y-97545900D03*
X161400000Y-97545900D03*
X160750001Y-97545900D03*
X160750001Y-99654100D03*
X161400000Y-99654100D03*
X162049999Y-99654100D03*
D16*
X161680000Y-98600000D03*
D15*
X160635000Y-98600000D03*
D12*
X149400000Y-93110000D03*
X149400000Y-92090000D03*
X147400000Y-93110000D03*
X147400000Y-92090000D03*
D13*
X152400000Y-94090000D03*
X152400000Y-95110000D03*
D23*
X146380000Y-93100000D03*
X145420000Y-93100000D03*
D24*
X145175000Y-94675000D03*
X145175000Y-96525000D03*
X146625000Y-96525000D03*
X146625000Y-94675000D03*
D15*
X168049999Y-103545900D03*
X167400000Y-103545900D03*
X166750001Y-103545900D03*
X166750001Y-105654100D03*
X167400000Y-105654100D03*
X168049999Y-105654100D03*
D16*
X167680000Y-104600000D03*
D15*
X166635000Y-104600000D03*
D25*
X155650001Y-97675700D03*
X155150000Y-97675700D03*
X154650001Y-97675700D03*
X153650000Y-97675700D03*
X152650000Y-97675700D03*
X151649999Y-97675700D03*
X151150000Y-97675700D03*
X150650001Y-97675700D03*
X150149999Y-97675700D03*
X149650000Y-97675700D03*
X149149999Y-97675700D03*
D26*
X148475700Y-98349999D03*
X148475700Y-98850000D03*
X148475700Y-99349999D03*
X148475700Y-99850001D03*
X148475700Y-100350000D03*
X148475700Y-100849999D03*
X148475700Y-101350000D03*
X148475700Y-101850000D03*
X148475700Y-102350001D03*
X148475700Y-102850000D03*
X148475700Y-103349999D03*
X148475700Y-103850001D03*
X148475700Y-104350000D03*
X148475700Y-104850001D03*
D25*
X149149999Y-105524300D03*
X149650000Y-105524300D03*
X150149999Y-105524300D03*
X150650001Y-105524300D03*
X151150000Y-105524300D03*
X151649999Y-105524300D03*
X152650000Y-105524300D03*
X153150001Y-105524300D03*
X153650000Y-105524300D03*
X154650001Y-105524300D03*
X155150000Y-105524300D03*
X155650001Y-105524300D03*
D26*
X156324300Y-104850001D03*
X156324300Y-104350000D03*
X156324300Y-103349999D03*
X156324300Y-102850000D03*
X156324300Y-102350001D03*
X156324300Y-100849999D03*
X156324300Y-100350000D03*
X156324300Y-99850001D03*
X156324300Y-98850000D03*
X156324300Y-98349999D03*
D27*
X152400000Y-101600000D03*
D14*
X158464852Y-100580000D03*
X158464852Y-99620000D03*
D13*
X167400000Y-101090000D03*
X167400000Y-102110000D03*
D15*
X171049999Y-103545900D03*
X170400000Y-103545900D03*
X169750001Y-103545900D03*
X169750001Y-105654100D03*
X170400000Y-105654100D03*
X171049999Y-105654100D03*
D16*
X170680000Y-104600000D03*
D15*
X169635000Y-104600000D03*
D28*
X151625000Y-108600000D03*
X153175000Y-108600000D03*
D29*
X133400000Y-97687500D03*
X133400000Y-99512500D03*
D13*
X169400000Y-101090000D03*
X169400000Y-102110000D03*
D30*
X142425000Y-92670000D03*
X137375000Y-92670000D03*
D31*
X140525000Y-90375000D03*
X139275000Y-90375000D03*
D23*
X150380000Y-107600000D03*
X149420000Y-107600000D03*
D19*
X158464852Y-102620000D03*
X158464852Y-103580000D03*
D13*
X161400000Y-95090000D03*
X161400000Y-96110000D03*
D32*
X136425000Y-112000000D03*
X137075000Y-112000000D03*
X137725000Y-112000000D03*
X138375000Y-112000000D03*
X138375000Y-109200000D03*
X137725000Y-109200000D03*
X137075000Y-109200000D03*
X136425000Y-109200000D03*
D22*
X169850000Y-108100000D03*
X167950000Y-108100000D03*
D14*
X134900000Y-112080000D03*
X134900000Y-111120000D03*
M02*
