%TF.GenerationSoftware,KiCad,Pcbnew,7.0.11*%
%TF.CreationDate,2024-05-08T11:49:28-04:00*%
%TF.ProjectId,stepper-interface,73746570-7065-4722-9d69-6e7465726661,1.0*%
%TF.SameCoordinates,Original*%
%TF.FileFunction,Drillmap*%
%TF.FilePolarity,Positive*%
%FSLAX45Y45*%
G04 Gerber Fmt 4.5, Leading zero omitted, Abs format (unit mm)*
G04 Created by KiCad (PCBNEW 7.0.11) date 2024-05-08 11:49:28*
%MOMM*%
%LPD*%
G01*
G04 APERTURE LIST*
%ADD10C,0.100000*%
%ADD11C,0.200000*%
%ADD12C,0.220000*%
%ADD13C,0.320000*%
G04 APERTURE END LIST*
D10*
X13240000Y-11710000D02*
X13240000Y-8610000D01*
X17240000Y-8610000D02*
X17240000Y-11710000D01*
X16790000Y-12160000D02*
G75*
G03*
X17240000Y-11710000I0J450000D01*
G01*
X17240000Y-8610000D02*
G75*
G03*
X16790000Y-8160000I-450000J0D01*
G01*
X13240000Y-11710000D02*
G75*
G03*
X13690000Y-12160000I450000J0D01*
G01*
X16790000Y-12160000D02*
X13690000Y-12160000D01*
X13690000Y-8160000D02*
G75*
G03*
X13240000Y-8610000I0J-450000D01*
G01*
X13690000Y-8160000D02*
X16790000Y-8160000D01*
D11*
D10*
X13430000Y-9250000D02*
X13450000Y-9270000D01*
X13450000Y-9250000D02*
X13430000Y-9270000D01*
X14530000Y-10000000D02*
X14550000Y-10020000D01*
X14550000Y-10000000D02*
X14530000Y-10020000D01*
X14571300Y-10248638D02*
X14591300Y-10268638D01*
X14591300Y-10248638D02*
X14571300Y-10268638D01*
X14630000Y-10050000D02*
X14650000Y-10070000D01*
X14650000Y-10050000D02*
X14630000Y-10070000D01*
X14655000Y-9975000D02*
X14675000Y-9995000D01*
X14675000Y-9975000D02*
X14655000Y-9995000D01*
X14730000Y-9900000D02*
X14750000Y-9920000D01*
X14750000Y-9900000D02*
X14730000Y-9920000D01*
X14730000Y-10060000D02*
X14750000Y-10080000D01*
X14750000Y-10060000D02*
X14730000Y-10080000D01*
X14930000Y-10650000D02*
X14950000Y-10670000D01*
X14950000Y-10650000D02*
X14930000Y-10670000D01*
X15005000Y-10650000D02*
X15025000Y-10670000D01*
X15025000Y-10650000D02*
X15005000Y-10670000D01*
X15580000Y-10650000D02*
X15600000Y-10670000D01*
X15600000Y-10650000D02*
X15580000Y-10670000D01*
X15630000Y-9655000D02*
X15650000Y-9675000D01*
X15650000Y-9655000D02*
X15630000Y-9675000D01*
X15680000Y-10550000D02*
X15700000Y-10570000D01*
X15700000Y-10550000D02*
X15680000Y-10570000D01*
X15730000Y-9675774D02*
X15750000Y-9695774D01*
X15750000Y-9675774D02*
X15730000Y-9695774D01*
X15730000Y-10000000D02*
X15750000Y-10020000D01*
X15750000Y-10000000D02*
X15730000Y-10020000D01*
X15730000Y-10313700D02*
X15750000Y-10333700D01*
X15750000Y-10313700D02*
X15730000Y-10333700D01*
X15730000Y-10450000D02*
X15750000Y-10470000D01*
X15750000Y-10450000D02*
X15730000Y-10470000D01*
X15780000Y-9900000D02*
X15800000Y-9920000D01*
X15800000Y-9900000D02*
X15780000Y-9920000D01*
X16030000Y-9655000D02*
X16050000Y-9675000D01*
X16050000Y-9655000D02*
X16030000Y-9675000D01*
X16030000Y-10100000D02*
X16050000Y-10120000D01*
X16050000Y-10100000D02*
X16030000Y-10120000D01*
X16030000Y-10195813D02*
X16050000Y-10215813D01*
X16050000Y-10195813D02*
X16030000Y-10215813D01*
X16280000Y-9540000D02*
X16300000Y-9560000D01*
X16300000Y-9540000D02*
X16280000Y-9560000D01*
X16805000Y-10150000D02*
X16825000Y-10170000D01*
X16825000Y-10150000D02*
X16805000Y-10170000D01*
X16830000Y-9450000D02*
X16850000Y-9470000D01*
X16850000Y-9450000D02*
X16830000Y-9470000D01*
X16830000Y-9550000D02*
X16850000Y-9570000D01*
X16850000Y-9550000D02*
X16830000Y-9570000D01*
X16855000Y-10000000D02*
X16875000Y-10020000D01*
X16875000Y-10000000D02*
X16855000Y-10020000D01*
X13687500Y-11060000D02*
G75*
G03*
X13667500Y-11060000I-10000J0D01*
G01*
X13667500Y-11060000D02*
G75*
G03*
X13687500Y-11060000I10000J0D01*
G01*
X13750000Y-11010000D02*
G75*
G03*
X13730000Y-11010000I-10000J0D01*
G01*
X13730000Y-11010000D02*
G75*
G03*
X13750000Y-11010000I10000J0D01*
G01*
X13750000Y-11110000D02*
G75*
G03*
X13730000Y-11110000I-10000J0D01*
G01*
X13730000Y-11110000D02*
G75*
G03*
X13750000Y-11110000I10000J0D01*
G01*
X13812500Y-11060000D02*
G75*
G03*
X13792500Y-11060000I-10000J0D01*
G01*
X13792500Y-11060000D02*
G75*
G03*
X13812500Y-11060000I10000J0D01*
G01*
X14387500Y-8810000D02*
G75*
G03*
X14367500Y-8810000I-10000J0D01*
G01*
X14367500Y-8810000D02*
G75*
G03*
X14387500Y-8810000I10000J0D01*
G01*
X14450000Y-8760000D02*
G75*
G03*
X14430000Y-8760000I-10000J0D01*
G01*
X14430000Y-8760000D02*
G75*
G03*
X14450000Y-8760000I10000J0D01*
G01*
X14450000Y-8860000D02*
G75*
G03*
X14430000Y-8860000I-10000J0D01*
G01*
X14430000Y-8860000D02*
G75*
G03*
X14450000Y-8860000I10000J0D01*
G01*
X14512500Y-8810000D02*
G75*
G03*
X14492500Y-8810000I-10000J0D01*
G01*
X14492500Y-8810000D02*
G75*
G03*
X14512500Y-8810000I10000J0D01*
G01*
X15015000Y-11645000D02*
X15015000Y-11675000D01*
X15000000Y-11660000D02*
X15030000Y-11660000D01*
X15015000Y-11745000D02*
X15015000Y-11775000D01*
X15000000Y-11760000D02*
X15030000Y-11760000D01*
X15090000Y-11695000D02*
X15090000Y-11725000D01*
X15075000Y-11710000D02*
X15105000Y-11710000D01*
X15165000Y-11645000D02*
X15165000Y-11675000D01*
X15150000Y-11660000D02*
X15180000Y-11660000D01*
X15165000Y-11745000D02*
X15165000Y-11775000D01*
X15150000Y-11760000D02*
X15180000Y-11760000D01*
X13504142Y-9574142D02*
X13504142Y-9545858D01*
X13475858Y-9545858D01*
X13475858Y-9574142D01*
X13504142Y-9574142D01*
X13504142Y-10774142D02*
X13504142Y-10745858D01*
X13475858Y-10745858D01*
X13475858Y-10774142D01*
X13504142Y-10774142D01*
X13604142Y-9774142D02*
X13604142Y-9745858D01*
X13575858Y-9745858D01*
X13575858Y-9774142D01*
X13604142Y-9774142D01*
X13654142Y-10574142D02*
X13654142Y-10545858D01*
X13625858Y-10545858D01*
X13625858Y-10574142D01*
X13654142Y-10574142D01*
X14054142Y-8446642D02*
X14054142Y-8418358D01*
X14025858Y-8418358D01*
X14025858Y-8446642D01*
X14054142Y-8446642D01*
X14466442Y-11141442D02*
X14466442Y-11113158D01*
X14438158Y-11113158D01*
X14438158Y-11141442D01*
X14466442Y-11141442D01*
X14604142Y-9174142D02*
X14604142Y-9145858D01*
X14575858Y-9145858D01*
X14575858Y-9174142D01*
X14604142Y-9174142D01*
X14669942Y-10189942D02*
X14669942Y-10161658D01*
X14641658Y-10161658D01*
X14641658Y-10189942D01*
X14669942Y-10189942D01*
X14804142Y-8674142D02*
X14804142Y-8645858D01*
X14775858Y-8645858D01*
X14775858Y-8674142D01*
X14804142Y-8674142D01*
X14854142Y-10574142D02*
X14854142Y-10545858D01*
X14825858Y-10545858D01*
X14825858Y-10574142D01*
X14854142Y-10574142D01*
X15204142Y-9186842D02*
X15204142Y-9158558D01*
X15175858Y-9158558D01*
X15175858Y-9186842D01*
X15204142Y-9186842D01*
X15229860Y-10648835D02*
X15229860Y-10620550D01*
X15201575Y-10620550D01*
X15201575Y-10648835D01*
X15229860Y-10648835D01*
X15273894Y-9343062D02*
X15273894Y-9314777D01*
X15245609Y-9314777D01*
X15245609Y-9343062D01*
X15273894Y-9343062D01*
X15342625Y-9662625D02*
X15342625Y-9634341D01*
X15314341Y-9634341D01*
X15314341Y-9662625D01*
X15342625Y-9662625D01*
X15404142Y-9374142D02*
X15404142Y-9345858D01*
X15375858Y-9345858D01*
X15375858Y-9374142D01*
X15404142Y-9374142D01*
X15450182Y-10778103D02*
X15450182Y-10749818D01*
X15421897Y-10749818D01*
X15421897Y-10778103D01*
X15450182Y-10778103D01*
X15704142Y-9174142D02*
X15704142Y-9145858D01*
X15675858Y-9145858D01*
X15675858Y-9174142D01*
X15704142Y-9174142D01*
X15804142Y-9774142D02*
X15804142Y-9745858D01*
X15775858Y-9745858D01*
X15775858Y-9774142D01*
X15804142Y-9774142D01*
X15804142Y-10674142D02*
X15804142Y-10645858D01*
X15775858Y-10645858D01*
X15775858Y-10674142D01*
X15804142Y-10674142D01*
X15891442Y-9701842D02*
X15891442Y-9673558D01*
X15863158Y-9673558D01*
X15863158Y-9701842D01*
X15891442Y-9701842D01*
X16104142Y-9024142D02*
X16104142Y-8995858D01*
X16075858Y-8995858D01*
X16075858Y-9024142D01*
X16104142Y-9024142D01*
X16104142Y-11074142D02*
X16104142Y-11045858D01*
X16075858Y-11045858D01*
X16075858Y-11074142D01*
X16104142Y-11074142D01*
X16254142Y-10074142D02*
X16254142Y-10045858D01*
X16225858Y-10045858D01*
X16225858Y-10074142D01*
X16254142Y-10074142D01*
X16254142Y-10224142D02*
X16254142Y-10195858D01*
X16225858Y-10195858D01*
X16225858Y-10224142D01*
X16254142Y-10224142D01*
X16304142Y-10411442D02*
X16304142Y-10383158D01*
X16275858Y-10383158D01*
X16275858Y-10411442D01*
X16304142Y-10411442D01*
X16554142Y-9624142D02*
X16554142Y-9595858D01*
X16525858Y-9595858D01*
X16525858Y-9624142D01*
X16554142Y-9624142D01*
X16554142Y-10724142D02*
X16554142Y-10695858D01*
X16525858Y-10695858D01*
X16525858Y-10724142D01*
X16554142Y-10724142D01*
X16904142Y-9774142D02*
X16904142Y-9745858D01*
X16875858Y-9745858D01*
X16875858Y-9774142D01*
X16904142Y-9774142D01*
X16904142Y-10574142D02*
X16904142Y-10545858D01*
X16875858Y-10545858D01*
X16875858Y-10574142D01*
X16904142Y-10574142D01*
X14808000Y-8390000D02*
X14838000Y-8360000D01*
X14808000Y-8330000D01*
X14778000Y-8360000D01*
X14808000Y-8390000D01*
X14778000Y-8285000D02*
X14778000Y-8435000D01*
X14778000Y-8435000D02*
G75*
G03*
X14838000Y-8435000I30000J0D01*
G01*
X14838000Y-8435000D02*
X14838000Y-8285000D01*
X14838000Y-8285000D02*
G75*
G03*
X14778000Y-8285000I-30000J0D01*
G01*
X14808000Y-8926000D02*
X14838000Y-8896000D01*
X14808000Y-8866000D01*
X14778000Y-8896000D01*
X14808000Y-8926000D01*
X14778000Y-8846000D02*
X14778000Y-8946000D01*
X14778000Y-8946000D02*
G75*
G03*
X14838000Y-8946000I30000J0D01*
G01*
X14838000Y-8946000D02*
X14838000Y-8846000D01*
X14838000Y-8846000D02*
G75*
G03*
X14778000Y-8846000I-30000J0D01*
G01*
X15672000Y-8390000D02*
X15702000Y-8360000D01*
X15672000Y-8330000D01*
X15642000Y-8360000D01*
X15672000Y-8390000D01*
X15642000Y-8285000D02*
X15642000Y-8435000D01*
X15642000Y-8435000D02*
G75*
G03*
X15702000Y-8435000I30000J0D01*
G01*
X15702000Y-8435000D02*
X15702000Y-8285000D01*
X15702000Y-8285000D02*
G75*
G03*
X15642000Y-8285000I-30000J0D01*
G01*
X15672000Y-8926000D02*
X15702000Y-8896000D01*
X15672000Y-8866000D01*
X15642000Y-8896000D01*
X15672000Y-8926000D01*
X15642000Y-8846000D02*
X15642000Y-8946000D01*
X15642000Y-8946000D02*
G75*
G03*
X15702000Y-8946000I30000J0D01*
G01*
X15702000Y-8946000D02*
X15702000Y-8846000D01*
X15702000Y-8846000D02*
G75*
G03*
X15642000Y-8846000I-30000J0D01*
G01*
D12*
X14880000Y-11050000D02*
X15100000Y-11270000D01*
X15100000Y-11050000D02*
X14880000Y-11270000D01*
X15100000Y-11160000D02*
G75*
G03*
X14880000Y-11160000I-110000J0D01*
G01*
X14880000Y-11160000D02*
G75*
G03*
X15100000Y-11160000I110000J0D01*
G01*
X16880000Y-9050000D02*
X17100000Y-9270000D01*
X17100000Y-9050000D02*
X16880000Y-9270000D01*
X17100000Y-9160000D02*
G75*
G03*
X16880000Y-9160000I-110000J0D01*
G01*
X16880000Y-9160000D02*
G75*
G03*
X17100000Y-9160000I110000J0D01*
G01*
X16880000Y-11050000D02*
X17100000Y-11270000D01*
X17100000Y-11050000D02*
X16880000Y-11270000D01*
X17100000Y-11160000D02*
G75*
G03*
X16880000Y-11160000I-110000J0D01*
G01*
X16880000Y-11160000D02*
G75*
G03*
X17100000Y-11160000I110000J0D01*
G01*
D13*
X13530000Y-8450000D02*
X13850000Y-8770000D01*
X13850000Y-8450000D02*
X13530000Y-8770000D01*
X13690000Y-8450000D02*
X13690000Y-8770000D01*
X13530000Y-8610000D02*
X13850000Y-8610000D01*
X13530000Y-11550000D02*
X13850000Y-11870000D01*
X13850000Y-11550000D02*
X13530000Y-11870000D01*
X13690000Y-11550000D02*
X13690000Y-11870000D01*
X13530000Y-11710000D02*
X13850000Y-11710000D01*
X16630000Y-8450000D02*
X16950000Y-8770000D01*
X16950000Y-8450000D02*
X16630000Y-8770000D01*
X16790000Y-8450000D02*
X16790000Y-8770000D01*
X16630000Y-8610000D02*
X16950000Y-8610000D01*
X16630000Y-11550000D02*
X16950000Y-11870000D01*
X16950000Y-11550000D02*
X16630000Y-11870000D01*
X16790000Y-11550000D02*
X16790000Y-11870000D01*
X16630000Y-11710000D02*
X16950000Y-11710000D01*
D11*
X13495777Y-12476484D02*
X13495777Y-12276484D01*
X13495777Y-12276484D02*
X13543396Y-12276484D01*
X13543396Y-12276484D02*
X13571967Y-12286008D01*
X13571967Y-12286008D02*
X13591015Y-12305055D01*
X13591015Y-12305055D02*
X13600539Y-12324103D01*
X13600539Y-12324103D02*
X13610062Y-12362198D01*
X13610062Y-12362198D02*
X13610062Y-12390769D01*
X13610062Y-12390769D02*
X13600539Y-12428865D01*
X13600539Y-12428865D02*
X13591015Y-12447912D01*
X13591015Y-12447912D02*
X13571967Y-12466960D01*
X13571967Y-12466960D02*
X13543396Y-12476484D01*
X13543396Y-12476484D02*
X13495777Y-12476484D01*
X13695777Y-12476484D02*
X13695777Y-12343150D01*
X13695777Y-12381246D02*
X13705301Y-12362198D01*
X13705301Y-12362198D02*
X13714824Y-12352674D01*
X13714824Y-12352674D02*
X13733872Y-12343150D01*
X13733872Y-12343150D02*
X13752920Y-12343150D01*
X13819586Y-12476484D02*
X13819586Y-12343150D01*
X13819586Y-12276484D02*
X13810062Y-12286008D01*
X13810062Y-12286008D02*
X13819586Y-12295531D01*
X13819586Y-12295531D02*
X13829110Y-12286008D01*
X13829110Y-12286008D02*
X13819586Y-12276484D01*
X13819586Y-12276484D02*
X13819586Y-12295531D01*
X13943396Y-12476484D02*
X13924348Y-12466960D01*
X13924348Y-12466960D02*
X13914824Y-12447912D01*
X13914824Y-12447912D02*
X13914824Y-12276484D01*
X14048158Y-12476484D02*
X14029110Y-12466960D01*
X14029110Y-12466960D02*
X14019586Y-12447912D01*
X14019586Y-12447912D02*
X14019586Y-12276484D01*
X14276729Y-12476484D02*
X14276729Y-12276484D01*
X14276729Y-12276484D02*
X14343396Y-12419341D01*
X14343396Y-12419341D02*
X14410062Y-12276484D01*
X14410062Y-12276484D02*
X14410062Y-12476484D01*
X14591015Y-12476484D02*
X14591015Y-12371722D01*
X14591015Y-12371722D02*
X14581491Y-12352674D01*
X14581491Y-12352674D02*
X14562443Y-12343150D01*
X14562443Y-12343150D02*
X14524348Y-12343150D01*
X14524348Y-12343150D02*
X14505301Y-12352674D01*
X14591015Y-12466960D02*
X14571967Y-12476484D01*
X14571967Y-12476484D02*
X14524348Y-12476484D01*
X14524348Y-12476484D02*
X14505301Y-12466960D01*
X14505301Y-12466960D02*
X14495777Y-12447912D01*
X14495777Y-12447912D02*
X14495777Y-12428865D01*
X14495777Y-12428865D02*
X14505301Y-12409817D01*
X14505301Y-12409817D02*
X14524348Y-12400293D01*
X14524348Y-12400293D02*
X14571967Y-12400293D01*
X14571967Y-12400293D02*
X14591015Y-12390769D01*
X14686253Y-12343150D02*
X14686253Y-12543150D01*
X14686253Y-12352674D02*
X14705301Y-12343150D01*
X14705301Y-12343150D02*
X14743396Y-12343150D01*
X14743396Y-12343150D02*
X14762443Y-12352674D01*
X14762443Y-12352674D02*
X14771967Y-12362198D01*
X14771967Y-12362198D02*
X14781491Y-12381246D01*
X14781491Y-12381246D02*
X14781491Y-12438388D01*
X14781491Y-12438388D02*
X14771967Y-12457436D01*
X14771967Y-12457436D02*
X14762443Y-12466960D01*
X14762443Y-12466960D02*
X14743396Y-12476484D01*
X14743396Y-12476484D02*
X14705301Y-12476484D01*
X14705301Y-12476484D02*
X14686253Y-12466960D01*
X14867205Y-12457436D02*
X14876729Y-12466960D01*
X14876729Y-12466960D02*
X14867205Y-12476484D01*
X14867205Y-12476484D02*
X14857682Y-12466960D01*
X14857682Y-12466960D02*
X14867205Y-12457436D01*
X14867205Y-12457436D02*
X14867205Y-12476484D01*
X14867205Y-12352674D02*
X14876729Y-12362198D01*
X14876729Y-12362198D02*
X14867205Y-12371722D01*
X14867205Y-12371722D02*
X14857682Y-12362198D01*
X14857682Y-12362198D02*
X14867205Y-12352674D01*
X14867205Y-12352674D02*
X14867205Y-12371722D01*
D10*
X13215000Y-12795000D02*
X13235000Y-12815000D01*
X13235000Y-12795000D02*
X13215000Y-12815000D01*
D11*
X13533872Y-12696484D02*
X13552920Y-12696484D01*
X13552920Y-12696484D02*
X13571967Y-12706008D01*
X13571967Y-12706008D02*
X13581491Y-12715531D01*
X13581491Y-12715531D02*
X13591015Y-12734579D01*
X13591015Y-12734579D02*
X13600539Y-12772674D01*
X13600539Y-12772674D02*
X13600539Y-12820293D01*
X13600539Y-12820293D02*
X13591015Y-12858388D01*
X13591015Y-12858388D02*
X13581491Y-12877436D01*
X13581491Y-12877436D02*
X13571967Y-12886960D01*
X13571967Y-12886960D02*
X13552920Y-12896484D01*
X13552920Y-12896484D02*
X13533872Y-12896484D01*
X13533872Y-12896484D02*
X13514824Y-12886960D01*
X13514824Y-12886960D02*
X13505301Y-12877436D01*
X13505301Y-12877436D02*
X13495777Y-12858388D01*
X13495777Y-12858388D02*
X13486253Y-12820293D01*
X13486253Y-12820293D02*
X13486253Y-12772674D01*
X13486253Y-12772674D02*
X13495777Y-12734579D01*
X13495777Y-12734579D02*
X13505301Y-12715531D01*
X13505301Y-12715531D02*
X13514824Y-12706008D01*
X13514824Y-12706008D02*
X13533872Y-12696484D01*
X13686253Y-12877436D02*
X13695777Y-12886960D01*
X13695777Y-12886960D02*
X13686253Y-12896484D01*
X13686253Y-12896484D02*
X13676729Y-12886960D01*
X13676729Y-12886960D02*
X13686253Y-12877436D01*
X13686253Y-12877436D02*
X13686253Y-12896484D01*
X13771967Y-12715531D02*
X13781491Y-12706008D01*
X13781491Y-12706008D02*
X13800539Y-12696484D01*
X13800539Y-12696484D02*
X13848158Y-12696484D01*
X13848158Y-12696484D02*
X13867205Y-12706008D01*
X13867205Y-12706008D02*
X13876729Y-12715531D01*
X13876729Y-12715531D02*
X13886253Y-12734579D01*
X13886253Y-12734579D02*
X13886253Y-12753627D01*
X13886253Y-12753627D02*
X13876729Y-12782198D01*
X13876729Y-12782198D02*
X13762443Y-12896484D01*
X13762443Y-12896484D02*
X13886253Y-12896484D01*
X14010062Y-12696484D02*
X14029110Y-12696484D01*
X14029110Y-12696484D02*
X14048158Y-12706008D01*
X14048158Y-12706008D02*
X14057682Y-12715531D01*
X14057682Y-12715531D02*
X14067205Y-12734579D01*
X14067205Y-12734579D02*
X14076729Y-12772674D01*
X14076729Y-12772674D02*
X14076729Y-12820293D01*
X14076729Y-12820293D02*
X14067205Y-12858388D01*
X14067205Y-12858388D02*
X14057682Y-12877436D01*
X14057682Y-12877436D02*
X14048158Y-12886960D01*
X14048158Y-12886960D02*
X14029110Y-12896484D01*
X14029110Y-12896484D02*
X14010062Y-12896484D01*
X14010062Y-12896484D02*
X13991015Y-12886960D01*
X13991015Y-12886960D02*
X13981491Y-12877436D01*
X13981491Y-12877436D02*
X13971967Y-12858388D01*
X13971967Y-12858388D02*
X13962443Y-12820293D01*
X13962443Y-12820293D02*
X13962443Y-12772674D01*
X13962443Y-12772674D02*
X13971967Y-12734579D01*
X13971967Y-12734579D02*
X13981491Y-12715531D01*
X13981491Y-12715531D02*
X13991015Y-12706008D01*
X13991015Y-12706008D02*
X14010062Y-12696484D01*
X14200539Y-12696484D02*
X14219586Y-12696484D01*
X14219586Y-12696484D02*
X14238634Y-12706008D01*
X14238634Y-12706008D02*
X14248158Y-12715531D01*
X14248158Y-12715531D02*
X14257682Y-12734579D01*
X14257682Y-12734579D02*
X14267205Y-12772674D01*
X14267205Y-12772674D02*
X14267205Y-12820293D01*
X14267205Y-12820293D02*
X14257682Y-12858388D01*
X14257682Y-12858388D02*
X14248158Y-12877436D01*
X14248158Y-12877436D02*
X14238634Y-12886960D01*
X14238634Y-12886960D02*
X14219586Y-12896484D01*
X14219586Y-12896484D02*
X14200539Y-12896484D01*
X14200539Y-12896484D02*
X14181491Y-12886960D01*
X14181491Y-12886960D02*
X14171967Y-12877436D01*
X14171967Y-12877436D02*
X14162443Y-12858388D01*
X14162443Y-12858388D02*
X14152920Y-12820293D01*
X14152920Y-12820293D02*
X14152920Y-12772674D01*
X14152920Y-12772674D02*
X14162443Y-12734579D01*
X14162443Y-12734579D02*
X14171967Y-12715531D01*
X14171967Y-12715531D02*
X14181491Y-12706008D01*
X14181491Y-12706008D02*
X14200539Y-12696484D01*
X14352920Y-12896484D02*
X14352920Y-12763150D01*
X14352920Y-12782198D02*
X14362443Y-12772674D01*
X14362443Y-12772674D02*
X14381491Y-12763150D01*
X14381491Y-12763150D02*
X14410063Y-12763150D01*
X14410063Y-12763150D02*
X14429110Y-12772674D01*
X14429110Y-12772674D02*
X14438634Y-12791722D01*
X14438634Y-12791722D02*
X14438634Y-12896484D01*
X14438634Y-12791722D02*
X14448158Y-12772674D01*
X14448158Y-12772674D02*
X14467205Y-12763150D01*
X14467205Y-12763150D02*
X14495777Y-12763150D01*
X14495777Y-12763150D02*
X14514824Y-12772674D01*
X14514824Y-12772674D02*
X14524348Y-12791722D01*
X14524348Y-12791722D02*
X14524348Y-12896484D01*
X14619586Y-12896484D02*
X14619586Y-12763150D01*
X14619586Y-12782198D02*
X14629110Y-12772674D01*
X14629110Y-12772674D02*
X14648158Y-12763150D01*
X14648158Y-12763150D02*
X14676729Y-12763150D01*
X14676729Y-12763150D02*
X14695777Y-12772674D01*
X14695777Y-12772674D02*
X14705301Y-12791722D01*
X14705301Y-12791722D02*
X14705301Y-12896484D01*
X14705301Y-12791722D02*
X14714824Y-12772674D01*
X14714824Y-12772674D02*
X14733872Y-12763150D01*
X14733872Y-12763150D02*
X14762443Y-12763150D01*
X14762443Y-12763150D02*
X14781491Y-12772674D01*
X14781491Y-12772674D02*
X14791015Y-12791722D01*
X14791015Y-12791722D02*
X14791015Y-12896484D01*
X15181491Y-12686960D02*
X15010063Y-12944103D01*
X15438634Y-12696484D02*
X15457682Y-12696484D01*
X15457682Y-12696484D02*
X15476729Y-12706008D01*
X15476729Y-12706008D02*
X15486253Y-12715531D01*
X15486253Y-12715531D02*
X15495777Y-12734579D01*
X15495777Y-12734579D02*
X15505301Y-12772674D01*
X15505301Y-12772674D02*
X15505301Y-12820293D01*
X15505301Y-12820293D02*
X15495777Y-12858388D01*
X15495777Y-12858388D02*
X15486253Y-12877436D01*
X15486253Y-12877436D02*
X15476729Y-12886960D01*
X15476729Y-12886960D02*
X15457682Y-12896484D01*
X15457682Y-12896484D02*
X15438634Y-12896484D01*
X15438634Y-12896484D02*
X15419586Y-12886960D01*
X15419586Y-12886960D02*
X15410063Y-12877436D01*
X15410063Y-12877436D02*
X15400539Y-12858388D01*
X15400539Y-12858388D02*
X15391015Y-12820293D01*
X15391015Y-12820293D02*
X15391015Y-12772674D01*
X15391015Y-12772674D02*
X15400539Y-12734579D01*
X15400539Y-12734579D02*
X15410063Y-12715531D01*
X15410063Y-12715531D02*
X15419586Y-12706008D01*
X15419586Y-12706008D02*
X15438634Y-12696484D01*
X15591015Y-12877436D02*
X15600539Y-12886960D01*
X15600539Y-12886960D02*
X15591015Y-12896484D01*
X15591015Y-12896484D02*
X15581491Y-12886960D01*
X15581491Y-12886960D02*
X15591015Y-12877436D01*
X15591015Y-12877436D02*
X15591015Y-12896484D01*
X15724348Y-12696484D02*
X15743396Y-12696484D01*
X15743396Y-12696484D02*
X15762444Y-12706008D01*
X15762444Y-12706008D02*
X15771967Y-12715531D01*
X15771967Y-12715531D02*
X15781491Y-12734579D01*
X15781491Y-12734579D02*
X15791015Y-12772674D01*
X15791015Y-12772674D02*
X15791015Y-12820293D01*
X15791015Y-12820293D02*
X15781491Y-12858388D01*
X15781491Y-12858388D02*
X15771967Y-12877436D01*
X15771967Y-12877436D02*
X15762444Y-12886960D01*
X15762444Y-12886960D02*
X15743396Y-12896484D01*
X15743396Y-12896484D02*
X15724348Y-12896484D01*
X15724348Y-12896484D02*
X15705301Y-12886960D01*
X15705301Y-12886960D02*
X15695777Y-12877436D01*
X15695777Y-12877436D02*
X15686253Y-12858388D01*
X15686253Y-12858388D02*
X15676729Y-12820293D01*
X15676729Y-12820293D02*
X15676729Y-12772674D01*
X15676729Y-12772674D02*
X15686253Y-12734579D01*
X15686253Y-12734579D02*
X15695777Y-12715531D01*
X15695777Y-12715531D02*
X15705301Y-12706008D01*
X15705301Y-12706008D02*
X15724348Y-12696484D01*
X15914825Y-12696484D02*
X15933872Y-12696484D01*
X15933872Y-12696484D02*
X15952920Y-12706008D01*
X15952920Y-12706008D02*
X15962444Y-12715531D01*
X15962444Y-12715531D02*
X15971967Y-12734579D01*
X15971967Y-12734579D02*
X15981491Y-12772674D01*
X15981491Y-12772674D02*
X15981491Y-12820293D01*
X15981491Y-12820293D02*
X15971967Y-12858388D01*
X15971967Y-12858388D02*
X15962444Y-12877436D01*
X15962444Y-12877436D02*
X15952920Y-12886960D01*
X15952920Y-12886960D02*
X15933872Y-12896484D01*
X15933872Y-12896484D02*
X15914825Y-12896484D01*
X15914825Y-12896484D02*
X15895777Y-12886960D01*
X15895777Y-12886960D02*
X15886253Y-12877436D01*
X15886253Y-12877436D02*
X15876729Y-12858388D01*
X15876729Y-12858388D02*
X15867206Y-12820293D01*
X15867206Y-12820293D02*
X15867206Y-12772674D01*
X15867206Y-12772674D02*
X15876729Y-12734579D01*
X15876729Y-12734579D02*
X15886253Y-12715531D01*
X15886253Y-12715531D02*
X15895777Y-12706008D01*
X15895777Y-12706008D02*
X15914825Y-12696484D01*
X16048158Y-12696484D02*
X16181491Y-12696484D01*
X16181491Y-12696484D02*
X16095777Y-12896484D01*
X16267206Y-12896484D02*
X16305301Y-12896484D01*
X16305301Y-12896484D02*
X16324348Y-12886960D01*
X16324348Y-12886960D02*
X16333872Y-12877436D01*
X16333872Y-12877436D02*
X16352920Y-12848865D01*
X16352920Y-12848865D02*
X16362444Y-12810769D01*
X16362444Y-12810769D02*
X16362444Y-12734579D01*
X16362444Y-12734579D02*
X16352920Y-12715531D01*
X16352920Y-12715531D02*
X16343396Y-12706008D01*
X16343396Y-12706008D02*
X16324348Y-12696484D01*
X16324348Y-12696484D02*
X16286253Y-12696484D01*
X16286253Y-12696484D02*
X16267206Y-12706008D01*
X16267206Y-12706008D02*
X16257682Y-12715531D01*
X16257682Y-12715531D02*
X16248158Y-12734579D01*
X16248158Y-12734579D02*
X16248158Y-12782198D01*
X16248158Y-12782198D02*
X16257682Y-12801246D01*
X16257682Y-12801246D02*
X16267206Y-12810769D01*
X16267206Y-12810769D02*
X16286253Y-12820293D01*
X16286253Y-12820293D02*
X16324348Y-12820293D01*
X16324348Y-12820293D02*
X16343396Y-12810769D01*
X16343396Y-12810769D02*
X16352920Y-12801246D01*
X16352920Y-12801246D02*
X16362444Y-12782198D01*
X16438634Y-12696484D02*
X16438634Y-12734579D01*
X16514825Y-12696484D02*
X16514825Y-12734579D01*
X16810063Y-12972674D02*
X16800539Y-12963150D01*
X16800539Y-12963150D02*
X16781491Y-12934579D01*
X16781491Y-12934579D02*
X16771968Y-12915531D01*
X16771968Y-12915531D02*
X16762444Y-12886960D01*
X16762444Y-12886960D02*
X16752920Y-12839341D01*
X16752920Y-12839341D02*
X16752920Y-12801246D01*
X16752920Y-12801246D02*
X16762444Y-12753627D01*
X16762444Y-12753627D02*
X16771968Y-12725055D01*
X16771968Y-12725055D02*
X16781491Y-12706008D01*
X16781491Y-12706008D02*
X16800539Y-12677436D01*
X16800539Y-12677436D02*
X16810063Y-12667912D01*
X16876730Y-12715531D02*
X16886253Y-12706008D01*
X16886253Y-12706008D02*
X16905301Y-12696484D01*
X16905301Y-12696484D02*
X16952920Y-12696484D01*
X16952920Y-12696484D02*
X16971968Y-12706008D01*
X16971968Y-12706008D02*
X16981491Y-12715531D01*
X16981491Y-12715531D02*
X16991015Y-12734579D01*
X16991015Y-12734579D02*
X16991015Y-12753627D01*
X16991015Y-12753627D02*
X16981491Y-12782198D01*
X16981491Y-12782198D02*
X16867206Y-12896484D01*
X16867206Y-12896484D02*
X16991015Y-12896484D01*
X17171968Y-12696484D02*
X17076730Y-12696484D01*
X17076730Y-12696484D02*
X17067206Y-12791722D01*
X17067206Y-12791722D02*
X17076730Y-12782198D01*
X17076730Y-12782198D02*
X17095777Y-12772674D01*
X17095777Y-12772674D02*
X17143396Y-12772674D01*
X17143396Y-12772674D02*
X17162444Y-12782198D01*
X17162444Y-12782198D02*
X17171968Y-12791722D01*
X17171968Y-12791722D02*
X17181491Y-12810769D01*
X17181491Y-12810769D02*
X17181491Y-12858388D01*
X17181491Y-12858388D02*
X17171968Y-12877436D01*
X17171968Y-12877436D02*
X17162444Y-12886960D01*
X17162444Y-12886960D02*
X17143396Y-12896484D01*
X17143396Y-12896484D02*
X17095777Y-12896484D01*
X17095777Y-12896484D02*
X17076730Y-12886960D01*
X17076730Y-12886960D02*
X17067206Y-12877436D01*
X17419587Y-12896484D02*
X17419587Y-12696484D01*
X17505301Y-12896484D02*
X17505301Y-12791722D01*
X17505301Y-12791722D02*
X17495777Y-12772674D01*
X17495777Y-12772674D02*
X17476730Y-12763150D01*
X17476730Y-12763150D02*
X17448158Y-12763150D01*
X17448158Y-12763150D02*
X17429111Y-12772674D01*
X17429111Y-12772674D02*
X17419587Y-12782198D01*
X17629111Y-12896484D02*
X17610063Y-12886960D01*
X17610063Y-12886960D02*
X17600539Y-12877436D01*
X17600539Y-12877436D02*
X17591015Y-12858388D01*
X17591015Y-12858388D02*
X17591015Y-12801246D01*
X17591015Y-12801246D02*
X17600539Y-12782198D01*
X17600539Y-12782198D02*
X17610063Y-12772674D01*
X17610063Y-12772674D02*
X17629111Y-12763150D01*
X17629111Y-12763150D02*
X17657682Y-12763150D01*
X17657682Y-12763150D02*
X17676730Y-12772674D01*
X17676730Y-12772674D02*
X17686253Y-12782198D01*
X17686253Y-12782198D02*
X17695777Y-12801246D01*
X17695777Y-12801246D02*
X17695777Y-12858388D01*
X17695777Y-12858388D02*
X17686253Y-12877436D01*
X17686253Y-12877436D02*
X17676730Y-12886960D01*
X17676730Y-12886960D02*
X17657682Y-12896484D01*
X17657682Y-12896484D02*
X17629111Y-12896484D01*
X17810063Y-12896484D02*
X17791015Y-12886960D01*
X17791015Y-12886960D02*
X17781492Y-12867912D01*
X17781492Y-12867912D02*
X17781492Y-12696484D01*
X17962444Y-12886960D02*
X17943396Y-12896484D01*
X17943396Y-12896484D02*
X17905301Y-12896484D01*
X17905301Y-12896484D02*
X17886253Y-12886960D01*
X17886253Y-12886960D02*
X17876730Y-12867912D01*
X17876730Y-12867912D02*
X17876730Y-12791722D01*
X17876730Y-12791722D02*
X17886253Y-12772674D01*
X17886253Y-12772674D02*
X17905301Y-12763150D01*
X17905301Y-12763150D02*
X17943396Y-12763150D01*
X17943396Y-12763150D02*
X17962444Y-12772674D01*
X17962444Y-12772674D02*
X17971968Y-12791722D01*
X17971968Y-12791722D02*
X17971968Y-12810769D01*
X17971968Y-12810769D02*
X17876730Y-12829817D01*
X18048158Y-12886960D02*
X18067206Y-12896484D01*
X18067206Y-12896484D02*
X18105301Y-12896484D01*
X18105301Y-12896484D02*
X18124349Y-12886960D01*
X18124349Y-12886960D02*
X18133873Y-12867912D01*
X18133873Y-12867912D02*
X18133873Y-12858388D01*
X18133873Y-12858388D02*
X18124349Y-12839341D01*
X18124349Y-12839341D02*
X18105301Y-12829817D01*
X18105301Y-12829817D02*
X18076730Y-12829817D01*
X18076730Y-12829817D02*
X18057682Y-12820293D01*
X18057682Y-12820293D02*
X18048158Y-12801246D01*
X18048158Y-12801246D02*
X18048158Y-12791722D01*
X18048158Y-12791722D02*
X18057682Y-12772674D01*
X18057682Y-12772674D02*
X18076730Y-12763150D01*
X18076730Y-12763150D02*
X18105301Y-12763150D01*
X18105301Y-12763150D02*
X18124349Y-12772674D01*
X18200539Y-12972674D02*
X18210063Y-12963150D01*
X18210063Y-12963150D02*
X18229111Y-12934579D01*
X18229111Y-12934579D02*
X18238634Y-12915531D01*
X18238634Y-12915531D02*
X18248158Y-12886960D01*
X18248158Y-12886960D02*
X18257682Y-12839341D01*
X18257682Y-12839341D02*
X18257682Y-12801246D01*
X18257682Y-12801246D02*
X18248158Y-12753627D01*
X18248158Y-12753627D02*
X18238634Y-12725055D01*
X18238634Y-12725055D02*
X18229111Y-12706008D01*
X18229111Y-12706008D02*
X18210063Y-12677436D01*
X18210063Y-12677436D02*
X18200539Y-12667912D01*
D10*
X13235000Y-13069000D02*
G75*
G03*
X13215000Y-13069000I-10000J0D01*
G01*
X13215000Y-13069000D02*
G75*
G03*
X13235000Y-13069000I10000J0D01*
G01*
D11*
X13533872Y-12960484D02*
X13552920Y-12960484D01*
X13552920Y-12960484D02*
X13571967Y-12970008D01*
X13571967Y-12970008D02*
X13581491Y-12979531D01*
X13581491Y-12979531D02*
X13591015Y-12998579D01*
X13591015Y-12998579D02*
X13600539Y-13036674D01*
X13600539Y-13036674D02*
X13600539Y-13084293D01*
X13600539Y-13084293D02*
X13591015Y-13122388D01*
X13591015Y-13122388D02*
X13581491Y-13141436D01*
X13581491Y-13141436D02*
X13571967Y-13150960D01*
X13571967Y-13150960D02*
X13552920Y-13160484D01*
X13552920Y-13160484D02*
X13533872Y-13160484D01*
X13533872Y-13160484D02*
X13514824Y-13150960D01*
X13514824Y-13150960D02*
X13505301Y-13141436D01*
X13505301Y-13141436D02*
X13495777Y-13122388D01*
X13495777Y-13122388D02*
X13486253Y-13084293D01*
X13486253Y-13084293D02*
X13486253Y-13036674D01*
X13486253Y-13036674D02*
X13495777Y-12998579D01*
X13495777Y-12998579D02*
X13505301Y-12979531D01*
X13505301Y-12979531D02*
X13514824Y-12970008D01*
X13514824Y-12970008D02*
X13533872Y-12960484D01*
X13686253Y-13141436D02*
X13695777Y-13150960D01*
X13695777Y-13150960D02*
X13686253Y-13160484D01*
X13686253Y-13160484D02*
X13676729Y-13150960D01*
X13676729Y-13150960D02*
X13686253Y-13141436D01*
X13686253Y-13141436D02*
X13686253Y-13160484D01*
X13771967Y-12979531D02*
X13781491Y-12970008D01*
X13781491Y-12970008D02*
X13800539Y-12960484D01*
X13800539Y-12960484D02*
X13848158Y-12960484D01*
X13848158Y-12960484D02*
X13867205Y-12970008D01*
X13867205Y-12970008D02*
X13876729Y-12979531D01*
X13876729Y-12979531D02*
X13886253Y-12998579D01*
X13886253Y-12998579D02*
X13886253Y-13017627D01*
X13886253Y-13017627D02*
X13876729Y-13046198D01*
X13876729Y-13046198D02*
X13762443Y-13160484D01*
X13762443Y-13160484D02*
X13886253Y-13160484D01*
X14010062Y-12960484D02*
X14029110Y-12960484D01*
X14029110Y-12960484D02*
X14048158Y-12970008D01*
X14048158Y-12970008D02*
X14057682Y-12979531D01*
X14057682Y-12979531D02*
X14067205Y-12998579D01*
X14067205Y-12998579D02*
X14076729Y-13036674D01*
X14076729Y-13036674D02*
X14076729Y-13084293D01*
X14076729Y-13084293D02*
X14067205Y-13122388D01*
X14067205Y-13122388D02*
X14057682Y-13141436D01*
X14057682Y-13141436D02*
X14048158Y-13150960D01*
X14048158Y-13150960D02*
X14029110Y-13160484D01*
X14029110Y-13160484D02*
X14010062Y-13160484D01*
X14010062Y-13160484D02*
X13991015Y-13150960D01*
X13991015Y-13150960D02*
X13981491Y-13141436D01*
X13981491Y-13141436D02*
X13971967Y-13122388D01*
X13971967Y-13122388D02*
X13962443Y-13084293D01*
X13962443Y-13084293D02*
X13962443Y-13036674D01*
X13962443Y-13036674D02*
X13971967Y-12998579D01*
X13971967Y-12998579D02*
X13981491Y-12979531D01*
X13981491Y-12979531D02*
X13991015Y-12970008D01*
X13991015Y-12970008D02*
X14010062Y-12960484D01*
X14200539Y-12960484D02*
X14219586Y-12960484D01*
X14219586Y-12960484D02*
X14238634Y-12970008D01*
X14238634Y-12970008D02*
X14248158Y-12979531D01*
X14248158Y-12979531D02*
X14257682Y-12998579D01*
X14257682Y-12998579D02*
X14267205Y-13036674D01*
X14267205Y-13036674D02*
X14267205Y-13084293D01*
X14267205Y-13084293D02*
X14257682Y-13122388D01*
X14257682Y-13122388D02*
X14248158Y-13141436D01*
X14248158Y-13141436D02*
X14238634Y-13150960D01*
X14238634Y-13150960D02*
X14219586Y-13160484D01*
X14219586Y-13160484D02*
X14200539Y-13160484D01*
X14200539Y-13160484D02*
X14181491Y-13150960D01*
X14181491Y-13150960D02*
X14171967Y-13141436D01*
X14171967Y-13141436D02*
X14162443Y-13122388D01*
X14162443Y-13122388D02*
X14152920Y-13084293D01*
X14152920Y-13084293D02*
X14152920Y-13036674D01*
X14152920Y-13036674D02*
X14162443Y-12998579D01*
X14162443Y-12998579D02*
X14171967Y-12979531D01*
X14171967Y-12979531D02*
X14181491Y-12970008D01*
X14181491Y-12970008D02*
X14200539Y-12960484D01*
X14352920Y-13160484D02*
X14352920Y-13027150D01*
X14352920Y-13046198D02*
X14362443Y-13036674D01*
X14362443Y-13036674D02*
X14381491Y-13027150D01*
X14381491Y-13027150D02*
X14410063Y-13027150D01*
X14410063Y-13027150D02*
X14429110Y-13036674D01*
X14429110Y-13036674D02*
X14438634Y-13055722D01*
X14438634Y-13055722D02*
X14438634Y-13160484D01*
X14438634Y-13055722D02*
X14448158Y-13036674D01*
X14448158Y-13036674D02*
X14467205Y-13027150D01*
X14467205Y-13027150D02*
X14495777Y-13027150D01*
X14495777Y-13027150D02*
X14514824Y-13036674D01*
X14514824Y-13036674D02*
X14524348Y-13055722D01*
X14524348Y-13055722D02*
X14524348Y-13160484D01*
X14619586Y-13160484D02*
X14619586Y-13027150D01*
X14619586Y-13046198D02*
X14629110Y-13036674D01*
X14629110Y-13036674D02*
X14648158Y-13027150D01*
X14648158Y-13027150D02*
X14676729Y-13027150D01*
X14676729Y-13027150D02*
X14695777Y-13036674D01*
X14695777Y-13036674D02*
X14705301Y-13055722D01*
X14705301Y-13055722D02*
X14705301Y-13160484D01*
X14705301Y-13055722D02*
X14714824Y-13036674D01*
X14714824Y-13036674D02*
X14733872Y-13027150D01*
X14733872Y-13027150D02*
X14762443Y-13027150D01*
X14762443Y-13027150D02*
X14781491Y-13036674D01*
X14781491Y-13036674D02*
X14791015Y-13055722D01*
X14791015Y-13055722D02*
X14791015Y-13160484D01*
X15181491Y-12950960D02*
X15010063Y-13208103D01*
X15438634Y-12960484D02*
X15457682Y-12960484D01*
X15457682Y-12960484D02*
X15476729Y-12970008D01*
X15476729Y-12970008D02*
X15486253Y-12979531D01*
X15486253Y-12979531D02*
X15495777Y-12998579D01*
X15495777Y-12998579D02*
X15505301Y-13036674D01*
X15505301Y-13036674D02*
X15505301Y-13084293D01*
X15505301Y-13084293D02*
X15495777Y-13122388D01*
X15495777Y-13122388D02*
X15486253Y-13141436D01*
X15486253Y-13141436D02*
X15476729Y-13150960D01*
X15476729Y-13150960D02*
X15457682Y-13160484D01*
X15457682Y-13160484D02*
X15438634Y-13160484D01*
X15438634Y-13160484D02*
X15419586Y-13150960D01*
X15419586Y-13150960D02*
X15410063Y-13141436D01*
X15410063Y-13141436D02*
X15400539Y-13122388D01*
X15400539Y-13122388D02*
X15391015Y-13084293D01*
X15391015Y-13084293D02*
X15391015Y-13036674D01*
X15391015Y-13036674D02*
X15400539Y-12998579D01*
X15400539Y-12998579D02*
X15410063Y-12979531D01*
X15410063Y-12979531D02*
X15419586Y-12970008D01*
X15419586Y-12970008D02*
X15438634Y-12960484D01*
X15591015Y-13141436D02*
X15600539Y-13150960D01*
X15600539Y-13150960D02*
X15591015Y-13160484D01*
X15591015Y-13160484D02*
X15581491Y-13150960D01*
X15581491Y-13150960D02*
X15591015Y-13141436D01*
X15591015Y-13141436D02*
X15591015Y-13160484D01*
X15724348Y-12960484D02*
X15743396Y-12960484D01*
X15743396Y-12960484D02*
X15762444Y-12970008D01*
X15762444Y-12970008D02*
X15771967Y-12979531D01*
X15771967Y-12979531D02*
X15781491Y-12998579D01*
X15781491Y-12998579D02*
X15791015Y-13036674D01*
X15791015Y-13036674D02*
X15791015Y-13084293D01*
X15791015Y-13084293D02*
X15781491Y-13122388D01*
X15781491Y-13122388D02*
X15771967Y-13141436D01*
X15771967Y-13141436D02*
X15762444Y-13150960D01*
X15762444Y-13150960D02*
X15743396Y-13160484D01*
X15743396Y-13160484D02*
X15724348Y-13160484D01*
X15724348Y-13160484D02*
X15705301Y-13150960D01*
X15705301Y-13150960D02*
X15695777Y-13141436D01*
X15695777Y-13141436D02*
X15686253Y-13122388D01*
X15686253Y-13122388D02*
X15676729Y-13084293D01*
X15676729Y-13084293D02*
X15676729Y-13036674D01*
X15676729Y-13036674D02*
X15686253Y-12998579D01*
X15686253Y-12998579D02*
X15695777Y-12979531D01*
X15695777Y-12979531D02*
X15705301Y-12970008D01*
X15705301Y-12970008D02*
X15724348Y-12960484D01*
X15914825Y-12960484D02*
X15933872Y-12960484D01*
X15933872Y-12960484D02*
X15952920Y-12970008D01*
X15952920Y-12970008D02*
X15962444Y-12979531D01*
X15962444Y-12979531D02*
X15971967Y-12998579D01*
X15971967Y-12998579D02*
X15981491Y-13036674D01*
X15981491Y-13036674D02*
X15981491Y-13084293D01*
X15981491Y-13084293D02*
X15971967Y-13122388D01*
X15971967Y-13122388D02*
X15962444Y-13141436D01*
X15962444Y-13141436D02*
X15952920Y-13150960D01*
X15952920Y-13150960D02*
X15933872Y-13160484D01*
X15933872Y-13160484D02*
X15914825Y-13160484D01*
X15914825Y-13160484D02*
X15895777Y-13150960D01*
X15895777Y-13150960D02*
X15886253Y-13141436D01*
X15886253Y-13141436D02*
X15876729Y-13122388D01*
X15876729Y-13122388D02*
X15867206Y-13084293D01*
X15867206Y-13084293D02*
X15867206Y-13036674D01*
X15867206Y-13036674D02*
X15876729Y-12998579D01*
X15876729Y-12998579D02*
X15886253Y-12979531D01*
X15886253Y-12979531D02*
X15895777Y-12970008D01*
X15895777Y-12970008D02*
X15914825Y-12960484D01*
X16048158Y-12960484D02*
X16181491Y-12960484D01*
X16181491Y-12960484D02*
X16095777Y-13160484D01*
X16267206Y-13160484D02*
X16305301Y-13160484D01*
X16305301Y-13160484D02*
X16324348Y-13150960D01*
X16324348Y-13150960D02*
X16333872Y-13141436D01*
X16333872Y-13141436D02*
X16352920Y-13112865D01*
X16352920Y-13112865D02*
X16362444Y-13074769D01*
X16362444Y-13074769D02*
X16362444Y-12998579D01*
X16362444Y-12998579D02*
X16352920Y-12979531D01*
X16352920Y-12979531D02*
X16343396Y-12970008D01*
X16343396Y-12970008D02*
X16324348Y-12960484D01*
X16324348Y-12960484D02*
X16286253Y-12960484D01*
X16286253Y-12960484D02*
X16267206Y-12970008D01*
X16267206Y-12970008D02*
X16257682Y-12979531D01*
X16257682Y-12979531D02*
X16248158Y-12998579D01*
X16248158Y-12998579D02*
X16248158Y-13046198D01*
X16248158Y-13046198D02*
X16257682Y-13065246D01*
X16257682Y-13065246D02*
X16267206Y-13074769D01*
X16267206Y-13074769D02*
X16286253Y-13084293D01*
X16286253Y-13084293D02*
X16324348Y-13084293D01*
X16324348Y-13084293D02*
X16343396Y-13074769D01*
X16343396Y-13074769D02*
X16352920Y-13065246D01*
X16352920Y-13065246D02*
X16362444Y-13046198D01*
X16438634Y-12960484D02*
X16438634Y-12998579D01*
X16514825Y-12960484D02*
X16514825Y-12998579D01*
X16810063Y-13236674D02*
X16800539Y-13227150D01*
X16800539Y-13227150D02*
X16781491Y-13198579D01*
X16781491Y-13198579D02*
X16771968Y-13179531D01*
X16771968Y-13179531D02*
X16762444Y-13150960D01*
X16762444Y-13150960D02*
X16752920Y-13103341D01*
X16752920Y-13103341D02*
X16752920Y-13065246D01*
X16752920Y-13065246D02*
X16762444Y-13017627D01*
X16762444Y-13017627D02*
X16771968Y-12989055D01*
X16771968Y-12989055D02*
X16781491Y-12970008D01*
X16781491Y-12970008D02*
X16800539Y-12941436D01*
X16800539Y-12941436D02*
X16810063Y-12931912D01*
X16914825Y-13046198D02*
X16895777Y-13036674D01*
X16895777Y-13036674D02*
X16886253Y-13027150D01*
X16886253Y-13027150D02*
X16876730Y-13008103D01*
X16876730Y-13008103D02*
X16876730Y-12998579D01*
X16876730Y-12998579D02*
X16886253Y-12979531D01*
X16886253Y-12979531D02*
X16895777Y-12970008D01*
X16895777Y-12970008D02*
X16914825Y-12960484D01*
X16914825Y-12960484D02*
X16952920Y-12960484D01*
X16952920Y-12960484D02*
X16971968Y-12970008D01*
X16971968Y-12970008D02*
X16981491Y-12979531D01*
X16981491Y-12979531D02*
X16991015Y-12998579D01*
X16991015Y-12998579D02*
X16991015Y-13008103D01*
X16991015Y-13008103D02*
X16981491Y-13027150D01*
X16981491Y-13027150D02*
X16971968Y-13036674D01*
X16971968Y-13036674D02*
X16952920Y-13046198D01*
X16952920Y-13046198D02*
X16914825Y-13046198D01*
X16914825Y-13046198D02*
X16895777Y-13055722D01*
X16895777Y-13055722D02*
X16886253Y-13065246D01*
X16886253Y-13065246D02*
X16876730Y-13084293D01*
X16876730Y-13084293D02*
X16876730Y-13122388D01*
X16876730Y-13122388D02*
X16886253Y-13141436D01*
X16886253Y-13141436D02*
X16895777Y-13150960D01*
X16895777Y-13150960D02*
X16914825Y-13160484D01*
X16914825Y-13160484D02*
X16952920Y-13160484D01*
X16952920Y-13160484D02*
X16971968Y-13150960D01*
X16971968Y-13150960D02*
X16981491Y-13141436D01*
X16981491Y-13141436D02*
X16991015Y-13122388D01*
X16991015Y-13122388D02*
X16991015Y-13084293D01*
X16991015Y-13084293D02*
X16981491Y-13065246D01*
X16981491Y-13065246D02*
X16971968Y-13055722D01*
X16971968Y-13055722D02*
X16952920Y-13046198D01*
X17229111Y-13160484D02*
X17229111Y-12960484D01*
X17314825Y-13160484D02*
X17314825Y-13055722D01*
X17314825Y-13055722D02*
X17305301Y-13036674D01*
X17305301Y-13036674D02*
X17286253Y-13027150D01*
X17286253Y-13027150D02*
X17257682Y-13027150D01*
X17257682Y-13027150D02*
X17238634Y-13036674D01*
X17238634Y-13036674D02*
X17229111Y-13046198D01*
X17438634Y-13160484D02*
X17419587Y-13150960D01*
X17419587Y-13150960D02*
X17410063Y-13141436D01*
X17410063Y-13141436D02*
X17400539Y-13122388D01*
X17400539Y-13122388D02*
X17400539Y-13065246D01*
X17400539Y-13065246D02*
X17410063Y-13046198D01*
X17410063Y-13046198D02*
X17419587Y-13036674D01*
X17419587Y-13036674D02*
X17438634Y-13027150D01*
X17438634Y-13027150D02*
X17467206Y-13027150D01*
X17467206Y-13027150D02*
X17486253Y-13036674D01*
X17486253Y-13036674D02*
X17495777Y-13046198D01*
X17495777Y-13046198D02*
X17505301Y-13065246D01*
X17505301Y-13065246D02*
X17505301Y-13122388D01*
X17505301Y-13122388D02*
X17495777Y-13141436D01*
X17495777Y-13141436D02*
X17486253Y-13150960D01*
X17486253Y-13150960D02*
X17467206Y-13160484D01*
X17467206Y-13160484D02*
X17438634Y-13160484D01*
X17619587Y-13160484D02*
X17600539Y-13150960D01*
X17600539Y-13150960D02*
X17591015Y-13131912D01*
X17591015Y-13131912D02*
X17591015Y-12960484D01*
X17771968Y-13150960D02*
X17752920Y-13160484D01*
X17752920Y-13160484D02*
X17714825Y-13160484D01*
X17714825Y-13160484D02*
X17695777Y-13150960D01*
X17695777Y-13150960D02*
X17686253Y-13131912D01*
X17686253Y-13131912D02*
X17686253Y-13055722D01*
X17686253Y-13055722D02*
X17695777Y-13036674D01*
X17695777Y-13036674D02*
X17714825Y-13027150D01*
X17714825Y-13027150D02*
X17752920Y-13027150D01*
X17752920Y-13027150D02*
X17771968Y-13036674D01*
X17771968Y-13036674D02*
X17781492Y-13055722D01*
X17781492Y-13055722D02*
X17781492Y-13074769D01*
X17781492Y-13074769D02*
X17686253Y-13093817D01*
X17857682Y-13150960D02*
X17876730Y-13160484D01*
X17876730Y-13160484D02*
X17914825Y-13160484D01*
X17914825Y-13160484D02*
X17933873Y-13150960D01*
X17933873Y-13150960D02*
X17943396Y-13131912D01*
X17943396Y-13131912D02*
X17943396Y-13122388D01*
X17943396Y-13122388D02*
X17933873Y-13103341D01*
X17933873Y-13103341D02*
X17914825Y-13093817D01*
X17914825Y-13093817D02*
X17886253Y-13093817D01*
X17886253Y-13093817D02*
X17867206Y-13084293D01*
X17867206Y-13084293D02*
X17857682Y-13065246D01*
X17857682Y-13065246D02*
X17857682Y-13055722D01*
X17857682Y-13055722D02*
X17867206Y-13036674D01*
X17867206Y-13036674D02*
X17886253Y-13027150D01*
X17886253Y-13027150D02*
X17914825Y-13027150D01*
X17914825Y-13027150D02*
X17933873Y-13036674D01*
X18010063Y-13236674D02*
X18019587Y-13227150D01*
X18019587Y-13227150D02*
X18038634Y-13198579D01*
X18038634Y-13198579D02*
X18048158Y-13179531D01*
X18048158Y-13179531D02*
X18057682Y-13150960D01*
X18057682Y-13150960D02*
X18067206Y-13103341D01*
X18067206Y-13103341D02*
X18067206Y-13065246D01*
X18067206Y-13065246D02*
X18057682Y-13017627D01*
X18057682Y-13017627D02*
X18048158Y-12989055D01*
X18048158Y-12989055D02*
X18038634Y-12970008D01*
X18038634Y-12970008D02*
X18019587Y-12941436D01*
X18019587Y-12941436D02*
X18010063Y-12931912D01*
D10*
X13220000Y-13318000D02*
X13220000Y-13348000D01*
X13205000Y-13333000D02*
X13235000Y-13333000D01*
D11*
X13533872Y-13224484D02*
X13552920Y-13224484D01*
X13552920Y-13224484D02*
X13571967Y-13234008D01*
X13571967Y-13234008D02*
X13581491Y-13243531D01*
X13581491Y-13243531D02*
X13591015Y-13262579D01*
X13591015Y-13262579D02*
X13600539Y-13300674D01*
X13600539Y-13300674D02*
X13600539Y-13348293D01*
X13600539Y-13348293D02*
X13591015Y-13386388D01*
X13591015Y-13386388D02*
X13581491Y-13405436D01*
X13581491Y-13405436D02*
X13571967Y-13414960D01*
X13571967Y-13414960D02*
X13552920Y-13424484D01*
X13552920Y-13424484D02*
X13533872Y-13424484D01*
X13533872Y-13424484D02*
X13514824Y-13414960D01*
X13514824Y-13414960D02*
X13505301Y-13405436D01*
X13505301Y-13405436D02*
X13495777Y-13386388D01*
X13495777Y-13386388D02*
X13486253Y-13348293D01*
X13486253Y-13348293D02*
X13486253Y-13300674D01*
X13486253Y-13300674D02*
X13495777Y-13262579D01*
X13495777Y-13262579D02*
X13505301Y-13243531D01*
X13505301Y-13243531D02*
X13514824Y-13234008D01*
X13514824Y-13234008D02*
X13533872Y-13224484D01*
X13686253Y-13405436D02*
X13695777Y-13414960D01*
X13695777Y-13414960D02*
X13686253Y-13424484D01*
X13686253Y-13424484D02*
X13676729Y-13414960D01*
X13676729Y-13414960D02*
X13686253Y-13405436D01*
X13686253Y-13405436D02*
X13686253Y-13424484D01*
X13762443Y-13224484D02*
X13886253Y-13224484D01*
X13886253Y-13224484D02*
X13819586Y-13300674D01*
X13819586Y-13300674D02*
X13848158Y-13300674D01*
X13848158Y-13300674D02*
X13867205Y-13310198D01*
X13867205Y-13310198D02*
X13876729Y-13319722D01*
X13876729Y-13319722D02*
X13886253Y-13338769D01*
X13886253Y-13338769D02*
X13886253Y-13386388D01*
X13886253Y-13386388D02*
X13876729Y-13405436D01*
X13876729Y-13405436D02*
X13867205Y-13414960D01*
X13867205Y-13414960D02*
X13848158Y-13424484D01*
X13848158Y-13424484D02*
X13791015Y-13424484D01*
X13791015Y-13424484D02*
X13771967Y-13414960D01*
X13771967Y-13414960D02*
X13762443Y-13405436D01*
X14010062Y-13224484D02*
X14029110Y-13224484D01*
X14029110Y-13224484D02*
X14048158Y-13234008D01*
X14048158Y-13234008D02*
X14057682Y-13243531D01*
X14057682Y-13243531D02*
X14067205Y-13262579D01*
X14067205Y-13262579D02*
X14076729Y-13300674D01*
X14076729Y-13300674D02*
X14076729Y-13348293D01*
X14076729Y-13348293D02*
X14067205Y-13386388D01*
X14067205Y-13386388D02*
X14057682Y-13405436D01*
X14057682Y-13405436D02*
X14048158Y-13414960D01*
X14048158Y-13414960D02*
X14029110Y-13424484D01*
X14029110Y-13424484D02*
X14010062Y-13424484D01*
X14010062Y-13424484D02*
X13991015Y-13414960D01*
X13991015Y-13414960D02*
X13981491Y-13405436D01*
X13981491Y-13405436D02*
X13971967Y-13386388D01*
X13971967Y-13386388D02*
X13962443Y-13348293D01*
X13962443Y-13348293D02*
X13962443Y-13300674D01*
X13962443Y-13300674D02*
X13971967Y-13262579D01*
X13971967Y-13262579D02*
X13981491Y-13243531D01*
X13981491Y-13243531D02*
X13991015Y-13234008D01*
X13991015Y-13234008D02*
X14010062Y-13224484D01*
X14200539Y-13224484D02*
X14219586Y-13224484D01*
X14219586Y-13224484D02*
X14238634Y-13234008D01*
X14238634Y-13234008D02*
X14248158Y-13243531D01*
X14248158Y-13243531D02*
X14257682Y-13262579D01*
X14257682Y-13262579D02*
X14267205Y-13300674D01*
X14267205Y-13300674D02*
X14267205Y-13348293D01*
X14267205Y-13348293D02*
X14257682Y-13386388D01*
X14257682Y-13386388D02*
X14248158Y-13405436D01*
X14248158Y-13405436D02*
X14238634Y-13414960D01*
X14238634Y-13414960D02*
X14219586Y-13424484D01*
X14219586Y-13424484D02*
X14200539Y-13424484D01*
X14200539Y-13424484D02*
X14181491Y-13414960D01*
X14181491Y-13414960D02*
X14171967Y-13405436D01*
X14171967Y-13405436D02*
X14162443Y-13386388D01*
X14162443Y-13386388D02*
X14152920Y-13348293D01*
X14152920Y-13348293D02*
X14152920Y-13300674D01*
X14152920Y-13300674D02*
X14162443Y-13262579D01*
X14162443Y-13262579D02*
X14171967Y-13243531D01*
X14171967Y-13243531D02*
X14181491Y-13234008D01*
X14181491Y-13234008D02*
X14200539Y-13224484D01*
X14352920Y-13424484D02*
X14352920Y-13291150D01*
X14352920Y-13310198D02*
X14362443Y-13300674D01*
X14362443Y-13300674D02*
X14381491Y-13291150D01*
X14381491Y-13291150D02*
X14410063Y-13291150D01*
X14410063Y-13291150D02*
X14429110Y-13300674D01*
X14429110Y-13300674D02*
X14438634Y-13319722D01*
X14438634Y-13319722D02*
X14438634Y-13424484D01*
X14438634Y-13319722D02*
X14448158Y-13300674D01*
X14448158Y-13300674D02*
X14467205Y-13291150D01*
X14467205Y-13291150D02*
X14495777Y-13291150D01*
X14495777Y-13291150D02*
X14514824Y-13300674D01*
X14514824Y-13300674D02*
X14524348Y-13319722D01*
X14524348Y-13319722D02*
X14524348Y-13424484D01*
X14619586Y-13424484D02*
X14619586Y-13291150D01*
X14619586Y-13310198D02*
X14629110Y-13300674D01*
X14629110Y-13300674D02*
X14648158Y-13291150D01*
X14648158Y-13291150D02*
X14676729Y-13291150D01*
X14676729Y-13291150D02*
X14695777Y-13300674D01*
X14695777Y-13300674D02*
X14705301Y-13319722D01*
X14705301Y-13319722D02*
X14705301Y-13424484D01*
X14705301Y-13319722D02*
X14714824Y-13300674D01*
X14714824Y-13300674D02*
X14733872Y-13291150D01*
X14733872Y-13291150D02*
X14762443Y-13291150D01*
X14762443Y-13291150D02*
X14781491Y-13300674D01*
X14781491Y-13300674D02*
X14791015Y-13319722D01*
X14791015Y-13319722D02*
X14791015Y-13424484D01*
X15181491Y-13214960D02*
X15010063Y-13472103D01*
X15438634Y-13224484D02*
X15457682Y-13224484D01*
X15457682Y-13224484D02*
X15476729Y-13234008D01*
X15476729Y-13234008D02*
X15486253Y-13243531D01*
X15486253Y-13243531D02*
X15495777Y-13262579D01*
X15495777Y-13262579D02*
X15505301Y-13300674D01*
X15505301Y-13300674D02*
X15505301Y-13348293D01*
X15505301Y-13348293D02*
X15495777Y-13386388D01*
X15495777Y-13386388D02*
X15486253Y-13405436D01*
X15486253Y-13405436D02*
X15476729Y-13414960D01*
X15476729Y-13414960D02*
X15457682Y-13424484D01*
X15457682Y-13424484D02*
X15438634Y-13424484D01*
X15438634Y-13424484D02*
X15419586Y-13414960D01*
X15419586Y-13414960D02*
X15410063Y-13405436D01*
X15410063Y-13405436D02*
X15400539Y-13386388D01*
X15400539Y-13386388D02*
X15391015Y-13348293D01*
X15391015Y-13348293D02*
X15391015Y-13300674D01*
X15391015Y-13300674D02*
X15400539Y-13262579D01*
X15400539Y-13262579D02*
X15410063Y-13243531D01*
X15410063Y-13243531D02*
X15419586Y-13234008D01*
X15419586Y-13234008D02*
X15438634Y-13224484D01*
X15591015Y-13405436D02*
X15600539Y-13414960D01*
X15600539Y-13414960D02*
X15591015Y-13424484D01*
X15591015Y-13424484D02*
X15581491Y-13414960D01*
X15581491Y-13414960D02*
X15591015Y-13405436D01*
X15591015Y-13405436D02*
X15591015Y-13424484D01*
X15724348Y-13224484D02*
X15743396Y-13224484D01*
X15743396Y-13224484D02*
X15762444Y-13234008D01*
X15762444Y-13234008D02*
X15771967Y-13243531D01*
X15771967Y-13243531D02*
X15781491Y-13262579D01*
X15781491Y-13262579D02*
X15791015Y-13300674D01*
X15791015Y-13300674D02*
X15791015Y-13348293D01*
X15791015Y-13348293D02*
X15781491Y-13386388D01*
X15781491Y-13386388D02*
X15771967Y-13405436D01*
X15771967Y-13405436D02*
X15762444Y-13414960D01*
X15762444Y-13414960D02*
X15743396Y-13424484D01*
X15743396Y-13424484D02*
X15724348Y-13424484D01*
X15724348Y-13424484D02*
X15705301Y-13414960D01*
X15705301Y-13414960D02*
X15695777Y-13405436D01*
X15695777Y-13405436D02*
X15686253Y-13386388D01*
X15686253Y-13386388D02*
X15676729Y-13348293D01*
X15676729Y-13348293D02*
X15676729Y-13300674D01*
X15676729Y-13300674D02*
X15686253Y-13262579D01*
X15686253Y-13262579D02*
X15695777Y-13243531D01*
X15695777Y-13243531D02*
X15705301Y-13234008D01*
X15705301Y-13234008D02*
X15724348Y-13224484D01*
X15981491Y-13424484D02*
X15867206Y-13424484D01*
X15924348Y-13424484D02*
X15924348Y-13224484D01*
X15924348Y-13224484D02*
X15905301Y-13253055D01*
X15905301Y-13253055D02*
X15886253Y-13272103D01*
X15886253Y-13272103D02*
X15867206Y-13281627D01*
X16171967Y-13424484D02*
X16057682Y-13424484D01*
X16114825Y-13424484D02*
X16114825Y-13224484D01*
X16114825Y-13224484D02*
X16095777Y-13253055D01*
X16095777Y-13253055D02*
X16076729Y-13272103D01*
X16076729Y-13272103D02*
X16057682Y-13281627D01*
X16286253Y-13310198D02*
X16267206Y-13300674D01*
X16267206Y-13300674D02*
X16257682Y-13291150D01*
X16257682Y-13291150D02*
X16248158Y-13272103D01*
X16248158Y-13272103D02*
X16248158Y-13262579D01*
X16248158Y-13262579D02*
X16257682Y-13243531D01*
X16257682Y-13243531D02*
X16267206Y-13234008D01*
X16267206Y-13234008D02*
X16286253Y-13224484D01*
X16286253Y-13224484D02*
X16324348Y-13224484D01*
X16324348Y-13224484D02*
X16343396Y-13234008D01*
X16343396Y-13234008D02*
X16352920Y-13243531D01*
X16352920Y-13243531D02*
X16362444Y-13262579D01*
X16362444Y-13262579D02*
X16362444Y-13272103D01*
X16362444Y-13272103D02*
X16352920Y-13291150D01*
X16352920Y-13291150D02*
X16343396Y-13300674D01*
X16343396Y-13300674D02*
X16324348Y-13310198D01*
X16324348Y-13310198D02*
X16286253Y-13310198D01*
X16286253Y-13310198D02*
X16267206Y-13319722D01*
X16267206Y-13319722D02*
X16257682Y-13329246D01*
X16257682Y-13329246D02*
X16248158Y-13348293D01*
X16248158Y-13348293D02*
X16248158Y-13386388D01*
X16248158Y-13386388D02*
X16257682Y-13405436D01*
X16257682Y-13405436D02*
X16267206Y-13414960D01*
X16267206Y-13414960D02*
X16286253Y-13424484D01*
X16286253Y-13424484D02*
X16324348Y-13424484D01*
X16324348Y-13424484D02*
X16343396Y-13414960D01*
X16343396Y-13414960D02*
X16352920Y-13405436D01*
X16352920Y-13405436D02*
X16362444Y-13386388D01*
X16362444Y-13386388D02*
X16362444Y-13348293D01*
X16362444Y-13348293D02*
X16352920Y-13329246D01*
X16352920Y-13329246D02*
X16343396Y-13319722D01*
X16343396Y-13319722D02*
X16324348Y-13310198D01*
X16438634Y-13224484D02*
X16438634Y-13262579D01*
X16514825Y-13224484D02*
X16514825Y-13262579D01*
X16810063Y-13500674D02*
X16800539Y-13491150D01*
X16800539Y-13491150D02*
X16781491Y-13462579D01*
X16781491Y-13462579D02*
X16771968Y-13443531D01*
X16771968Y-13443531D02*
X16762444Y-13414960D01*
X16762444Y-13414960D02*
X16752920Y-13367341D01*
X16752920Y-13367341D02*
X16752920Y-13329246D01*
X16752920Y-13329246D02*
X16762444Y-13281627D01*
X16762444Y-13281627D02*
X16771968Y-13253055D01*
X16771968Y-13253055D02*
X16781491Y-13234008D01*
X16781491Y-13234008D02*
X16800539Y-13205436D01*
X16800539Y-13205436D02*
X16810063Y-13195912D01*
X16981491Y-13224484D02*
X16886253Y-13224484D01*
X16886253Y-13224484D02*
X16876730Y-13319722D01*
X16876730Y-13319722D02*
X16886253Y-13310198D01*
X16886253Y-13310198D02*
X16905301Y-13300674D01*
X16905301Y-13300674D02*
X16952920Y-13300674D01*
X16952920Y-13300674D02*
X16971968Y-13310198D01*
X16971968Y-13310198D02*
X16981491Y-13319722D01*
X16981491Y-13319722D02*
X16991015Y-13338769D01*
X16991015Y-13338769D02*
X16991015Y-13386388D01*
X16991015Y-13386388D02*
X16981491Y-13405436D01*
X16981491Y-13405436D02*
X16971968Y-13414960D01*
X16971968Y-13414960D02*
X16952920Y-13424484D01*
X16952920Y-13424484D02*
X16905301Y-13424484D01*
X16905301Y-13424484D02*
X16886253Y-13414960D01*
X16886253Y-13414960D02*
X16876730Y-13405436D01*
X17229111Y-13424484D02*
X17229111Y-13224484D01*
X17314825Y-13424484D02*
X17314825Y-13319722D01*
X17314825Y-13319722D02*
X17305301Y-13300674D01*
X17305301Y-13300674D02*
X17286253Y-13291150D01*
X17286253Y-13291150D02*
X17257682Y-13291150D01*
X17257682Y-13291150D02*
X17238634Y-13300674D01*
X17238634Y-13300674D02*
X17229111Y-13310198D01*
X17438634Y-13424484D02*
X17419587Y-13414960D01*
X17419587Y-13414960D02*
X17410063Y-13405436D01*
X17410063Y-13405436D02*
X17400539Y-13386388D01*
X17400539Y-13386388D02*
X17400539Y-13329246D01*
X17400539Y-13329246D02*
X17410063Y-13310198D01*
X17410063Y-13310198D02*
X17419587Y-13300674D01*
X17419587Y-13300674D02*
X17438634Y-13291150D01*
X17438634Y-13291150D02*
X17467206Y-13291150D01*
X17467206Y-13291150D02*
X17486253Y-13300674D01*
X17486253Y-13300674D02*
X17495777Y-13310198D01*
X17495777Y-13310198D02*
X17505301Y-13329246D01*
X17505301Y-13329246D02*
X17505301Y-13386388D01*
X17505301Y-13386388D02*
X17495777Y-13405436D01*
X17495777Y-13405436D02*
X17486253Y-13414960D01*
X17486253Y-13414960D02*
X17467206Y-13424484D01*
X17467206Y-13424484D02*
X17438634Y-13424484D01*
X17619587Y-13424484D02*
X17600539Y-13414960D01*
X17600539Y-13414960D02*
X17591015Y-13395912D01*
X17591015Y-13395912D02*
X17591015Y-13224484D01*
X17771968Y-13414960D02*
X17752920Y-13424484D01*
X17752920Y-13424484D02*
X17714825Y-13424484D01*
X17714825Y-13424484D02*
X17695777Y-13414960D01*
X17695777Y-13414960D02*
X17686253Y-13395912D01*
X17686253Y-13395912D02*
X17686253Y-13319722D01*
X17686253Y-13319722D02*
X17695777Y-13300674D01*
X17695777Y-13300674D02*
X17714825Y-13291150D01*
X17714825Y-13291150D02*
X17752920Y-13291150D01*
X17752920Y-13291150D02*
X17771968Y-13300674D01*
X17771968Y-13300674D02*
X17781492Y-13319722D01*
X17781492Y-13319722D02*
X17781492Y-13338769D01*
X17781492Y-13338769D02*
X17686253Y-13357817D01*
X17857682Y-13414960D02*
X17876730Y-13424484D01*
X17876730Y-13424484D02*
X17914825Y-13424484D01*
X17914825Y-13424484D02*
X17933873Y-13414960D01*
X17933873Y-13414960D02*
X17943396Y-13395912D01*
X17943396Y-13395912D02*
X17943396Y-13386388D01*
X17943396Y-13386388D02*
X17933873Y-13367341D01*
X17933873Y-13367341D02*
X17914825Y-13357817D01*
X17914825Y-13357817D02*
X17886253Y-13357817D01*
X17886253Y-13357817D02*
X17867206Y-13348293D01*
X17867206Y-13348293D02*
X17857682Y-13329246D01*
X17857682Y-13329246D02*
X17857682Y-13319722D01*
X17857682Y-13319722D02*
X17867206Y-13300674D01*
X17867206Y-13300674D02*
X17886253Y-13291150D01*
X17886253Y-13291150D02*
X17914825Y-13291150D01*
X17914825Y-13291150D02*
X17933873Y-13300674D01*
X18010063Y-13500674D02*
X18019587Y-13491150D01*
X18019587Y-13491150D02*
X18038634Y-13462579D01*
X18038634Y-13462579D02*
X18048158Y-13443531D01*
X18048158Y-13443531D02*
X18057682Y-13414960D01*
X18057682Y-13414960D02*
X18067206Y-13367341D01*
X18067206Y-13367341D02*
X18067206Y-13329246D01*
X18067206Y-13329246D02*
X18057682Y-13281627D01*
X18057682Y-13281627D02*
X18048158Y-13253055D01*
X18048158Y-13253055D02*
X18038634Y-13234008D01*
X18038634Y-13234008D02*
X18019587Y-13205436D01*
X18019587Y-13205436D02*
X18010063Y-13195912D01*
D10*
X13229142Y-13611142D02*
X13229142Y-13582858D01*
X13200858Y-13582858D01*
X13200858Y-13611142D01*
X13229142Y-13611142D01*
D11*
X13533872Y-13488484D02*
X13552920Y-13488484D01*
X13552920Y-13488484D02*
X13571967Y-13498008D01*
X13571967Y-13498008D02*
X13581491Y-13507531D01*
X13581491Y-13507531D02*
X13591015Y-13526579D01*
X13591015Y-13526579D02*
X13600539Y-13564674D01*
X13600539Y-13564674D02*
X13600539Y-13612293D01*
X13600539Y-13612293D02*
X13591015Y-13650388D01*
X13591015Y-13650388D02*
X13581491Y-13669436D01*
X13581491Y-13669436D02*
X13571967Y-13678960D01*
X13571967Y-13678960D02*
X13552920Y-13688484D01*
X13552920Y-13688484D02*
X13533872Y-13688484D01*
X13533872Y-13688484D02*
X13514824Y-13678960D01*
X13514824Y-13678960D02*
X13505301Y-13669436D01*
X13505301Y-13669436D02*
X13495777Y-13650388D01*
X13495777Y-13650388D02*
X13486253Y-13612293D01*
X13486253Y-13612293D02*
X13486253Y-13564674D01*
X13486253Y-13564674D02*
X13495777Y-13526579D01*
X13495777Y-13526579D02*
X13505301Y-13507531D01*
X13505301Y-13507531D02*
X13514824Y-13498008D01*
X13514824Y-13498008D02*
X13533872Y-13488484D01*
X13686253Y-13669436D02*
X13695777Y-13678960D01*
X13695777Y-13678960D02*
X13686253Y-13688484D01*
X13686253Y-13688484D02*
X13676729Y-13678960D01*
X13676729Y-13678960D02*
X13686253Y-13669436D01*
X13686253Y-13669436D02*
X13686253Y-13688484D01*
X13867205Y-13555150D02*
X13867205Y-13688484D01*
X13819586Y-13478960D02*
X13771967Y-13621817D01*
X13771967Y-13621817D02*
X13895777Y-13621817D01*
X14010062Y-13488484D02*
X14029110Y-13488484D01*
X14029110Y-13488484D02*
X14048158Y-13498008D01*
X14048158Y-13498008D02*
X14057682Y-13507531D01*
X14057682Y-13507531D02*
X14067205Y-13526579D01*
X14067205Y-13526579D02*
X14076729Y-13564674D01*
X14076729Y-13564674D02*
X14076729Y-13612293D01*
X14076729Y-13612293D02*
X14067205Y-13650388D01*
X14067205Y-13650388D02*
X14057682Y-13669436D01*
X14057682Y-13669436D02*
X14048158Y-13678960D01*
X14048158Y-13678960D02*
X14029110Y-13688484D01*
X14029110Y-13688484D02*
X14010062Y-13688484D01*
X14010062Y-13688484D02*
X13991015Y-13678960D01*
X13991015Y-13678960D02*
X13981491Y-13669436D01*
X13981491Y-13669436D02*
X13971967Y-13650388D01*
X13971967Y-13650388D02*
X13962443Y-13612293D01*
X13962443Y-13612293D02*
X13962443Y-13564674D01*
X13962443Y-13564674D02*
X13971967Y-13526579D01*
X13971967Y-13526579D02*
X13981491Y-13507531D01*
X13981491Y-13507531D02*
X13991015Y-13498008D01*
X13991015Y-13498008D02*
X14010062Y-13488484D01*
X14200539Y-13488484D02*
X14219586Y-13488484D01*
X14219586Y-13488484D02*
X14238634Y-13498008D01*
X14238634Y-13498008D02*
X14248158Y-13507531D01*
X14248158Y-13507531D02*
X14257682Y-13526579D01*
X14257682Y-13526579D02*
X14267205Y-13564674D01*
X14267205Y-13564674D02*
X14267205Y-13612293D01*
X14267205Y-13612293D02*
X14257682Y-13650388D01*
X14257682Y-13650388D02*
X14248158Y-13669436D01*
X14248158Y-13669436D02*
X14238634Y-13678960D01*
X14238634Y-13678960D02*
X14219586Y-13688484D01*
X14219586Y-13688484D02*
X14200539Y-13688484D01*
X14200539Y-13688484D02*
X14181491Y-13678960D01*
X14181491Y-13678960D02*
X14171967Y-13669436D01*
X14171967Y-13669436D02*
X14162443Y-13650388D01*
X14162443Y-13650388D02*
X14152920Y-13612293D01*
X14152920Y-13612293D02*
X14152920Y-13564674D01*
X14152920Y-13564674D02*
X14162443Y-13526579D01*
X14162443Y-13526579D02*
X14171967Y-13507531D01*
X14171967Y-13507531D02*
X14181491Y-13498008D01*
X14181491Y-13498008D02*
X14200539Y-13488484D01*
X14352920Y-13688484D02*
X14352920Y-13555150D01*
X14352920Y-13574198D02*
X14362443Y-13564674D01*
X14362443Y-13564674D02*
X14381491Y-13555150D01*
X14381491Y-13555150D02*
X14410063Y-13555150D01*
X14410063Y-13555150D02*
X14429110Y-13564674D01*
X14429110Y-13564674D02*
X14438634Y-13583722D01*
X14438634Y-13583722D02*
X14438634Y-13688484D01*
X14438634Y-13583722D02*
X14448158Y-13564674D01*
X14448158Y-13564674D02*
X14467205Y-13555150D01*
X14467205Y-13555150D02*
X14495777Y-13555150D01*
X14495777Y-13555150D02*
X14514824Y-13564674D01*
X14514824Y-13564674D02*
X14524348Y-13583722D01*
X14524348Y-13583722D02*
X14524348Y-13688484D01*
X14619586Y-13688484D02*
X14619586Y-13555150D01*
X14619586Y-13574198D02*
X14629110Y-13564674D01*
X14629110Y-13564674D02*
X14648158Y-13555150D01*
X14648158Y-13555150D02*
X14676729Y-13555150D01*
X14676729Y-13555150D02*
X14695777Y-13564674D01*
X14695777Y-13564674D02*
X14705301Y-13583722D01*
X14705301Y-13583722D02*
X14705301Y-13688484D01*
X14705301Y-13583722D02*
X14714824Y-13564674D01*
X14714824Y-13564674D02*
X14733872Y-13555150D01*
X14733872Y-13555150D02*
X14762443Y-13555150D01*
X14762443Y-13555150D02*
X14781491Y-13564674D01*
X14781491Y-13564674D02*
X14791015Y-13583722D01*
X14791015Y-13583722D02*
X14791015Y-13688484D01*
X15181491Y-13478960D02*
X15010063Y-13736103D01*
X15438634Y-13488484D02*
X15457682Y-13488484D01*
X15457682Y-13488484D02*
X15476729Y-13498008D01*
X15476729Y-13498008D02*
X15486253Y-13507531D01*
X15486253Y-13507531D02*
X15495777Y-13526579D01*
X15495777Y-13526579D02*
X15505301Y-13564674D01*
X15505301Y-13564674D02*
X15505301Y-13612293D01*
X15505301Y-13612293D02*
X15495777Y-13650388D01*
X15495777Y-13650388D02*
X15486253Y-13669436D01*
X15486253Y-13669436D02*
X15476729Y-13678960D01*
X15476729Y-13678960D02*
X15457682Y-13688484D01*
X15457682Y-13688484D02*
X15438634Y-13688484D01*
X15438634Y-13688484D02*
X15419586Y-13678960D01*
X15419586Y-13678960D02*
X15410063Y-13669436D01*
X15410063Y-13669436D02*
X15400539Y-13650388D01*
X15400539Y-13650388D02*
X15391015Y-13612293D01*
X15391015Y-13612293D02*
X15391015Y-13564674D01*
X15391015Y-13564674D02*
X15400539Y-13526579D01*
X15400539Y-13526579D02*
X15410063Y-13507531D01*
X15410063Y-13507531D02*
X15419586Y-13498008D01*
X15419586Y-13498008D02*
X15438634Y-13488484D01*
X15591015Y-13669436D02*
X15600539Y-13678960D01*
X15600539Y-13678960D02*
X15591015Y-13688484D01*
X15591015Y-13688484D02*
X15581491Y-13678960D01*
X15581491Y-13678960D02*
X15591015Y-13669436D01*
X15591015Y-13669436D02*
X15591015Y-13688484D01*
X15724348Y-13488484D02*
X15743396Y-13488484D01*
X15743396Y-13488484D02*
X15762444Y-13498008D01*
X15762444Y-13498008D02*
X15771967Y-13507531D01*
X15771967Y-13507531D02*
X15781491Y-13526579D01*
X15781491Y-13526579D02*
X15791015Y-13564674D01*
X15791015Y-13564674D02*
X15791015Y-13612293D01*
X15791015Y-13612293D02*
X15781491Y-13650388D01*
X15781491Y-13650388D02*
X15771967Y-13669436D01*
X15771967Y-13669436D02*
X15762444Y-13678960D01*
X15762444Y-13678960D02*
X15743396Y-13688484D01*
X15743396Y-13688484D02*
X15724348Y-13688484D01*
X15724348Y-13688484D02*
X15705301Y-13678960D01*
X15705301Y-13678960D02*
X15695777Y-13669436D01*
X15695777Y-13669436D02*
X15686253Y-13650388D01*
X15686253Y-13650388D02*
X15676729Y-13612293D01*
X15676729Y-13612293D02*
X15676729Y-13564674D01*
X15676729Y-13564674D02*
X15686253Y-13526579D01*
X15686253Y-13526579D02*
X15695777Y-13507531D01*
X15695777Y-13507531D02*
X15705301Y-13498008D01*
X15705301Y-13498008D02*
X15724348Y-13488484D01*
X15981491Y-13688484D02*
X15867206Y-13688484D01*
X15924348Y-13688484D02*
X15924348Y-13488484D01*
X15924348Y-13488484D02*
X15905301Y-13517055D01*
X15905301Y-13517055D02*
X15886253Y-13536103D01*
X15886253Y-13536103D02*
X15867206Y-13545627D01*
X16162444Y-13488484D02*
X16067206Y-13488484D01*
X16067206Y-13488484D02*
X16057682Y-13583722D01*
X16057682Y-13583722D02*
X16067206Y-13574198D01*
X16067206Y-13574198D02*
X16086253Y-13564674D01*
X16086253Y-13564674D02*
X16133872Y-13564674D01*
X16133872Y-13564674D02*
X16152920Y-13574198D01*
X16152920Y-13574198D02*
X16162444Y-13583722D01*
X16162444Y-13583722D02*
X16171967Y-13602769D01*
X16171967Y-13602769D02*
X16171967Y-13650388D01*
X16171967Y-13650388D02*
X16162444Y-13669436D01*
X16162444Y-13669436D02*
X16152920Y-13678960D01*
X16152920Y-13678960D02*
X16133872Y-13688484D01*
X16133872Y-13688484D02*
X16086253Y-13688484D01*
X16086253Y-13688484D02*
X16067206Y-13678960D01*
X16067206Y-13678960D02*
X16057682Y-13669436D01*
X16238634Y-13488484D02*
X16371967Y-13488484D01*
X16371967Y-13488484D02*
X16286253Y-13688484D01*
X16438634Y-13488484D02*
X16438634Y-13526579D01*
X16514825Y-13488484D02*
X16514825Y-13526579D01*
X16810063Y-13764674D02*
X16800539Y-13755150D01*
X16800539Y-13755150D02*
X16781491Y-13726579D01*
X16781491Y-13726579D02*
X16771968Y-13707531D01*
X16771968Y-13707531D02*
X16762444Y-13678960D01*
X16762444Y-13678960D02*
X16752920Y-13631341D01*
X16752920Y-13631341D02*
X16752920Y-13593246D01*
X16752920Y-13593246D02*
X16762444Y-13545627D01*
X16762444Y-13545627D02*
X16771968Y-13517055D01*
X16771968Y-13517055D02*
X16781491Y-13498008D01*
X16781491Y-13498008D02*
X16800539Y-13469436D01*
X16800539Y-13469436D02*
X16810063Y-13459912D01*
X16876730Y-13507531D02*
X16886253Y-13498008D01*
X16886253Y-13498008D02*
X16905301Y-13488484D01*
X16905301Y-13488484D02*
X16952920Y-13488484D01*
X16952920Y-13488484D02*
X16971968Y-13498008D01*
X16971968Y-13498008D02*
X16981491Y-13507531D01*
X16981491Y-13507531D02*
X16991015Y-13526579D01*
X16991015Y-13526579D02*
X16991015Y-13545627D01*
X16991015Y-13545627D02*
X16981491Y-13574198D01*
X16981491Y-13574198D02*
X16867206Y-13688484D01*
X16867206Y-13688484D02*
X16991015Y-13688484D01*
X17086253Y-13688484D02*
X17124349Y-13688484D01*
X17124349Y-13688484D02*
X17143396Y-13678960D01*
X17143396Y-13678960D02*
X17152920Y-13669436D01*
X17152920Y-13669436D02*
X17171968Y-13640865D01*
X17171968Y-13640865D02*
X17181491Y-13602769D01*
X17181491Y-13602769D02*
X17181491Y-13526579D01*
X17181491Y-13526579D02*
X17171968Y-13507531D01*
X17171968Y-13507531D02*
X17162444Y-13498008D01*
X17162444Y-13498008D02*
X17143396Y-13488484D01*
X17143396Y-13488484D02*
X17105301Y-13488484D01*
X17105301Y-13488484D02*
X17086253Y-13498008D01*
X17086253Y-13498008D02*
X17076730Y-13507531D01*
X17076730Y-13507531D02*
X17067206Y-13526579D01*
X17067206Y-13526579D02*
X17067206Y-13574198D01*
X17067206Y-13574198D02*
X17076730Y-13593246D01*
X17076730Y-13593246D02*
X17086253Y-13602769D01*
X17086253Y-13602769D02*
X17105301Y-13612293D01*
X17105301Y-13612293D02*
X17143396Y-13612293D01*
X17143396Y-13612293D02*
X17162444Y-13602769D01*
X17162444Y-13602769D02*
X17171968Y-13593246D01*
X17171968Y-13593246D02*
X17181491Y-13574198D01*
X17419587Y-13688484D02*
X17419587Y-13488484D01*
X17505301Y-13688484D02*
X17505301Y-13583722D01*
X17505301Y-13583722D02*
X17495777Y-13564674D01*
X17495777Y-13564674D02*
X17476730Y-13555150D01*
X17476730Y-13555150D02*
X17448158Y-13555150D01*
X17448158Y-13555150D02*
X17429111Y-13564674D01*
X17429111Y-13564674D02*
X17419587Y-13574198D01*
X17629111Y-13688484D02*
X17610063Y-13678960D01*
X17610063Y-13678960D02*
X17600539Y-13669436D01*
X17600539Y-13669436D02*
X17591015Y-13650388D01*
X17591015Y-13650388D02*
X17591015Y-13593246D01*
X17591015Y-13593246D02*
X17600539Y-13574198D01*
X17600539Y-13574198D02*
X17610063Y-13564674D01*
X17610063Y-13564674D02*
X17629111Y-13555150D01*
X17629111Y-13555150D02*
X17657682Y-13555150D01*
X17657682Y-13555150D02*
X17676730Y-13564674D01*
X17676730Y-13564674D02*
X17686253Y-13574198D01*
X17686253Y-13574198D02*
X17695777Y-13593246D01*
X17695777Y-13593246D02*
X17695777Y-13650388D01*
X17695777Y-13650388D02*
X17686253Y-13669436D01*
X17686253Y-13669436D02*
X17676730Y-13678960D01*
X17676730Y-13678960D02*
X17657682Y-13688484D01*
X17657682Y-13688484D02*
X17629111Y-13688484D01*
X17810063Y-13688484D02*
X17791015Y-13678960D01*
X17791015Y-13678960D02*
X17781492Y-13659912D01*
X17781492Y-13659912D02*
X17781492Y-13488484D01*
X17962444Y-13678960D02*
X17943396Y-13688484D01*
X17943396Y-13688484D02*
X17905301Y-13688484D01*
X17905301Y-13688484D02*
X17886253Y-13678960D01*
X17886253Y-13678960D02*
X17876730Y-13659912D01*
X17876730Y-13659912D02*
X17876730Y-13583722D01*
X17876730Y-13583722D02*
X17886253Y-13564674D01*
X17886253Y-13564674D02*
X17905301Y-13555150D01*
X17905301Y-13555150D02*
X17943396Y-13555150D01*
X17943396Y-13555150D02*
X17962444Y-13564674D01*
X17962444Y-13564674D02*
X17971968Y-13583722D01*
X17971968Y-13583722D02*
X17971968Y-13602769D01*
X17971968Y-13602769D02*
X17876730Y-13621817D01*
X18048158Y-13678960D02*
X18067206Y-13688484D01*
X18067206Y-13688484D02*
X18105301Y-13688484D01*
X18105301Y-13688484D02*
X18124349Y-13678960D01*
X18124349Y-13678960D02*
X18133873Y-13659912D01*
X18133873Y-13659912D02*
X18133873Y-13650388D01*
X18133873Y-13650388D02*
X18124349Y-13631341D01*
X18124349Y-13631341D02*
X18105301Y-13621817D01*
X18105301Y-13621817D02*
X18076730Y-13621817D01*
X18076730Y-13621817D02*
X18057682Y-13612293D01*
X18057682Y-13612293D02*
X18048158Y-13593246D01*
X18048158Y-13593246D02*
X18048158Y-13583722D01*
X18048158Y-13583722D02*
X18057682Y-13564674D01*
X18057682Y-13564674D02*
X18076730Y-13555150D01*
X18076730Y-13555150D02*
X18105301Y-13555150D01*
X18105301Y-13555150D02*
X18124349Y-13564674D01*
X18200539Y-13764674D02*
X18210063Y-13755150D01*
X18210063Y-13755150D02*
X18229111Y-13726579D01*
X18229111Y-13726579D02*
X18238634Y-13707531D01*
X18238634Y-13707531D02*
X18248158Y-13678960D01*
X18248158Y-13678960D02*
X18257682Y-13631341D01*
X18257682Y-13631341D02*
X18257682Y-13593246D01*
X18257682Y-13593246D02*
X18248158Y-13545627D01*
X18248158Y-13545627D02*
X18238634Y-13517055D01*
X18238634Y-13517055D02*
X18229111Y-13498008D01*
X18229111Y-13498008D02*
X18210063Y-13469436D01*
X18210063Y-13469436D02*
X18200539Y-13459912D01*
D10*
X13205000Y-13891000D02*
X13235000Y-13861000D01*
X13205000Y-13831000D01*
X13175000Y-13861000D01*
X13205000Y-13891000D01*
D11*
X13533872Y-13752484D02*
X13552920Y-13752484D01*
X13552920Y-13752484D02*
X13571967Y-13762008D01*
X13571967Y-13762008D02*
X13581491Y-13771531D01*
X13581491Y-13771531D02*
X13591015Y-13790579D01*
X13591015Y-13790579D02*
X13600539Y-13828674D01*
X13600539Y-13828674D02*
X13600539Y-13876293D01*
X13600539Y-13876293D02*
X13591015Y-13914388D01*
X13591015Y-13914388D02*
X13581491Y-13933436D01*
X13581491Y-13933436D02*
X13571967Y-13942960D01*
X13571967Y-13942960D02*
X13552920Y-13952484D01*
X13552920Y-13952484D02*
X13533872Y-13952484D01*
X13533872Y-13952484D02*
X13514824Y-13942960D01*
X13514824Y-13942960D02*
X13505301Y-13933436D01*
X13505301Y-13933436D02*
X13495777Y-13914388D01*
X13495777Y-13914388D02*
X13486253Y-13876293D01*
X13486253Y-13876293D02*
X13486253Y-13828674D01*
X13486253Y-13828674D02*
X13495777Y-13790579D01*
X13495777Y-13790579D02*
X13505301Y-13771531D01*
X13505301Y-13771531D02*
X13514824Y-13762008D01*
X13514824Y-13762008D02*
X13533872Y-13752484D01*
X13686253Y-13933436D02*
X13695777Y-13942960D01*
X13695777Y-13942960D02*
X13686253Y-13952484D01*
X13686253Y-13952484D02*
X13676729Y-13942960D01*
X13676729Y-13942960D02*
X13686253Y-13933436D01*
X13686253Y-13933436D02*
X13686253Y-13952484D01*
X13867205Y-13752484D02*
X13829110Y-13752484D01*
X13829110Y-13752484D02*
X13810062Y-13762008D01*
X13810062Y-13762008D02*
X13800539Y-13771531D01*
X13800539Y-13771531D02*
X13781491Y-13800103D01*
X13781491Y-13800103D02*
X13771967Y-13838198D01*
X13771967Y-13838198D02*
X13771967Y-13914388D01*
X13771967Y-13914388D02*
X13781491Y-13933436D01*
X13781491Y-13933436D02*
X13791015Y-13942960D01*
X13791015Y-13942960D02*
X13810062Y-13952484D01*
X13810062Y-13952484D02*
X13848158Y-13952484D01*
X13848158Y-13952484D02*
X13867205Y-13942960D01*
X13867205Y-13942960D02*
X13876729Y-13933436D01*
X13876729Y-13933436D02*
X13886253Y-13914388D01*
X13886253Y-13914388D02*
X13886253Y-13866769D01*
X13886253Y-13866769D02*
X13876729Y-13847722D01*
X13876729Y-13847722D02*
X13867205Y-13838198D01*
X13867205Y-13838198D02*
X13848158Y-13828674D01*
X13848158Y-13828674D02*
X13810062Y-13828674D01*
X13810062Y-13828674D02*
X13791015Y-13838198D01*
X13791015Y-13838198D02*
X13781491Y-13847722D01*
X13781491Y-13847722D02*
X13771967Y-13866769D01*
X14010062Y-13752484D02*
X14029110Y-13752484D01*
X14029110Y-13752484D02*
X14048158Y-13762008D01*
X14048158Y-13762008D02*
X14057682Y-13771531D01*
X14057682Y-13771531D02*
X14067205Y-13790579D01*
X14067205Y-13790579D02*
X14076729Y-13828674D01*
X14076729Y-13828674D02*
X14076729Y-13876293D01*
X14076729Y-13876293D02*
X14067205Y-13914388D01*
X14067205Y-13914388D02*
X14057682Y-13933436D01*
X14057682Y-13933436D02*
X14048158Y-13942960D01*
X14048158Y-13942960D02*
X14029110Y-13952484D01*
X14029110Y-13952484D02*
X14010062Y-13952484D01*
X14010062Y-13952484D02*
X13991015Y-13942960D01*
X13991015Y-13942960D02*
X13981491Y-13933436D01*
X13981491Y-13933436D02*
X13971967Y-13914388D01*
X13971967Y-13914388D02*
X13962443Y-13876293D01*
X13962443Y-13876293D02*
X13962443Y-13828674D01*
X13962443Y-13828674D02*
X13971967Y-13790579D01*
X13971967Y-13790579D02*
X13981491Y-13771531D01*
X13981491Y-13771531D02*
X13991015Y-13762008D01*
X13991015Y-13762008D02*
X14010062Y-13752484D01*
X14200539Y-13752484D02*
X14219586Y-13752484D01*
X14219586Y-13752484D02*
X14238634Y-13762008D01*
X14238634Y-13762008D02*
X14248158Y-13771531D01*
X14248158Y-13771531D02*
X14257682Y-13790579D01*
X14257682Y-13790579D02*
X14267205Y-13828674D01*
X14267205Y-13828674D02*
X14267205Y-13876293D01*
X14267205Y-13876293D02*
X14257682Y-13914388D01*
X14257682Y-13914388D02*
X14248158Y-13933436D01*
X14248158Y-13933436D02*
X14238634Y-13942960D01*
X14238634Y-13942960D02*
X14219586Y-13952484D01*
X14219586Y-13952484D02*
X14200539Y-13952484D01*
X14200539Y-13952484D02*
X14181491Y-13942960D01*
X14181491Y-13942960D02*
X14171967Y-13933436D01*
X14171967Y-13933436D02*
X14162443Y-13914388D01*
X14162443Y-13914388D02*
X14152920Y-13876293D01*
X14152920Y-13876293D02*
X14152920Y-13828674D01*
X14152920Y-13828674D02*
X14162443Y-13790579D01*
X14162443Y-13790579D02*
X14171967Y-13771531D01*
X14171967Y-13771531D02*
X14181491Y-13762008D01*
X14181491Y-13762008D02*
X14200539Y-13752484D01*
X14352920Y-13952484D02*
X14352920Y-13819150D01*
X14352920Y-13838198D02*
X14362443Y-13828674D01*
X14362443Y-13828674D02*
X14381491Y-13819150D01*
X14381491Y-13819150D02*
X14410063Y-13819150D01*
X14410063Y-13819150D02*
X14429110Y-13828674D01*
X14429110Y-13828674D02*
X14438634Y-13847722D01*
X14438634Y-13847722D02*
X14438634Y-13952484D01*
X14438634Y-13847722D02*
X14448158Y-13828674D01*
X14448158Y-13828674D02*
X14467205Y-13819150D01*
X14467205Y-13819150D02*
X14495777Y-13819150D01*
X14495777Y-13819150D02*
X14514824Y-13828674D01*
X14514824Y-13828674D02*
X14524348Y-13847722D01*
X14524348Y-13847722D02*
X14524348Y-13952484D01*
X14619586Y-13952484D02*
X14619586Y-13819150D01*
X14619586Y-13838198D02*
X14629110Y-13828674D01*
X14629110Y-13828674D02*
X14648158Y-13819150D01*
X14648158Y-13819150D02*
X14676729Y-13819150D01*
X14676729Y-13819150D02*
X14695777Y-13828674D01*
X14695777Y-13828674D02*
X14705301Y-13847722D01*
X14705301Y-13847722D02*
X14705301Y-13952484D01*
X14705301Y-13847722D02*
X14714824Y-13828674D01*
X14714824Y-13828674D02*
X14733872Y-13819150D01*
X14733872Y-13819150D02*
X14762443Y-13819150D01*
X14762443Y-13819150D02*
X14781491Y-13828674D01*
X14781491Y-13828674D02*
X14791015Y-13847722D01*
X14791015Y-13847722D02*
X14791015Y-13952484D01*
X15181491Y-13742960D02*
X15010063Y-14000103D01*
X15438634Y-13752484D02*
X15457682Y-13752484D01*
X15457682Y-13752484D02*
X15476729Y-13762008D01*
X15476729Y-13762008D02*
X15486253Y-13771531D01*
X15486253Y-13771531D02*
X15495777Y-13790579D01*
X15495777Y-13790579D02*
X15505301Y-13828674D01*
X15505301Y-13828674D02*
X15505301Y-13876293D01*
X15505301Y-13876293D02*
X15495777Y-13914388D01*
X15495777Y-13914388D02*
X15486253Y-13933436D01*
X15486253Y-13933436D02*
X15476729Y-13942960D01*
X15476729Y-13942960D02*
X15457682Y-13952484D01*
X15457682Y-13952484D02*
X15438634Y-13952484D01*
X15438634Y-13952484D02*
X15419586Y-13942960D01*
X15419586Y-13942960D02*
X15410063Y-13933436D01*
X15410063Y-13933436D02*
X15400539Y-13914388D01*
X15400539Y-13914388D02*
X15391015Y-13876293D01*
X15391015Y-13876293D02*
X15391015Y-13828674D01*
X15391015Y-13828674D02*
X15400539Y-13790579D01*
X15400539Y-13790579D02*
X15410063Y-13771531D01*
X15410063Y-13771531D02*
X15419586Y-13762008D01*
X15419586Y-13762008D02*
X15438634Y-13752484D01*
X15591015Y-13933436D02*
X15600539Y-13942960D01*
X15600539Y-13942960D02*
X15591015Y-13952484D01*
X15591015Y-13952484D02*
X15581491Y-13942960D01*
X15581491Y-13942960D02*
X15591015Y-13933436D01*
X15591015Y-13933436D02*
X15591015Y-13952484D01*
X15724348Y-13752484D02*
X15743396Y-13752484D01*
X15743396Y-13752484D02*
X15762444Y-13762008D01*
X15762444Y-13762008D02*
X15771967Y-13771531D01*
X15771967Y-13771531D02*
X15781491Y-13790579D01*
X15781491Y-13790579D02*
X15791015Y-13828674D01*
X15791015Y-13828674D02*
X15791015Y-13876293D01*
X15791015Y-13876293D02*
X15781491Y-13914388D01*
X15781491Y-13914388D02*
X15771967Y-13933436D01*
X15771967Y-13933436D02*
X15762444Y-13942960D01*
X15762444Y-13942960D02*
X15743396Y-13952484D01*
X15743396Y-13952484D02*
X15724348Y-13952484D01*
X15724348Y-13952484D02*
X15705301Y-13942960D01*
X15705301Y-13942960D02*
X15695777Y-13933436D01*
X15695777Y-13933436D02*
X15686253Y-13914388D01*
X15686253Y-13914388D02*
X15676729Y-13876293D01*
X15676729Y-13876293D02*
X15676729Y-13828674D01*
X15676729Y-13828674D02*
X15686253Y-13790579D01*
X15686253Y-13790579D02*
X15695777Y-13771531D01*
X15695777Y-13771531D02*
X15705301Y-13762008D01*
X15705301Y-13762008D02*
X15724348Y-13752484D01*
X15867206Y-13771531D02*
X15876729Y-13762008D01*
X15876729Y-13762008D02*
X15895777Y-13752484D01*
X15895777Y-13752484D02*
X15943396Y-13752484D01*
X15943396Y-13752484D02*
X15962444Y-13762008D01*
X15962444Y-13762008D02*
X15971967Y-13771531D01*
X15971967Y-13771531D02*
X15981491Y-13790579D01*
X15981491Y-13790579D02*
X15981491Y-13809627D01*
X15981491Y-13809627D02*
X15971967Y-13838198D01*
X15971967Y-13838198D02*
X15857682Y-13952484D01*
X15857682Y-13952484D02*
X15981491Y-13952484D01*
X16048158Y-13752484D02*
X16171967Y-13752484D01*
X16171967Y-13752484D02*
X16105301Y-13828674D01*
X16105301Y-13828674D02*
X16133872Y-13828674D01*
X16133872Y-13828674D02*
X16152920Y-13838198D01*
X16152920Y-13838198D02*
X16162444Y-13847722D01*
X16162444Y-13847722D02*
X16171967Y-13866769D01*
X16171967Y-13866769D02*
X16171967Y-13914388D01*
X16171967Y-13914388D02*
X16162444Y-13933436D01*
X16162444Y-13933436D02*
X16152920Y-13942960D01*
X16152920Y-13942960D02*
X16133872Y-13952484D01*
X16133872Y-13952484D02*
X16076729Y-13952484D01*
X16076729Y-13952484D02*
X16057682Y-13942960D01*
X16057682Y-13942960D02*
X16048158Y-13933436D01*
X16343396Y-13752484D02*
X16305301Y-13752484D01*
X16305301Y-13752484D02*
X16286253Y-13762008D01*
X16286253Y-13762008D02*
X16276729Y-13771531D01*
X16276729Y-13771531D02*
X16257682Y-13800103D01*
X16257682Y-13800103D02*
X16248158Y-13838198D01*
X16248158Y-13838198D02*
X16248158Y-13914388D01*
X16248158Y-13914388D02*
X16257682Y-13933436D01*
X16257682Y-13933436D02*
X16267206Y-13942960D01*
X16267206Y-13942960D02*
X16286253Y-13952484D01*
X16286253Y-13952484D02*
X16324348Y-13952484D01*
X16324348Y-13952484D02*
X16343396Y-13942960D01*
X16343396Y-13942960D02*
X16352920Y-13933436D01*
X16352920Y-13933436D02*
X16362444Y-13914388D01*
X16362444Y-13914388D02*
X16362444Y-13866769D01*
X16362444Y-13866769D02*
X16352920Y-13847722D01*
X16352920Y-13847722D02*
X16343396Y-13838198D01*
X16343396Y-13838198D02*
X16324348Y-13828674D01*
X16324348Y-13828674D02*
X16286253Y-13828674D01*
X16286253Y-13828674D02*
X16267206Y-13838198D01*
X16267206Y-13838198D02*
X16257682Y-13847722D01*
X16257682Y-13847722D02*
X16248158Y-13866769D01*
X16438634Y-13752484D02*
X16438634Y-13790579D01*
X16514825Y-13752484D02*
X16514825Y-13790579D01*
X16810063Y-14028674D02*
X16800539Y-14019150D01*
X16800539Y-14019150D02*
X16781491Y-13990579D01*
X16781491Y-13990579D02*
X16771968Y-13971531D01*
X16771968Y-13971531D02*
X16762444Y-13942960D01*
X16762444Y-13942960D02*
X16752920Y-13895341D01*
X16752920Y-13895341D02*
X16752920Y-13857246D01*
X16752920Y-13857246D02*
X16762444Y-13809627D01*
X16762444Y-13809627D02*
X16771968Y-13781055D01*
X16771968Y-13781055D02*
X16781491Y-13762008D01*
X16781491Y-13762008D02*
X16800539Y-13733436D01*
X16800539Y-13733436D02*
X16810063Y-13723912D01*
X16924349Y-13752484D02*
X16943396Y-13752484D01*
X16943396Y-13752484D02*
X16962444Y-13762008D01*
X16962444Y-13762008D02*
X16971968Y-13771531D01*
X16971968Y-13771531D02*
X16981491Y-13790579D01*
X16981491Y-13790579D02*
X16991015Y-13828674D01*
X16991015Y-13828674D02*
X16991015Y-13876293D01*
X16991015Y-13876293D02*
X16981491Y-13914388D01*
X16981491Y-13914388D02*
X16971968Y-13933436D01*
X16971968Y-13933436D02*
X16962444Y-13942960D01*
X16962444Y-13942960D02*
X16943396Y-13952484D01*
X16943396Y-13952484D02*
X16924349Y-13952484D01*
X16924349Y-13952484D02*
X16905301Y-13942960D01*
X16905301Y-13942960D02*
X16895777Y-13933436D01*
X16895777Y-13933436D02*
X16886253Y-13914388D01*
X16886253Y-13914388D02*
X16876730Y-13876293D01*
X16876730Y-13876293D02*
X16876730Y-13828674D01*
X16876730Y-13828674D02*
X16886253Y-13790579D01*
X16886253Y-13790579D02*
X16895777Y-13771531D01*
X16895777Y-13771531D02*
X16905301Y-13762008D01*
X16905301Y-13762008D02*
X16924349Y-13752484D01*
X17229111Y-13952484D02*
X17229111Y-13752484D01*
X17314825Y-13952484D02*
X17314825Y-13847722D01*
X17314825Y-13847722D02*
X17305301Y-13828674D01*
X17305301Y-13828674D02*
X17286253Y-13819150D01*
X17286253Y-13819150D02*
X17257682Y-13819150D01*
X17257682Y-13819150D02*
X17238634Y-13828674D01*
X17238634Y-13828674D02*
X17229111Y-13838198D01*
X17438634Y-13952484D02*
X17419587Y-13942960D01*
X17419587Y-13942960D02*
X17410063Y-13933436D01*
X17410063Y-13933436D02*
X17400539Y-13914388D01*
X17400539Y-13914388D02*
X17400539Y-13857246D01*
X17400539Y-13857246D02*
X17410063Y-13838198D01*
X17410063Y-13838198D02*
X17419587Y-13828674D01*
X17419587Y-13828674D02*
X17438634Y-13819150D01*
X17438634Y-13819150D02*
X17467206Y-13819150D01*
X17467206Y-13819150D02*
X17486253Y-13828674D01*
X17486253Y-13828674D02*
X17495777Y-13838198D01*
X17495777Y-13838198D02*
X17505301Y-13857246D01*
X17505301Y-13857246D02*
X17505301Y-13914388D01*
X17505301Y-13914388D02*
X17495777Y-13933436D01*
X17495777Y-13933436D02*
X17486253Y-13942960D01*
X17486253Y-13942960D02*
X17467206Y-13952484D01*
X17467206Y-13952484D02*
X17438634Y-13952484D01*
X17619587Y-13952484D02*
X17600539Y-13942960D01*
X17600539Y-13942960D02*
X17591015Y-13923912D01*
X17591015Y-13923912D02*
X17591015Y-13752484D01*
X17771968Y-13942960D02*
X17752920Y-13952484D01*
X17752920Y-13952484D02*
X17714825Y-13952484D01*
X17714825Y-13952484D02*
X17695777Y-13942960D01*
X17695777Y-13942960D02*
X17686253Y-13923912D01*
X17686253Y-13923912D02*
X17686253Y-13847722D01*
X17686253Y-13847722D02*
X17695777Y-13828674D01*
X17695777Y-13828674D02*
X17714825Y-13819150D01*
X17714825Y-13819150D02*
X17752920Y-13819150D01*
X17752920Y-13819150D02*
X17771968Y-13828674D01*
X17771968Y-13828674D02*
X17781492Y-13847722D01*
X17781492Y-13847722D02*
X17781492Y-13866769D01*
X17781492Y-13866769D02*
X17686253Y-13885817D01*
X17857682Y-13942960D02*
X17876730Y-13952484D01*
X17876730Y-13952484D02*
X17914825Y-13952484D01*
X17914825Y-13952484D02*
X17933873Y-13942960D01*
X17933873Y-13942960D02*
X17943396Y-13923912D01*
X17943396Y-13923912D02*
X17943396Y-13914388D01*
X17943396Y-13914388D02*
X17933873Y-13895341D01*
X17933873Y-13895341D02*
X17914825Y-13885817D01*
X17914825Y-13885817D02*
X17886253Y-13885817D01*
X17886253Y-13885817D02*
X17867206Y-13876293D01*
X17867206Y-13876293D02*
X17857682Y-13857246D01*
X17857682Y-13857246D02*
X17857682Y-13847722D01*
X17857682Y-13847722D02*
X17867206Y-13828674D01*
X17867206Y-13828674D02*
X17886253Y-13819150D01*
X17886253Y-13819150D02*
X17914825Y-13819150D01*
X17914825Y-13819150D02*
X17933873Y-13828674D01*
X18181492Y-13876293D02*
X18333873Y-13876293D01*
X18257682Y-13952484D02*
X18257682Y-13800103D01*
X18667206Y-13819150D02*
X18667206Y-13952484D01*
X18619587Y-13742960D02*
X18571968Y-13885817D01*
X18571968Y-13885817D02*
X18695777Y-13885817D01*
X18914825Y-13942960D02*
X18933873Y-13952484D01*
X18933873Y-13952484D02*
X18971968Y-13952484D01*
X18971968Y-13952484D02*
X18991016Y-13942960D01*
X18991016Y-13942960D02*
X19000539Y-13923912D01*
X19000539Y-13923912D02*
X19000539Y-13914388D01*
X19000539Y-13914388D02*
X18991016Y-13895341D01*
X18991016Y-13895341D02*
X18971968Y-13885817D01*
X18971968Y-13885817D02*
X18943396Y-13885817D01*
X18943396Y-13885817D02*
X18924349Y-13876293D01*
X18924349Y-13876293D02*
X18914825Y-13857246D01*
X18914825Y-13857246D02*
X18914825Y-13847722D01*
X18914825Y-13847722D02*
X18924349Y-13828674D01*
X18924349Y-13828674D02*
X18943396Y-13819150D01*
X18943396Y-13819150D02*
X18971968Y-13819150D01*
X18971968Y-13819150D02*
X18991016Y-13828674D01*
X19114825Y-13952484D02*
X19095777Y-13942960D01*
X19095777Y-13942960D02*
X19086254Y-13923912D01*
X19086254Y-13923912D02*
X19086254Y-13752484D01*
X19219587Y-13952484D02*
X19200539Y-13942960D01*
X19200539Y-13942960D02*
X19191016Y-13933436D01*
X19191016Y-13933436D02*
X19181492Y-13914388D01*
X19181492Y-13914388D02*
X19181492Y-13857246D01*
X19181492Y-13857246D02*
X19191016Y-13838198D01*
X19191016Y-13838198D02*
X19200539Y-13828674D01*
X19200539Y-13828674D02*
X19219587Y-13819150D01*
X19219587Y-13819150D02*
X19248158Y-13819150D01*
X19248158Y-13819150D02*
X19267206Y-13828674D01*
X19267206Y-13828674D02*
X19276730Y-13838198D01*
X19276730Y-13838198D02*
X19286254Y-13857246D01*
X19286254Y-13857246D02*
X19286254Y-13914388D01*
X19286254Y-13914388D02*
X19276730Y-13933436D01*
X19276730Y-13933436D02*
X19267206Y-13942960D01*
X19267206Y-13942960D02*
X19248158Y-13952484D01*
X19248158Y-13952484D02*
X19219587Y-13952484D01*
X19343397Y-13819150D02*
X19419587Y-13819150D01*
X19371968Y-13752484D02*
X19371968Y-13923912D01*
X19371968Y-13923912D02*
X19381492Y-13942960D01*
X19381492Y-13942960D02*
X19400539Y-13952484D01*
X19400539Y-13952484D02*
X19419587Y-13952484D01*
X19476730Y-13942960D02*
X19495777Y-13952484D01*
X19495777Y-13952484D02*
X19533873Y-13952484D01*
X19533873Y-13952484D02*
X19552920Y-13942960D01*
X19552920Y-13942960D02*
X19562444Y-13923912D01*
X19562444Y-13923912D02*
X19562444Y-13914388D01*
X19562444Y-13914388D02*
X19552920Y-13895341D01*
X19552920Y-13895341D02*
X19533873Y-13885817D01*
X19533873Y-13885817D02*
X19505301Y-13885817D01*
X19505301Y-13885817D02*
X19486254Y-13876293D01*
X19486254Y-13876293D02*
X19476730Y-13857246D01*
X19476730Y-13857246D02*
X19476730Y-13847722D01*
X19476730Y-13847722D02*
X19486254Y-13828674D01*
X19486254Y-13828674D02*
X19505301Y-13819150D01*
X19505301Y-13819150D02*
X19533873Y-13819150D01*
X19533873Y-13819150D02*
X19552920Y-13828674D01*
X19629111Y-14028674D02*
X19638635Y-14019150D01*
X19638635Y-14019150D02*
X19657682Y-13990579D01*
X19657682Y-13990579D02*
X19667206Y-13971531D01*
X19667206Y-13971531D02*
X19676730Y-13942960D01*
X19676730Y-13942960D02*
X19686254Y-13895341D01*
X19686254Y-13895341D02*
X19686254Y-13857246D01*
X19686254Y-13857246D02*
X19676730Y-13809627D01*
X19676730Y-13809627D02*
X19667206Y-13781055D01*
X19667206Y-13781055D02*
X19657682Y-13762008D01*
X19657682Y-13762008D02*
X19638635Y-13733436D01*
X19638635Y-13733436D02*
X19629111Y-13723912D01*
X13035000Y-14025000D02*
X13235000Y-14225000D01*
X13235000Y-14025000D02*
X13035000Y-14225000D01*
X13235000Y-14125000D02*
G75*
G03*
X13035000Y-14125000I-100000J0D01*
G01*
X13035000Y-14125000D02*
G75*
G03*
X13235000Y-14125000I100000J0D01*
G01*
X13486253Y-14035531D02*
X13495777Y-14026008D01*
X13495777Y-14026008D02*
X13514824Y-14016484D01*
X13514824Y-14016484D02*
X13562443Y-14016484D01*
X13562443Y-14016484D02*
X13581491Y-14026008D01*
X13581491Y-14026008D02*
X13591015Y-14035531D01*
X13591015Y-14035531D02*
X13600539Y-14054579D01*
X13600539Y-14054579D02*
X13600539Y-14073627D01*
X13600539Y-14073627D02*
X13591015Y-14102198D01*
X13591015Y-14102198D02*
X13476729Y-14216484D01*
X13476729Y-14216484D02*
X13600539Y-14216484D01*
X13686253Y-14197436D02*
X13695777Y-14206960D01*
X13695777Y-14206960D02*
X13686253Y-14216484D01*
X13686253Y-14216484D02*
X13676729Y-14206960D01*
X13676729Y-14206960D02*
X13686253Y-14197436D01*
X13686253Y-14197436D02*
X13686253Y-14216484D01*
X13771967Y-14035531D02*
X13781491Y-14026008D01*
X13781491Y-14026008D02*
X13800539Y-14016484D01*
X13800539Y-14016484D02*
X13848158Y-14016484D01*
X13848158Y-14016484D02*
X13867205Y-14026008D01*
X13867205Y-14026008D02*
X13876729Y-14035531D01*
X13876729Y-14035531D02*
X13886253Y-14054579D01*
X13886253Y-14054579D02*
X13886253Y-14073627D01*
X13886253Y-14073627D02*
X13876729Y-14102198D01*
X13876729Y-14102198D02*
X13762443Y-14216484D01*
X13762443Y-14216484D02*
X13886253Y-14216484D01*
X14010062Y-14016484D02*
X14029110Y-14016484D01*
X14029110Y-14016484D02*
X14048158Y-14026008D01*
X14048158Y-14026008D02*
X14057682Y-14035531D01*
X14057682Y-14035531D02*
X14067205Y-14054579D01*
X14067205Y-14054579D02*
X14076729Y-14092674D01*
X14076729Y-14092674D02*
X14076729Y-14140293D01*
X14076729Y-14140293D02*
X14067205Y-14178388D01*
X14067205Y-14178388D02*
X14057682Y-14197436D01*
X14057682Y-14197436D02*
X14048158Y-14206960D01*
X14048158Y-14206960D02*
X14029110Y-14216484D01*
X14029110Y-14216484D02*
X14010062Y-14216484D01*
X14010062Y-14216484D02*
X13991015Y-14206960D01*
X13991015Y-14206960D02*
X13981491Y-14197436D01*
X13981491Y-14197436D02*
X13971967Y-14178388D01*
X13971967Y-14178388D02*
X13962443Y-14140293D01*
X13962443Y-14140293D02*
X13962443Y-14092674D01*
X13962443Y-14092674D02*
X13971967Y-14054579D01*
X13971967Y-14054579D02*
X13981491Y-14035531D01*
X13981491Y-14035531D02*
X13991015Y-14026008D01*
X13991015Y-14026008D02*
X14010062Y-14016484D01*
X14200539Y-14016484D02*
X14219586Y-14016484D01*
X14219586Y-14016484D02*
X14238634Y-14026008D01*
X14238634Y-14026008D02*
X14248158Y-14035531D01*
X14248158Y-14035531D02*
X14257682Y-14054579D01*
X14257682Y-14054579D02*
X14267205Y-14092674D01*
X14267205Y-14092674D02*
X14267205Y-14140293D01*
X14267205Y-14140293D02*
X14257682Y-14178388D01*
X14257682Y-14178388D02*
X14248158Y-14197436D01*
X14248158Y-14197436D02*
X14238634Y-14206960D01*
X14238634Y-14206960D02*
X14219586Y-14216484D01*
X14219586Y-14216484D02*
X14200539Y-14216484D01*
X14200539Y-14216484D02*
X14181491Y-14206960D01*
X14181491Y-14206960D02*
X14171967Y-14197436D01*
X14171967Y-14197436D02*
X14162443Y-14178388D01*
X14162443Y-14178388D02*
X14152920Y-14140293D01*
X14152920Y-14140293D02*
X14152920Y-14092674D01*
X14152920Y-14092674D02*
X14162443Y-14054579D01*
X14162443Y-14054579D02*
X14171967Y-14035531D01*
X14171967Y-14035531D02*
X14181491Y-14026008D01*
X14181491Y-14026008D02*
X14200539Y-14016484D01*
X14352920Y-14216484D02*
X14352920Y-14083150D01*
X14352920Y-14102198D02*
X14362443Y-14092674D01*
X14362443Y-14092674D02*
X14381491Y-14083150D01*
X14381491Y-14083150D02*
X14410063Y-14083150D01*
X14410063Y-14083150D02*
X14429110Y-14092674D01*
X14429110Y-14092674D02*
X14438634Y-14111722D01*
X14438634Y-14111722D02*
X14438634Y-14216484D01*
X14438634Y-14111722D02*
X14448158Y-14092674D01*
X14448158Y-14092674D02*
X14467205Y-14083150D01*
X14467205Y-14083150D02*
X14495777Y-14083150D01*
X14495777Y-14083150D02*
X14514824Y-14092674D01*
X14514824Y-14092674D02*
X14524348Y-14111722D01*
X14524348Y-14111722D02*
X14524348Y-14216484D01*
X14619586Y-14216484D02*
X14619586Y-14083150D01*
X14619586Y-14102198D02*
X14629110Y-14092674D01*
X14629110Y-14092674D02*
X14648158Y-14083150D01*
X14648158Y-14083150D02*
X14676729Y-14083150D01*
X14676729Y-14083150D02*
X14695777Y-14092674D01*
X14695777Y-14092674D02*
X14705301Y-14111722D01*
X14705301Y-14111722D02*
X14705301Y-14216484D01*
X14705301Y-14111722D02*
X14714824Y-14092674D01*
X14714824Y-14092674D02*
X14733872Y-14083150D01*
X14733872Y-14083150D02*
X14762443Y-14083150D01*
X14762443Y-14083150D02*
X14781491Y-14092674D01*
X14781491Y-14092674D02*
X14791015Y-14111722D01*
X14791015Y-14111722D02*
X14791015Y-14216484D01*
X15181491Y-14006960D02*
X15010063Y-14264103D01*
X15438634Y-14016484D02*
X15457682Y-14016484D01*
X15457682Y-14016484D02*
X15476729Y-14026008D01*
X15476729Y-14026008D02*
X15486253Y-14035531D01*
X15486253Y-14035531D02*
X15495777Y-14054579D01*
X15495777Y-14054579D02*
X15505301Y-14092674D01*
X15505301Y-14092674D02*
X15505301Y-14140293D01*
X15505301Y-14140293D02*
X15495777Y-14178388D01*
X15495777Y-14178388D02*
X15486253Y-14197436D01*
X15486253Y-14197436D02*
X15476729Y-14206960D01*
X15476729Y-14206960D02*
X15457682Y-14216484D01*
X15457682Y-14216484D02*
X15438634Y-14216484D01*
X15438634Y-14216484D02*
X15419586Y-14206960D01*
X15419586Y-14206960D02*
X15410063Y-14197436D01*
X15410063Y-14197436D02*
X15400539Y-14178388D01*
X15400539Y-14178388D02*
X15391015Y-14140293D01*
X15391015Y-14140293D02*
X15391015Y-14092674D01*
X15391015Y-14092674D02*
X15400539Y-14054579D01*
X15400539Y-14054579D02*
X15410063Y-14035531D01*
X15410063Y-14035531D02*
X15419586Y-14026008D01*
X15419586Y-14026008D02*
X15438634Y-14016484D01*
X15591015Y-14197436D02*
X15600539Y-14206960D01*
X15600539Y-14206960D02*
X15591015Y-14216484D01*
X15591015Y-14216484D02*
X15581491Y-14206960D01*
X15581491Y-14206960D02*
X15591015Y-14197436D01*
X15591015Y-14197436D02*
X15591015Y-14216484D01*
X15724348Y-14016484D02*
X15743396Y-14016484D01*
X15743396Y-14016484D02*
X15762444Y-14026008D01*
X15762444Y-14026008D02*
X15771967Y-14035531D01*
X15771967Y-14035531D02*
X15781491Y-14054579D01*
X15781491Y-14054579D02*
X15791015Y-14092674D01*
X15791015Y-14092674D02*
X15791015Y-14140293D01*
X15791015Y-14140293D02*
X15781491Y-14178388D01*
X15781491Y-14178388D02*
X15771967Y-14197436D01*
X15771967Y-14197436D02*
X15762444Y-14206960D01*
X15762444Y-14206960D02*
X15743396Y-14216484D01*
X15743396Y-14216484D02*
X15724348Y-14216484D01*
X15724348Y-14216484D02*
X15705301Y-14206960D01*
X15705301Y-14206960D02*
X15695777Y-14197436D01*
X15695777Y-14197436D02*
X15686253Y-14178388D01*
X15686253Y-14178388D02*
X15676729Y-14140293D01*
X15676729Y-14140293D02*
X15676729Y-14092674D01*
X15676729Y-14092674D02*
X15686253Y-14054579D01*
X15686253Y-14054579D02*
X15695777Y-14035531D01*
X15695777Y-14035531D02*
X15705301Y-14026008D01*
X15705301Y-14026008D02*
X15724348Y-14016484D01*
X15905301Y-14102198D02*
X15886253Y-14092674D01*
X15886253Y-14092674D02*
X15876729Y-14083150D01*
X15876729Y-14083150D02*
X15867206Y-14064103D01*
X15867206Y-14064103D02*
X15867206Y-14054579D01*
X15867206Y-14054579D02*
X15876729Y-14035531D01*
X15876729Y-14035531D02*
X15886253Y-14026008D01*
X15886253Y-14026008D02*
X15905301Y-14016484D01*
X15905301Y-14016484D02*
X15943396Y-14016484D01*
X15943396Y-14016484D02*
X15962444Y-14026008D01*
X15962444Y-14026008D02*
X15971967Y-14035531D01*
X15971967Y-14035531D02*
X15981491Y-14054579D01*
X15981491Y-14054579D02*
X15981491Y-14064103D01*
X15981491Y-14064103D02*
X15971967Y-14083150D01*
X15971967Y-14083150D02*
X15962444Y-14092674D01*
X15962444Y-14092674D02*
X15943396Y-14102198D01*
X15943396Y-14102198D02*
X15905301Y-14102198D01*
X15905301Y-14102198D02*
X15886253Y-14111722D01*
X15886253Y-14111722D02*
X15876729Y-14121246D01*
X15876729Y-14121246D02*
X15867206Y-14140293D01*
X15867206Y-14140293D02*
X15867206Y-14178388D01*
X15867206Y-14178388D02*
X15876729Y-14197436D01*
X15876729Y-14197436D02*
X15886253Y-14206960D01*
X15886253Y-14206960D02*
X15905301Y-14216484D01*
X15905301Y-14216484D02*
X15943396Y-14216484D01*
X15943396Y-14216484D02*
X15962444Y-14206960D01*
X15962444Y-14206960D02*
X15971967Y-14197436D01*
X15971967Y-14197436D02*
X15981491Y-14178388D01*
X15981491Y-14178388D02*
X15981491Y-14140293D01*
X15981491Y-14140293D02*
X15971967Y-14121246D01*
X15971967Y-14121246D02*
X15962444Y-14111722D01*
X15962444Y-14111722D02*
X15943396Y-14102198D01*
X16152920Y-14016484D02*
X16114825Y-14016484D01*
X16114825Y-14016484D02*
X16095777Y-14026008D01*
X16095777Y-14026008D02*
X16086253Y-14035531D01*
X16086253Y-14035531D02*
X16067206Y-14064103D01*
X16067206Y-14064103D02*
X16057682Y-14102198D01*
X16057682Y-14102198D02*
X16057682Y-14178388D01*
X16057682Y-14178388D02*
X16067206Y-14197436D01*
X16067206Y-14197436D02*
X16076729Y-14206960D01*
X16076729Y-14206960D02*
X16095777Y-14216484D01*
X16095777Y-14216484D02*
X16133872Y-14216484D01*
X16133872Y-14216484D02*
X16152920Y-14206960D01*
X16152920Y-14206960D02*
X16162444Y-14197436D01*
X16162444Y-14197436D02*
X16171967Y-14178388D01*
X16171967Y-14178388D02*
X16171967Y-14130769D01*
X16171967Y-14130769D02*
X16162444Y-14111722D01*
X16162444Y-14111722D02*
X16152920Y-14102198D01*
X16152920Y-14102198D02*
X16133872Y-14092674D01*
X16133872Y-14092674D02*
X16095777Y-14092674D01*
X16095777Y-14092674D02*
X16076729Y-14102198D01*
X16076729Y-14102198D02*
X16067206Y-14111722D01*
X16067206Y-14111722D02*
X16057682Y-14130769D01*
X16343396Y-14016484D02*
X16305301Y-14016484D01*
X16305301Y-14016484D02*
X16286253Y-14026008D01*
X16286253Y-14026008D02*
X16276729Y-14035531D01*
X16276729Y-14035531D02*
X16257682Y-14064103D01*
X16257682Y-14064103D02*
X16248158Y-14102198D01*
X16248158Y-14102198D02*
X16248158Y-14178388D01*
X16248158Y-14178388D02*
X16257682Y-14197436D01*
X16257682Y-14197436D02*
X16267206Y-14206960D01*
X16267206Y-14206960D02*
X16286253Y-14216484D01*
X16286253Y-14216484D02*
X16324348Y-14216484D01*
X16324348Y-14216484D02*
X16343396Y-14206960D01*
X16343396Y-14206960D02*
X16352920Y-14197436D01*
X16352920Y-14197436D02*
X16362444Y-14178388D01*
X16362444Y-14178388D02*
X16362444Y-14130769D01*
X16362444Y-14130769D02*
X16352920Y-14111722D01*
X16352920Y-14111722D02*
X16343396Y-14102198D01*
X16343396Y-14102198D02*
X16324348Y-14092674D01*
X16324348Y-14092674D02*
X16286253Y-14092674D01*
X16286253Y-14092674D02*
X16267206Y-14102198D01*
X16267206Y-14102198D02*
X16257682Y-14111722D01*
X16257682Y-14111722D02*
X16248158Y-14130769D01*
X16438634Y-14016484D02*
X16438634Y-14054579D01*
X16514825Y-14016484D02*
X16514825Y-14054579D01*
X16810063Y-14292674D02*
X16800539Y-14283150D01*
X16800539Y-14283150D02*
X16781491Y-14254579D01*
X16781491Y-14254579D02*
X16771968Y-14235531D01*
X16771968Y-14235531D02*
X16762444Y-14206960D01*
X16762444Y-14206960D02*
X16752920Y-14159341D01*
X16752920Y-14159341D02*
X16752920Y-14121246D01*
X16752920Y-14121246D02*
X16762444Y-14073627D01*
X16762444Y-14073627D02*
X16771968Y-14045055D01*
X16771968Y-14045055D02*
X16781491Y-14026008D01*
X16781491Y-14026008D02*
X16800539Y-13997436D01*
X16800539Y-13997436D02*
X16810063Y-13987912D01*
X16867206Y-14016484D02*
X16991015Y-14016484D01*
X16991015Y-14016484D02*
X16924349Y-14092674D01*
X16924349Y-14092674D02*
X16952920Y-14092674D01*
X16952920Y-14092674D02*
X16971968Y-14102198D01*
X16971968Y-14102198D02*
X16981491Y-14111722D01*
X16981491Y-14111722D02*
X16991015Y-14130769D01*
X16991015Y-14130769D02*
X16991015Y-14178388D01*
X16991015Y-14178388D02*
X16981491Y-14197436D01*
X16981491Y-14197436D02*
X16971968Y-14206960D01*
X16971968Y-14206960D02*
X16952920Y-14216484D01*
X16952920Y-14216484D02*
X16895777Y-14216484D01*
X16895777Y-14216484D02*
X16876730Y-14206960D01*
X16876730Y-14206960D02*
X16867206Y-14197436D01*
X17229111Y-14216484D02*
X17229111Y-14016484D01*
X17314825Y-14216484D02*
X17314825Y-14111722D01*
X17314825Y-14111722D02*
X17305301Y-14092674D01*
X17305301Y-14092674D02*
X17286253Y-14083150D01*
X17286253Y-14083150D02*
X17257682Y-14083150D01*
X17257682Y-14083150D02*
X17238634Y-14092674D01*
X17238634Y-14092674D02*
X17229111Y-14102198D01*
X17438634Y-14216484D02*
X17419587Y-14206960D01*
X17419587Y-14206960D02*
X17410063Y-14197436D01*
X17410063Y-14197436D02*
X17400539Y-14178388D01*
X17400539Y-14178388D02*
X17400539Y-14121246D01*
X17400539Y-14121246D02*
X17410063Y-14102198D01*
X17410063Y-14102198D02*
X17419587Y-14092674D01*
X17419587Y-14092674D02*
X17438634Y-14083150D01*
X17438634Y-14083150D02*
X17467206Y-14083150D01*
X17467206Y-14083150D02*
X17486253Y-14092674D01*
X17486253Y-14092674D02*
X17495777Y-14102198D01*
X17495777Y-14102198D02*
X17505301Y-14121246D01*
X17505301Y-14121246D02*
X17505301Y-14178388D01*
X17505301Y-14178388D02*
X17495777Y-14197436D01*
X17495777Y-14197436D02*
X17486253Y-14206960D01*
X17486253Y-14206960D02*
X17467206Y-14216484D01*
X17467206Y-14216484D02*
X17438634Y-14216484D01*
X17619587Y-14216484D02*
X17600539Y-14206960D01*
X17600539Y-14206960D02*
X17591015Y-14187912D01*
X17591015Y-14187912D02*
X17591015Y-14016484D01*
X17771968Y-14206960D02*
X17752920Y-14216484D01*
X17752920Y-14216484D02*
X17714825Y-14216484D01*
X17714825Y-14216484D02*
X17695777Y-14206960D01*
X17695777Y-14206960D02*
X17686253Y-14187912D01*
X17686253Y-14187912D02*
X17686253Y-14111722D01*
X17686253Y-14111722D02*
X17695777Y-14092674D01*
X17695777Y-14092674D02*
X17714825Y-14083150D01*
X17714825Y-14083150D02*
X17752920Y-14083150D01*
X17752920Y-14083150D02*
X17771968Y-14092674D01*
X17771968Y-14092674D02*
X17781492Y-14111722D01*
X17781492Y-14111722D02*
X17781492Y-14130769D01*
X17781492Y-14130769D02*
X17686253Y-14149817D01*
X17857682Y-14206960D02*
X17876730Y-14216484D01*
X17876730Y-14216484D02*
X17914825Y-14216484D01*
X17914825Y-14216484D02*
X17933873Y-14206960D01*
X17933873Y-14206960D02*
X17943396Y-14187912D01*
X17943396Y-14187912D02*
X17943396Y-14178388D01*
X17943396Y-14178388D02*
X17933873Y-14159341D01*
X17933873Y-14159341D02*
X17914825Y-14149817D01*
X17914825Y-14149817D02*
X17886253Y-14149817D01*
X17886253Y-14149817D02*
X17867206Y-14140293D01*
X17867206Y-14140293D02*
X17857682Y-14121246D01*
X17857682Y-14121246D02*
X17857682Y-14111722D01*
X17857682Y-14111722D02*
X17867206Y-14092674D01*
X17867206Y-14092674D02*
X17886253Y-14083150D01*
X17886253Y-14083150D02*
X17914825Y-14083150D01*
X17914825Y-14083150D02*
X17933873Y-14092674D01*
X18010063Y-14292674D02*
X18019587Y-14283150D01*
X18019587Y-14283150D02*
X18038634Y-14254579D01*
X18038634Y-14254579D02*
X18048158Y-14235531D01*
X18048158Y-14235531D02*
X18057682Y-14206960D01*
X18057682Y-14206960D02*
X18067206Y-14159341D01*
X18067206Y-14159341D02*
X18067206Y-14121246D01*
X18067206Y-14121246D02*
X18057682Y-14073627D01*
X18057682Y-14073627D02*
X18048158Y-14045055D01*
X18048158Y-14045055D02*
X18038634Y-14026008D01*
X18038634Y-14026008D02*
X18019587Y-13997436D01*
X18019587Y-13997436D02*
X18010063Y-13987912D01*
X13035000Y-14345000D02*
X13235000Y-14545000D01*
X13235000Y-14345000D02*
X13035000Y-14545000D01*
X13135000Y-14345000D02*
X13135000Y-14545000D01*
X13035000Y-14445000D02*
X13235000Y-14445000D01*
X13476729Y-14336484D02*
X13600539Y-14336484D01*
X13600539Y-14336484D02*
X13533872Y-14412674D01*
X13533872Y-14412674D02*
X13562443Y-14412674D01*
X13562443Y-14412674D02*
X13581491Y-14422198D01*
X13581491Y-14422198D02*
X13591015Y-14431722D01*
X13591015Y-14431722D02*
X13600539Y-14450769D01*
X13600539Y-14450769D02*
X13600539Y-14498388D01*
X13600539Y-14498388D02*
X13591015Y-14517436D01*
X13591015Y-14517436D02*
X13581491Y-14526960D01*
X13581491Y-14526960D02*
X13562443Y-14536484D01*
X13562443Y-14536484D02*
X13505301Y-14536484D01*
X13505301Y-14536484D02*
X13486253Y-14526960D01*
X13486253Y-14526960D02*
X13476729Y-14517436D01*
X13686253Y-14517436D02*
X13695777Y-14526960D01*
X13695777Y-14526960D02*
X13686253Y-14536484D01*
X13686253Y-14536484D02*
X13676729Y-14526960D01*
X13676729Y-14526960D02*
X13686253Y-14517436D01*
X13686253Y-14517436D02*
X13686253Y-14536484D01*
X13771967Y-14355531D02*
X13781491Y-14346008D01*
X13781491Y-14346008D02*
X13800539Y-14336484D01*
X13800539Y-14336484D02*
X13848158Y-14336484D01*
X13848158Y-14336484D02*
X13867205Y-14346008D01*
X13867205Y-14346008D02*
X13876729Y-14355531D01*
X13876729Y-14355531D02*
X13886253Y-14374579D01*
X13886253Y-14374579D02*
X13886253Y-14393627D01*
X13886253Y-14393627D02*
X13876729Y-14422198D01*
X13876729Y-14422198D02*
X13762443Y-14536484D01*
X13762443Y-14536484D02*
X13886253Y-14536484D01*
X14010062Y-14336484D02*
X14029110Y-14336484D01*
X14029110Y-14336484D02*
X14048158Y-14346008D01*
X14048158Y-14346008D02*
X14057682Y-14355531D01*
X14057682Y-14355531D02*
X14067205Y-14374579D01*
X14067205Y-14374579D02*
X14076729Y-14412674D01*
X14076729Y-14412674D02*
X14076729Y-14460293D01*
X14076729Y-14460293D02*
X14067205Y-14498388D01*
X14067205Y-14498388D02*
X14057682Y-14517436D01*
X14057682Y-14517436D02*
X14048158Y-14526960D01*
X14048158Y-14526960D02*
X14029110Y-14536484D01*
X14029110Y-14536484D02*
X14010062Y-14536484D01*
X14010062Y-14536484D02*
X13991015Y-14526960D01*
X13991015Y-14526960D02*
X13981491Y-14517436D01*
X13981491Y-14517436D02*
X13971967Y-14498388D01*
X13971967Y-14498388D02*
X13962443Y-14460293D01*
X13962443Y-14460293D02*
X13962443Y-14412674D01*
X13962443Y-14412674D02*
X13971967Y-14374579D01*
X13971967Y-14374579D02*
X13981491Y-14355531D01*
X13981491Y-14355531D02*
X13991015Y-14346008D01*
X13991015Y-14346008D02*
X14010062Y-14336484D01*
X14200539Y-14336484D02*
X14219586Y-14336484D01*
X14219586Y-14336484D02*
X14238634Y-14346008D01*
X14238634Y-14346008D02*
X14248158Y-14355531D01*
X14248158Y-14355531D02*
X14257682Y-14374579D01*
X14257682Y-14374579D02*
X14267205Y-14412674D01*
X14267205Y-14412674D02*
X14267205Y-14460293D01*
X14267205Y-14460293D02*
X14257682Y-14498388D01*
X14257682Y-14498388D02*
X14248158Y-14517436D01*
X14248158Y-14517436D02*
X14238634Y-14526960D01*
X14238634Y-14526960D02*
X14219586Y-14536484D01*
X14219586Y-14536484D02*
X14200539Y-14536484D01*
X14200539Y-14536484D02*
X14181491Y-14526960D01*
X14181491Y-14526960D02*
X14171967Y-14517436D01*
X14171967Y-14517436D02*
X14162443Y-14498388D01*
X14162443Y-14498388D02*
X14152920Y-14460293D01*
X14152920Y-14460293D02*
X14152920Y-14412674D01*
X14152920Y-14412674D02*
X14162443Y-14374579D01*
X14162443Y-14374579D02*
X14171967Y-14355531D01*
X14171967Y-14355531D02*
X14181491Y-14346008D01*
X14181491Y-14346008D02*
X14200539Y-14336484D01*
X14352920Y-14536484D02*
X14352920Y-14403150D01*
X14352920Y-14422198D02*
X14362443Y-14412674D01*
X14362443Y-14412674D02*
X14381491Y-14403150D01*
X14381491Y-14403150D02*
X14410063Y-14403150D01*
X14410063Y-14403150D02*
X14429110Y-14412674D01*
X14429110Y-14412674D02*
X14438634Y-14431722D01*
X14438634Y-14431722D02*
X14438634Y-14536484D01*
X14438634Y-14431722D02*
X14448158Y-14412674D01*
X14448158Y-14412674D02*
X14467205Y-14403150D01*
X14467205Y-14403150D02*
X14495777Y-14403150D01*
X14495777Y-14403150D02*
X14514824Y-14412674D01*
X14514824Y-14412674D02*
X14524348Y-14431722D01*
X14524348Y-14431722D02*
X14524348Y-14536484D01*
X14619586Y-14536484D02*
X14619586Y-14403150D01*
X14619586Y-14422198D02*
X14629110Y-14412674D01*
X14629110Y-14412674D02*
X14648158Y-14403150D01*
X14648158Y-14403150D02*
X14676729Y-14403150D01*
X14676729Y-14403150D02*
X14695777Y-14412674D01*
X14695777Y-14412674D02*
X14705301Y-14431722D01*
X14705301Y-14431722D02*
X14705301Y-14536484D01*
X14705301Y-14431722D02*
X14714824Y-14412674D01*
X14714824Y-14412674D02*
X14733872Y-14403150D01*
X14733872Y-14403150D02*
X14762443Y-14403150D01*
X14762443Y-14403150D02*
X14781491Y-14412674D01*
X14781491Y-14412674D02*
X14791015Y-14431722D01*
X14791015Y-14431722D02*
X14791015Y-14536484D01*
X15181491Y-14326960D02*
X15010063Y-14584103D01*
X15438634Y-14336484D02*
X15457682Y-14336484D01*
X15457682Y-14336484D02*
X15476729Y-14346008D01*
X15476729Y-14346008D02*
X15486253Y-14355531D01*
X15486253Y-14355531D02*
X15495777Y-14374579D01*
X15495777Y-14374579D02*
X15505301Y-14412674D01*
X15505301Y-14412674D02*
X15505301Y-14460293D01*
X15505301Y-14460293D02*
X15495777Y-14498388D01*
X15495777Y-14498388D02*
X15486253Y-14517436D01*
X15486253Y-14517436D02*
X15476729Y-14526960D01*
X15476729Y-14526960D02*
X15457682Y-14536484D01*
X15457682Y-14536484D02*
X15438634Y-14536484D01*
X15438634Y-14536484D02*
X15419586Y-14526960D01*
X15419586Y-14526960D02*
X15410063Y-14517436D01*
X15410063Y-14517436D02*
X15400539Y-14498388D01*
X15400539Y-14498388D02*
X15391015Y-14460293D01*
X15391015Y-14460293D02*
X15391015Y-14412674D01*
X15391015Y-14412674D02*
X15400539Y-14374579D01*
X15400539Y-14374579D02*
X15410063Y-14355531D01*
X15410063Y-14355531D02*
X15419586Y-14346008D01*
X15419586Y-14346008D02*
X15438634Y-14336484D01*
X15591015Y-14517436D02*
X15600539Y-14526960D01*
X15600539Y-14526960D02*
X15591015Y-14536484D01*
X15591015Y-14536484D02*
X15581491Y-14526960D01*
X15581491Y-14526960D02*
X15591015Y-14517436D01*
X15591015Y-14517436D02*
X15591015Y-14536484D01*
X15791015Y-14536484D02*
X15676729Y-14536484D01*
X15733872Y-14536484D02*
X15733872Y-14336484D01*
X15733872Y-14336484D02*
X15714825Y-14365055D01*
X15714825Y-14365055D02*
X15695777Y-14384103D01*
X15695777Y-14384103D02*
X15676729Y-14393627D01*
X15867206Y-14355531D02*
X15876729Y-14346008D01*
X15876729Y-14346008D02*
X15895777Y-14336484D01*
X15895777Y-14336484D02*
X15943396Y-14336484D01*
X15943396Y-14336484D02*
X15962444Y-14346008D01*
X15962444Y-14346008D02*
X15971967Y-14355531D01*
X15971967Y-14355531D02*
X15981491Y-14374579D01*
X15981491Y-14374579D02*
X15981491Y-14393627D01*
X15981491Y-14393627D02*
X15971967Y-14422198D01*
X15971967Y-14422198D02*
X15857682Y-14536484D01*
X15857682Y-14536484D02*
X15981491Y-14536484D01*
X16152920Y-14336484D02*
X16114825Y-14336484D01*
X16114825Y-14336484D02*
X16095777Y-14346008D01*
X16095777Y-14346008D02*
X16086253Y-14355531D01*
X16086253Y-14355531D02*
X16067206Y-14384103D01*
X16067206Y-14384103D02*
X16057682Y-14422198D01*
X16057682Y-14422198D02*
X16057682Y-14498388D01*
X16057682Y-14498388D02*
X16067206Y-14517436D01*
X16067206Y-14517436D02*
X16076729Y-14526960D01*
X16076729Y-14526960D02*
X16095777Y-14536484D01*
X16095777Y-14536484D02*
X16133872Y-14536484D01*
X16133872Y-14536484D02*
X16152920Y-14526960D01*
X16152920Y-14526960D02*
X16162444Y-14517436D01*
X16162444Y-14517436D02*
X16171967Y-14498388D01*
X16171967Y-14498388D02*
X16171967Y-14450769D01*
X16171967Y-14450769D02*
X16162444Y-14431722D01*
X16162444Y-14431722D02*
X16152920Y-14422198D01*
X16152920Y-14422198D02*
X16133872Y-14412674D01*
X16133872Y-14412674D02*
X16095777Y-14412674D01*
X16095777Y-14412674D02*
X16076729Y-14422198D01*
X16076729Y-14422198D02*
X16067206Y-14431722D01*
X16067206Y-14431722D02*
X16057682Y-14450769D01*
X16295777Y-14336484D02*
X16314825Y-14336484D01*
X16314825Y-14336484D02*
X16333872Y-14346008D01*
X16333872Y-14346008D02*
X16343396Y-14355531D01*
X16343396Y-14355531D02*
X16352920Y-14374579D01*
X16352920Y-14374579D02*
X16362444Y-14412674D01*
X16362444Y-14412674D02*
X16362444Y-14460293D01*
X16362444Y-14460293D02*
X16352920Y-14498388D01*
X16352920Y-14498388D02*
X16343396Y-14517436D01*
X16343396Y-14517436D02*
X16333872Y-14526960D01*
X16333872Y-14526960D02*
X16314825Y-14536484D01*
X16314825Y-14536484D02*
X16295777Y-14536484D01*
X16295777Y-14536484D02*
X16276729Y-14526960D01*
X16276729Y-14526960D02*
X16267206Y-14517436D01*
X16267206Y-14517436D02*
X16257682Y-14498388D01*
X16257682Y-14498388D02*
X16248158Y-14460293D01*
X16248158Y-14460293D02*
X16248158Y-14412674D01*
X16248158Y-14412674D02*
X16257682Y-14374579D01*
X16257682Y-14374579D02*
X16267206Y-14355531D01*
X16267206Y-14355531D02*
X16276729Y-14346008D01*
X16276729Y-14346008D02*
X16295777Y-14336484D01*
X16438634Y-14336484D02*
X16438634Y-14374579D01*
X16514825Y-14336484D02*
X16514825Y-14374579D01*
X16810063Y-14612674D02*
X16800539Y-14603150D01*
X16800539Y-14603150D02*
X16781491Y-14574579D01*
X16781491Y-14574579D02*
X16771968Y-14555531D01*
X16771968Y-14555531D02*
X16762444Y-14526960D01*
X16762444Y-14526960D02*
X16752920Y-14479341D01*
X16752920Y-14479341D02*
X16752920Y-14441246D01*
X16752920Y-14441246D02*
X16762444Y-14393627D01*
X16762444Y-14393627D02*
X16771968Y-14365055D01*
X16771968Y-14365055D02*
X16781491Y-14346008D01*
X16781491Y-14346008D02*
X16800539Y-14317436D01*
X16800539Y-14317436D02*
X16810063Y-14307912D01*
X16971968Y-14403150D02*
X16971968Y-14536484D01*
X16924349Y-14326960D02*
X16876730Y-14469817D01*
X16876730Y-14469817D02*
X17000539Y-14469817D01*
X17229111Y-14536484D02*
X17229111Y-14336484D01*
X17314825Y-14536484D02*
X17314825Y-14431722D01*
X17314825Y-14431722D02*
X17305301Y-14412674D01*
X17305301Y-14412674D02*
X17286253Y-14403150D01*
X17286253Y-14403150D02*
X17257682Y-14403150D01*
X17257682Y-14403150D02*
X17238634Y-14412674D01*
X17238634Y-14412674D02*
X17229111Y-14422198D01*
X17438634Y-14536484D02*
X17419587Y-14526960D01*
X17419587Y-14526960D02*
X17410063Y-14517436D01*
X17410063Y-14517436D02*
X17400539Y-14498388D01*
X17400539Y-14498388D02*
X17400539Y-14441246D01*
X17400539Y-14441246D02*
X17410063Y-14422198D01*
X17410063Y-14422198D02*
X17419587Y-14412674D01*
X17419587Y-14412674D02*
X17438634Y-14403150D01*
X17438634Y-14403150D02*
X17467206Y-14403150D01*
X17467206Y-14403150D02*
X17486253Y-14412674D01*
X17486253Y-14412674D02*
X17495777Y-14422198D01*
X17495777Y-14422198D02*
X17505301Y-14441246D01*
X17505301Y-14441246D02*
X17505301Y-14498388D01*
X17505301Y-14498388D02*
X17495777Y-14517436D01*
X17495777Y-14517436D02*
X17486253Y-14526960D01*
X17486253Y-14526960D02*
X17467206Y-14536484D01*
X17467206Y-14536484D02*
X17438634Y-14536484D01*
X17619587Y-14536484D02*
X17600539Y-14526960D01*
X17600539Y-14526960D02*
X17591015Y-14507912D01*
X17591015Y-14507912D02*
X17591015Y-14336484D01*
X17771968Y-14526960D02*
X17752920Y-14536484D01*
X17752920Y-14536484D02*
X17714825Y-14536484D01*
X17714825Y-14536484D02*
X17695777Y-14526960D01*
X17695777Y-14526960D02*
X17686253Y-14507912D01*
X17686253Y-14507912D02*
X17686253Y-14431722D01*
X17686253Y-14431722D02*
X17695777Y-14412674D01*
X17695777Y-14412674D02*
X17714825Y-14403150D01*
X17714825Y-14403150D02*
X17752920Y-14403150D01*
X17752920Y-14403150D02*
X17771968Y-14412674D01*
X17771968Y-14412674D02*
X17781492Y-14431722D01*
X17781492Y-14431722D02*
X17781492Y-14450769D01*
X17781492Y-14450769D02*
X17686253Y-14469817D01*
X17857682Y-14526960D02*
X17876730Y-14536484D01*
X17876730Y-14536484D02*
X17914825Y-14536484D01*
X17914825Y-14536484D02*
X17933873Y-14526960D01*
X17933873Y-14526960D02*
X17943396Y-14507912D01*
X17943396Y-14507912D02*
X17943396Y-14498388D01*
X17943396Y-14498388D02*
X17933873Y-14479341D01*
X17933873Y-14479341D02*
X17914825Y-14469817D01*
X17914825Y-14469817D02*
X17886253Y-14469817D01*
X17886253Y-14469817D02*
X17867206Y-14460293D01*
X17867206Y-14460293D02*
X17857682Y-14441246D01*
X17857682Y-14441246D02*
X17857682Y-14431722D01*
X17857682Y-14431722D02*
X17867206Y-14412674D01*
X17867206Y-14412674D02*
X17886253Y-14403150D01*
X17886253Y-14403150D02*
X17914825Y-14403150D01*
X17914825Y-14403150D02*
X17933873Y-14412674D01*
X18010063Y-14612674D02*
X18019587Y-14603150D01*
X18019587Y-14603150D02*
X18038634Y-14574579D01*
X18038634Y-14574579D02*
X18048158Y-14555531D01*
X18048158Y-14555531D02*
X18057682Y-14526960D01*
X18057682Y-14526960D02*
X18067206Y-14479341D01*
X18067206Y-14479341D02*
X18067206Y-14441246D01*
X18067206Y-14441246D02*
X18057682Y-14393627D01*
X18057682Y-14393627D02*
X18048158Y-14365055D01*
X18048158Y-14365055D02*
X18038634Y-14346008D01*
X18038634Y-14346008D02*
X18019587Y-14317436D01*
X18019587Y-14317436D02*
X18010063Y-14307912D01*
M02*
