G04 #@! TF.GenerationSoftware,KiCad,Pcbnew,7.0.11*
G04 #@! TF.CreationDate,2024-05-08T11:49:02-04:00*
G04 #@! TF.ProjectId,stepper-interface,73746570-7065-4722-9d69-6e7465726661,1.0*
G04 #@! TF.SameCoordinates,Original*
G04 #@! TF.FileFunction,Legend,Bot*
G04 #@! TF.FilePolarity,Positive*
%FSLAX46Y46*%
G04 Gerber Fmt 4.6, Leading zero omitted, Abs format (unit mm)*
G04 Created by KiCad (PCBNEW 7.0.11) date 2024-05-08 11:49:02*
%MOMM*%
%LPD*%
G01*
G04 APERTURE LIST*
G04 Aperture macros list*
%AMRoundRect*
0 Rectangle with rounded corners*
0 $1 Rounding radius*
0 $2 $3 $4 $5 $6 $7 $8 $9 X,Y pos of 4 corners*
0 Add a 4 corners polygon primitive as box body*
4,1,4,$2,$3,$4,$5,$6,$7,$8,$9,$2,$3,0*
0 Add four circle primitives for the rounded corners*
1,1,$1+$1,$2,$3*
1,1,$1+$1,$4,$5*
1,1,$1+$1,$6,$7*
1,1,$1+$1,$8,$9*
0 Add four rect primitives between the rounded corners*
20,1,$1+$1,$2,$3,$4,$5,0*
20,1,$1+$1,$4,$5,$6,$7,0*
20,1,$1+$1,$6,$7,$8,$9,0*
20,1,$1+$1,$8,$9,$2,$3,0*%
G04 Aperture macros list end*
%ADD10C,0.150000*%
%ADD11C,0.125000*%
%ADD12C,0.100000*%
%ADD13C,0.120000*%
%ADD14C,0.200000*%
%ADD15C,0.127000*%
%ADD16C,0.010000*%
%ADD17C,6.400000*%
%ADD18C,4.400000*%
%ADD19C,1.000000*%
%ADD20RoundRect,0.135000X0.185000X-0.135000X0.185000X0.135000X-0.185000X0.135000X-0.185000X-0.135000X0*%
%ADD21RoundRect,0.135000X-0.185000X0.135000X-0.185000X-0.135000X0.185000X-0.135000X0.185000X0.135000X0*%
%ADD22RoundRect,0.140000X0.170000X-0.140000X0.170000X0.140000X-0.170000X0.140000X-0.170000X-0.140000X0*%
%ADD23R,1.300000X1.050000*%
%ADD24RoundRect,0.140000X-0.140000X-0.170000X0.140000X-0.170000X0.140000X0.170000X-0.140000X0.170000X0*%
%ADD25RoundRect,0.250000X-0.475000X0.250000X-0.475000X-0.250000X0.475000X-0.250000X0.475000X0.250000X0*%
%ADD26R,0.700000X0.520000*%
%ADD27R,0.700000X1.050000*%
%ADD28RoundRect,0.140000X0.140000X0.170000X-0.140000X0.170000X-0.140000X-0.170000X0.140000X-0.170000X0*%
%ADD29RoundRect,0.298500X0.298500X-0.453500X0.298500X0.453500X-0.298500X0.453500X-0.298500X-0.453500X0*%
%ADD30RoundRect,0.120600X0.281400X-0.631400X0.281400X0.631400X-0.281400X0.631400X-0.281400X-0.631400X0*%
%ADD31O,1.304000X2.804000*%
%ADD32RoundRect,0.326000X-0.326000X-0.826000X0.326000X-0.826000X0.326000X0.826000X-0.326000X0.826000X0*%
%ADD33C,0.750000*%
%ADD34R,1.200000X1.000000*%
%ADD35RoundRect,0.125000X0.250000X0.125000X-0.250000X0.125000X-0.250000X-0.125000X0.250000X-0.125000X0*%
%ADD36R,3.400000X4.300000*%
%ADD37RoundRect,0.140000X-0.170000X0.140000X-0.170000X-0.140000X0.170000X-0.140000X0.170000X0.140000X0*%
%ADD38R,1.193800X1.092200*%
%ADD39RoundRect,0.250000X0.475000X-0.250000X0.475000X0.250000X-0.475000X0.250000X-0.475000X-0.250000X0*%
%ADD40R,5.207000X1.854200*%
%ADD41RoundRect,0.135000X0.135000X0.185000X-0.135000X0.185000X-0.135000X-0.185000X0.135000X-0.185000X0*%
%ADD42R,0.280000X0.280000*%
%ADD43O,0.280000X0.850000*%
%ADD44C,0.600000*%
%ADD45R,1.050000X0.680000*%
%ADD46R,0.500000X0.260000*%
%ADD47R,0.700000X0.280000*%
%ADD48R,2.400000X1.650000*%
%ADD49RoundRect,0.050000X0.387500X0.050000X-0.387500X0.050000X-0.387500X-0.050000X0.387500X-0.050000X0*%
%ADD50RoundRect,0.050000X0.050000X0.387500X-0.050000X0.387500X-0.050000X-0.387500X0.050000X-0.387500X0*%
%ADD51R,3.200000X3.200000*%
G04 APERTURE END LIST*
D10*
X164081009Y-99107143D02*
X164128628Y-99192857D01*
X164128628Y-99192857D02*
X164176247Y-99221428D01*
X164176247Y-99221428D02*
X164271485Y-99250000D01*
X164271485Y-99250000D02*
X164414342Y-99250000D01*
X164414342Y-99250000D02*
X164509580Y-99221428D01*
X164509580Y-99221428D02*
X164557200Y-99192857D01*
X164557200Y-99192857D02*
X164604819Y-99135714D01*
X164604819Y-99135714D02*
X164604819Y-98907143D01*
X164604819Y-98907143D02*
X163604819Y-98907143D01*
X163604819Y-98907143D02*
X163604819Y-99107143D01*
X163604819Y-99107143D02*
X163652438Y-99164286D01*
X163652438Y-99164286D02*
X163700057Y-99192857D01*
X163700057Y-99192857D02*
X163795295Y-99221428D01*
X163795295Y-99221428D02*
X163890533Y-99221428D01*
X163890533Y-99221428D02*
X163985771Y-99192857D01*
X163985771Y-99192857D02*
X164033390Y-99164286D01*
X164033390Y-99164286D02*
X164081009Y-99107143D01*
X164081009Y-99107143D02*
X164081009Y-98907143D01*
X163700057Y-99478571D02*
X163652438Y-99507143D01*
X163652438Y-99507143D02*
X163604819Y-99564286D01*
X163604819Y-99564286D02*
X163604819Y-99707143D01*
X163604819Y-99707143D02*
X163652438Y-99764286D01*
X163652438Y-99764286D02*
X163700057Y-99792857D01*
X163700057Y-99792857D02*
X163795295Y-99821428D01*
X163795295Y-99821428D02*
X163890533Y-99821428D01*
X163890533Y-99821428D02*
X164033390Y-99792857D01*
X164033390Y-99792857D02*
X164604819Y-99450000D01*
X164604819Y-99450000D02*
X164604819Y-99821428D01*
X164319104Y-103421428D02*
X164319104Y-103707143D01*
X164604819Y-103364285D02*
X163604819Y-103564285D01*
X163604819Y-103564285D02*
X164604819Y-103764285D01*
X164604819Y-104278571D02*
X164604819Y-103935714D01*
X164604819Y-104107143D02*
X163604819Y-104107143D01*
X163604819Y-104107143D02*
X163747676Y-104050000D01*
X163747676Y-104050000D02*
X163842914Y-103992857D01*
X163842914Y-103992857D02*
X163890533Y-103935714D01*
D11*
X134077690Y-97540476D02*
X134577690Y-97540476D01*
X134577690Y-97540476D02*
X134220547Y-97373809D01*
X134220547Y-97373809D02*
X134577690Y-97207143D01*
X134577690Y-97207143D02*
X134077690Y-97207143D01*
X134077690Y-96897618D02*
X134101500Y-96945237D01*
X134101500Y-96945237D02*
X134125309Y-96969047D01*
X134125309Y-96969047D02*
X134172928Y-96992856D01*
X134172928Y-96992856D02*
X134315785Y-96992856D01*
X134315785Y-96992856D02*
X134363404Y-96969047D01*
X134363404Y-96969047D02*
X134387214Y-96945237D01*
X134387214Y-96945237D02*
X134411023Y-96897618D01*
X134411023Y-96897618D02*
X134411023Y-96826190D01*
X134411023Y-96826190D02*
X134387214Y-96778571D01*
X134387214Y-96778571D02*
X134363404Y-96754761D01*
X134363404Y-96754761D02*
X134315785Y-96730952D01*
X134315785Y-96730952D02*
X134172928Y-96730952D01*
X134172928Y-96730952D02*
X134125309Y-96754761D01*
X134125309Y-96754761D02*
X134101500Y-96778571D01*
X134101500Y-96778571D02*
X134077690Y-96826190D01*
X134077690Y-96826190D02*
X134077690Y-96897618D01*
X134077690Y-96445237D02*
X134101500Y-96492856D01*
X134101500Y-96492856D02*
X134149119Y-96516666D01*
X134149119Y-96516666D02*
X134577690Y-96516666D01*
X134101500Y-96064285D02*
X134077690Y-96111904D01*
X134077690Y-96111904D02*
X134077690Y-96207142D01*
X134077690Y-96207142D02*
X134101500Y-96254761D01*
X134101500Y-96254761D02*
X134149119Y-96278570D01*
X134149119Y-96278570D02*
X134339595Y-96278570D01*
X134339595Y-96278570D02*
X134387214Y-96254761D01*
X134387214Y-96254761D02*
X134411023Y-96207142D01*
X134411023Y-96207142D02*
X134411023Y-96111904D01*
X134411023Y-96111904D02*
X134387214Y-96064285D01*
X134387214Y-96064285D02*
X134339595Y-96040475D01*
X134339595Y-96040475D02*
X134291976Y-96040475D01*
X134291976Y-96040475D02*
X134244357Y-96278570D01*
X134077690Y-95873809D02*
X134411023Y-95611904D01*
X134411023Y-95873809D02*
X134077690Y-95611904D01*
X133772690Y-98766664D02*
X133772690Y-98719045D01*
X133772690Y-98719045D02*
X133748880Y-98671426D01*
X133748880Y-98671426D02*
X133725071Y-98647616D01*
X133725071Y-98647616D02*
X133677452Y-98623807D01*
X133677452Y-98623807D02*
X133582214Y-98599997D01*
X133582214Y-98599997D02*
X133463166Y-98599997D01*
X133463166Y-98599997D02*
X133367928Y-98623807D01*
X133367928Y-98623807D02*
X133320309Y-98647616D01*
X133320309Y-98647616D02*
X133296500Y-98671426D01*
X133296500Y-98671426D02*
X133272690Y-98719045D01*
X133272690Y-98719045D02*
X133272690Y-98766664D01*
X133272690Y-98766664D02*
X133296500Y-98814283D01*
X133296500Y-98814283D02*
X133320309Y-98838092D01*
X133320309Y-98838092D02*
X133367928Y-98861902D01*
X133367928Y-98861902D02*
X133463166Y-98885711D01*
X133463166Y-98885711D02*
X133582214Y-98885711D01*
X133582214Y-98885711D02*
X133677452Y-98861902D01*
X133677452Y-98861902D02*
X133725071Y-98838092D01*
X133725071Y-98838092D02*
X133748880Y-98814283D01*
X133748880Y-98814283D02*
X133772690Y-98766664D01*
X133558404Y-98314283D02*
X133582214Y-98361902D01*
X133582214Y-98361902D02*
X133606023Y-98385712D01*
X133606023Y-98385712D02*
X133653642Y-98409521D01*
X133653642Y-98409521D02*
X133677452Y-98409521D01*
X133677452Y-98409521D02*
X133725071Y-98385712D01*
X133725071Y-98385712D02*
X133748880Y-98361902D01*
X133748880Y-98361902D02*
X133772690Y-98314283D01*
X133772690Y-98314283D02*
X133772690Y-98219045D01*
X133772690Y-98219045D02*
X133748880Y-98171426D01*
X133748880Y-98171426D02*
X133725071Y-98147617D01*
X133725071Y-98147617D02*
X133677452Y-98123807D01*
X133677452Y-98123807D02*
X133653642Y-98123807D01*
X133653642Y-98123807D02*
X133606023Y-98147617D01*
X133606023Y-98147617D02*
X133582214Y-98171426D01*
X133582214Y-98171426D02*
X133558404Y-98219045D01*
X133558404Y-98219045D02*
X133558404Y-98314283D01*
X133558404Y-98314283D02*
X133534595Y-98361902D01*
X133534595Y-98361902D02*
X133510785Y-98385712D01*
X133510785Y-98385712D02*
X133463166Y-98409521D01*
X133463166Y-98409521D02*
X133367928Y-98409521D01*
X133367928Y-98409521D02*
X133320309Y-98385712D01*
X133320309Y-98385712D02*
X133296500Y-98361902D01*
X133296500Y-98361902D02*
X133272690Y-98314283D01*
X133272690Y-98314283D02*
X133272690Y-98219045D01*
X133272690Y-98219045D02*
X133296500Y-98171426D01*
X133296500Y-98171426D02*
X133320309Y-98147617D01*
X133320309Y-98147617D02*
X133367928Y-98123807D01*
X133367928Y-98123807D02*
X133463166Y-98123807D01*
X133463166Y-98123807D02*
X133510785Y-98147617D01*
X133510785Y-98147617D02*
X133534595Y-98171426D01*
X133534595Y-98171426D02*
X133558404Y-98219045D01*
X133772690Y-97957141D02*
X133772690Y-97623808D01*
X133772690Y-97623808D02*
X133272690Y-97838093D01*
X133606023Y-97219046D02*
X133272690Y-97219046D01*
X133796500Y-97338094D02*
X133439357Y-97457141D01*
X133439357Y-97457141D02*
X133439357Y-97147618D01*
X133772690Y-97004761D02*
X133772690Y-96695237D01*
X133772690Y-96695237D02*
X133582214Y-96861904D01*
X133582214Y-96861904D02*
X133582214Y-96790475D01*
X133582214Y-96790475D02*
X133558404Y-96742856D01*
X133558404Y-96742856D02*
X133534595Y-96719047D01*
X133534595Y-96719047D02*
X133486976Y-96695237D01*
X133486976Y-96695237D02*
X133367928Y-96695237D01*
X133367928Y-96695237D02*
X133320309Y-96719047D01*
X133320309Y-96719047D02*
X133296500Y-96742856D01*
X133296500Y-96742856D02*
X133272690Y-96790475D01*
X133272690Y-96790475D02*
X133272690Y-96933332D01*
X133272690Y-96933332D02*
X133296500Y-96980951D01*
X133296500Y-96980951D02*
X133320309Y-97004761D01*
X133558404Y-96409523D02*
X133582214Y-96457142D01*
X133582214Y-96457142D02*
X133606023Y-96480952D01*
X133606023Y-96480952D02*
X133653642Y-96504761D01*
X133653642Y-96504761D02*
X133677452Y-96504761D01*
X133677452Y-96504761D02*
X133725071Y-96480952D01*
X133725071Y-96480952D02*
X133748880Y-96457142D01*
X133748880Y-96457142D02*
X133772690Y-96409523D01*
X133772690Y-96409523D02*
X133772690Y-96314285D01*
X133772690Y-96314285D02*
X133748880Y-96266666D01*
X133748880Y-96266666D02*
X133725071Y-96242857D01*
X133725071Y-96242857D02*
X133677452Y-96219047D01*
X133677452Y-96219047D02*
X133653642Y-96219047D01*
X133653642Y-96219047D02*
X133606023Y-96242857D01*
X133606023Y-96242857D02*
X133582214Y-96266666D01*
X133582214Y-96266666D02*
X133558404Y-96314285D01*
X133558404Y-96314285D02*
X133558404Y-96409523D01*
X133558404Y-96409523D02*
X133534595Y-96457142D01*
X133534595Y-96457142D02*
X133510785Y-96480952D01*
X133510785Y-96480952D02*
X133463166Y-96504761D01*
X133463166Y-96504761D02*
X133367928Y-96504761D01*
X133367928Y-96504761D02*
X133320309Y-96480952D01*
X133320309Y-96480952D02*
X133296500Y-96457142D01*
X133296500Y-96457142D02*
X133272690Y-96409523D01*
X133272690Y-96409523D02*
X133272690Y-96314285D01*
X133272690Y-96314285D02*
X133296500Y-96266666D01*
X133296500Y-96266666D02*
X133320309Y-96242857D01*
X133320309Y-96242857D02*
X133367928Y-96219047D01*
X133367928Y-96219047D02*
X133463166Y-96219047D01*
X133463166Y-96219047D02*
X133510785Y-96242857D01*
X133510785Y-96242857D02*
X133534595Y-96266666D01*
X133534595Y-96266666D02*
X133558404Y-96314285D01*
X133772690Y-95909524D02*
X133772690Y-95861905D01*
X133772690Y-95861905D02*
X133748880Y-95814286D01*
X133748880Y-95814286D02*
X133725071Y-95790476D01*
X133725071Y-95790476D02*
X133677452Y-95766667D01*
X133677452Y-95766667D02*
X133582214Y-95742857D01*
X133582214Y-95742857D02*
X133463166Y-95742857D01*
X133463166Y-95742857D02*
X133367928Y-95766667D01*
X133367928Y-95766667D02*
X133320309Y-95790476D01*
X133320309Y-95790476D02*
X133296500Y-95814286D01*
X133296500Y-95814286D02*
X133272690Y-95861905D01*
X133272690Y-95861905D02*
X133272690Y-95909524D01*
X133272690Y-95909524D02*
X133296500Y-95957143D01*
X133296500Y-95957143D02*
X133320309Y-95980952D01*
X133320309Y-95980952D02*
X133367928Y-96004762D01*
X133367928Y-96004762D02*
X133463166Y-96028571D01*
X133463166Y-96028571D02*
X133582214Y-96028571D01*
X133582214Y-96028571D02*
X133677452Y-96004762D01*
X133677452Y-96004762D02*
X133725071Y-95980952D01*
X133725071Y-95980952D02*
X133748880Y-95957143D01*
X133748880Y-95957143D02*
X133772690Y-95909524D01*
X133725071Y-95552381D02*
X133748880Y-95528572D01*
X133748880Y-95528572D02*
X133772690Y-95480953D01*
X133772690Y-95480953D02*
X133772690Y-95361905D01*
X133772690Y-95361905D02*
X133748880Y-95314286D01*
X133748880Y-95314286D02*
X133725071Y-95290477D01*
X133725071Y-95290477D02*
X133677452Y-95266667D01*
X133677452Y-95266667D02*
X133629833Y-95266667D01*
X133629833Y-95266667D02*
X133558404Y-95290477D01*
X133558404Y-95290477D02*
X133272690Y-95576191D01*
X133272690Y-95576191D02*
X133272690Y-95266667D01*
X133606023Y-94838096D02*
X133272690Y-94838096D01*
X133796500Y-94957144D02*
X133439357Y-95076191D01*
X133439357Y-95076191D02*
X133439357Y-94766668D01*
X133772690Y-94623811D02*
X133772690Y-94314287D01*
X133772690Y-94314287D02*
X133582214Y-94480954D01*
X133582214Y-94480954D02*
X133582214Y-94409525D01*
X133582214Y-94409525D02*
X133558404Y-94361906D01*
X133558404Y-94361906D02*
X133534595Y-94338097D01*
X133534595Y-94338097D02*
X133486976Y-94314287D01*
X133486976Y-94314287D02*
X133367928Y-94314287D01*
X133367928Y-94314287D02*
X133320309Y-94338097D01*
X133320309Y-94338097D02*
X133296500Y-94361906D01*
X133296500Y-94361906D02*
X133272690Y-94409525D01*
X133272690Y-94409525D02*
X133272690Y-94552382D01*
X133272690Y-94552382D02*
X133296500Y-94600001D01*
X133296500Y-94600001D02*
X133320309Y-94623811D01*
X170340476Y-106922309D02*
X170340476Y-106422309D01*
X170340476Y-106422309D02*
X170173809Y-106779452D01*
X170173809Y-106779452D02*
X170007143Y-106422309D01*
X170007143Y-106422309D02*
X170007143Y-106922309D01*
X169697618Y-106922309D02*
X169745237Y-106898500D01*
X169745237Y-106898500D02*
X169769047Y-106874690D01*
X169769047Y-106874690D02*
X169792856Y-106827071D01*
X169792856Y-106827071D02*
X169792856Y-106684214D01*
X169792856Y-106684214D02*
X169769047Y-106636595D01*
X169769047Y-106636595D02*
X169745237Y-106612785D01*
X169745237Y-106612785D02*
X169697618Y-106588976D01*
X169697618Y-106588976D02*
X169626190Y-106588976D01*
X169626190Y-106588976D02*
X169578571Y-106612785D01*
X169578571Y-106612785D02*
X169554761Y-106636595D01*
X169554761Y-106636595D02*
X169530952Y-106684214D01*
X169530952Y-106684214D02*
X169530952Y-106827071D01*
X169530952Y-106827071D02*
X169554761Y-106874690D01*
X169554761Y-106874690D02*
X169578571Y-106898500D01*
X169578571Y-106898500D02*
X169626190Y-106922309D01*
X169626190Y-106922309D02*
X169697618Y-106922309D01*
X169245237Y-106922309D02*
X169292856Y-106898500D01*
X169292856Y-106898500D02*
X169316666Y-106850880D01*
X169316666Y-106850880D02*
X169316666Y-106422309D01*
X168864285Y-106898500D02*
X168911904Y-106922309D01*
X168911904Y-106922309D02*
X169007142Y-106922309D01*
X169007142Y-106922309D02*
X169054761Y-106898500D01*
X169054761Y-106898500D02*
X169078570Y-106850880D01*
X169078570Y-106850880D02*
X169078570Y-106660404D01*
X169078570Y-106660404D02*
X169054761Y-106612785D01*
X169054761Y-106612785D02*
X169007142Y-106588976D01*
X169007142Y-106588976D02*
X168911904Y-106588976D01*
X168911904Y-106588976D02*
X168864285Y-106612785D01*
X168864285Y-106612785D02*
X168840475Y-106660404D01*
X168840475Y-106660404D02*
X168840475Y-106708023D01*
X168840475Y-106708023D02*
X169078570Y-106755642D01*
X168673809Y-106922309D02*
X168411904Y-106588976D01*
X168673809Y-106588976D02*
X168411904Y-106922309D01*
X171566664Y-107227309D02*
X171519045Y-107227309D01*
X171519045Y-107227309D02*
X171471426Y-107251119D01*
X171471426Y-107251119D02*
X171447616Y-107274928D01*
X171447616Y-107274928D02*
X171423807Y-107322547D01*
X171423807Y-107322547D02*
X171399997Y-107417785D01*
X171399997Y-107417785D02*
X171399997Y-107536833D01*
X171399997Y-107536833D02*
X171423807Y-107632071D01*
X171423807Y-107632071D02*
X171447616Y-107679690D01*
X171447616Y-107679690D02*
X171471426Y-107703500D01*
X171471426Y-107703500D02*
X171519045Y-107727309D01*
X171519045Y-107727309D02*
X171566664Y-107727309D01*
X171566664Y-107727309D02*
X171614283Y-107703500D01*
X171614283Y-107703500D02*
X171638092Y-107679690D01*
X171638092Y-107679690D02*
X171661902Y-107632071D01*
X171661902Y-107632071D02*
X171685711Y-107536833D01*
X171685711Y-107536833D02*
X171685711Y-107417785D01*
X171685711Y-107417785D02*
X171661902Y-107322547D01*
X171661902Y-107322547D02*
X171638092Y-107274928D01*
X171638092Y-107274928D02*
X171614283Y-107251119D01*
X171614283Y-107251119D02*
X171566664Y-107227309D01*
X171114283Y-107441595D02*
X171161902Y-107417785D01*
X171161902Y-107417785D02*
X171185712Y-107393976D01*
X171185712Y-107393976D02*
X171209521Y-107346357D01*
X171209521Y-107346357D02*
X171209521Y-107322547D01*
X171209521Y-107322547D02*
X171185712Y-107274928D01*
X171185712Y-107274928D02*
X171161902Y-107251119D01*
X171161902Y-107251119D02*
X171114283Y-107227309D01*
X171114283Y-107227309D02*
X171019045Y-107227309D01*
X171019045Y-107227309D02*
X170971426Y-107251119D01*
X170971426Y-107251119D02*
X170947617Y-107274928D01*
X170947617Y-107274928D02*
X170923807Y-107322547D01*
X170923807Y-107322547D02*
X170923807Y-107346357D01*
X170923807Y-107346357D02*
X170947617Y-107393976D01*
X170947617Y-107393976D02*
X170971426Y-107417785D01*
X170971426Y-107417785D02*
X171019045Y-107441595D01*
X171019045Y-107441595D02*
X171114283Y-107441595D01*
X171114283Y-107441595D02*
X171161902Y-107465404D01*
X171161902Y-107465404D02*
X171185712Y-107489214D01*
X171185712Y-107489214D02*
X171209521Y-107536833D01*
X171209521Y-107536833D02*
X171209521Y-107632071D01*
X171209521Y-107632071D02*
X171185712Y-107679690D01*
X171185712Y-107679690D02*
X171161902Y-107703500D01*
X171161902Y-107703500D02*
X171114283Y-107727309D01*
X171114283Y-107727309D02*
X171019045Y-107727309D01*
X171019045Y-107727309D02*
X170971426Y-107703500D01*
X170971426Y-107703500D02*
X170947617Y-107679690D01*
X170947617Y-107679690D02*
X170923807Y-107632071D01*
X170923807Y-107632071D02*
X170923807Y-107536833D01*
X170923807Y-107536833D02*
X170947617Y-107489214D01*
X170947617Y-107489214D02*
X170971426Y-107465404D01*
X170971426Y-107465404D02*
X171019045Y-107441595D01*
X170757141Y-107227309D02*
X170423808Y-107227309D01*
X170423808Y-107227309D02*
X170638093Y-107727309D01*
X170019046Y-107393976D02*
X170019046Y-107727309D01*
X170138094Y-107203500D02*
X170257141Y-107560642D01*
X170257141Y-107560642D02*
X169947618Y-107560642D01*
X169804761Y-107227309D02*
X169495237Y-107227309D01*
X169495237Y-107227309D02*
X169661904Y-107417785D01*
X169661904Y-107417785D02*
X169590475Y-107417785D01*
X169590475Y-107417785D02*
X169542856Y-107441595D01*
X169542856Y-107441595D02*
X169519047Y-107465404D01*
X169519047Y-107465404D02*
X169495237Y-107513023D01*
X169495237Y-107513023D02*
X169495237Y-107632071D01*
X169495237Y-107632071D02*
X169519047Y-107679690D01*
X169519047Y-107679690D02*
X169542856Y-107703500D01*
X169542856Y-107703500D02*
X169590475Y-107727309D01*
X169590475Y-107727309D02*
X169733332Y-107727309D01*
X169733332Y-107727309D02*
X169780951Y-107703500D01*
X169780951Y-107703500D02*
X169804761Y-107679690D01*
X169209523Y-107441595D02*
X169257142Y-107417785D01*
X169257142Y-107417785D02*
X169280952Y-107393976D01*
X169280952Y-107393976D02*
X169304761Y-107346357D01*
X169304761Y-107346357D02*
X169304761Y-107322547D01*
X169304761Y-107322547D02*
X169280952Y-107274928D01*
X169280952Y-107274928D02*
X169257142Y-107251119D01*
X169257142Y-107251119D02*
X169209523Y-107227309D01*
X169209523Y-107227309D02*
X169114285Y-107227309D01*
X169114285Y-107227309D02*
X169066666Y-107251119D01*
X169066666Y-107251119D02*
X169042857Y-107274928D01*
X169042857Y-107274928D02*
X169019047Y-107322547D01*
X169019047Y-107322547D02*
X169019047Y-107346357D01*
X169019047Y-107346357D02*
X169042857Y-107393976D01*
X169042857Y-107393976D02*
X169066666Y-107417785D01*
X169066666Y-107417785D02*
X169114285Y-107441595D01*
X169114285Y-107441595D02*
X169209523Y-107441595D01*
X169209523Y-107441595D02*
X169257142Y-107465404D01*
X169257142Y-107465404D02*
X169280952Y-107489214D01*
X169280952Y-107489214D02*
X169304761Y-107536833D01*
X169304761Y-107536833D02*
X169304761Y-107632071D01*
X169304761Y-107632071D02*
X169280952Y-107679690D01*
X169280952Y-107679690D02*
X169257142Y-107703500D01*
X169257142Y-107703500D02*
X169209523Y-107727309D01*
X169209523Y-107727309D02*
X169114285Y-107727309D01*
X169114285Y-107727309D02*
X169066666Y-107703500D01*
X169066666Y-107703500D02*
X169042857Y-107679690D01*
X169042857Y-107679690D02*
X169019047Y-107632071D01*
X169019047Y-107632071D02*
X169019047Y-107536833D01*
X169019047Y-107536833D02*
X169042857Y-107489214D01*
X169042857Y-107489214D02*
X169066666Y-107465404D01*
X169066666Y-107465404D02*
X169114285Y-107441595D01*
X168709524Y-107227309D02*
X168661905Y-107227309D01*
X168661905Y-107227309D02*
X168614286Y-107251119D01*
X168614286Y-107251119D02*
X168590476Y-107274928D01*
X168590476Y-107274928D02*
X168566667Y-107322547D01*
X168566667Y-107322547D02*
X168542857Y-107417785D01*
X168542857Y-107417785D02*
X168542857Y-107536833D01*
X168542857Y-107536833D02*
X168566667Y-107632071D01*
X168566667Y-107632071D02*
X168590476Y-107679690D01*
X168590476Y-107679690D02*
X168614286Y-107703500D01*
X168614286Y-107703500D02*
X168661905Y-107727309D01*
X168661905Y-107727309D02*
X168709524Y-107727309D01*
X168709524Y-107727309D02*
X168757143Y-107703500D01*
X168757143Y-107703500D02*
X168780952Y-107679690D01*
X168780952Y-107679690D02*
X168804762Y-107632071D01*
X168804762Y-107632071D02*
X168828571Y-107536833D01*
X168828571Y-107536833D02*
X168828571Y-107417785D01*
X168828571Y-107417785D02*
X168804762Y-107322547D01*
X168804762Y-107322547D02*
X168780952Y-107274928D01*
X168780952Y-107274928D02*
X168757143Y-107251119D01*
X168757143Y-107251119D02*
X168709524Y-107227309D01*
X168114286Y-107393976D02*
X168114286Y-107727309D01*
X168233334Y-107203500D02*
X168352381Y-107560642D01*
X168352381Y-107560642D02*
X168042858Y-107560642D01*
X167638096Y-107393976D02*
X167638096Y-107727309D01*
X167757144Y-107203500D02*
X167876191Y-107560642D01*
X167876191Y-107560642D02*
X167566668Y-107560642D01*
X167423811Y-107227309D02*
X167114287Y-107227309D01*
X167114287Y-107227309D02*
X167280954Y-107417785D01*
X167280954Y-107417785D02*
X167209525Y-107417785D01*
X167209525Y-107417785D02*
X167161906Y-107441595D01*
X167161906Y-107441595D02*
X167138097Y-107465404D01*
X167138097Y-107465404D02*
X167114287Y-107513023D01*
X167114287Y-107513023D02*
X167114287Y-107632071D01*
X167114287Y-107632071D02*
X167138097Y-107679690D01*
X167138097Y-107679690D02*
X167161906Y-107703500D01*
X167161906Y-107703500D02*
X167209525Y-107727309D01*
X167209525Y-107727309D02*
X167352382Y-107727309D01*
X167352382Y-107727309D02*
X167400001Y-107703500D01*
X167400001Y-107703500D02*
X167423811Y-107679690D01*
D10*
X164319104Y-101921428D02*
X164319104Y-102207143D01*
X164604819Y-101864285D02*
X163604819Y-102064285D01*
X163604819Y-102064285D02*
X164604819Y-102264285D01*
X163700057Y-102435714D02*
X163652438Y-102464286D01*
X163652438Y-102464286D02*
X163604819Y-102521429D01*
X163604819Y-102521429D02*
X163604819Y-102664286D01*
X163604819Y-102664286D02*
X163652438Y-102721429D01*
X163652438Y-102721429D02*
X163700057Y-102750000D01*
X163700057Y-102750000D02*
X163795295Y-102778571D01*
X163795295Y-102778571D02*
X163890533Y-102778571D01*
X163890533Y-102778571D02*
X164033390Y-102750000D01*
X164033390Y-102750000D02*
X164604819Y-102407143D01*
X164604819Y-102407143D02*
X164604819Y-102778571D01*
X138857142Y-104102438D02*
X138914285Y-104054819D01*
X138914285Y-104054819D02*
X138999999Y-104054819D01*
X138999999Y-104054819D02*
X139085713Y-104102438D01*
X139085713Y-104102438D02*
X139142856Y-104197676D01*
X139142856Y-104197676D02*
X139171427Y-104292914D01*
X139171427Y-104292914D02*
X139199999Y-104483390D01*
X139199999Y-104483390D02*
X139199999Y-104626247D01*
X139199999Y-104626247D02*
X139171427Y-104816723D01*
X139171427Y-104816723D02*
X139142856Y-104911961D01*
X139142856Y-104911961D02*
X139085713Y-105007200D01*
X139085713Y-105007200D02*
X138999999Y-105054819D01*
X138999999Y-105054819D02*
X138942856Y-105054819D01*
X138942856Y-105054819D02*
X138857142Y-105007200D01*
X138857142Y-105007200D02*
X138828570Y-104959580D01*
X138828570Y-104959580D02*
X138828570Y-104626247D01*
X138828570Y-104626247D02*
X138942856Y-104626247D01*
X138571427Y-105054819D02*
X138571427Y-104054819D01*
X138571427Y-104054819D02*
X138228570Y-105054819D01*
X138228570Y-105054819D02*
X138228570Y-104054819D01*
X137942856Y-105054819D02*
X137942856Y-104054819D01*
X137942856Y-104054819D02*
X137799999Y-104054819D01*
X137799999Y-104054819D02*
X137714285Y-104102438D01*
X137714285Y-104102438D02*
X137657142Y-104197676D01*
X137657142Y-104197676D02*
X137628571Y-104292914D01*
X137628571Y-104292914D02*
X137599999Y-104483390D01*
X137599999Y-104483390D02*
X137599999Y-104626247D01*
X137599999Y-104626247D02*
X137628571Y-104816723D01*
X137628571Y-104816723D02*
X137657142Y-104911961D01*
X137657142Y-104911961D02*
X137714285Y-105007200D01*
X137714285Y-105007200D02*
X137799999Y-105054819D01*
X137799999Y-105054819D02*
X137942856Y-105054819D01*
X138828572Y-99388152D02*
X138828572Y-100054819D01*
X138971429Y-99007200D02*
X139114286Y-99721485D01*
X139114286Y-99721485D02*
X138742857Y-99721485D01*
X138428571Y-99483390D02*
X138485714Y-99435771D01*
X138485714Y-99435771D02*
X138514285Y-99388152D01*
X138514285Y-99388152D02*
X138542857Y-99292914D01*
X138542857Y-99292914D02*
X138542857Y-99245295D01*
X138542857Y-99245295D02*
X138514285Y-99150057D01*
X138514285Y-99150057D02*
X138485714Y-99102438D01*
X138485714Y-99102438D02*
X138428571Y-99054819D01*
X138428571Y-99054819D02*
X138314285Y-99054819D01*
X138314285Y-99054819D02*
X138257143Y-99102438D01*
X138257143Y-99102438D02*
X138228571Y-99150057D01*
X138228571Y-99150057D02*
X138200000Y-99245295D01*
X138200000Y-99245295D02*
X138200000Y-99292914D01*
X138200000Y-99292914D02*
X138228571Y-99388152D01*
X138228571Y-99388152D02*
X138257143Y-99435771D01*
X138257143Y-99435771D02*
X138314285Y-99483390D01*
X138314285Y-99483390D02*
X138428571Y-99483390D01*
X138428571Y-99483390D02*
X138485714Y-99531009D01*
X138485714Y-99531009D02*
X138514285Y-99578628D01*
X138514285Y-99578628D02*
X138542857Y-99673866D01*
X138542857Y-99673866D02*
X138542857Y-99864342D01*
X138542857Y-99864342D02*
X138514285Y-99959580D01*
X138514285Y-99959580D02*
X138485714Y-100007200D01*
X138485714Y-100007200D02*
X138428571Y-100054819D01*
X138428571Y-100054819D02*
X138314285Y-100054819D01*
X138314285Y-100054819D02*
X138257143Y-100007200D01*
X138257143Y-100007200D02*
X138228571Y-99959580D01*
X138228571Y-99959580D02*
X138200000Y-99864342D01*
X138200000Y-99864342D02*
X138200000Y-99673866D01*
X138200000Y-99673866D02*
X138228571Y-99578628D01*
X138228571Y-99578628D02*
X138257143Y-99531009D01*
X138257143Y-99531009D02*
X138314285Y-99483390D01*
X138028571Y-99054819D02*
X137828571Y-100054819D01*
X137828571Y-100054819D02*
X137628571Y-99054819D01*
X159485713Y-116054819D02*
X159685713Y-115578628D01*
X159828570Y-116054819D02*
X159828570Y-115054819D01*
X159828570Y-115054819D02*
X159599999Y-115054819D01*
X159599999Y-115054819D02*
X159542856Y-115102438D01*
X159542856Y-115102438D02*
X159514285Y-115150057D01*
X159514285Y-115150057D02*
X159485713Y-115245295D01*
X159485713Y-115245295D02*
X159485713Y-115388152D01*
X159485713Y-115388152D02*
X159514285Y-115483390D01*
X159514285Y-115483390D02*
X159542856Y-115531009D01*
X159542856Y-115531009D02*
X159599999Y-115578628D01*
X159599999Y-115578628D02*
X159828570Y-115578628D01*
X159228570Y-115531009D02*
X159028570Y-115531009D01*
X158942856Y-116054819D02*
X159228570Y-116054819D01*
X159228570Y-116054819D02*
X159228570Y-115054819D01*
X159228570Y-115054819D02*
X158942856Y-115054819D01*
X158485713Y-115531009D02*
X158685713Y-115531009D01*
X158685713Y-116054819D02*
X158685713Y-115054819D01*
X158685713Y-115054819D02*
X158399999Y-115054819D01*
X157885713Y-116054819D02*
X158171427Y-116054819D01*
X158171427Y-116054819D02*
X158171427Y-115054819D01*
X163857142Y-115102438D02*
X163914285Y-115054819D01*
X163914285Y-115054819D02*
X163999999Y-115054819D01*
X163999999Y-115054819D02*
X164085713Y-115102438D01*
X164085713Y-115102438D02*
X164142856Y-115197676D01*
X164142856Y-115197676D02*
X164171427Y-115292914D01*
X164171427Y-115292914D02*
X164199999Y-115483390D01*
X164199999Y-115483390D02*
X164199999Y-115626247D01*
X164199999Y-115626247D02*
X164171427Y-115816723D01*
X164171427Y-115816723D02*
X164142856Y-115911961D01*
X164142856Y-115911961D02*
X164085713Y-116007200D01*
X164085713Y-116007200D02*
X163999999Y-116054819D01*
X163999999Y-116054819D02*
X163942856Y-116054819D01*
X163942856Y-116054819D02*
X163857142Y-116007200D01*
X163857142Y-116007200D02*
X163828570Y-115959580D01*
X163828570Y-115959580D02*
X163828570Y-115626247D01*
X163828570Y-115626247D02*
X163942856Y-115626247D01*
X163571427Y-116054819D02*
X163571427Y-115054819D01*
X163571427Y-115054819D02*
X163228570Y-116054819D01*
X163228570Y-116054819D02*
X163228570Y-115054819D01*
X162942856Y-116054819D02*
X162942856Y-115054819D01*
X162942856Y-115054819D02*
X162799999Y-115054819D01*
X162799999Y-115054819D02*
X162714285Y-115102438D01*
X162714285Y-115102438D02*
X162657142Y-115197676D01*
X162657142Y-115197676D02*
X162628571Y-115292914D01*
X162628571Y-115292914D02*
X162599999Y-115483390D01*
X162599999Y-115483390D02*
X162599999Y-115626247D01*
X162599999Y-115626247D02*
X162628571Y-115816723D01*
X162628571Y-115816723D02*
X162657142Y-115911961D01*
X162657142Y-115911961D02*
X162714285Y-116007200D01*
X162714285Y-116007200D02*
X162799999Y-116054819D01*
X162799999Y-116054819D02*
X162942856Y-116054819D01*
X164081009Y-100607143D02*
X164128628Y-100692857D01*
X164128628Y-100692857D02*
X164176247Y-100721428D01*
X164176247Y-100721428D02*
X164271485Y-100750000D01*
X164271485Y-100750000D02*
X164414342Y-100750000D01*
X164414342Y-100750000D02*
X164509580Y-100721428D01*
X164509580Y-100721428D02*
X164557200Y-100692857D01*
X164557200Y-100692857D02*
X164604819Y-100635714D01*
X164604819Y-100635714D02*
X164604819Y-100407143D01*
X164604819Y-100407143D02*
X163604819Y-100407143D01*
X163604819Y-100407143D02*
X163604819Y-100607143D01*
X163604819Y-100607143D02*
X163652438Y-100664286D01*
X163652438Y-100664286D02*
X163700057Y-100692857D01*
X163700057Y-100692857D02*
X163795295Y-100721428D01*
X163795295Y-100721428D02*
X163890533Y-100721428D01*
X163890533Y-100721428D02*
X163985771Y-100692857D01*
X163985771Y-100692857D02*
X164033390Y-100664286D01*
X164033390Y-100664286D02*
X164081009Y-100607143D01*
X164081009Y-100607143D02*
X164081009Y-100407143D01*
X164604819Y-101321428D02*
X164604819Y-100978571D01*
X164604819Y-101150000D02*
X163604819Y-101150000D01*
X163604819Y-101150000D02*
X163747676Y-101092857D01*
X163747676Y-101092857D02*
X163842914Y-101035714D01*
X163842914Y-101035714D02*
X163890533Y-100978571D01*
D11*
X155840476Y-120422309D02*
X155840476Y-119922309D01*
X155840476Y-119922309D02*
X155673809Y-120279452D01*
X155673809Y-120279452D02*
X155507143Y-119922309D01*
X155507143Y-119922309D02*
X155507143Y-120422309D01*
X155197618Y-120422309D02*
X155245237Y-120398500D01*
X155245237Y-120398500D02*
X155269047Y-120374690D01*
X155269047Y-120374690D02*
X155292856Y-120327071D01*
X155292856Y-120327071D02*
X155292856Y-120184214D01*
X155292856Y-120184214D02*
X155269047Y-120136595D01*
X155269047Y-120136595D02*
X155245237Y-120112785D01*
X155245237Y-120112785D02*
X155197618Y-120088976D01*
X155197618Y-120088976D02*
X155126190Y-120088976D01*
X155126190Y-120088976D02*
X155078571Y-120112785D01*
X155078571Y-120112785D02*
X155054761Y-120136595D01*
X155054761Y-120136595D02*
X155030952Y-120184214D01*
X155030952Y-120184214D02*
X155030952Y-120327071D01*
X155030952Y-120327071D02*
X155054761Y-120374690D01*
X155054761Y-120374690D02*
X155078571Y-120398500D01*
X155078571Y-120398500D02*
X155126190Y-120422309D01*
X155126190Y-120422309D02*
X155197618Y-120422309D01*
X154745237Y-120422309D02*
X154792856Y-120398500D01*
X154792856Y-120398500D02*
X154816666Y-120350880D01*
X154816666Y-120350880D02*
X154816666Y-119922309D01*
X154364285Y-120398500D02*
X154411904Y-120422309D01*
X154411904Y-120422309D02*
X154507142Y-120422309D01*
X154507142Y-120422309D02*
X154554761Y-120398500D01*
X154554761Y-120398500D02*
X154578570Y-120350880D01*
X154578570Y-120350880D02*
X154578570Y-120160404D01*
X154578570Y-120160404D02*
X154554761Y-120112785D01*
X154554761Y-120112785D02*
X154507142Y-120088976D01*
X154507142Y-120088976D02*
X154411904Y-120088976D01*
X154411904Y-120088976D02*
X154364285Y-120112785D01*
X154364285Y-120112785D02*
X154340475Y-120160404D01*
X154340475Y-120160404D02*
X154340475Y-120208023D01*
X154340475Y-120208023D02*
X154578570Y-120255642D01*
X154173809Y-120422309D02*
X153911904Y-120088976D01*
X154173809Y-120088976D02*
X153911904Y-120422309D01*
X156923807Y-120727309D02*
X157161902Y-120727309D01*
X157161902Y-120727309D02*
X157185711Y-120965404D01*
X157185711Y-120965404D02*
X157161902Y-120941595D01*
X157161902Y-120941595D02*
X157114283Y-120917785D01*
X157114283Y-120917785D02*
X156995235Y-120917785D01*
X156995235Y-120917785D02*
X156947616Y-120941595D01*
X156947616Y-120941595D02*
X156923807Y-120965404D01*
X156923807Y-120965404D02*
X156899997Y-121013023D01*
X156899997Y-121013023D02*
X156899997Y-121132071D01*
X156899997Y-121132071D02*
X156923807Y-121179690D01*
X156923807Y-121179690D02*
X156947616Y-121203500D01*
X156947616Y-121203500D02*
X156995235Y-121227309D01*
X156995235Y-121227309D02*
X157114283Y-121227309D01*
X157114283Y-121227309D02*
X157161902Y-121203500D01*
X157161902Y-121203500D02*
X157185711Y-121179690D01*
X156590474Y-120727309D02*
X156542855Y-120727309D01*
X156542855Y-120727309D02*
X156495236Y-120751119D01*
X156495236Y-120751119D02*
X156471426Y-120774928D01*
X156471426Y-120774928D02*
X156447617Y-120822547D01*
X156447617Y-120822547D02*
X156423807Y-120917785D01*
X156423807Y-120917785D02*
X156423807Y-121036833D01*
X156423807Y-121036833D02*
X156447617Y-121132071D01*
X156447617Y-121132071D02*
X156471426Y-121179690D01*
X156471426Y-121179690D02*
X156495236Y-121203500D01*
X156495236Y-121203500D02*
X156542855Y-121227309D01*
X156542855Y-121227309D02*
X156590474Y-121227309D01*
X156590474Y-121227309D02*
X156638093Y-121203500D01*
X156638093Y-121203500D02*
X156661902Y-121179690D01*
X156661902Y-121179690D02*
X156685712Y-121132071D01*
X156685712Y-121132071D02*
X156709521Y-121036833D01*
X156709521Y-121036833D02*
X156709521Y-120917785D01*
X156709521Y-120917785D02*
X156685712Y-120822547D01*
X156685712Y-120822547D02*
X156661902Y-120774928D01*
X156661902Y-120774928D02*
X156638093Y-120751119D01*
X156638093Y-120751119D02*
X156590474Y-120727309D01*
X155947617Y-121227309D02*
X156233331Y-121227309D01*
X156090474Y-121227309D02*
X156090474Y-120727309D01*
X156090474Y-120727309D02*
X156138093Y-120798738D01*
X156138093Y-120798738D02*
X156185712Y-120846357D01*
X156185712Y-120846357D02*
X156233331Y-120870166D01*
X155495237Y-120727309D02*
X155733332Y-120727309D01*
X155733332Y-120727309D02*
X155757141Y-120965404D01*
X155757141Y-120965404D02*
X155733332Y-120941595D01*
X155733332Y-120941595D02*
X155685713Y-120917785D01*
X155685713Y-120917785D02*
X155566665Y-120917785D01*
X155566665Y-120917785D02*
X155519046Y-120941595D01*
X155519046Y-120941595D02*
X155495237Y-120965404D01*
X155495237Y-120965404D02*
X155471427Y-121013023D01*
X155471427Y-121013023D02*
X155471427Y-121132071D01*
X155471427Y-121132071D02*
X155495237Y-121179690D01*
X155495237Y-121179690D02*
X155519046Y-121203500D01*
X155519046Y-121203500D02*
X155566665Y-121227309D01*
X155566665Y-121227309D02*
X155685713Y-121227309D01*
X155685713Y-121227309D02*
X155733332Y-121203500D01*
X155733332Y-121203500D02*
X155757141Y-121179690D01*
X155042856Y-120727309D02*
X155138094Y-120727309D01*
X155138094Y-120727309D02*
X155185713Y-120751119D01*
X155185713Y-120751119D02*
X155209523Y-120774928D01*
X155209523Y-120774928D02*
X155257142Y-120846357D01*
X155257142Y-120846357D02*
X155280951Y-120941595D01*
X155280951Y-120941595D02*
X155280951Y-121132071D01*
X155280951Y-121132071D02*
X155257142Y-121179690D01*
X155257142Y-121179690D02*
X155233332Y-121203500D01*
X155233332Y-121203500D02*
X155185713Y-121227309D01*
X155185713Y-121227309D02*
X155090475Y-121227309D01*
X155090475Y-121227309D02*
X155042856Y-121203500D01*
X155042856Y-121203500D02*
X155019047Y-121179690D01*
X155019047Y-121179690D02*
X154995237Y-121132071D01*
X154995237Y-121132071D02*
X154995237Y-121013023D01*
X154995237Y-121013023D02*
X155019047Y-120965404D01*
X155019047Y-120965404D02*
X155042856Y-120941595D01*
X155042856Y-120941595D02*
X155090475Y-120917785D01*
X155090475Y-120917785D02*
X155185713Y-120917785D01*
X155185713Y-120917785D02*
X155233332Y-120941595D01*
X155233332Y-120941595D02*
X155257142Y-120965404D01*
X155257142Y-120965404D02*
X155280951Y-121013023D01*
X154709523Y-120941595D02*
X154757142Y-120917785D01*
X154757142Y-120917785D02*
X154780952Y-120893976D01*
X154780952Y-120893976D02*
X154804761Y-120846357D01*
X154804761Y-120846357D02*
X154804761Y-120822547D01*
X154804761Y-120822547D02*
X154780952Y-120774928D01*
X154780952Y-120774928D02*
X154757142Y-120751119D01*
X154757142Y-120751119D02*
X154709523Y-120727309D01*
X154709523Y-120727309D02*
X154614285Y-120727309D01*
X154614285Y-120727309D02*
X154566666Y-120751119D01*
X154566666Y-120751119D02*
X154542857Y-120774928D01*
X154542857Y-120774928D02*
X154519047Y-120822547D01*
X154519047Y-120822547D02*
X154519047Y-120846357D01*
X154519047Y-120846357D02*
X154542857Y-120893976D01*
X154542857Y-120893976D02*
X154566666Y-120917785D01*
X154566666Y-120917785D02*
X154614285Y-120941595D01*
X154614285Y-120941595D02*
X154709523Y-120941595D01*
X154709523Y-120941595D02*
X154757142Y-120965404D01*
X154757142Y-120965404D02*
X154780952Y-120989214D01*
X154780952Y-120989214D02*
X154804761Y-121036833D01*
X154804761Y-121036833D02*
X154804761Y-121132071D01*
X154804761Y-121132071D02*
X154780952Y-121179690D01*
X154780952Y-121179690D02*
X154757142Y-121203500D01*
X154757142Y-121203500D02*
X154709523Y-121227309D01*
X154709523Y-121227309D02*
X154614285Y-121227309D01*
X154614285Y-121227309D02*
X154566666Y-121203500D01*
X154566666Y-121203500D02*
X154542857Y-121179690D01*
X154542857Y-121179690D02*
X154519047Y-121132071D01*
X154519047Y-121132071D02*
X154519047Y-121036833D01*
X154519047Y-121036833D02*
X154542857Y-120989214D01*
X154542857Y-120989214D02*
X154566666Y-120965404D01*
X154566666Y-120965404D02*
X154614285Y-120941595D01*
X154209524Y-120727309D02*
X154161905Y-120727309D01*
X154161905Y-120727309D02*
X154114286Y-120751119D01*
X154114286Y-120751119D02*
X154090476Y-120774928D01*
X154090476Y-120774928D02*
X154066667Y-120822547D01*
X154066667Y-120822547D02*
X154042857Y-120917785D01*
X154042857Y-120917785D02*
X154042857Y-121036833D01*
X154042857Y-121036833D02*
X154066667Y-121132071D01*
X154066667Y-121132071D02*
X154090476Y-121179690D01*
X154090476Y-121179690D02*
X154114286Y-121203500D01*
X154114286Y-121203500D02*
X154161905Y-121227309D01*
X154161905Y-121227309D02*
X154209524Y-121227309D01*
X154209524Y-121227309D02*
X154257143Y-121203500D01*
X154257143Y-121203500D02*
X154280952Y-121179690D01*
X154280952Y-121179690D02*
X154304762Y-121132071D01*
X154304762Y-121132071D02*
X154328571Y-121036833D01*
X154328571Y-121036833D02*
X154328571Y-120917785D01*
X154328571Y-120917785D02*
X154304762Y-120822547D01*
X154304762Y-120822547D02*
X154280952Y-120774928D01*
X154280952Y-120774928D02*
X154257143Y-120751119D01*
X154257143Y-120751119D02*
X154209524Y-120727309D01*
X153852381Y-120774928D02*
X153828572Y-120751119D01*
X153828572Y-120751119D02*
X153780953Y-120727309D01*
X153780953Y-120727309D02*
X153661905Y-120727309D01*
X153661905Y-120727309D02*
X153614286Y-120751119D01*
X153614286Y-120751119D02*
X153590477Y-120774928D01*
X153590477Y-120774928D02*
X153566667Y-120822547D01*
X153566667Y-120822547D02*
X153566667Y-120870166D01*
X153566667Y-120870166D02*
X153590477Y-120941595D01*
X153590477Y-120941595D02*
X153876191Y-121227309D01*
X153876191Y-121227309D02*
X153566667Y-121227309D01*
X153257144Y-120727309D02*
X153209525Y-120727309D01*
X153209525Y-120727309D02*
X153161906Y-120751119D01*
X153161906Y-120751119D02*
X153138096Y-120774928D01*
X153138096Y-120774928D02*
X153114287Y-120822547D01*
X153114287Y-120822547D02*
X153090477Y-120917785D01*
X153090477Y-120917785D02*
X153090477Y-121036833D01*
X153090477Y-121036833D02*
X153114287Y-121132071D01*
X153114287Y-121132071D02*
X153138096Y-121179690D01*
X153138096Y-121179690D02*
X153161906Y-121203500D01*
X153161906Y-121203500D02*
X153209525Y-121227309D01*
X153209525Y-121227309D02*
X153257144Y-121227309D01*
X153257144Y-121227309D02*
X153304763Y-121203500D01*
X153304763Y-121203500D02*
X153328572Y-121179690D01*
X153328572Y-121179690D02*
X153352382Y-121132071D01*
X153352382Y-121132071D02*
X153376191Y-121036833D01*
X153376191Y-121036833D02*
X153376191Y-120917785D01*
X153376191Y-120917785D02*
X153352382Y-120822547D01*
X153352382Y-120822547D02*
X153328572Y-120774928D01*
X153328572Y-120774928D02*
X153304763Y-120751119D01*
X153304763Y-120751119D02*
X153257144Y-120727309D01*
X152923811Y-120727309D02*
X152590478Y-120727309D01*
X152590478Y-120727309D02*
X152804763Y-121227309D01*
X163624809Y-86052381D02*
X163386714Y-85885715D01*
X163624809Y-85766667D02*
X163124809Y-85766667D01*
X163124809Y-85766667D02*
X163124809Y-85957143D01*
X163124809Y-85957143D02*
X163148619Y-86004762D01*
X163148619Y-86004762D02*
X163172428Y-86028572D01*
X163172428Y-86028572D02*
X163220047Y-86052381D01*
X163220047Y-86052381D02*
X163291476Y-86052381D01*
X163291476Y-86052381D02*
X163339095Y-86028572D01*
X163339095Y-86028572D02*
X163362904Y-86004762D01*
X163362904Y-86004762D02*
X163386714Y-85957143D01*
X163386714Y-85957143D02*
X163386714Y-85766667D01*
X163624809Y-86528572D02*
X163624809Y-86242858D01*
X163624809Y-86385715D02*
X163124809Y-86385715D01*
X163124809Y-86385715D02*
X163196238Y-86338096D01*
X163196238Y-86338096D02*
X163243857Y-86290477D01*
X163243857Y-86290477D02*
X163267666Y-86242858D01*
X163124809Y-86695238D02*
X163124809Y-87004762D01*
X163124809Y-87004762D02*
X163315285Y-86838095D01*
X163315285Y-86838095D02*
X163315285Y-86909524D01*
X163315285Y-86909524D02*
X163339095Y-86957143D01*
X163339095Y-86957143D02*
X163362904Y-86980952D01*
X163362904Y-86980952D02*
X163410523Y-87004762D01*
X163410523Y-87004762D02*
X163529571Y-87004762D01*
X163529571Y-87004762D02*
X163577190Y-86980952D01*
X163577190Y-86980952D02*
X163601000Y-86957143D01*
X163601000Y-86957143D02*
X163624809Y-86909524D01*
X163624809Y-86909524D02*
X163624809Y-86766667D01*
X163624809Y-86766667D02*
X163601000Y-86719048D01*
X163601000Y-86719048D02*
X163577190Y-86695238D01*
X163124809Y-87314285D02*
X163124809Y-87361904D01*
X163124809Y-87361904D02*
X163148619Y-87409523D01*
X163148619Y-87409523D02*
X163172428Y-87433333D01*
X163172428Y-87433333D02*
X163220047Y-87457142D01*
X163220047Y-87457142D02*
X163315285Y-87480952D01*
X163315285Y-87480952D02*
X163434333Y-87480952D01*
X163434333Y-87480952D02*
X163529571Y-87457142D01*
X163529571Y-87457142D02*
X163577190Y-87433333D01*
X163577190Y-87433333D02*
X163601000Y-87409523D01*
X163601000Y-87409523D02*
X163624809Y-87361904D01*
X163624809Y-87361904D02*
X163624809Y-87314285D01*
X163624809Y-87314285D02*
X163601000Y-87266666D01*
X163601000Y-87266666D02*
X163577190Y-87242857D01*
X163577190Y-87242857D02*
X163529571Y-87219047D01*
X163529571Y-87219047D02*
X163434333Y-87195238D01*
X163434333Y-87195238D02*
X163315285Y-87195238D01*
X163315285Y-87195238D02*
X163220047Y-87219047D01*
X163220047Y-87219047D02*
X163172428Y-87242857D01*
X163172428Y-87242857D02*
X163148619Y-87266666D01*
X163148619Y-87266666D02*
X163124809Y-87314285D01*
X163124809Y-87909523D02*
X163124809Y-87814285D01*
X163124809Y-87814285D02*
X163148619Y-87766666D01*
X163148619Y-87766666D02*
X163172428Y-87742856D01*
X163172428Y-87742856D02*
X163243857Y-87695237D01*
X163243857Y-87695237D02*
X163339095Y-87671428D01*
X163339095Y-87671428D02*
X163529571Y-87671428D01*
X163529571Y-87671428D02*
X163577190Y-87695237D01*
X163577190Y-87695237D02*
X163601000Y-87719047D01*
X163601000Y-87719047D02*
X163624809Y-87766666D01*
X163624809Y-87766666D02*
X163624809Y-87861904D01*
X163624809Y-87861904D02*
X163601000Y-87909523D01*
X163601000Y-87909523D02*
X163577190Y-87933332D01*
X163577190Y-87933332D02*
X163529571Y-87957142D01*
X163529571Y-87957142D02*
X163410523Y-87957142D01*
X163410523Y-87957142D02*
X163362904Y-87933332D01*
X163362904Y-87933332D02*
X163339095Y-87909523D01*
X163339095Y-87909523D02*
X163315285Y-87861904D01*
X163315285Y-87861904D02*
X163315285Y-87766666D01*
X163315285Y-87766666D02*
X163339095Y-87719047D01*
X163339095Y-87719047D02*
X163362904Y-87695237D01*
X163362904Y-87695237D02*
X163410523Y-87671428D01*
X151624809Y-92802381D02*
X151386714Y-92635715D01*
X151624809Y-92516667D02*
X151124809Y-92516667D01*
X151124809Y-92516667D02*
X151124809Y-92707143D01*
X151124809Y-92707143D02*
X151148619Y-92754762D01*
X151148619Y-92754762D02*
X151172428Y-92778572D01*
X151172428Y-92778572D02*
X151220047Y-92802381D01*
X151220047Y-92802381D02*
X151291476Y-92802381D01*
X151291476Y-92802381D02*
X151339095Y-92778572D01*
X151339095Y-92778572D02*
X151362904Y-92754762D01*
X151362904Y-92754762D02*
X151386714Y-92707143D01*
X151386714Y-92707143D02*
X151386714Y-92516667D01*
X151624809Y-93278572D02*
X151624809Y-92992858D01*
X151624809Y-93135715D02*
X151124809Y-93135715D01*
X151124809Y-93135715D02*
X151196238Y-93088096D01*
X151196238Y-93088096D02*
X151243857Y-93040477D01*
X151243857Y-93040477D02*
X151267666Y-92992858D01*
X151124809Y-93445238D02*
X151124809Y-93754762D01*
X151124809Y-93754762D02*
X151315285Y-93588095D01*
X151315285Y-93588095D02*
X151315285Y-93659524D01*
X151315285Y-93659524D02*
X151339095Y-93707143D01*
X151339095Y-93707143D02*
X151362904Y-93730952D01*
X151362904Y-93730952D02*
X151410523Y-93754762D01*
X151410523Y-93754762D02*
X151529571Y-93754762D01*
X151529571Y-93754762D02*
X151577190Y-93730952D01*
X151577190Y-93730952D02*
X151601000Y-93707143D01*
X151601000Y-93707143D02*
X151624809Y-93659524D01*
X151624809Y-93659524D02*
X151624809Y-93516667D01*
X151624809Y-93516667D02*
X151601000Y-93469048D01*
X151601000Y-93469048D02*
X151577190Y-93445238D01*
X151124809Y-94064285D02*
X151124809Y-94111904D01*
X151124809Y-94111904D02*
X151148619Y-94159523D01*
X151148619Y-94159523D02*
X151172428Y-94183333D01*
X151172428Y-94183333D02*
X151220047Y-94207142D01*
X151220047Y-94207142D02*
X151315285Y-94230952D01*
X151315285Y-94230952D02*
X151434333Y-94230952D01*
X151434333Y-94230952D02*
X151529571Y-94207142D01*
X151529571Y-94207142D02*
X151577190Y-94183333D01*
X151577190Y-94183333D02*
X151601000Y-94159523D01*
X151601000Y-94159523D02*
X151624809Y-94111904D01*
X151624809Y-94111904D02*
X151624809Y-94064285D01*
X151624809Y-94064285D02*
X151601000Y-94016666D01*
X151601000Y-94016666D02*
X151577190Y-93992857D01*
X151577190Y-93992857D02*
X151529571Y-93969047D01*
X151529571Y-93969047D02*
X151434333Y-93945238D01*
X151434333Y-93945238D02*
X151315285Y-93945238D01*
X151315285Y-93945238D02*
X151220047Y-93969047D01*
X151220047Y-93969047D02*
X151172428Y-93992857D01*
X151172428Y-93992857D02*
X151148619Y-94016666D01*
X151148619Y-94016666D02*
X151124809Y-94064285D01*
X151291476Y-94659523D02*
X151624809Y-94659523D01*
X151101000Y-94540475D02*
X151458142Y-94421428D01*
X151458142Y-94421428D02*
X151458142Y-94730951D01*
X154827190Y-93802381D02*
X154851000Y-93778572D01*
X154851000Y-93778572D02*
X154874809Y-93707143D01*
X154874809Y-93707143D02*
X154874809Y-93659524D01*
X154874809Y-93659524D02*
X154851000Y-93588096D01*
X154851000Y-93588096D02*
X154803380Y-93540477D01*
X154803380Y-93540477D02*
X154755761Y-93516667D01*
X154755761Y-93516667D02*
X154660523Y-93492858D01*
X154660523Y-93492858D02*
X154589095Y-93492858D01*
X154589095Y-93492858D02*
X154493857Y-93516667D01*
X154493857Y-93516667D02*
X154446238Y-93540477D01*
X154446238Y-93540477D02*
X154398619Y-93588096D01*
X154398619Y-93588096D02*
X154374809Y-93659524D01*
X154374809Y-93659524D02*
X154374809Y-93707143D01*
X154374809Y-93707143D02*
X154398619Y-93778572D01*
X154398619Y-93778572D02*
X154422428Y-93802381D01*
X154874809Y-94278572D02*
X154874809Y-93992858D01*
X154874809Y-94135715D02*
X154374809Y-94135715D01*
X154374809Y-94135715D02*
X154446238Y-94088096D01*
X154446238Y-94088096D02*
X154493857Y-94040477D01*
X154493857Y-94040477D02*
X154517666Y-93992858D01*
X154374809Y-94445238D02*
X154374809Y-94754762D01*
X154374809Y-94754762D02*
X154565285Y-94588095D01*
X154565285Y-94588095D02*
X154565285Y-94659524D01*
X154565285Y-94659524D02*
X154589095Y-94707143D01*
X154589095Y-94707143D02*
X154612904Y-94730952D01*
X154612904Y-94730952D02*
X154660523Y-94754762D01*
X154660523Y-94754762D02*
X154779571Y-94754762D01*
X154779571Y-94754762D02*
X154827190Y-94730952D01*
X154827190Y-94730952D02*
X154851000Y-94707143D01*
X154851000Y-94707143D02*
X154874809Y-94659524D01*
X154874809Y-94659524D02*
X154874809Y-94516667D01*
X154874809Y-94516667D02*
X154851000Y-94469048D01*
X154851000Y-94469048D02*
X154827190Y-94445238D01*
X154874809Y-95230952D02*
X154874809Y-94945238D01*
X154874809Y-95088095D02*
X154374809Y-95088095D01*
X154374809Y-95088095D02*
X154446238Y-95040476D01*
X154446238Y-95040476D02*
X154493857Y-94992857D01*
X154493857Y-94992857D02*
X154517666Y-94945238D01*
X154422428Y-95421428D02*
X154398619Y-95445237D01*
X154398619Y-95445237D02*
X154374809Y-95492856D01*
X154374809Y-95492856D02*
X154374809Y-95611904D01*
X154374809Y-95611904D02*
X154398619Y-95659523D01*
X154398619Y-95659523D02*
X154422428Y-95683332D01*
X154422428Y-95683332D02*
X154470047Y-95707142D01*
X154470047Y-95707142D02*
X154517666Y-95707142D01*
X154517666Y-95707142D02*
X154589095Y-95683332D01*
X154589095Y-95683332D02*
X154874809Y-95397618D01*
X154874809Y-95397618D02*
X154874809Y-95707142D01*
X155852379Y-113336714D02*
X155852379Y-113574809D01*
X156019045Y-113074809D02*
X155852379Y-113336714D01*
X155852379Y-113336714D02*
X155685712Y-113074809D01*
X155257141Y-113574809D02*
X155542855Y-113574809D01*
X155399998Y-113574809D02*
X155399998Y-113074809D01*
X155399998Y-113074809D02*
X155447617Y-113146238D01*
X155447617Y-113146238D02*
X155495236Y-113193857D01*
X155495236Y-113193857D02*
X155542855Y-113217666D01*
X155090475Y-113074809D02*
X154780951Y-113074809D01*
X154780951Y-113074809D02*
X154947618Y-113265285D01*
X154947618Y-113265285D02*
X154876189Y-113265285D01*
X154876189Y-113265285D02*
X154828570Y-113289095D01*
X154828570Y-113289095D02*
X154804761Y-113312904D01*
X154804761Y-113312904D02*
X154780951Y-113360523D01*
X154780951Y-113360523D02*
X154780951Y-113479571D01*
X154780951Y-113479571D02*
X154804761Y-113527190D01*
X154804761Y-113527190D02*
X154828570Y-113551000D01*
X154828570Y-113551000D02*
X154876189Y-113574809D01*
X154876189Y-113574809D02*
X155019046Y-113574809D01*
X155019046Y-113574809D02*
X155066665Y-113551000D01*
X155066665Y-113551000D02*
X155090475Y-113527190D01*
X154471428Y-113074809D02*
X154423809Y-113074809D01*
X154423809Y-113074809D02*
X154376190Y-113098619D01*
X154376190Y-113098619D02*
X154352380Y-113122428D01*
X154352380Y-113122428D02*
X154328571Y-113170047D01*
X154328571Y-113170047D02*
X154304761Y-113265285D01*
X154304761Y-113265285D02*
X154304761Y-113384333D01*
X154304761Y-113384333D02*
X154328571Y-113479571D01*
X154328571Y-113479571D02*
X154352380Y-113527190D01*
X154352380Y-113527190D02*
X154376190Y-113551000D01*
X154376190Y-113551000D02*
X154423809Y-113574809D01*
X154423809Y-113574809D02*
X154471428Y-113574809D01*
X154471428Y-113574809D02*
X154519047Y-113551000D01*
X154519047Y-113551000D02*
X154542856Y-113527190D01*
X154542856Y-113527190D02*
X154566666Y-113479571D01*
X154566666Y-113479571D02*
X154590475Y-113384333D01*
X154590475Y-113384333D02*
X154590475Y-113265285D01*
X154590475Y-113265285D02*
X154566666Y-113170047D01*
X154566666Y-113170047D02*
X154542856Y-113122428D01*
X154542856Y-113122428D02*
X154519047Y-113098619D01*
X154519047Y-113098619D02*
X154471428Y-113074809D01*
X153828571Y-113574809D02*
X154114285Y-113574809D01*
X153971428Y-113574809D02*
X153971428Y-113074809D01*
X153971428Y-113074809D02*
X154019047Y-113146238D01*
X154019047Y-113146238D02*
X154066666Y-113193857D01*
X154066666Y-113193857D02*
X154114285Y-113217666D01*
X158697618Y-108777190D02*
X158721427Y-108801000D01*
X158721427Y-108801000D02*
X158792856Y-108824809D01*
X158792856Y-108824809D02*
X158840475Y-108824809D01*
X158840475Y-108824809D02*
X158911903Y-108801000D01*
X158911903Y-108801000D02*
X158959522Y-108753380D01*
X158959522Y-108753380D02*
X158983332Y-108705761D01*
X158983332Y-108705761D02*
X159007141Y-108610523D01*
X159007141Y-108610523D02*
X159007141Y-108539095D01*
X159007141Y-108539095D02*
X158983332Y-108443857D01*
X158983332Y-108443857D02*
X158959522Y-108396238D01*
X158959522Y-108396238D02*
X158911903Y-108348619D01*
X158911903Y-108348619D02*
X158840475Y-108324809D01*
X158840475Y-108324809D02*
X158792856Y-108324809D01*
X158792856Y-108324809D02*
X158721427Y-108348619D01*
X158721427Y-108348619D02*
X158697618Y-108372428D01*
X158221427Y-108824809D02*
X158507141Y-108824809D01*
X158364284Y-108824809D02*
X158364284Y-108324809D01*
X158364284Y-108324809D02*
X158411903Y-108396238D01*
X158411903Y-108396238D02*
X158459522Y-108443857D01*
X158459522Y-108443857D02*
X158507141Y-108467666D01*
X158054761Y-108324809D02*
X157745237Y-108324809D01*
X157745237Y-108324809D02*
X157911904Y-108515285D01*
X157911904Y-108515285D02*
X157840475Y-108515285D01*
X157840475Y-108515285D02*
X157792856Y-108539095D01*
X157792856Y-108539095D02*
X157769047Y-108562904D01*
X157769047Y-108562904D02*
X157745237Y-108610523D01*
X157745237Y-108610523D02*
X157745237Y-108729571D01*
X157745237Y-108729571D02*
X157769047Y-108777190D01*
X157769047Y-108777190D02*
X157792856Y-108801000D01*
X157792856Y-108801000D02*
X157840475Y-108824809D01*
X157840475Y-108824809D02*
X157983332Y-108824809D01*
X157983332Y-108824809D02*
X158030951Y-108801000D01*
X158030951Y-108801000D02*
X158054761Y-108777190D01*
X157269047Y-108824809D02*
X157554761Y-108824809D01*
X157411904Y-108824809D02*
X157411904Y-108324809D01*
X157411904Y-108324809D02*
X157459523Y-108396238D01*
X157459523Y-108396238D02*
X157507142Y-108443857D01*
X157507142Y-108443857D02*
X157554761Y-108467666D01*
X156816667Y-108324809D02*
X157054762Y-108324809D01*
X157054762Y-108324809D02*
X157078571Y-108562904D01*
X157078571Y-108562904D02*
X157054762Y-108539095D01*
X157054762Y-108539095D02*
X157007143Y-108515285D01*
X157007143Y-108515285D02*
X156888095Y-108515285D01*
X156888095Y-108515285D02*
X156840476Y-108539095D01*
X156840476Y-108539095D02*
X156816667Y-108562904D01*
X156816667Y-108562904D02*
X156792857Y-108610523D01*
X156792857Y-108610523D02*
X156792857Y-108729571D01*
X156792857Y-108729571D02*
X156816667Y-108777190D01*
X156816667Y-108777190D02*
X156840476Y-108801000D01*
X156840476Y-108801000D02*
X156888095Y-108824809D01*
X156888095Y-108824809D02*
X157007143Y-108824809D01*
X157007143Y-108824809D02*
X157054762Y-108801000D01*
X157054762Y-108801000D02*
X157078571Y-108777190D01*
X147959523Y-117277190D02*
X147983332Y-117301000D01*
X147983332Y-117301000D02*
X148054761Y-117324809D01*
X148054761Y-117324809D02*
X148102380Y-117324809D01*
X148102380Y-117324809D02*
X148173808Y-117301000D01*
X148173808Y-117301000D02*
X148221427Y-117253380D01*
X148221427Y-117253380D02*
X148245237Y-117205761D01*
X148245237Y-117205761D02*
X148269046Y-117110523D01*
X148269046Y-117110523D02*
X148269046Y-117039095D01*
X148269046Y-117039095D02*
X148245237Y-116943857D01*
X148245237Y-116943857D02*
X148221427Y-116896238D01*
X148221427Y-116896238D02*
X148173808Y-116848619D01*
X148173808Y-116848619D02*
X148102380Y-116824809D01*
X148102380Y-116824809D02*
X148054761Y-116824809D01*
X148054761Y-116824809D02*
X147983332Y-116848619D01*
X147983332Y-116848619D02*
X147959523Y-116872428D01*
X147792856Y-116824809D02*
X147483332Y-116824809D01*
X147483332Y-116824809D02*
X147649999Y-117015285D01*
X147649999Y-117015285D02*
X147578570Y-117015285D01*
X147578570Y-117015285D02*
X147530951Y-117039095D01*
X147530951Y-117039095D02*
X147507142Y-117062904D01*
X147507142Y-117062904D02*
X147483332Y-117110523D01*
X147483332Y-117110523D02*
X147483332Y-117229571D01*
X147483332Y-117229571D02*
X147507142Y-117277190D01*
X147507142Y-117277190D02*
X147530951Y-117301000D01*
X147530951Y-117301000D02*
X147578570Y-117324809D01*
X147578570Y-117324809D02*
X147721427Y-117324809D01*
X147721427Y-117324809D02*
X147769046Y-117301000D01*
X147769046Y-117301000D02*
X147792856Y-117277190D01*
X147173809Y-116824809D02*
X147126190Y-116824809D01*
X147126190Y-116824809D02*
X147078571Y-116848619D01*
X147078571Y-116848619D02*
X147054761Y-116872428D01*
X147054761Y-116872428D02*
X147030952Y-116920047D01*
X147030952Y-116920047D02*
X147007142Y-117015285D01*
X147007142Y-117015285D02*
X147007142Y-117134333D01*
X147007142Y-117134333D02*
X147030952Y-117229571D01*
X147030952Y-117229571D02*
X147054761Y-117277190D01*
X147054761Y-117277190D02*
X147078571Y-117301000D01*
X147078571Y-117301000D02*
X147126190Y-117324809D01*
X147126190Y-117324809D02*
X147173809Y-117324809D01*
X147173809Y-117324809D02*
X147221428Y-117301000D01*
X147221428Y-117301000D02*
X147245237Y-117277190D01*
X147245237Y-117277190D02*
X147269047Y-117229571D01*
X147269047Y-117229571D02*
X147292856Y-117134333D01*
X147292856Y-117134333D02*
X147292856Y-117015285D01*
X147292856Y-117015285D02*
X147269047Y-116920047D01*
X147269047Y-116920047D02*
X147245237Y-116872428D01*
X147245237Y-116872428D02*
X147221428Y-116848619D01*
X147221428Y-116848619D02*
X147173809Y-116824809D01*
X146530952Y-117324809D02*
X146816666Y-117324809D01*
X146673809Y-117324809D02*
X146673809Y-116824809D01*
X146673809Y-116824809D02*
X146721428Y-116896238D01*
X146721428Y-116896238D02*
X146769047Y-116943857D01*
X146769047Y-116943857D02*
X146816666Y-116967666D01*
X142624809Y-83516667D02*
X142124809Y-83516667D01*
X142124809Y-83516667D02*
X142124809Y-83635715D01*
X142124809Y-83635715D02*
X142148619Y-83707143D01*
X142148619Y-83707143D02*
X142196238Y-83754762D01*
X142196238Y-83754762D02*
X142243857Y-83778572D01*
X142243857Y-83778572D02*
X142339095Y-83802381D01*
X142339095Y-83802381D02*
X142410523Y-83802381D01*
X142410523Y-83802381D02*
X142505761Y-83778572D01*
X142505761Y-83778572D02*
X142553380Y-83754762D01*
X142553380Y-83754762D02*
X142601000Y-83707143D01*
X142601000Y-83707143D02*
X142624809Y-83635715D01*
X142624809Y-83635715D02*
X142624809Y-83516667D01*
X142624809Y-84278572D02*
X142624809Y-83992858D01*
X142624809Y-84135715D02*
X142124809Y-84135715D01*
X142124809Y-84135715D02*
X142196238Y-84088096D01*
X142196238Y-84088096D02*
X142243857Y-84040477D01*
X142243857Y-84040477D02*
X142267666Y-83992858D01*
X142124809Y-84445238D02*
X142124809Y-84754762D01*
X142124809Y-84754762D02*
X142315285Y-84588095D01*
X142315285Y-84588095D02*
X142315285Y-84659524D01*
X142315285Y-84659524D02*
X142339095Y-84707143D01*
X142339095Y-84707143D02*
X142362904Y-84730952D01*
X142362904Y-84730952D02*
X142410523Y-84754762D01*
X142410523Y-84754762D02*
X142529571Y-84754762D01*
X142529571Y-84754762D02*
X142577190Y-84730952D01*
X142577190Y-84730952D02*
X142601000Y-84707143D01*
X142601000Y-84707143D02*
X142624809Y-84659524D01*
X142624809Y-84659524D02*
X142624809Y-84516667D01*
X142624809Y-84516667D02*
X142601000Y-84469048D01*
X142601000Y-84469048D02*
X142577190Y-84445238D01*
X142124809Y-85064285D02*
X142124809Y-85111904D01*
X142124809Y-85111904D02*
X142148619Y-85159523D01*
X142148619Y-85159523D02*
X142172428Y-85183333D01*
X142172428Y-85183333D02*
X142220047Y-85207142D01*
X142220047Y-85207142D02*
X142315285Y-85230952D01*
X142315285Y-85230952D02*
X142434333Y-85230952D01*
X142434333Y-85230952D02*
X142529571Y-85207142D01*
X142529571Y-85207142D02*
X142577190Y-85183333D01*
X142577190Y-85183333D02*
X142601000Y-85159523D01*
X142601000Y-85159523D02*
X142624809Y-85111904D01*
X142624809Y-85111904D02*
X142624809Y-85064285D01*
X142624809Y-85064285D02*
X142601000Y-85016666D01*
X142601000Y-85016666D02*
X142577190Y-84992857D01*
X142577190Y-84992857D02*
X142529571Y-84969047D01*
X142529571Y-84969047D02*
X142434333Y-84945238D01*
X142434333Y-84945238D02*
X142315285Y-84945238D01*
X142315285Y-84945238D02*
X142220047Y-84969047D01*
X142220047Y-84969047D02*
X142172428Y-84992857D01*
X142172428Y-84992857D02*
X142148619Y-85016666D01*
X142148619Y-85016666D02*
X142124809Y-85064285D01*
X142624809Y-85707142D02*
X142624809Y-85421428D01*
X142624809Y-85564285D02*
X142124809Y-85564285D01*
X142124809Y-85564285D02*
X142196238Y-85516666D01*
X142196238Y-85516666D02*
X142243857Y-85469047D01*
X142243857Y-85469047D02*
X142267666Y-85421428D01*
X154697618Y-109527190D02*
X154721427Y-109551000D01*
X154721427Y-109551000D02*
X154792856Y-109574809D01*
X154792856Y-109574809D02*
X154840475Y-109574809D01*
X154840475Y-109574809D02*
X154911903Y-109551000D01*
X154911903Y-109551000D02*
X154959522Y-109503380D01*
X154959522Y-109503380D02*
X154983332Y-109455761D01*
X154983332Y-109455761D02*
X155007141Y-109360523D01*
X155007141Y-109360523D02*
X155007141Y-109289095D01*
X155007141Y-109289095D02*
X154983332Y-109193857D01*
X154983332Y-109193857D02*
X154959522Y-109146238D01*
X154959522Y-109146238D02*
X154911903Y-109098619D01*
X154911903Y-109098619D02*
X154840475Y-109074809D01*
X154840475Y-109074809D02*
X154792856Y-109074809D01*
X154792856Y-109074809D02*
X154721427Y-109098619D01*
X154721427Y-109098619D02*
X154697618Y-109122428D01*
X154221427Y-109574809D02*
X154507141Y-109574809D01*
X154364284Y-109574809D02*
X154364284Y-109074809D01*
X154364284Y-109074809D02*
X154411903Y-109146238D01*
X154411903Y-109146238D02*
X154459522Y-109193857D01*
X154459522Y-109193857D02*
X154507141Y-109217666D01*
X154054761Y-109074809D02*
X153745237Y-109074809D01*
X153745237Y-109074809D02*
X153911904Y-109265285D01*
X153911904Y-109265285D02*
X153840475Y-109265285D01*
X153840475Y-109265285D02*
X153792856Y-109289095D01*
X153792856Y-109289095D02*
X153769047Y-109312904D01*
X153769047Y-109312904D02*
X153745237Y-109360523D01*
X153745237Y-109360523D02*
X153745237Y-109479571D01*
X153745237Y-109479571D02*
X153769047Y-109527190D01*
X153769047Y-109527190D02*
X153792856Y-109551000D01*
X153792856Y-109551000D02*
X153840475Y-109574809D01*
X153840475Y-109574809D02*
X153983332Y-109574809D01*
X153983332Y-109574809D02*
X154030951Y-109551000D01*
X154030951Y-109551000D02*
X154054761Y-109527190D01*
X153269047Y-109574809D02*
X153554761Y-109574809D01*
X153411904Y-109574809D02*
X153411904Y-109074809D01*
X153411904Y-109074809D02*
X153459523Y-109146238D01*
X153459523Y-109146238D02*
X153507142Y-109193857D01*
X153507142Y-109193857D02*
X153554761Y-109217666D01*
X152840476Y-109074809D02*
X152935714Y-109074809D01*
X152935714Y-109074809D02*
X152983333Y-109098619D01*
X152983333Y-109098619D02*
X153007143Y-109122428D01*
X153007143Y-109122428D02*
X153054762Y-109193857D01*
X153054762Y-109193857D02*
X153078571Y-109289095D01*
X153078571Y-109289095D02*
X153078571Y-109479571D01*
X153078571Y-109479571D02*
X153054762Y-109527190D01*
X153054762Y-109527190D02*
X153030952Y-109551000D01*
X153030952Y-109551000D02*
X152983333Y-109574809D01*
X152983333Y-109574809D02*
X152888095Y-109574809D01*
X152888095Y-109574809D02*
X152840476Y-109551000D01*
X152840476Y-109551000D02*
X152816667Y-109527190D01*
X152816667Y-109527190D02*
X152792857Y-109479571D01*
X152792857Y-109479571D02*
X152792857Y-109360523D01*
X152792857Y-109360523D02*
X152816667Y-109312904D01*
X152816667Y-109312904D02*
X152840476Y-109289095D01*
X152840476Y-109289095D02*
X152888095Y-109265285D01*
X152888095Y-109265285D02*
X152983333Y-109265285D01*
X152983333Y-109265285D02*
X153030952Y-109289095D01*
X153030952Y-109289095D02*
X153054762Y-109312904D01*
X153054762Y-109312904D02*
X153078571Y-109360523D01*
X150624809Y-92802381D02*
X150386714Y-92635715D01*
X150624809Y-92516667D02*
X150124809Y-92516667D01*
X150124809Y-92516667D02*
X150124809Y-92707143D01*
X150124809Y-92707143D02*
X150148619Y-92754762D01*
X150148619Y-92754762D02*
X150172428Y-92778572D01*
X150172428Y-92778572D02*
X150220047Y-92802381D01*
X150220047Y-92802381D02*
X150291476Y-92802381D01*
X150291476Y-92802381D02*
X150339095Y-92778572D01*
X150339095Y-92778572D02*
X150362904Y-92754762D01*
X150362904Y-92754762D02*
X150386714Y-92707143D01*
X150386714Y-92707143D02*
X150386714Y-92516667D01*
X150624809Y-93278572D02*
X150624809Y-92992858D01*
X150624809Y-93135715D02*
X150124809Y-93135715D01*
X150124809Y-93135715D02*
X150196238Y-93088096D01*
X150196238Y-93088096D02*
X150243857Y-93040477D01*
X150243857Y-93040477D02*
X150267666Y-92992858D01*
X150124809Y-93445238D02*
X150124809Y-93754762D01*
X150124809Y-93754762D02*
X150315285Y-93588095D01*
X150315285Y-93588095D02*
X150315285Y-93659524D01*
X150315285Y-93659524D02*
X150339095Y-93707143D01*
X150339095Y-93707143D02*
X150362904Y-93730952D01*
X150362904Y-93730952D02*
X150410523Y-93754762D01*
X150410523Y-93754762D02*
X150529571Y-93754762D01*
X150529571Y-93754762D02*
X150577190Y-93730952D01*
X150577190Y-93730952D02*
X150601000Y-93707143D01*
X150601000Y-93707143D02*
X150624809Y-93659524D01*
X150624809Y-93659524D02*
X150624809Y-93516667D01*
X150624809Y-93516667D02*
X150601000Y-93469048D01*
X150601000Y-93469048D02*
X150577190Y-93445238D01*
X150124809Y-94064285D02*
X150124809Y-94111904D01*
X150124809Y-94111904D02*
X150148619Y-94159523D01*
X150148619Y-94159523D02*
X150172428Y-94183333D01*
X150172428Y-94183333D02*
X150220047Y-94207142D01*
X150220047Y-94207142D02*
X150315285Y-94230952D01*
X150315285Y-94230952D02*
X150434333Y-94230952D01*
X150434333Y-94230952D02*
X150529571Y-94207142D01*
X150529571Y-94207142D02*
X150577190Y-94183333D01*
X150577190Y-94183333D02*
X150601000Y-94159523D01*
X150601000Y-94159523D02*
X150624809Y-94111904D01*
X150624809Y-94111904D02*
X150624809Y-94064285D01*
X150624809Y-94064285D02*
X150601000Y-94016666D01*
X150601000Y-94016666D02*
X150577190Y-93992857D01*
X150577190Y-93992857D02*
X150529571Y-93969047D01*
X150529571Y-93969047D02*
X150434333Y-93945238D01*
X150434333Y-93945238D02*
X150315285Y-93945238D01*
X150315285Y-93945238D02*
X150220047Y-93969047D01*
X150220047Y-93969047D02*
X150172428Y-93992857D01*
X150172428Y-93992857D02*
X150148619Y-94016666D01*
X150148619Y-94016666D02*
X150124809Y-94064285D01*
X150124809Y-94683332D02*
X150124809Y-94445237D01*
X150124809Y-94445237D02*
X150362904Y-94421428D01*
X150362904Y-94421428D02*
X150339095Y-94445237D01*
X150339095Y-94445237D02*
X150315285Y-94492856D01*
X150315285Y-94492856D02*
X150315285Y-94611904D01*
X150315285Y-94611904D02*
X150339095Y-94659523D01*
X150339095Y-94659523D02*
X150362904Y-94683332D01*
X150362904Y-94683332D02*
X150410523Y-94707142D01*
X150410523Y-94707142D02*
X150529571Y-94707142D01*
X150529571Y-94707142D02*
X150577190Y-94683332D01*
X150577190Y-94683332D02*
X150601000Y-94659523D01*
X150601000Y-94659523D02*
X150624809Y-94611904D01*
X150624809Y-94611904D02*
X150624809Y-94492856D01*
X150624809Y-94492856D02*
X150601000Y-94445237D01*
X150601000Y-94445237D02*
X150577190Y-94421428D01*
D12*
X152541752Y-95961905D02*
X152560800Y-95942857D01*
X152560800Y-95942857D02*
X152579847Y-95885715D01*
X152579847Y-95885715D02*
X152579847Y-95847619D01*
X152579847Y-95847619D02*
X152560800Y-95790476D01*
X152560800Y-95790476D02*
X152522704Y-95752381D01*
X152522704Y-95752381D02*
X152484609Y-95733334D01*
X152484609Y-95733334D02*
X152408419Y-95714286D01*
X152408419Y-95714286D02*
X152351276Y-95714286D01*
X152351276Y-95714286D02*
X152275085Y-95733334D01*
X152275085Y-95733334D02*
X152236990Y-95752381D01*
X152236990Y-95752381D02*
X152198895Y-95790476D01*
X152198895Y-95790476D02*
X152179847Y-95847619D01*
X152179847Y-95847619D02*
X152179847Y-95885715D01*
X152179847Y-95885715D02*
X152198895Y-95942857D01*
X152198895Y-95942857D02*
X152217942Y-95961905D01*
X152579847Y-96342857D02*
X152579847Y-96114286D01*
X152579847Y-96228572D02*
X152179847Y-96228572D01*
X152179847Y-96228572D02*
X152236990Y-96190476D01*
X152236990Y-96190476D02*
X152275085Y-96152381D01*
X152275085Y-96152381D02*
X152294133Y-96114286D01*
X152179847Y-96476190D02*
X152179847Y-96723809D01*
X152179847Y-96723809D02*
X152332228Y-96590476D01*
X152332228Y-96590476D02*
X152332228Y-96647619D01*
X152332228Y-96647619D02*
X152351276Y-96685714D01*
X152351276Y-96685714D02*
X152370323Y-96704762D01*
X152370323Y-96704762D02*
X152408419Y-96723809D01*
X152408419Y-96723809D02*
X152503657Y-96723809D01*
X152503657Y-96723809D02*
X152541752Y-96704762D01*
X152541752Y-96704762D02*
X152560800Y-96685714D01*
X152560800Y-96685714D02*
X152579847Y-96647619D01*
X152579847Y-96647619D02*
X152579847Y-96533333D01*
X152579847Y-96533333D02*
X152560800Y-96495238D01*
X152560800Y-96495238D02*
X152541752Y-96476190D01*
X152179847Y-96971428D02*
X152179847Y-97009523D01*
X152179847Y-97009523D02*
X152198895Y-97047619D01*
X152198895Y-97047619D02*
X152217942Y-97066666D01*
X152217942Y-97066666D02*
X152256038Y-97085714D01*
X152256038Y-97085714D02*
X152332228Y-97104761D01*
X152332228Y-97104761D02*
X152427466Y-97104761D01*
X152427466Y-97104761D02*
X152503657Y-97085714D01*
X152503657Y-97085714D02*
X152541752Y-97066666D01*
X152541752Y-97066666D02*
X152560800Y-97047619D01*
X152560800Y-97047619D02*
X152579847Y-97009523D01*
X152579847Y-97009523D02*
X152579847Y-96971428D01*
X152579847Y-96971428D02*
X152560800Y-96933333D01*
X152560800Y-96933333D02*
X152541752Y-96914285D01*
X152541752Y-96914285D02*
X152503657Y-96895238D01*
X152503657Y-96895238D02*
X152427466Y-96876190D01*
X152427466Y-96876190D02*
X152332228Y-96876190D01*
X152332228Y-96876190D02*
X152256038Y-96895238D01*
X152256038Y-96895238D02*
X152217942Y-96914285D01*
X152217942Y-96914285D02*
X152198895Y-96933333D01*
X152198895Y-96933333D02*
X152179847Y-96971428D01*
X152313180Y-97447618D02*
X152579847Y-97447618D01*
X152160800Y-97352380D02*
X152446514Y-97257142D01*
X152446514Y-97257142D02*
X152446514Y-97504761D01*
D11*
X160697618Y-102777190D02*
X160721427Y-102801000D01*
X160721427Y-102801000D02*
X160792856Y-102824809D01*
X160792856Y-102824809D02*
X160840475Y-102824809D01*
X160840475Y-102824809D02*
X160911903Y-102801000D01*
X160911903Y-102801000D02*
X160959522Y-102753380D01*
X160959522Y-102753380D02*
X160983332Y-102705761D01*
X160983332Y-102705761D02*
X161007141Y-102610523D01*
X161007141Y-102610523D02*
X161007141Y-102539095D01*
X161007141Y-102539095D02*
X160983332Y-102443857D01*
X160983332Y-102443857D02*
X160959522Y-102396238D01*
X160959522Y-102396238D02*
X160911903Y-102348619D01*
X160911903Y-102348619D02*
X160840475Y-102324809D01*
X160840475Y-102324809D02*
X160792856Y-102324809D01*
X160792856Y-102324809D02*
X160721427Y-102348619D01*
X160721427Y-102348619D02*
X160697618Y-102372428D01*
X160221427Y-102824809D02*
X160507141Y-102824809D01*
X160364284Y-102824809D02*
X160364284Y-102324809D01*
X160364284Y-102324809D02*
X160411903Y-102396238D01*
X160411903Y-102396238D02*
X160459522Y-102443857D01*
X160459522Y-102443857D02*
X160507141Y-102467666D01*
X160054761Y-102324809D02*
X159745237Y-102324809D01*
X159745237Y-102324809D02*
X159911904Y-102515285D01*
X159911904Y-102515285D02*
X159840475Y-102515285D01*
X159840475Y-102515285D02*
X159792856Y-102539095D01*
X159792856Y-102539095D02*
X159769047Y-102562904D01*
X159769047Y-102562904D02*
X159745237Y-102610523D01*
X159745237Y-102610523D02*
X159745237Y-102729571D01*
X159745237Y-102729571D02*
X159769047Y-102777190D01*
X159769047Y-102777190D02*
X159792856Y-102801000D01*
X159792856Y-102801000D02*
X159840475Y-102824809D01*
X159840475Y-102824809D02*
X159983332Y-102824809D01*
X159983332Y-102824809D02*
X160030951Y-102801000D01*
X160030951Y-102801000D02*
X160054761Y-102777190D01*
X159435714Y-102324809D02*
X159388095Y-102324809D01*
X159388095Y-102324809D02*
X159340476Y-102348619D01*
X159340476Y-102348619D02*
X159316666Y-102372428D01*
X159316666Y-102372428D02*
X159292857Y-102420047D01*
X159292857Y-102420047D02*
X159269047Y-102515285D01*
X159269047Y-102515285D02*
X159269047Y-102634333D01*
X159269047Y-102634333D02*
X159292857Y-102729571D01*
X159292857Y-102729571D02*
X159316666Y-102777190D01*
X159316666Y-102777190D02*
X159340476Y-102801000D01*
X159340476Y-102801000D02*
X159388095Y-102824809D01*
X159388095Y-102824809D02*
X159435714Y-102824809D01*
X159435714Y-102824809D02*
X159483333Y-102801000D01*
X159483333Y-102801000D02*
X159507142Y-102777190D01*
X159507142Y-102777190D02*
X159530952Y-102729571D01*
X159530952Y-102729571D02*
X159554761Y-102634333D01*
X159554761Y-102634333D02*
X159554761Y-102515285D01*
X159554761Y-102515285D02*
X159530952Y-102420047D01*
X159530952Y-102420047D02*
X159507142Y-102372428D01*
X159507142Y-102372428D02*
X159483333Y-102348619D01*
X159483333Y-102348619D02*
X159435714Y-102324809D01*
X159102381Y-102324809D02*
X158769048Y-102324809D01*
X158769048Y-102324809D02*
X158983333Y-102824809D01*
X158624809Y-112242857D02*
X159029571Y-112242857D01*
X159029571Y-112242857D02*
X159077190Y-112266667D01*
X159077190Y-112266667D02*
X159101000Y-112290476D01*
X159101000Y-112290476D02*
X159124809Y-112338095D01*
X159124809Y-112338095D02*
X159124809Y-112433333D01*
X159124809Y-112433333D02*
X159101000Y-112480952D01*
X159101000Y-112480952D02*
X159077190Y-112504762D01*
X159077190Y-112504762D02*
X159029571Y-112528571D01*
X159029571Y-112528571D02*
X158624809Y-112528571D01*
X158791476Y-112980953D02*
X159124809Y-112980953D01*
X158601000Y-112861905D02*
X158958142Y-112742858D01*
X158958142Y-112742858D02*
X158958142Y-113052381D01*
X158624809Y-113338095D02*
X158624809Y-113385714D01*
X158624809Y-113385714D02*
X158648619Y-113433333D01*
X158648619Y-113433333D02*
X158672428Y-113457143D01*
X158672428Y-113457143D02*
X158720047Y-113480952D01*
X158720047Y-113480952D02*
X158815285Y-113504762D01*
X158815285Y-113504762D02*
X158934333Y-113504762D01*
X158934333Y-113504762D02*
X159029571Y-113480952D01*
X159029571Y-113480952D02*
X159077190Y-113457143D01*
X159077190Y-113457143D02*
X159101000Y-113433333D01*
X159101000Y-113433333D02*
X159124809Y-113385714D01*
X159124809Y-113385714D02*
X159124809Y-113338095D01*
X159124809Y-113338095D02*
X159101000Y-113290476D01*
X159101000Y-113290476D02*
X159077190Y-113266667D01*
X159077190Y-113266667D02*
X159029571Y-113242857D01*
X159029571Y-113242857D02*
X158934333Y-113219048D01*
X158934333Y-113219048D02*
X158815285Y-113219048D01*
X158815285Y-113219048D02*
X158720047Y-113242857D01*
X158720047Y-113242857D02*
X158672428Y-113266667D01*
X158672428Y-113266667D02*
X158648619Y-113290476D01*
X158648619Y-113290476D02*
X158624809Y-113338095D01*
X158672428Y-113695238D02*
X158648619Y-113719047D01*
X158648619Y-113719047D02*
X158624809Y-113766666D01*
X158624809Y-113766666D02*
X158624809Y-113885714D01*
X158624809Y-113885714D02*
X158648619Y-113933333D01*
X158648619Y-113933333D02*
X158672428Y-113957142D01*
X158672428Y-113957142D02*
X158720047Y-113980952D01*
X158720047Y-113980952D02*
X158767666Y-113980952D01*
X158767666Y-113980952D02*
X158839095Y-113957142D01*
X158839095Y-113957142D02*
X159124809Y-113671428D01*
X159124809Y-113671428D02*
X159124809Y-113980952D01*
X171542856Y-97074809D02*
X171542856Y-97431952D01*
X171542856Y-97431952D02*
X171566665Y-97503380D01*
X171566665Y-97503380D02*
X171614284Y-97551000D01*
X171614284Y-97551000D02*
X171685713Y-97574809D01*
X171685713Y-97574809D02*
X171733332Y-97574809D01*
X171090475Y-97241476D02*
X171090475Y-97574809D01*
X171209523Y-97051000D02*
X171328570Y-97408142D01*
X171328570Y-97408142D02*
X171019047Y-97408142D01*
X170733333Y-97074809D02*
X170685714Y-97074809D01*
X170685714Y-97074809D02*
X170638095Y-97098619D01*
X170638095Y-97098619D02*
X170614285Y-97122428D01*
X170614285Y-97122428D02*
X170590476Y-97170047D01*
X170590476Y-97170047D02*
X170566666Y-97265285D01*
X170566666Y-97265285D02*
X170566666Y-97384333D01*
X170566666Y-97384333D02*
X170590476Y-97479571D01*
X170590476Y-97479571D02*
X170614285Y-97527190D01*
X170614285Y-97527190D02*
X170638095Y-97551000D01*
X170638095Y-97551000D02*
X170685714Y-97574809D01*
X170685714Y-97574809D02*
X170733333Y-97574809D01*
X170733333Y-97574809D02*
X170780952Y-97551000D01*
X170780952Y-97551000D02*
X170804761Y-97527190D01*
X170804761Y-97527190D02*
X170828571Y-97479571D01*
X170828571Y-97479571D02*
X170852380Y-97384333D01*
X170852380Y-97384333D02*
X170852380Y-97265285D01*
X170852380Y-97265285D02*
X170828571Y-97170047D01*
X170828571Y-97170047D02*
X170804761Y-97122428D01*
X170804761Y-97122428D02*
X170780952Y-97098619D01*
X170780952Y-97098619D02*
X170733333Y-97074809D01*
X170090476Y-97574809D02*
X170376190Y-97574809D01*
X170233333Y-97574809D02*
X170233333Y-97074809D01*
X170233333Y-97074809D02*
X170280952Y-97146238D01*
X170280952Y-97146238D02*
X170328571Y-97193857D01*
X170328571Y-97193857D02*
X170376190Y-97217666D01*
X153280951Y-89824809D02*
X153280951Y-90181952D01*
X153280951Y-90181952D02*
X153304760Y-90253380D01*
X153304760Y-90253380D02*
X153352379Y-90301000D01*
X153352379Y-90301000D02*
X153423808Y-90324809D01*
X153423808Y-90324809D02*
X153471427Y-90324809D01*
X152780951Y-90324809D02*
X153066665Y-90324809D01*
X152923808Y-90324809D02*
X152923808Y-89824809D01*
X152923808Y-89824809D02*
X152971427Y-89896238D01*
X152971427Y-89896238D02*
X153019046Y-89943857D01*
X153019046Y-89943857D02*
X153066665Y-89967666D01*
X152614285Y-89824809D02*
X152304761Y-89824809D01*
X152304761Y-89824809D02*
X152471428Y-90015285D01*
X152471428Y-90015285D02*
X152399999Y-90015285D01*
X152399999Y-90015285D02*
X152352380Y-90039095D01*
X152352380Y-90039095D02*
X152328571Y-90062904D01*
X152328571Y-90062904D02*
X152304761Y-90110523D01*
X152304761Y-90110523D02*
X152304761Y-90229571D01*
X152304761Y-90229571D02*
X152328571Y-90277190D01*
X152328571Y-90277190D02*
X152352380Y-90301000D01*
X152352380Y-90301000D02*
X152399999Y-90324809D01*
X152399999Y-90324809D02*
X152542856Y-90324809D01*
X152542856Y-90324809D02*
X152590475Y-90301000D01*
X152590475Y-90301000D02*
X152614285Y-90277190D01*
X151995238Y-89824809D02*
X151947619Y-89824809D01*
X151947619Y-89824809D02*
X151900000Y-89848619D01*
X151900000Y-89848619D02*
X151876190Y-89872428D01*
X151876190Y-89872428D02*
X151852381Y-89920047D01*
X151852381Y-89920047D02*
X151828571Y-90015285D01*
X151828571Y-90015285D02*
X151828571Y-90134333D01*
X151828571Y-90134333D02*
X151852381Y-90229571D01*
X151852381Y-90229571D02*
X151876190Y-90277190D01*
X151876190Y-90277190D02*
X151900000Y-90301000D01*
X151900000Y-90301000D02*
X151947619Y-90324809D01*
X151947619Y-90324809D02*
X151995238Y-90324809D01*
X151995238Y-90324809D02*
X152042857Y-90301000D01*
X152042857Y-90301000D02*
X152066666Y-90277190D01*
X152066666Y-90277190D02*
X152090476Y-90229571D01*
X152090476Y-90229571D02*
X152114285Y-90134333D01*
X152114285Y-90134333D02*
X152114285Y-90015285D01*
X152114285Y-90015285D02*
X152090476Y-89920047D01*
X152090476Y-89920047D02*
X152066666Y-89872428D01*
X152066666Y-89872428D02*
X152042857Y-89848619D01*
X152042857Y-89848619D02*
X151995238Y-89824809D01*
X151352381Y-90324809D02*
X151638095Y-90324809D01*
X151495238Y-90324809D02*
X151495238Y-89824809D01*
X151495238Y-89824809D02*
X151542857Y-89896238D01*
X151542857Y-89896238D02*
X151590476Y-89943857D01*
X151590476Y-89943857D02*
X151638095Y-89967666D01*
X162280950Y-86051000D02*
X162209522Y-86074809D01*
X162209522Y-86074809D02*
X162090474Y-86074809D01*
X162090474Y-86074809D02*
X162042855Y-86051000D01*
X162042855Y-86051000D02*
X162019046Y-86027190D01*
X162019046Y-86027190D02*
X161995236Y-85979571D01*
X161995236Y-85979571D02*
X161995236Y-85931952D01*
X161995236Y-85931952D02*
X162019046Y-85884333D01*
X162019046Y-85884333D02*
X162042855Y-85860523D01*
X162042855Y-85860523D02*
X162090474Y-85836714D01*
X162090474Y-85836714D02*
X162185712Y-85812904D01*
X162185712Y-85812904D02*
X162233331Y-85789095D01*
X162233331Y-85789095D02*
X162257141Y-85765285D01*
X162257141Y-85765285D02*
X162280950Y-85717666D01*
X162280950Y-85717666D02*
X162280950Y-85670047D01*
X162280950Y-85670047D02*
X162257141Y-85622428D01*
X162257141Y-85622428D02*
X162233331Y-85598619D01*
X162233331Y-85598619D02*
X162185712Y-85574809D01*
X162185712Y-85574809D02*
X162066665Y-85574809D01*
X162066665Y-85574809D02*
X161995236Y-85598619D01*
X161828570Y-85574809D02*
X161709522Y-86074809D01*
X161709522Y-86074809D02*
X161614284Y-85717666D01*
X161614284Y-85717666D02*
X161519046Y-86074809D01*
X161519046Y-86074809D02*
X161399999Y-85574809D01*
X160947617Y-86074809D02*
X161233331Y-86074809D01*
X161090474Y-86074809D02*
X161090474Y-85574809D01*
X161090474Y-85574809D02*
X161138093Y-85646238D01*
X161138093Y-85646238D02*
X161185712Y-85693857D01*
X161185712Y-85693857D02*
X161233331Y-85717666D01*
X160780951Y-85574809D02*
X160471427Y-85574809D01*
X160471427Y-85574809D02*
X160638094Y-85765285D01*
X160638094Y-85765285D02*
X160566665Y-85765285D01*
X160566665Y-85765285D02*
X160519046Y-85789095D01*
X160519046Y-85789095D02*
X160495237Y-85812904D01*
X160495237Y-85812904D02*
X160471427Y-85860523D01*
X160471427Y-85860523D02*
X160471427Y-85979571D01*
X160471427Y-85979571D02*
X160495237Y-86027190D01*
X160495237Y-86027190D02*
X160519046Y-86051000D01*
X160519046Y-86051000D02*
X160566665Y-86074809D01*
X160566665Y-86074809D02*
X160709522Y-86074809D01*
X160709522Y-86074809D02*
X160757141Y-86051000D01*
X160757141Y-86051000D02*
X160780951Y-86027190D01*
X160161904Y-85574809D02*
X160114285Y-85574809D01*
X160114285Y-85574809D02*
X160066666Y-85598619D01*
X160066666Y-85598619D02*
X160042856Y-85622428D01*
X160042856Y-85622428D02*
X160019047Y-85670047D01*
X160019047Y-85670047D02*
X159995237Y-85765285D01*
X159995237Y-85765285D02*
X159995237Y-85884333D01*
X159995237Y-85884333D02*
X160019047Y-85979571D01*
X160019047Y-85979571D02*
X160042856Y-86027190D01*
X160042856Y-86027190D02*
X160066666Y-86051000D01*
X160066666Y-86051000D02*
X160114285Y-86074809D01*
X160114285Y-86074809D02*
X160161904Y-86074809D01*
X160161904Y-86074809D02*
X160209523Y-86051000D01*
X160209523Y-86051000D02*
X160233332Y-86027190D01*
X160233332Y-86027190D02*
X160257142Y-85979571D01*
X160257142Y-85979571D02*
X160280951Y-85884333D01*
X160280951Y-85884333D02*
X160280951Y-85765285D01*
X160280951Y-85765285D02*
X160257142Y-85670047D01*
X160257142Y-85670047D02*
X160233332Y-85622428D01*
X160233332Y-85622428D02*
X160209523Y-85598619D01*
X160209523Y-85598619D02*
X160161904Y-85574809D01*
X159519047Y-86074809D02*
X159804761Y-86074809D01*
X159661904Y-86074809D02*
X159661904Y-85574809D01*
X159661904Y-85574809D02*
X159709523Y-85646238D01*
X159709523Y-85646238D02*
X159757142Y-85693857D01*
X159757142Y-85693857D02*
X159804761Y-85717666D01*
X164374809Y-92004762D02*
X164779571Y-92004762D01*
X164779571Y-92004762D02*
X164827190Y-92028572D01*
X164827190Y-92028572D02*
X164851000Y-92052381D01*
X164851000Y-92052381D02*
X164874809Y-92100000D01*
X164874809Y-92100000D02*
X164874809Y-92195238D01*
X164874809Y-92195238D02*
X164851000Y-92242857D01*
X164851000Y-92242857D02*
X164827190Y-92266667D01*
X164827190Y-92266667D02*
X164779571Y-92290476D01*
X164779571Y-92290476D02*
X164374809Y-92290476D01*
X164874809Y-92790477D02*
X164874809Y-92504763D01*
X164874809Y-92647620D02*
X164374809Y-92647620D01*
X164374809Y-92647620D02*
X164446238Y-92600001D01*
X164446238Y-92600001D02*
X164493857Y-92552382D01*
X164493857Y-92552382D02*
X164517666Y-92504763D01*
X164374809Y-92957143D02*
X164374809Y-93266667D01*
X164374809Y-93266667D02*
X164565285Y-93100000D01*
X164565285Y-93100000D02*
X164565285Y-93171429D01*
X164565285Y-93171429D02*
X164589095Y-93219048D01*
X164589095Y-93219048D02*
X164612904Y-93242857D01*
X164612904Y-93242857D02*
X164660523Y-93266667D01*
X164660523Y-93266667D02*
X164779571Y-93266667D01*
X164779571Y-93266667D02*
X164827190Y-93242857D01*
X164827190Y-93242857D02*
X164851000Y-93219048D01*
X164851000Y-93219048D02*
X164874809Y-93171429D01*
X164874809Y-93171429D02*
X164874809Y-93028572D01*
X164874809Y-93028572D02*
X164851000Y-92980953D01*
X164851000Y-92980953D02*
X164827190Y-92957143D01*
X164374809Y-93576190D02*
X164374809Y-93623809D01*
X164374809Y-93623809D02*
X164398619Y-93671428D01*
X164398619Y-93671428D02*
X164422428Y-93695238D01*
X164422428Y-93695238D02*
X164470047Y-93719047D01*
X164470047Y-93719047D02*
X164565285Y-93742857D01*
X164565285Y-93742857D02*
X164684333Y-93742857D01*
X164684333Y-93742857D02*
X164779571Y-93719047D01*
X164779571Y-93719047D02*
X164827190Y-93695238D01*
X164827190Y-93695238D02*
X164851000Y-93671428D01*
X164851000Y-93671428D02*
X164874809Y-93623809D01*
X164874809Y-93623809D02*
X164874809Y-93576190D01*
X164874809Y-93576190D02*
X164851000Y-93528571D01*
X164851000Y-93528571D02*
X164827190Y-93504762D01*
X164827190Y-93504762D02*
X164779571Y-93480952D01*
X164779571Y-93480952D02*
X164684333Y-93457143D01*
X164684333Y-93457143D02*
X164565285Y-93457143D01*
X164565285Y-93457143D02*
X164470047Y-93480952D01*
X164470047Y-93480952D02*
X164422428Y-93504762D01*
X164422428Y-93504762D02*
X164398619Y-93528571D01*
X164398619Y-93528571D02*
X164374809Y-93576190D01*
X164374809Y-93909523D02*
X164374809Y-94219047D01*
X164374809Y-94219047D02*
X164565285Y-94052380D01*
X164565285Y-94052380D02*
X164565285Y-94123809D01*
X164565285Y-94123809D02*
X164589095Y-94171428D01*
X164589095Y-94171428D02*
X164612904Y-94195237D01*
X164612904Y-94195237D02*
X164660523Y-94219047D01*
X164660523Y-94219047D02*
X164779571Y-94219047D01*
X164779571Y-94219047D02*
X164827190Y-94195237D01*
X164827190Y-94195237D02*
X164851000Y-94171428D01*
X164851000Y-94171428D02*
X164874809Y-94123809D01*
X164874809Y-94123809D02*
X164874809Y-93980952D01*
X164874809Y-93980952D02*
X164851000Y-93933333D01*
X164851000Y-93933333D02*
X164827190Y-93909523D01*
X136042856Y-104074809D02*
X136042856Y-104431952D01*
X136042856Y-104431952D02*
X136066665Y-104503380D01*
X136066665Y-104503380D02*
X136114284Y-104551000D01*
X136114284Y-104551000D02*
X136185713Y-104574809D01*
X136185713Y-104574809D02*
X136233332Y-104574809D01*
X135852380Y-104074809D02*
X135542856Y-104074809D01*
X135542856Y-104074809D02*
X135709523Y-104265285D01*
X135709523Y-104265285D02*
X135638094Y-104265285D01*
X135638094Y-104265285D02*
X135590475Y-104289095D01*
X135590475Y-104289095D02*
X135566666Y-104312904D01*
X135566666Y-104312904D02*
X135542856Y-104360523D01*
X135542856Y-104360523D02*
X135542856Y-104479571D01*
X135542856Y-104479571D02*
X135566666Y-104527190D01*
X135566666Y-104527190D02*
X135590475Y-104551000D01*
X135590475Y-104551000D02*
X135638094Y-104574809D01*
X135638094Y-104574809D02*
X135780951Y-104574809D01*
X135780951Y-104574809D02*
X135828570Y-104551000D01*
X135828570Y-104551000D02*
X135852380Y-104527190D01*
X135233333Y-104074809D02*
X135185714Y-104074809D01*
X135185714Y-104074809D02*
X135138095Y-104098619D01*
X135138095Y-104098619D02*
X135114285Y-104122428D01*
X135114285Y-104122428D02*
X135090476Y-104170047D01*
X135090476Y-104170047D02*
X135066666Y-104265285D01*
X135066666Y-104265285D02*
X135066666Y-104384333D01*
X135066666Y-104384333D02*
X135090476Y-104479571D01*
X135090476Y-104479571D02*
X135114285Y-104527190D01*
X135114285Y-104527190D02*
X135138095Y-104551000D01*
X135138095Y-104551000D02*
X135185714Y-104574809D01*
X135185714Y-104574809D02*
X135233333Y-104574809D01*
X135233333Y-104574809D02*
X135280952Y-104551000D01*
X135280952Y-104551000D02*
X135304761Y-104527190D01*
X135304761Y-104527190D02*
X135328571Y-104479571D01*
X135328571Y-104479571D02*
X135352380Y-104384333D01*
X135352380Y-104384333D02*
X135352380Y-104265285D01*
X135352380Y-104265285D02*
X135328571Y-104170047D01*
X135328571Y-104170047D02*
X135304761Y-104122428D01*
X135304761Y-104122428D02*
X135280952Y-104098619D01*
X135280952Y-104098619D02*
X135233333Y-104074809D01*
X134590476Y-104574809D02*
X134876190Y-104574809D01*
X134733333Y-104574809D02*
X134733333Y-104074809D01*
X134733333Y-104074809D02*
X134780952Y-104146238D01*
X134780952Y-104146238D02*
X134828571Y-104193857D01*
X134828571Y-104193857D02*
X134876190Y-104217666D01*
X145697618Y-97777190D02*
X145721427Y-97801000D01*
X145721427Y-97801000D02*
X145792856Y-97824809D01*
X145792856Y-97824809D02*
X145840475Y-97824809D01*
X145840475Y-97824809D02*
X145911903Y-97801000D01*
X145911903Y-97801000D02*
X145959522Y-97753380D01*
X145959522Y-97753380D02*
X145983332Y-97705761D01*
X145983332Y-97705761D02*
X146007141Y-97610523D01*
X146007141Y-97610523D02*
X146007141Y-97539095D01*
X146007141Y-97539095D02*
X145983332Y-97443857D01*
X145983332Y-97443857D02*
X145959522Y-97396238D01*
X145959522Y-97396238D02*
X145911903Y-97348619D01*
X145911903Y-97348619D02*
X145840475Y-97324809D01*
X145840475Y-97324809D02*
X145792856Y-97324809D01*
X145792856Y-97324809D02*
X145721427Y-97348619D01*
X145721427Y-97348619D02*
X145697618Y-97372428D01*
X145221427Y-97824809D02*
X145507141Y-97824809D01*
X145364284Y-97824809D02*
X145364284Y-97324809D01*
X145364284Y-97324809D02*
X145411903Y-97396238D01*
X145411903Y-97396238D02*
X145459522Y-97443857D01*
X145459522Y-97443857D02*
X145507141Y-97467666D01*
X145054761Y-97324809D02*
X144745237Y-97324809D01*
X144745237Y-97324809D02*
X144911904Y-97515285D01*
X144911904Y-97515285D02*
X144840475Y-97515285D01*
X144840475Y-97515285D02*
X144792856Y-97539095D01*
X144792856Y-97539095D02*
X144769047Y-97562904D01*
X144769047Y-97562904D02*
X144745237Y-97610523D01*
X144745237Y-97610523D02*
X144745237Y-97729571D01*
X144745237Y-97729571D02*
X144769047Y-97777190D01*
X144769047Y-97777190D02*
X144792856Y-97801000D01*
X144792856Y-97801000D02*
X144840475Y-97824809D01*
X144840475Y-97824809D02*
X144983332Y-97824809D01*
X144983332Y-97824809D02*
X145030951Y-97801000D01*
X145030951Y-97801000D02*
X145054761Y-97777190D01*
X144435714Y-97324809D02*
X144388095Y-97324809D01*
X144388095Y-97324809D02*
X144340476Y-97348619D01*
X144340476Y-97348619D02*
X144316666Y-97372428D01*
X144316666Y-97372428D02*
X144292857Y-97420047D01*
X144292857Y-97420047D02*
X144269047Y-97515285D01*
X144269047Y-97515285D02*
X144269047Y-97634333D01*
X144269047Y-97634333D02*
X144292857Y-97729571D01*
X144292857Y-97729571D02*
X144316666Y-97777190D01*
X144316666Y-97777190D02*
X144340476Y-97801000D01*
X144340476Y-97801000D02*
X144388095Y-97824809D01*
X144388095Y-97824809D02*
X144435714Y-97824809D01*
X144435714Y-97824809D02*
X144483333Y-97801000D01*
X144483333Y-97801000D02*
X144507142Y-97777190D01*
X144507142Y-97777190D02*
X144530952Y-97729571D01*
X144530952Y-97729571D02*
X144554761Y-97634333D01*
X144554761Y-97634333D02*
X144554761Y-97515285D01*
X144554761Y-97515285D02*
X144530952Y-97420047D01*
X144530952Y-97420047D02*
X144507142Y-97372428D01*
X144507142Y-97372428D02*
X144483333Y-97348619D01*
X144483333Y-97348619D02*
X144435714Y-97324809D01*
X144030952Y-97824809D02*
X143935714Y-97824809D01*
X143935714Y-97824809D02*
X143888095Y-97801000D01*
X143888095Y-97801000D02*
X143864286Y-97777190D01*
X143864286Y-97777190D02*
X143816667Y-97705761D01*
X143816667Y-97705761D02*
X143792857Y-97610523D01*
X143792857Y-97610523D02*
X143792857Y-97420047D01*
X143792857Y-97420047D02*
X143816667Y-97372428D01*
X143816667Y-97372428D02*
X143840476Y-97348619D01*
X143840476Y-97348619D02*
X143888095Y-97324809D01*
X143888095Y-97324809D02*
X143983333Y-97324809D01*
X143983333Y-97324809D02*
X144030952Y-97348619D01*
X144030952Y-97348619D02*
X144054762Y-97372428D01*
X144054762Y-97372428D02*
X144078571Y-97420047D01*
X144078571Y-97420047D02*
X144078571Y-97539095D01*
X144078571Y-97539095D02*
X144054762Y-97586714D01*
X144054762Y-97586714D02*
X144030952Y-97610523D01*
X144030952Y-97610523D02*
X143983333Y-97634333D01*
X143983333Y-97634333D02*
X143888095Y-97634333D01*
X143888095Y-97634333D02*
X143840476Y-97610523D01*
X143840476Y-97610523D02*
X143816667Y-97586714D01*
X143816667Y-97586714D02*
X143792857Y-97539095D01*
X160327190Y-88302381D02*
X160351000Y-88278572D01*
X160351000Y-88278572D02*
X160374809Y-88207143D01*
X160374809Y-88207143D02*
X160374809Y-88159524D01*
X160374809Y-88159524D02*
X160351000Y-88088096D01*
X160351000Y-88088096D02*
X160303380Y-88040477D01*
X160303380Y-88040477D02*
X160255761Y-88016667D01*
X160255761Y-88016667D02*
X160160523Y-87992858D01*
X160160523Y-87992858D02*
X160089095Y-87992858D01*
X160089095Y-87992858D02*
X159993857Y-88016667D01*
X159993857Y-88016667D02*
X159946238Y-88040477D01*
X159946238Y-88040477D02*
X159898619Y-88088096D01*
X159898619Y-88088096D02*
X159874809Y-88159524D01*
X159874809Y-88159524D02*
X159874809Y-88207143D01*
X159874809Y-88207143D02*
X159898619Y-88278572D01*
X159898619Y-88278572D02*
X159922428Y-88302381D01*
X160374809Y-88778572D02*
X160374809Y-88492858D01*
X160374809Y-88635715D02*
X159874809Y-88635715D01*
X159874809Y-88635715D02*
X159946238Y-88588096D01*
X159946238Y-88588096D02*
X159993857Y-88540477D01*
X159993857Y-88540477D02*
X160017666Y-88492858D01*
X159874809Y-88945238D02*
X159874809Y-89254762D01*
X159874809Y-89254762D02*
X160065285Y-89088095D01*
X160065285Y-89088095D02*
X160065285Y-89159524D01*
X160065285Y-89159524D02*
X160089095Y-89207143D01*
X160089095Y-89207143D02*
X160112904Y-89230952D01*
X160112904Y-89230952D02*
X160160523Y-89254762D01*
X160160523Y-89254762D02*
X160279571Y-89254762D01*
X160279571Y-89254762D02*
X160327190Y-89230952D01*
X160327190Y-89230952D02*
X160351000Y-89207143D01*
X160351000Y-89207143D02*
X160374809Y-89159524D01*
X160374809Y-89159524D02*
X160374809Y-89016667D01*
X160374809Y-89016667D02*
X160351000Y-88969048D01*
X160351000Y-88969048D02*
X160327190Y-88945238D01*
X160374809Y-89730952D02*
X160374809Y-89445238D01*
X160374809Y-89588095D02*
X159874809Y-89588095D01*
X159874809Y-89588095D02*
X159946238Y-89540476D01*
X159946238Y-89540476D02*
X159993857Y-89492857D01*
X159993857Y-89492857D02*
X160017666Y-89445238D01*
X160041476Y-90159523D02*
X160374809Y-90159523D01*
X159851000Y-90040475D02*
X160208142Y-89921428D01*
X160208142Y-89921428D02*
X160208142Y-90230951D01*
D12*
X152541752Y-109461905D02*
X152560800Y-109442857D01*
X152560800Y-109442857D02*
X152579847Y-109385715D01*
X152579847Y-109385715D02*
X152579847Y-109347619D01*
X152579847Y-109347619D02*
X152560800Y-109290476D01*
X152560800Y-109290476D02*
X152522704Y-109252381D01*
X152522704Y-109252381D02*
X152484609Y-109233334D01*
X152484609Y-109233334D02*
X152408419Y-109214286D01*
X152408419Y-109214286D02*
X152351276Y-109214286D01*
X152351276Y-109214286D02*
X152275085Y-109233334D01*
X152275085Y-109233334D02*
X152236990Y-109252381D01*
X152236990Y-109252381D02*
X152198895Y-109290476D01*
X152198895Y-109290476D02*
X152179847Y-109347619D01*
X152179847Y-109347619D02*
X152179847Y-109385715D01*
X152179847Y-109385715D02*
X152198895Y-109442857D01*
X152198895Y-109442857D02*
X152217942Y-109461905D01*
X152579847Y-109842857D02*
X152579847Y-109614286D01*
X152579847Y-109728572D02*
X152179847Y-109728572D01*
X152179847Y-109728572D02*
X152236990Y-109690476D01*
X152236990Y-109690476D02*
X152275085Y-109652381D01*
X152275085Y-109652381D02*
X152294133Y-109614286D01*
X152179847Y-109976190D02*
X152179847Y-110223809D01*
X152179847Y-110223809D02*
X152332228Y-110090476D01*
X152332228Y-110090476D02*
X152332228Y-110147619D01*
X152332228Y-110147619D02*
X152351276Y-110185714D01*
X152351276Y-110185714D02*
X152370323Y-110204762D01*
X152370323Y-110204762D02*
X152408419Y-110223809D01*
X152408419Y-110223809D02*
X152503657Y-110223809D01*
X152503657Y-110223809D02*
X152541752Y-110204762D01*
X152541752Y-110204762D02*
X152560800Y-110185714D01*
X152560800Y-110185714D02*
X152579847Y-110147619D01*
X152579847Y-110147619D02*
X152579847Y-110033333D01*
X152579847Y-110033333D02*
X152560800Y-109995238D01*
X152560800Y-109995238D02*
X152541752Y-109976190D01*
X152179847Y-110471428D02*
X152179847Y-110509523D01*
X152179847Y-110509523D02*
X152198895Y-110547619D01*
X152198895Y-110547619D02*
X152217942Y-110566666D01*
X152217942Y-110566666D02*
X152256038Y-110585714D01*
X152256038Y-110585714D02*
X152332228Y-110604761D01*
X152332228Y-110604761D02*
X152427466Y-110604761D01*
X152427466Y-110604761D02*
X152503657Y-110585714D01*
X152503657Y-110585714D02*
X152541752Y-110566666D01*
X152541752Y-110566666D02*
X152560800Y-110547619D01*
X152560800Y-110547619D02*
X152579847Y-110509523D01*
X152579847Y-110509523D02*
X152579847Y-110471428D01*
X152579847Y-110471428D02*
X152560800Y-110433333D01*
X152560800Y-110433333D02*
X152541752Y-110414285D01*
X152541752Y-110414285D02*
X152503657Y-110395238D01*
X152503657Y-110395238D02*
X152427466Y-110376190D01*
X152427466Y-110376190D02*
X152332228Y-110376190D01*
X152332228Y-110376190D02*
X152256038Y-110395238D01*
X152256038Y-110395238D02*
X152217942Y-110414285D01*
X152217942Y-110414285D02*
X152198895Y-110433333D01*
X152198895Y-110433333D02*
X152179847Y-110471428D01*
X152351276Y-110833332D02*
X152332228Y-110795237D01*
X152332228Y-110795237D02*
X152313180Y-110776190D01*
X152313180Y-110776190D02*
X152275085Y-110757142D01*
X152275085Y-110757142D02*
X152256038Y-110757142D01*
X152256038Y-110757142D02*
X152217942Y-110776190D01*
X152217942Y-110776190D02*
X152198895Y-110795237D01*
X152198895Y-110795237D02*
X152179847Y-110833332D01*
X152179847Y-110833332D02*
X152179847Y-110909523D01*
X152179847Y-110909523D02*
X152198895Y-110947618D01*
X152198895Y-110947618D02*
X152217942Y-110966666D01*
X152217942Y-110966666D02*
X152256038Y-110985713D01*
X152256038Y-110985713D02*
X152275085Y-110985713D01*
X152275085Y-110985713D02*
X152313180Y-110966666D01*
X152313180Y-110966666D02*
X152332228Y-110947618D01*
X152332228Y-110947618D02*
X152351276Y-110909523D01*
X152351276Y-110909523D02*
X152351276Y-110833332D01*
X152351276Y-110833332D02*
X152370323Y-110795237D01*
X152370323Y-110795237D02*
X152389371Y-110776190D01*
X152389371Y-110776190D02*
X152427466Y-110757142D01*
X152427466Y-110757142D02*
X152503657Y-110757142D01*
X152503657Y-110757142D02*
X152541752Y-110776190D01*
X152541752Y-110776190D02*
X152560800Y-110795237D01*
X152560800Y-110795237D02*
X152579847Y-110833332D01*
X152579847Y-110833332D02*
X152579847Y-110909523D01*
X152579847Y-110909523D02*
X152560800Y-110947618D01*
X152560800Y-110947618D02*
X152541752Y-110966666D01*
X152541752Y-110966666D02*
X152503657Y-110985713D01*
X152503657Y-110985713D02*
X152427466Y-110985713D01*
X152427466Y-110985713D02*
X152389371Y-110966666D01*
X152389371Y-110966666D02*
X152370323Y-110947618D01*
X152370323Y-110947618D02*
X152351276Y-110909523D01*
D11*
X145697618Y-96277190D02*
X145721427Y-96301000D01*
X145721427Y-96301000D02*
X145792856Y-96324809D01*
X145792856Y-96324809D02*
X145840475Y-96324809D01*
X145840475Y-96324809D02*
X145911903Y-96301000D01*
X145911903Y-96301000D02*
X145959522Y-96253380D01*
X145959522Y-96253380D02*
X145983332Y-96205761D01*
X145983332Y-96205761D02*
X146007141Y-96110523D01*
X146007141Y-96110523D02*
X146007141Y-96039095D01*
X146007141Y-96039095D02*
X145983332Y-95943857D01*
X145983332Y-95943857D02*
X145959522Y-95896238D01*
X145959522Y-95896238D02*
X145911903Y-95848619D01*
X145911903Y-95848619D02*
X145840475Y-95824809D01*
X145840475Y-95824809D02*
X145792856Y-95824809D01*
X145792856Y-95824809D02*
X145721427Y-95848619D01*
X145721427Y-95848619D02*
X145697618Y-95872428D01*
X145221427Y-96324809D02*
X145507141Y-96324809D01*
X145364284Y-96324809D02*
X145364284Y-95824809D01*
X145364284Y-95824809D02*
X145411903Y-95896238D01*
X145411903Y-95896238D02*
X145459522Y-95943857D01*
X145459522Y-95943857D02*
X145507141Y-95967666D01*
X145054761Y-95824809D02*
X144745237Y-95824809D01*
X144745237Y-95824809D02*
X144911904Y-96015285D01*
X144911904Y-96015285D02*
X144840475Y-96015285D01*
X144840475Y-96015285D02*
X144792856Y-96039095D01*
X144792856Y-96039095D02*
X144769047Y-96062904D01*
X144769047Y-96062904D02*
X144745237Y-96110523D01*
X144745237Y-96110523D02*
X144745237Y-96229571D01*
X144745237Y-96229571D02*
X144769047Y-96277190D01*
X144769047Y-96277190D02*
X144792856Y-96301000D01*
X144792856Y-96301000D02*
X144840475Y-96324809D01*
X144840475Y-96324809D02*
X144983332Y-96324809D01*
X144983332Y-96324809D02*
X145030951Y-96301000D01*
X145030951Y-96301000D02*
X145054761Y-96277190D01*
X144269047Y-96324809D02*
X144554761Y-96324809D01*
X144411904Y-96324809D02*
X144411904Y-95824809D01*
X144411904Y-95824809D02*
X144459523Y-95896238D01*
X144459523Y-95896238D02*
X144507142Y-95943857D01*
X144507142Y-95943857D02*
X144554761Y-95967666D01*
X143959524Y-95824809D02*
X143911905Y-95824809D01*
X143911905Y-95824809D02*
X143864286Y-95848619D01*
X143864286Y-95848619D02*
X143840476Y-95872428D01*
X143840476Y-95872428D02*
X143816667Y-95920047D01*
X143816667Y-95920047D02*
X143792857Y-96015285D01*
X143792857Y-96015285D02*
X143792857Y-96134333D01*
X143792857Y-96134333D02*
X143816667Y-96229571D01*
X143816667Y-96229571D02*
X143840476Y-96277190D01*
X143840476Y-96277190D02*
X143864286Y-96301000D01*
X143864286Y-96301000D02*
X143911905Y-96324809D01*
X143911905Y-96324809D02*
X143959524Y-96324809D01*
X143959524Y-96324809D02*
X144007143Y-96301000D01*
X144007143Y-96301000D02*
X144030952Y-96277190D01*
X144030952Y-96277190D02*
X144054762Y-96229571D01*
X144054762Y-96229571D02*
X144078571Y-96134333D01*
X144078571Y-96134333D02*
X144078571Y-96015285D01*
X144078571Y-96015285D02*
X144054762Y-95920047D01*
X144054762Y-95920047D02*
X144030952Y-95872428D01*
X144030952Y-95872428D02*
X144007143Y-95848619D01*
X144007143Y-95848619D02*
X143959524Y-95824809D01*
X148577190Y-92802381D02*
X148601000Y-92778572D01*
X148601000Y-92778572D02*
X148624809Y-92707143D01*
X148624809Y-92707143D02*
X148624809Y-92659524D01*
X148624809Y-92659524D02*
X148601000Y-92588096D01*
X148601000Y-92588096D02*
X148553380Y-92540477D01*
X148553380Y-92540477D02*
X148505761Y-92516667D01*
X148505761Y-92516667D02*
X148410523Y-92492858D01*
X148410523Y-92492858D02*
X148339095Y-92492858D01*
X148339095Y-92492858D02*
X148243857Y-92516667D01*
X148243857Y-92516667D02*
X148196238Y-92540477D01*
X148196238Y-92540477D02*
X148148619Y-92588096D01*
X148148619Y-92588096D02*
X148124809Y-92659524D01*
X148124809Y-92659524D02*
X148124809Y-92707143D01*
X148124809Y-92707143D02*
X148148619Y-92778572D01*
X148148619Y-92778572D02*
X148172428Y-92802381D01*
X148624809Y-93278572D02*
X148624809Y-92992858D01*
X148624809Y-93135715D02*
X148124809Y-93135715D01*
X148124809Y-93135715D02*
X148196238Y-93088096D01*
X148196238Y-93088096D02*
X148243857Y-93040477D01*
X148243857Y-93040477D02*
X148267666Y-92992858D01*
X148124809Y-93445238D02*
X148124809Y-93754762D01*
X148124809Y-93754762D02*
X148315285Y-93588095D01*
X148315285Y-93588095D02*
X148315285Y-93659524D01*
X148315285Y-93659524D02*
X148339095Y-93707143D01*
X148339095Y-93707143D02*
X148362904Y-93730952D01*
X148362904Y-93730952D02*
X148410523Y-93754762D01*
X148410523Y-93754762D02*
X148529571Y-93754762D01*
X148529571Y-93754762D02*
X148577190Y-93730952D01*
X148577190Y-93730952D02*
X148601000Y-93707143D01*
X148601000Y-93707143D02*
X148624809Y-93659524D01*
X148624809Y-93659524D02*
X148624809Y-93516667D01*
X148624809Y-93516667D02*
X148601000Y-93469048D01*
X148601000Y-93469048D02*
X148577190Y-93445238D01*
X148124809Y-94064285D02*
X148124809Y-94111904D01*
X148124809Y-94111904D02*
X148148619Y-94159523D01*
X148148619Y-94159523D02*
X148172428Y-94183333D01*
X148172428Y-94183333D02*
X148220047Y-94207142D01*
X148220047Y-94207142D02*
X148315285Y-94230952D01*
X148315285Y-94230952D02*
X148434333Y-94230952D01*
X148434333Y-94230952D02*
X148529571Y-94207142D01*
X148529571Y-94207142D02*
X148577190Y-94183333D01*
X148577190Y-94183333D02*
X148601000Y-94159523D01*
X148601000Y-94159523D02*
X148624809Y-94111904D01*
X148624809Y-94111904D02*
X148624809Y-94064285D01*
X148624809Y-94064285D02*
X148601000Y-94016666D01*
X148601000Y-94016666D02*
X148577190Y-93992857D01*
X148577190Y-93992857D02*
X148529571Y-93969047D01*
X148529571Y-93969047D02*
X148434333Y-93945238D01*
X148434333Y-93945238D02*
X148315285Y-93945238D01*
X148315285Y-93945238D02*
X148220047Y-93969047D01*
X148220047Y-93969047D02*
X148172428Y-93992857D01*
X148172428Y-93992857D02*
X148148619Y-94016666D01*
X148148619Y-94016666D02*
X148124809Y-94064285D01*
X148124809Y-94397618D02*
X148124809Y-94707142D01*
X148124809Y-94707142D02*
X148315285Y-94540475D01*
X148315285Y-94540475D02*
X148315285Y-94611904D01*
X148315285Y-94611904D02*
X148339095Y-94659523D01*
X148339095Y-94659523D02*
X148362904Y-94683332D01*
X148362904Y-94683332D02*
X148410523Y-94707142D01*
X148410523Y-94707142D02*
X148529571Y-94707142D01*
X148529571Y-94707142D02*
X148577190Y-94683332D01*
X148577190Y-94683332D02*
X148601000Y-94659523D01*
X148601000Y-94659523D02*
X148624809Y-94611904D01*
X148624809Y-94611904D02*
X148624809Y-94469047D01*
X148624809Y-94469047D02*
X148601000Y-94421428D01*
X148601000Y-94421428D02*
X148577190Y-94397618D01*
X145197618Y-91527190D02*
X145221427Y-91551000D01*
X145221427Y-91551000D02*
X145292856Y-91574809D01*
X145292856Y-91574809D02*
X145340475Y-91574809D01*
X145340475Y-91574809D02*
X145411903Y-91551000D01*
X145411903Y-91551000D02*
X145459522Y-91503380D01*
X145459522Y-91503380D02*
X145483332Y-91455761D01*
X145483332Y-91455761D02*
X145507141Y-91360523D01*
X145507141Y-91360523D02*
X145507141Y-91289095D01*
X145507141Y-91289095D02*
X145483332Y-91193857D01*
X145483332Y-91193857D02*
X145459522Y-91146238D01*
X145459522Y-91146238D02*
X145411903Y-91098619D01*
X145411903Y-91098619D02*
X145340475Y-91074809D01*
X145340475Y-91074809D02*
X145292856Y-91074809D01*
X145292856Y-91074809D02*
X145221427Y-91098619D01*
X145221427Y-91098619D02*
X145197618Y-91122428D01*
X144721427Y-91574809D02*
X145007141Y-91574809D01*
X144864284Y-91574809D02*
X144864284Y-91074809D01*
X144864284Y-91074809D02*
X144911903Y-91146238D01*
X144911903Y-91146238D02*
X144959522Y-91193857D01*
X144959522Y-91193857D02*
X145007141Y-91217666D01*
X144554761Y-91074809D02*
X144245237Y-91074809D01*
X144245237Y-91074809D02*
X144411904Y-91265285D01*
X144411904Y-91265285D02*
X144340475Y-91265285D01*
X144340475Y-91265285D02*
X144292856Y-91289095D01*
X144292856Y-91289095D02*
X144269047Y-91312904D01*
X144269047Y-91312904D02*
X144245237Y-91360523D01*
X144245237Y-91360523D02*
X144245237Y-91479571D01*
X144245237Y-91479571D02*
X144269047Y-91527190D01*
X144269047Y-91527190D02*
X144292856Y-91551000D01*
X144292856Y-91551000D02*
X144340475Y-91574809D01*
X144340475Y-91574809D02*
X144483332Y-91574809D01*
X144483332Y-91574809D02*
X144530951Y-91551000D01*
X144530951Y-91551000D02*
X144554761Y-91527190D01*
X143935714Y-91074809D02*
X143888095Y-91074809D01*
X143888095Y-91074809D02*
X143840476Y-91098619D01*
X143840476Y-91098619D02*
X143816666Y-91122428D01*
X143816666Y-91122428D02*
X143792857Y-91170047D01*
X143792857Y-91170047D02*
X143769047Y-91265285D01*
X143769047Y-91265285D02*
X143769047Y-91384333D01*
X143769047Y-91384333D02*
X143792857Y-91479571D01*
X143792857Y-91479571D02*
X143816666Y-91527190D01*
X143816666Y-91527190D02*
X143840476Y-91551000D01*
X143840476Y-91551000D02*
X143888095Y-91574809D01*
X143888095Y-91574809D02*
X143935714Y-91574809D01*
X143935714Y-91574809D02*
X143983333Y-91551000D01*
X143983333Y-91551000D02*
X144007142Y-91527190D01*
X144007142Y-91527190D02*
X144030952Y-91479571D01*
X144030952Y-91479571D02*
X144054761Y-91384333D01*
X144054761Y-91384333D02*
X144054761Y-91265285D01*
X144054761Y-91265285D02*
X144030952Y-91170047D01*
X144030952Y-91170047D02*
X144007142Y-91122428D01*
X144007142Y-91122428D02*
X143983333Y-91098619D01*
X143983333Y-91098619D02*
X143935714Y-91074809D01*
X143578571Y-91122428D02*
X143554762Y-91098619D01*
X143554762Y-91098619D02*
X143507143Y-91074809D01*
X143507143Y-91074809D02*
X143388095Y-91074809D01*
X143388095Y-91074809D02*
X143340476Y-91098619D01*
X143340476Y-91098619D02*
X143316667Y-91122428D01*
X143316667Y-91122428D02*
X143292857Y-91170047D01*
X143292857Y-91170047D02*
X143292857Y-91217666D01*
X143292857Y-91217666D02*
X143316667Y-91289095D01*
X143316667Y-91289095D02*
X143602381Y-91574809D01*
X143602381Y-91574809D02*
X143292857Y-91574809D01*
X142245237Y-104824809D02*
X142245237Y-104324809D01*
X142245237Y-104324809D02*
X142126189Y-104324809D01*
X142126189Y-104324809D02*
X142054761Y-104348619D01*
X142054761Y-104348619D02*
X142007142Y-104396238D01*
X142007142Y-104396238D02*
X141983332Y-104443857D01*
X141983332Y-104443857D02*
X141959523Y-104539095D01*
X141959523Y-104539095D02*
X141959523Y-104610523D01*
X141959523Y-104610523D02*
X141983332Y-104705761D01*
X141983332Y-104705761D02*
X142007142Y-104753380D01*
X142007142Y-104753380D02*
X142054761Y-104801000D01*
X142054761Y-104801000D02*
X142126189Y-104824809D01*
X142126189Y-104824809D02*
X142245237Y-104824809D01*
X141530951Y-104491476D02*
X141530951Y-104824809D01*
X141649999Y-104301000D02*
X141769046Y-104658142D01*
X141769046Y-104658142D02*
X141459523Y-104658142D01*
X141173809Y-104324809D02*
X141126190Y-104324809D01*
X141126190Y-104324809D02*
X141078571Y-104348619D01*
X141078571Y-104348619D02*
X141054761Y-104372428D01*
X141054761Y-104372428D02*
X141030952Y-104420047D01*
X141030952Y-104420047D02*
X141007142Y-104515285D01*
X141007142Y-104515285D02*
X141007142Y-104634333D01*
X141007142Y-104634333D02*
X141030952Y-104729571D01*
X141030952Y-104729571D02*
X141054761Y-104777190D01*
X141054761Y-104777190D02*
X141078571Y-104801000D01*
X141078571Y-104801000D02*
X141126190Y-104824809D01*
X141126190Y-104824809D02*
X141173809Y-104824809D01*
X141173809Y-104824809D02*
X141221428Y-104801000D01*
X141221428Y-104801000D02*
X141245237Y-104777190D01*
X141245237Y-104777190D02*
X141269047Y-104729571D01*
X141269047Y-104729571D02*
X141292856Y-104634333D01*
X141292856Y-104634333D02*
X141292856Y-104515285D01*
X141292856Y-104515285D02*
X141269047Y-104420047D01*
X141269047Y-104420047D02*
X141245237Y-104372428D01*
X141245237Y-104372428D02*
X141221428Y-104348619D01*
X141221428Y-104348619D02*
X141173809Y-104324809D01*
X140530952Y-104824809D02*
X140816666Y-104824809D01*
X140673809Y-104824809D02*
X140673809Y-104324809D01*
X140673809Y-104324809D02*
X140721428Y-104396238D01*
X140721428Y-104396238D02*
X140769047Y-104443857D01*
X140769047Y-104443857D02*
X140816666Y-104467666D01*
X146624809Y-83516667D02*
X146124809Y-83516667D01*
X146124809Y-83516667D02*
X146124809Y-83635715D01*
X146124809Y-83635715D02*
X146148619Y-83707143D01*
X146148619Y-83707143D02*
X146196238Y-83754762D01*
X146196238Y-83754762D02*
X146243857Y-83778572D01*
X146243857Y-83778572D02*
X146339095Y-83802381D01*
X146339095Y-83802381D02*
X146410523Y-83802381D01*
X146410523Y-83802381D02*
X146505761Y-83778572D01*
X146505761Y-83778572D02*
X146553380Y-83754762D01*
X146553380Y-83754762D02*
X146601000Y-83707143D01*
X146601000Y-83707143D02*
X146624809Y-83635715D01*
X146624809Y-83635715D02*
X146624809Y-83516667D01*
X146624809Y-84278572D02*
X146624809Y-83992858D01*
X146624809Y-84135715D02*
X146124809Y-84135715D01*
X146124809Y-84135715D02*
X146196238Y-84088096D01*
X146196238Y-84088096D02*
X146243857Y-84040477D01*
X146243857Y-84040477D02*
X146267666Y-83992858D01*
X146124809Y-84445238D02*
X146124809Y-84754762D01*
X146124809Y-84754762D02*
X146315285Y-84588095D01*
X146315285Y-84588095D02*
X146315285Y-84659524D01*
X146315285Y-84659524D02*
X146339095Y-84707143D01*
X146339095Y-84707143D02*
X146362904Y-84730952D01*
X146362904Y-84730952D02*
X146410523Y-84754762D01*
X146410523Y-84754762D02*
X146529571Y-84754762D01*
X146529571Y-84754762D02*
X146577190Y-84730952D01*
X146577190Y-84730952D02*
X146601000Y-84707143D01*
X146601000Y-84707143D02*
X146624809Y-84659524D01*
X146624809Y-84659524D02*
X146624809Y-84516667D01*
X146624809Y-84516667D02*
X146601000Y-84469048D01*
X146601000Y-84469048D02*
X146577190Y-84445238D01*
X146124809Y-85064285D02*
X146124809Y-85111904D01*
X146124809Y-85111904D02*
X146148619Y-85159523D01*
X146148619Y-85159523D02*
X146172428Y-85183333D01*
X146172428Y-85183333D02*
X146220047Y-85207142D01*
X146220047Y-85207142D02*
X146315285Y-85230952D01*
X146315285Y-85230952D02*
X146434333Y-85230952D01*
X146434333Y-85230952D02*
X146529571Y-85207142D01*
X146529571Y-85207142D02*
X146577190Y-85183333D01*
X146577190Y-85183333D02*
X146601000Y-85159523D01*
X146601000Y-85159523D02*
X146624809Y-85111904D01*
X146624809Y-85111904D02*
X146624809Y-85064285D01*
X146624809Y-85064285D02*
X146601000Y-85016666D01*
X146601000Y-85016666D02*
X146577190Y-84992857D01*
X146577190Y-84992857D02*
X146529571Y-84969047D01*
X146529571Y-84969047D02*
X146434333Y-84945238D01*
X146434333Y-84945238D02*
X146315285Y-84945238D01*
X146315285Y-84945238D02*
X146220047Y-84969047D01*
X146220047Y-84969047D02*
X146172428Y-84992857D01*
X146172428Y-84992857D02*
X146148619Y-85016666D01*
X146148619Y-85016666D02*
X146124809Y-85064285D01*
X146172428Y-85421428D02*
X146148619Y-85445237D01*
X146148619Y-85445237D02*
X146124809Y-85492856D01*
X146124809Y-85492856D02*
X146124809Y-85611904D01*
X146124809Y-85611904D02*
X146148619Y-85659523D01*
X146148619Y-85659523D02*
X146172428Y-85683332D01*
X146172428Y-85683332D02*
X146220047Y-85707142D01*
X146220047Y-85707142D02*
X146267666Y-85707142D01*
X146267666Y-85707142D02*
X146339095Y-85683332D01*
X146339095Y-85683332D02*
X146624809Y-85397618D01*
X146624809Y-85397618D02*
X146624809Y-85707142D01*
X160697618Y-98777190D02*
X160721427Y-98801000D01*
X160721427Y-98801000D02*
X160792856Y-98824809D01*
X160792856Y-98824809D02*
X160840475Y-98824809D01*
X160840475Y-98824809D02*
X160911903Y-98801000D01*
X160911903Y-98801000D02*
X160959522Y-98753380D01*
X160959522Y-98753380D02*
X160983332Y-98705761D01*
X160983332Y-98705761D02*
X161007141Y-98610523D01*
X161007141Y-98610523D02*
X161007141Y-98539095D01*
X161007141Y-98539095D02*
X160983332Y-98443857D01*
X160983332Y-98443857D02*
X160959522Y-98396238D01*
X160959522Y-98396238D02*
X160911903Y-98348619D01*
X160911903Y-98348619D02*
X160840475Y-98324809D01*
X160840475Y-98324809D02*
X160792856Y-98324809D01*
X160792856Y-98324809D02*
X160721427Y-98348619D01*
X160721427Y-98348619D02*
X160697618Y-98372428D01*
X160221427Y-98824809D02*
X160507141Y-98824809D01*
X160364284Y-98824809D02*
X160364284Y-98324809D01*
X160364284Y-98324809D02*
X160411903Y-98396238D01*
X160411903Y-98396238D02*
X160459522Y-98443857D01*
X160459522Y-98443857D02*
X160507141Y-98467666D01*
X160054761Y-98324809D02*
X159745237Y-98324809D01*
X159745237Y-98324809D02*
X159911904Y-98515285D01*
X159911904Y-98515285D02*
X159840475Y-98515285D01*
X159840475Y-98515285D02*
X159792856Y-98539095D01*
X159792856Y-98539095D02*
X159769047Y-98562904D01*
X159769047Y-98562904D02*
X159745237Y-98610523D01*
X159745237Y-98610523D02*
X159745237Y-98729571D01*
X159745237Y-98729571D02*
X159769047Y-98777190D01*
X159769047Y-98777190D02*
X159792856Y-98801000D01*
X159792856Y-98801000D02*
X159840475Y-98824809D01*
X159840475Y-98824809D02*
X159983332Y-98824809D01*
X159983332Y-98824809D02*
X160030951Y-98801000D01*
X160030951Y-98801000D02*
X160054761Y-98777190D01*
X159435714Y-98324809D02*
X159388095Y-98324809D01*
X159388095Y-98324809D02*
X159340476Y-98348619D01*
X159340476Y-98348619D02*
X159316666Y-98372428D01*
X159316666Y-98372428D02*
X159292857Y-98420047D01*
X159292857Y-98420047D02*
X159269047Y-98515285D01*
X159269047Y-98515285D02*
X159269047Y-98634333D01*
X159269047Y-98634333D02*
X159292857Y-98729571D01*
X159292857Y-98729571D02*
X159316666Y-98777190D01*
X159316666Y-98777190D02*
X159340476Y-98801000D01*
X159340476Y-98801000D02*
X159388095Y-98824809D01*
X159388095Y-98824809D02*
X159435714Y-98824809D01*
X159435714Y-98824809D02*
X159483333Y-98801000D01*
X159483333Y-98801000D02*
X159507142Y-98777190D01*
X159507142Y-98777190D02*
X159530952Y-98729571D01*
X159530952Y-98729571D02*
X159554761Y-98634333D01*
X159554761Y-98634333D02*
X159554761Y-98515285D01*
X159554761Y-98515285D02*
X159530952Y-98420047D01*
X159530952Y-98420047D02*
X159507142Y-98372428D01*
X159507142Y-98372428D02*
X159483333Y-98348619D01*
X159483333Y-98348619D02*
X159435714Y-98324809D01*
X158816667Y-98324809D02*
X159054762Y-98324809D01*
X159054762Y-98324809D02*
X159078571Y-98562904D01*
X159078571Y-98562904D02*
X159054762Y-98539095D01*
X159054762Y-98539095D02*
X159007143Y-98515285D01*
X159007143Y-98515285D02*
X158888095Y-98515285D01*
X158888095Y-98515285D02*
X158840476Y-98539095D01*
X158840476Y-98539095D02*
X158816667Y-98562904D01*
X158816667Y-98562904D02*
X158792857Y-98610523D01*
X158792857Y-98610523D02*
X158792857Y-98729571D01*
X158792857Y-98729571D02*
X158816667Y-98777190D01*
X158816667Y-98777190D02*
X158840476Y-98801000D01*
X158840476Y-98801000D02*
X158888095Y-98824809D01*
X158888095Y-98824809D02*
X159007143Y-98824809D01*
X159007143Y-98824809D02*
X159054762Y-98801000D01*
X159054762Y-98801000D02*
X159078571Y-98777190D01*
X148827190Y-118540476D02*
X148851000Y-118516667D01*
X148851000Y-118516667D02*
X148874809Y-118445238D01*
X148874809Y-118445238D02*
X148874809Y-118397619D01*
X148874809Y-118397619D02*
X148851000Y-118326191D01*
X148851000Y-118326191D02*
X148803380Y-118278572D01*
X148803380Y-118278572D02*
X148755761Y-118254762D01*
X148755761Y-118254762D02*
X148660523Y-118230953D01*
X148660523Y-118230953D02*
X148589095Y-118230953D01*
X148589095Y-118230953D02*
X148493857Y-118254762D01*
X148493857Y-118254762D02*
X148446238Y-118278572D01*
X148446238Y-118278572D02*
X148398619Y-118326191D01*
X148398619Y-118326191D02*
X148374809Y-118397619D01*
X148374809Y-118397619D02*
X148374809Y-118445238D01*
X148374809Y-118445238D02*
X148398619Y-118516667D01*
X148398619Y-118516667D02*
X148422428Y-118540476D01*
X148374809Y-118707143D02*
X148374809Y-119016667D01*
X148374809Y-119016667D02*
X148565285Y-118850000D01*
X148565285Y-118850000D02*
X148565285Y-118921429D01*
X148565285Y-118921429D02*
X148589095Y-118969048D01*
X148589095Y-118969048D02*
X148612904Y-118992857D01*
X148612904Y-118992857D02*
X148660523Y-119016667D01*
X148660523Y-119016667D02*
X148779571Y-119016667D01*
X148779571Y-119016667D02*
X148827190Y-118992857D01*
X148827190Y-118992857D02*
X148851000Y-118969048D01*
X148851000Y-118969048D02*
X148874809Y-118921429D01*
X148874809Y-118921429D02*
X148874809Y-118778572D01*
X148874809Y-118778572D02*
X148851000Y-118730953D01*
X148851000Y-118730953D02*
X148827190Y-118707143D01*
X148374809Y-119326190D02*
X148374809Y-119373809D01*
X148374809Y-119373809D02*
X148398619Y-119421428D01*
X148398619Y-119421428D02*
X148422428Y-119445238D01*
X148422428Y-119445238D02*
X148470047Y-119469047D01*
X148470047Y-119469047D02*
X148565285Y-119492857D01*
X148565285Y-119492857D02*
X148684333Y-119492857D01*
X148684333Y-119492857D02*
X148779571Y-119469047D01*
X148779571Y-119469047D02*
X148827190Y-119445238D01*
X148827190Y-119445238D02*
X148851000Y-119421428D01*
X148851000Y-119421428D02*
X148874809Y-119373809D01*
X148874809Y-119373809D02*
X148874809Y-119326190D01*
X148874809Y-119326190D02*
X148851000Y-119278571D01*
X148851000Y-119278571D02*
X148827190Y-119254762D01*
X148827190Y-119254762D02*
X148779571Y-119230952D01*
X148779571Y-119230952D02*
X148684333Y-119207143D01*
X148684333Y-119207143D02*
X148565285Y-119207143D01*
X148565285Y-119207143D02*
X148470047Y-119230952D01*
X148470047Y-119230952D02*
X148422428Y-119254762D01*
X148422428Y-119254762D02*
X148398619Y-119278571D01*
X148398619Y-119278571D02*
X148374809Y-119326190D01*
X148422428Y-119683333D02*
X148398619Y-119707142D01*
X148398619Y-119707142D02*
X148374809Y-119754761D01*
X148374809Y-119754761D02*
X148374809Y-119873809D01*
X148374809Y-119873809D02*
X148398619Y-119921428D01*
X148398619Y-119921428D02*
X148422428Y-119945237D01*
X148422428Y-119945237D02*
X148470047Y-119969047D01*
X148470047Y-119969047D02*
X148517666Y-119969047D01*
X148517666Y-119969047D02*
X148589095Y-119945237D01*
X148589095Y-119945237D02*
X148874809Y-119659523D01*
X148874809Y-119659523D02*
X148874809Y-119969047D01*
X160947618Y-87324809D02*
X161114284Y-87086714D01*
X161233332Y-87324809D02*
X161233332Y-86824809D01*
X161233332Y-86824809D02*
X161042856Y-86824809D01*
X161042856Y-86824809D02*
X160995237Y-86848619D01*
X160995237Y-86848619D02*
X160971427Y-86872428D01*
X160971427Y-86872428D02*
X160947618Y-86920047D01*
X160947618Y-86920047D02*
X160947618Y-86991476D01*
X160947618Y-86991476D02*
X160971427Y-87039095D01*
X160971427Y-87039095D02*
X160995237Y-87062904D01*
X160995237Y-87062904D02*
X161042856Y-87086714D01*
X161042856Y-87086714D02*
X161233332Y-87086714D01*
X160471427Y-87324809D02*
X160757141Y-87324809D01*
X160614284Y-87324809D02*
X160614284Y-86824809D01*
X160614284Y-86824809D02*
X160661903Y-86896238D01*
X160661903Y-86896238D02*
X160709522Y-86943857D01*
X160709522Y-86943857D02*
X160757141Y-86967666D01*
X160304761Y-86824809D02*
X159995237Y-86824809D01*
X159995237Y-86824809D02*
X160161904Y-87015285D01*
X160161904Y-87015285D02*
X160090475Y-87015285D01*
X160090475Y-87015285D02*
X160042856Y-87039095D01*
X160042856Y-87039095D02*
X160019047Y-87062904D01*
X160019047Y-87062904D02*
X159995237Y-87110523D01*
X159995237Y-87110523D02*
X159995237Y-87229571D01*
X159995237Y-87229571D02*
X160019047Y-87277190D01*
X160019047Y-87277190D02*
X160042856Y-87301000D01*
X160042856Y-87301000D02*
X160090475Y-87324809D01*
X160090475Y-87324809D02*
X160233332Y-87324809D01*
X160233332Y-87324809D02*
X160280951Y-87301000D01*
X160280951Y-87301000D02*
X160304761Y-87277190D01*
X159685714Y-86824809D02*
X159638095Y-86824809D01*
X159638095Y-86824809D02*
X159590476Y-86848619D01*
X159590476Y-86848619D02*
X159566666Y-86872428D01*
X159566666Y-86872428D02*
X159542857Y-86920047D01*
X159542857Y-86920047D02*
X159519047Y-87015285D01*
X159519047Y-87015285D02*
X159519047Y-87134333D01*
X159519047Y-87134333D02*
X159542857Y-87229571D01*
X159542857Y-87229571D02*
X159566666Y-87277190D01*
X159566666Y-87277190D02*
X159590476Y-87301000D01*
X159590476Y-87301000D02*
X159638095Y-87324809D01*
X159638095Y-87324809D02*
X159685714Y-87324809D01*
X159685714Y-87324809D02*
X159733333Y-87301000D01*
X159733333Y-87301000D02*
X159757142Y-87277190D01*
X159757142Y-87277190D02*
X159780952Y-87229571D01*
X159780952Y-87229571D02*
X159804761Y-87134333D01*
X159804761Y-87134333D02*
X159804761Y-87015285D01*
X159804761Y-87015285D02*
X159780952Y-86920047D01*
X159780952Y-86920047D02*
X159757142Y-86872428D01*
X159757142Y-86872428D02*
X159733333Y-86848619D01*
X159733333Y-86848619D02*
X159685714Y-86824809D01*
X159352381Y-86824809D02*
X159042857Y-86824809D01*
X159042857Y-86824809D02*
X159209524Y-87015285D01*
X159209524Y-87015285D02*
X159138095Y-87015285D01*
X159138095Y-87015285D02*
X159090476Y-87039095D01*
X159090476Y-87039095D02*
X159066667Y-87062904D01*
X159066667Y-87062904D02*
X159042857Y-87110523D01*
X159042857Y-87110523D02*
X159042857Y-87229571D01*
X159042857Y-87229571D02*
X159066667Y-87277190D01*
X159066667Y-87277190D02*
X159090476Y-87301000D01*
X159090476Y-87301000D02*
X159138095Y-87324809D01*
X159138095Y-87324809D02*
X159280952Y-87324809D01*
X159280952Y-87324809D02*
X159328571Y-87301000D01*
X159328571Y-87301000D02*
X159352381Y-87277190D01*
X143959523Y-113574809D02*
X144197618Y-113574809D01*
X144197618Y-113574809D02*
X144197618Y-113074809D01*
X143840475Y-113074809D02*
X143530951Y-113074809D01*
X143530951Y-113074809D02*
X143697618Y-113265285D01*
X143697618Y-113265285D02*
X143626189Y-113265285D01*
X143626189Y-113265285D02*
X143578570Y-113289095D01*
X143578570Y-113289095D02*
X143554761Y-113312904D01*
X143554761Y-113312904D02*
X143530951Y-113360523D01*
X143530951Y-113360523D02*
X143530951Y-113479571D01*
X143530951Y-113479571D02*
X143554761Y-113527190D01*
X143554761Y-113527190D02*
X143578570Y-113551000D01*
X143578570Y-113551000D02*
X143626189Y-113574809D01*
X143626189Y-113574809D02*
X143769046Y-113574809D01*
X143769046Y-113574809D02*
X143816665Y-113551000D01*
X143816665Y-113551000D02*
X143840475Y-113527190D01*
X143221428Y-113074809D02*
X143173809Y-113074809D01*
X143173809Y-113074809D02*
X143126190Y-113098619D01*
X143126190Y-113098619D02*
X143102380Y-113122428D01*
X143102380Y-113122428D02*
X143078571Y-113170047D01*
X143078571Y-113170047D02*
X143054761Y-113265285D01*
X143054761Y-113265285D02*
X143054761Y-113384333D01*
X143054761Y-113384333D02*
X143078571Y-113479571D01*
X143078571Y-113479571D02*
X143102380Y-113527190D01*
X143102380Y-113527190D02*
X143126190Y-113551000D01*
X143126190Y-113551000D02*
X143173809Y-113574809D01*
X143173809Y-113574809D02*
X143221428Y-113574809D01*
X143221428Y-113574809D02*
X143269047Y-113551000D01*
X143269047Y-113551000D02*
X143292856Y-113527190D01*
X143292856Y-113527190D02*
X143316666Y-113479571D01*
X143316666Y-113479571D02*
X143340475Y-113384333D01*
X143340475Y-113384333D02*
X143340475Y-113265285D01*
X143340475Y-113265285D02*
X143316666Y-113170047D01*
X143316666Y-113170047D02*
X143292856Y-113122428D01*
X143292856Y-113122428D02*
X143269047Y-113098619D01*
X143269047Y-113098619D02*
X143221428Y-113074809D01*
X142578571Y-113574809D02*
X142864285Y-113574809D01*
X142721428Y-113574809D02*
X142721428Y-113074809D01*
X142721428Y-113074809D02*
X142769047Y-113146238D01*
X142769047Y-113146238D02*
X142816666Y-113193857D01*
X142816666Y-113193857D02*
X142864285Y-113217666D01*
X155947618Y-106824809D02*
X156114284Y-106586714D01*
X156233332Y-106824809D02*
X156233332Y-106324809D01*
X156233332Y-106324809D02*
X156042856Y-106324809D01*
X156042856Y-106324809D02*
X155995237Y-106348619D01*
X155995237Y-106348619D02*
X155971427Y-106372428D01*
X155971427Y-106372428D02*
X155947618Y-106420047D01*
X155947618Y-106420047D02*
X155947618Y-106491476D01*
X155947618Y-106491476D02*
X155971427Y-106539095D01*
X155971427Y-106539095D02*
X155995237Y-106562904D01*
X155995237Y-106562904D02*
X156042856Y-106586714D01*
X156042856Y-106586714D02*
X156233332Y-106586714D01*
X155471427Y-106824809D02*
X155757141Y-106824809D01*
X155614284Y-106824809D02*
X155614284Y-106324809D01*
X155614284Y-106324809D02*
X155661903Y-106396238D01*
X155661903Y-106396238D02*
X155709522Y-106443857D01*
X155709522Y-106443857D02*
X155757141Y-106467666D01*
X155304761Y-106324809D02*
X154995237Y-106324809D01*
X154995237Y-106324809D02*
X155161904Y-106515285D01*
X155161904Y-106515285D02*
X155090475Y-106515285D01*
X155090475Y-106515285D02*
X155042856Y-106539095D01*
X155042856Y-106539095D02*
X155019047Y-106562904D01*
X155019047Y-106562904D02*
X154995237Y-106610523D01*
X154995237Y-106610523D02*
X154995237Y-106729571D01*
X154995237Y-106729571D02*
X155019047Y-106777190D01*
X155019047Y-106777190D02*
X155042856Y-106801000D01*
X155042856Y-106801000D02*
X155090475Y-106824809D01*
X155090475Y-106824809D02*
X155233332Y-106824809D01*
X155233332Y-106824809D02*
X155280951Y-106801000D01*
X155280951Y-106801000D02*
X155304761Y-106777190D01*
X154685714Y-106324809D02*
X154638095Y-106324809D01*
X154638095Y-106324809D02*
X154590476Y-106348619D01*
X154590476Y-106348619D02*
X154566666Y-106372428D01*
X154566666Y-106372428D02*
X154542857Y-106420047D01*
X154542857Y-106420047D02*
X154519047Y-106515285D01*
X154519047Y-106515285D02*
X154519047Y-106634333D01*
X154519047Y-106634333D02*
X154542857Y-106729571D01*
X154542857Y-106729571D02*
X154566666Y-106777190D01*
X154566666Y-106777190D02*
X154590476Y-106801000D01*
X154590476Y-106801000D02*
X154638095Y-106824809D01*
X154638095Y-106824809D02*
X154685714Y-106824809D01*
X154685714Y-106824809D02*
X154733333Y-106801000D01*
X154733333Y-106801000D02*
X154757142Y-106777190D01*
X154757142Y-106777190D02*
X154780952Y-106729571D01*
X154780952Y-106729571D02*
X154804761Y-106634333D01*
X154804761Y-106634333D02*
X154804761Y-106515285D01*
X154804761Y-106515285D02*
X154780952Y-106420047D01*
X154780952Y-106420047D02*
X154757142Y-106372428D01*
X154757142Y-106372428D02*
X154733333Y-106348619D01*
X154733333Y-106348619D02*
X154685714Y-106324809D01*
X154352381Y-106324809D02*
X154019048Y-106324809D01*
X154019048Y-106324809D02*
X154233333Y-106824809D01*
X149697618Y-92074809D02*
X149864284Y-91836714D01*
X149983332Y-92074809D02*
X149983332Y-91574809D01*
X149983332Y-91574809D02*
X149792856Y-91574809D01*
X149792856Y-91574809D02*
X149745237Y-91598619D01*
X149745237Y-91598619D02*
X149721427Y-91622428D01*
X149721427Y-91622428D02*
X149697618Y-91670047D01*
X149697618Y-91670047D02*
X149697618Y-91741476D01*
X149697618Y-91741476D02*
X149721427Y-91789095D01*
X149721427Y-91789095D02*
X149745237Y-91812904D01*
X149745237Y-91812904D02*
X149792856Y-91836714D01*
X149792856Y-91836714D02*
X149983332Y-91836714D01*
X149221427Y-92074809D02*
X149507141Y-92074809D01*
X149364284Y-92074809D02*
X149364284Y-91574809D01*
X149364284Y-91574809D02*
X149411903Y-91646238D01*
X149411903Y-91646238D02*
X149459522Y-91693857D01*
X149459522Y-91693857D02*
X149507141Y-91717666D01*
X149054761Y-91574809D02*
X148745237Y-91574809D01*
X148745237Y-91574809D02*
X148911904Y-91765285D01*
X148911904Y-91765285D02*
X148840475Y-91765285D01*
X148840475Y-91765285D02*
X148792856Y-91789095D01*
X148792856Y-91789095D02*
X148769047Y-91812904D01*
X148769047Y-91812904D02*
X148745237Y-91860523D01*
X148745237Y-91860523D02*
X148745237Y-91979571D01*
X148745237Y-91979571D02*
X148769047Y-92027190D01*
X148769047Y-92027190D02*
X148792856Y-92051000D01*
X148792856Y-92051000D02*
X148840475Y-92074809D01*
X148840475Y-92074809D02*
X148983332Y-92074809D01*
X148983332Y-92074809D02*
X149030951Y-92051000D01*
X149030951Y-92051000D02*
X149054761Y-92027190D01*
X148435714Y-91574809D02*
X148388095Y-91574809D01*
X148388095Y-91574809D02*
X148340476Y-91598619D01*
X148340476Y-91598619D02*
X148316666Y-91622428D01*
X148316666Y-91622428D02*
X148292857Y-91670047D01*
X148292857Y-91670047D02*
X148269047Y-91765285D01*
X148269047Y-91765285D02*
X148269047Y-91884333D01*
X148269047Y-91884333D02*
X148292857Y-91979571D01*
X148292857Y-91979571D02*
X148316666Y-92027190D01*
X148316666Y-92027190D02*
X148340476Y-92051000D01*
X148340476Y-92051000D02*
X148388095Y-92074809D01*
X148388095Y-92074809D02*
X148435714Y-92074809D01*
X148435714Y-92074809D02*
X148483333Y-92051000D01*
X148483333Y-92051000D02*
X148507142Y-92027190D01*
X148507142Y-92027190D02*
X148530952Y-91979571D01*
X148530952Y-91979571D02*
X148554761Y-91884333D01*
X148554761Y-91884333D02*
X148554761Y-91765285D01*
X148554761Y-91765285D02*
X148530952Y-91670047D01*
X148530952Y-91670047D02*
X148507142Y-91622428D01*
X148507142Y-91622428D02*
X148483333Y-91598619D01*
X148483333Y-91598619D02*
X148435714Y-91574809D01*
X148078571Y-91622428D02*
X148054762Y-91598619D01*
X148054762Y-91598619D02*
X148007143Y-91574809D01*
X148007143Y-91574809D02*
X147888095Y-91574809D01*
X147888095Y-91574809D02*
X147840476Y-91598619D01*
X147840476Y-91598619D02*
X147816667Y-91622428D01*
X147816667Y-91622428D02*
X147792857Y-91670047D01*
X147792857Y-91670047D02*
X147792857Y-91717666D01*
X147792857Y-91717666D02*
X147816667Y-91789095D01*
X147816667Y-91789095D02*
X148102381Y-92074809D01*
X148102381Y-92074809D02*
X147792857Y-92074809D01*
X150447618Y-108277190D02*
X150471427Y-108301000D01*
X150471427Y-108301000D02*
X150542856Y-108324809D01*
X150542856Y-108324809D02*
X150590475Y-108324809D01*
X150590475Y-108324809D02*
X150661903Y-108301000D01*
X150661903Y-108301000D02*
X150709522Y-108253380D01*
X150709522Y-108253380D02*
X150733332Y-108205761D01*
X150733332Y-108205761D02*
X150757141Y-108110523D01*
X150757141Y-108110523D02*
X150757141Y-108039095D01*
X150757141Y-108039095D02*
X150733332Y-107943857D01*
X150733332Y-107943857D02*
X150709522Y-107896238D01*
X150709522Y-107896238D02*
X150661903Y-107848619D01*
X150661903Y-107848619D02*
X150590475Y-107824809D01*
X150590475Y-107824809D02*
X150542856Y-107824809D01*
X150542856Y-107824809D02*
X150471427Y-107848619D01*
X150471427Y-107848619D02*
X150447618Y-107872428D01*
X149971427Y-108324809D02*
X150257141Y-108324809D01*
X150114284Y-108324809D02*
X150114284Y-107824809D01*
X150114284Y-107824809D02*
X150161903Y-107896238D01*
X150161903Y-107896238D02*
X150209522Y-107943857D01*
X150209522Y-107943857D02*
X150257141Y-107967666D01*
X149804761Y-107824809D02*
X149495237Y-107824809D01*
X149495237Y-107824809D02*
X149661904Y-108015285D01*
X149661904Y-108015285D02*
X149590475Y-108015285D01*
X149590475Y-108015285D02*
X149542856Y-108039095D01*
X149542856Y-108039095D02*
X149519047Y-108062904D01*
X149519047Y-108062904D02*
X149495237Y-108110523D01*
X149495237Y-108110523D02*
X149495237Y-108229571D01*
X149495237Y-108229571D02*
X149519047Y-108277190D01*
X149519047Y-108277190D02*
X149542856Y-108301000D01*
X149542856Y-108301000D02*
X149590475Y-108324809D01*
X149590475Y-108324809D02*
X149733332Y-108324809D01*
X149733332Y-108324809D02*
X149780951Y-108301000D01*
X149780951Y-108301000D02*
X149804761Y-108277190D01*
X149019047Y-108324809D02*
X149304761Y-108324809D01*
X149161904Y-108324809D02*
X149161904Y-107824809D01*
X149161904Y-107824809D02*
X149209523Y-107896238D01*
X149209523Y-107896238D02*
X149257142Y-107943857D01*
X149257142Y-107943857D02*
X149304761Y-107967666D01*
X148852381Y-107824809D02*
X148542857Y-107824809D01*
X148542857Y-107824809D02*
X148709524Y-108015285D01*
X148709524Y-108015285D02*
X148638095Y-108015285D01*
X148638095Y-108015285D02*
X148590476Y-108039095D01*
X148590476Y-108039095D02*
X148566667Y-108062904D01*
X148566667Y-108062904D02*
X148542857Y-108110523D01*
X148542857Y-108110523D02*
X148542857Y-108229571D01*
X148542857Y-108229571D02*
X148566667Y-108277190D01*
X148566667Y-108277190D02*
X148590476Y-108301000D01*
X148590476Y-108301000D02*
X148638095Y-108324809D01*
X148638095Y-108324809D02*
X148780952Y-108324809D01*
X148780952Y-108324809D02*
X148828571Y-108301000D01*
X148828571Y-108301000D02*
X148852381Y-108277190D01*
X144327190Y-101040476D02*
X144351000Y-101016667D01*
X144351000Y-101016667D02*
X144374809Y-100945238D01*
X144374809Y-100945238D02*
X144374809Y-100897619D01*
X144374809Y-100897619D02*
X144351000Y-100826191D01*
X144351000Y-100826191D02*
X144303380Y-100778572D01*
X144303380Y-100778572D02*
X144255761Y-100754762D01*
X144255761Y-100754762D02*
X144160523Y-100730953D01*
X144160523Y-100730953D02*
X144089095Y-100730953D01*
X144089095Y-100730953D02*
X143993857Y-100754762D01*
X143993857Y-100754762D02*
X143946238Y-100778572D01*
X143946238Y-100778572D02*
X143898619Y-100826191D01*
X143898619Y-100826191D02*
X143874809Y-100897619D01*
X143874809Y-100897619D02*
X143874809Y-100945238D01*
X143874809Y-100945238D02*
X143898619Y-101016667D01*
X143898619Y-101016667D02*
X143922428Y-101040476D01*
X144041476Y-101469048D02*
X144374809Y-101469048D01*
X143851000Y-101350000D02*
X144208142Y-101230953D01*
X144208142Y-101230953D02*
X144208142Y-101540476D01*
X144374809Y-101992857D02*
X144374809Y-101707143D01*
X144374809Y-101850000D02*
X143874809Y-101850000D01*
X143874809Y-101850000D02*
X143946238Y-101802381D01*
X143946238Y-101802381D02*
X143993857Y-101754762D01*
X143993857Y-101754762D02*
X144017666Y-101707143D01*
X143874809Y-102159523D02*
X143874809Y-102469047D01*
X143874809Y-102469047D02*
X144065285Y-102302380D01*
X144065285Y-102302380D02*
X144065285Y-102373809D01*
X144065285Y-102373809D02*
X144089095Y-102421428D01*
X144089095Y-102421428D02*
X144112904Y-102445237D01*
X144112904Y-102445237D02*
X144160523Y-102469047D01*
X144160523Y-102469047D02*
X144279571Y-102469047D01*
X144279571Y-102469047D02*
X144327190Y-102445237D01*
X144327190Y-102445237D02*
X144351000Y-102421428D01*
X144351000Y-102421428D02*
X144374809Y-102373809D01*
X144374809Y-102373809D02*
X144374809Y-102230952D01*
X144374809Y-102230952D02*
X144351000Y-102183333D01*
X144351000Y-102183333D02*
X144327190Y-102159523D01*
X161874809Y-88302381D02*
X161636714Y-88135715D01*
X161874809Y-88016667D02*
X161374809Y-88016667D01*
X161374809Y-88016667D02*
X161374809Y-88207143D01*
X161374809Y-88207143D02*
X161398619Y-88254762D01*
X161398619Y-88254762D02*
X161422428Y-88278572D01*
X161422428Y-88278572D02*
X161470047Y-88302381D01*
X161470047Y-88302381D02*
X161541476Y-88302381D01*
X161541476Y-88302381D02*
X161589095Y-88278572D01*
X161589095Y-88278572D02*
X161612904Y-88254762D01*
X161612904Y-88254762D02*
X161636714Y-88207143D01*
X161636714Y-88207143D02*
X161636714Y-88016667D01*
X161874809Y-88778572D02*
X161874809Y-88492858D01*
X161874809Y-88635715D02*
X161374809Y-88635715D01*
X161374809Y-88635715D02*
X161446238Y-88588096D01*
X161446238Y-88588096D02*
X161493857Y-88540477D01*
X161493857Y-88540477D02*
X161517666Y-88492858D01*
X161374809Y-88945238D02*
X161374809Y-89254762D01*
X161374809Y-89254762D02*
X161565285Y-89088095D01*
X161565285Y-89088095D02*
X161565285Y-89159524D01*
X161565285Y-89159524D02*
X161589095Y-89207143D01*
X161589095Y-89207143D02*
X161612904Y-89230952D01*
X161612904Y-89230952D02*
X161660523Y-89254762D01*
X161660523Y-89254762D02*
X161779571Y-89254762D01*
X161779571Y-89254762D02*
X161827190Y-89230952D01*
X161827190Y-89230952D02*
X161851000Y-89207143D01*
X161851000Y-89207143D02*
X161874809Y-89159524D01*
X161874809Y-89159524D02*
X161874809Y-89016667D01*
X161874809Y-89016667D02*
X161851000Y-88969048D01*
X161851000Y-88969048D02*
X161827190Y-88945238D01*
X161374809Y-89564285D02*
X161374809Y-89611904D01*
X161374809Y-89611904D02*
X161398619Y-89659523D01*
X161398619Y-89659523D02*
X161422428Y-89683333D01*
X161422428Y-89683333D02*
X161470047Y-89707142D01*
X161470047Y-89707142D02*
X161565285Y-89730952D01*
X161565285Y-89730952D02*
X161684333Y-89730952D01*
X161684333Y-89730952D02*
X161779571Y-89707142D01*
X161779571Y-89707142D02*
X161827190Y-89683333D01*
X161827190Y-89683333D02*
X161851000Y-89659523D01*
X161851000Y-89659523D02*
X161874809Y-89611904D01*
X161874809Y-89611904D02*
X161874809Y-89564285D01*
X161874809Y-89564285D02*
X161851000Y-89516666D01*
X161851000Y-89516666D02*
X161827190Y-89492857D01*
X161827190Y-89492857D02*
X161779571Y-89469047D01*
X161779571Y-89469047D02*
X161684333Y-89445238D01*
X161684333Y-89445238D02*
X161565285Y-89445238D01*
X161565285Y-89445238D02*
X161470047Y-89469047D01*
X161470047Y-89469047D02*
X161422428Y-89492857D01*
X161422428Y-89492857D02*
X161398619Y-89516666D01*
X161398619Y-89516666D02*
X161374809Y-89564285D01*
X161874809Y-90207142D02*
X161874809Y-89921428D01*
X161874809Y-90064285D02*
X161374809Y-90064285D01*
X161374809Y-90064285D02*
X161446238Y-90016666D01*
X161446238Y-90016666D02*
X161493857Y-89969047D01*
X161493857Y-89969047D02*
X161517666Y-89921428D01*
X146374809Y-87004762D02*
X146779571Y-87004762D01*
X146779571Y-87004762D02*
X146827190Y-87028572D01*
X146827190Y-87028572D02*
X146851000Y-87052381D01*
X146851000Y-87052381D02*
X146874809Y-87100000D01*
X146874809Y-87100000D02*
X146874809Y-87195238D01*
X146874809Y-87195238D02*
X146851000Y-87242857D01*
X146851000Y-87242857D02*
X146827190Y-87266667D01*
X146827190Y-87266667D02*
X146779571Y-87290476D01*
X146779571Y-87290476D02*
X146374809Y-87290476D01*
X146874809Y-87790477D02*
X146874809Y-87504763D01*
X146874809Y-87647620D02*
X146374809Y-87647620D01*
X146374809Y-87647620D02*
X146446238Y-87600001D01*
X146446238Y-87600001D02*
X146493857Y-87552382D01*
X146493857Y-87552382D02*
X146517666Y-87504763D01*
X146374809Y-87957143D02*
X146374809Y-88266667D01*
X146374809Y-88266667D02*
X146565285Y-88100000D01*
X146565285Y-88100000D02*
X146565285Y-88171429D01*
X146565285Y-88171429D02*
X146589095Y-88219048D01*
X146589095Y-88219048D02*
X146612904Y-88242857D01*
X146612904Y-88242857D02*
X146660523Y-88266667D01*
X146660523Y-88266667D02*
X146779571Y-88266667D01*
X146779571Y-88266667D02*
X146827190Y-88242857D01*
X146827190Y-88242857D02*
X146851000Y-88219048D01*
X146851000Y-88219048D02*
X146874809Y-88171429D01*
X146874809Y-88171429D02*
X146874809Y-88028572D01*
X146874809Y-88028572D02*
X146851000Y-87980953D01*
X146851000Y-87980953D02*
X146827190Y-87957143D01*
X146374809Y-88576190D02*
X146374809Y-88623809D01*
X146374809Y-88623809D02*
X146398619Y-88671428D01*
X146398619Y-88671428D02*
X146422428Y-88695238D01*
X146422428Y-88695238D02*
X146470047Y-88719047D01*
X146470047Y-88719047D02*
X146565285Y-88742857D01*
X146565285Y-88742857D02*
X146684333Y-88742857D01*
X146684333Y-88742857D02*
X146779571Y-88719047D01*
X146779571Y-88719047D02*
X146827190Y-88695238D01*
X146827190Y-88695238D02*
X146851000Y-88671428D01*
X146851000Y-88671428D02*
X146874809Y-88623809D01*
X146874809Y-88623809D02*
X146874809Y-88576190D01*
X146874809Y-88576190D02*
X146851000Y-88528571D01*
X146851000Y-88528571D02*
X146827190Y-88504762D01*
X146827190Y-88504762D02*
X146779571Y-88480952D01*
X146779571Y-88480952D02*
X146684333Y-88457143D01*
X146684333Y-88457143D02*
X146565285Y-88457143D01*
X146565285Y-88457143D02*
X146470047Y-88480952D01*
X146470047Y-88480952D02*
X146422428Y-88504762D01*
X146422428Y-88504762D02*
X146398619Y-88528571D01*
X146398619Y-88528571D02*
X146374809Y-88576190D01*
X146874809Y-89219047D02*
X146874809Y-88933333D01*
X146874809Y-89076190D02*
X146374809Y-89076190D01*
X146374809Y-89076190D02*
X146446238Y-89028571D01*
X146446238Y-89028571D02*
X146493857Y-88980952D01*
X146493857Y-88980952D02*
X146517666Y-88933333D01*
X153124809Y-116242857D02*
X153529571Y-116242857D01*
X153529571Y-116242857D02*
X153577190Y-116266667D01*
X153577190Y-116266667D02*
X153601000Y-116290476D01*
X153601000Y-116290476D02*
X153624809Y-116338095D01*
X153624809Y-116338095D02*
X153624809Y-116433333D01*
X153624809Y-116433333D02*
X153601000Y-116480952D01*
X153601000Y-116480952D02*
X153577190Y-116504762D01*
X153577190Y-116504762D02*
X153529571Y-116528571D01*
X153529571Y-116528571D02*
X153124809Y-116528571D01*
X153124809Y-116719048D02*
X153124809Y-117028572D01*
X153124809Y-117028572D02*
X153315285Y-116861905D01*
X153315285Y-116861905D02*
X153315285Y-116933334D01*
X153315285Y-116933334D02*
X153339095Y-116980953D01*
X153339095Y-116980953D02*
X153362904Y-117004762D01*
X153362904Y-117004762D02*
X153410523Y-117028572D01*
X153410523Y-117028572D02*
X153529571Y-117028572D01*
X153529571Y-117028572D02*
X153577190Y-117004762D01*
X153577190Y-117004762D02*
X153601000Y-116980953D01*
X153601000Y-116980953D02*
X153624809Y-116933334D01*
X153624809Y-116933334D02*
X153624809Y-116790477D01*
X153624809Y-116790477D02*
X153601000Y-116742858D01*
X153601000Y-116742858D02*
X153577190Y-116719048D01*
X153124809Y-117338095D02*
X153124809Y-117385714D01*
X153124809Y-117385714D02*
X153148619Y-117433333D01*
X153148619Y-117433333D02*
X153172428Y-117457143D01*
X153172428Y-117457143D02*
X153220047Y-117480952D01*
X153220047Y-117480952D02*
X153315285Y-117504762D01*
X153315285Y-117504762D02*
X153434333Y-117504762D01*
X153434333Y-117504762D02*
X153529571Y-117480952D01*
X153529571Y-117480952D02*
X153577190Y-117457143D01*
X153577190Y-117457143D02*
X153601000Y-117433333D01*
X153601000Y-117433333D02*
X153624809Y-117385714D01*
X153624809Y-117385714D02*
X153624809Y-117338095D01*
X153624809Y-117338095D02*
X153601000Y-117290476D01*
X153601000Y-117290476D02*
X153577190Y-117266667D01*
X153577190Y-117266667D02*
X153529571Y-117242857D01*
X153529571Y-117242857D02*
X153434333Y-117219048D01*
X153434333Y-117219048D02*
X153315285Y-117219048D01*
X153315285Y-117219048D02*
X153220047Y-117242857D01*
X153220047Y-117242857D02*
X153172428Y-117266667D01*
X153172428Y-117266667D02*
X153148619Y-117290476D01*
X153148619Y-117290476D02*
X153124809Y-117338095D01*
X153624809Y-117980952D02*
X153624809Y-117695238D01*
X153624809Y-117838095D02*
X153124809Y-117838095D01*
X153124809Y-117838095D02*
X153196238Y-117790476D01*
X153196238Y-117790476D02*
X153243857Y-117742857D01*
X153243857Y-117742857D02*
X153267666Y-117695238D01*
X147697618Y-103527190D02*
X147721427Y-103551000D01*
X147721427Y-103551000D02*
X147792856Y-103574809D01*
X147792856Y-103574809D02*
X147840475Y-103574809D01*
X147840475Y-103574809D02*
X147911903Y-103551000D01*
X147911903Y-103551000D02*
X147959522Y-103503380D01*
X147959522Y-103503380D02*
X147983332Y-103455761D01*
X147983332Y-103455761D02*
X148007141Y-103360523D01*
X148007141Y-103360523D02*
X148007141Y-103289095D01*
X148007141Y-103289095D02*
X147983332Y-103193857D01*
X147983332Y-103193857D02*
X147959522Y-103146238D01*
X147959522Y-103146238D02*
X147911903Y-103098619D01*
X147911903Y-103098619D02*
X147840475Y-103074809D01*
X147840475Y-103074809D02*
X147792856Y-103074809D01*
X147792856Y-103074809D02*
X147721427Y-103098619D01*
X147721427Y-103098619D02*
X147697618Y-103122428D01*
X147221427Y-103574809D02*
X147507141Y-103574809D01*
X147364284Y-103574809D02*
X147364284Y-103074809D01*
X147364284Y-103074809D02*
X147411903Y-103146238D01*
X147411903Y-103146238D02*
X147459522Y-103193857D01*
X147459522Y-103193857D02*
X147507141Y-103217666D01*
X147054761Y-103074809D02*
X146745237Y-103074809D01*
X146745237Y-103074809D02*
X146911904Y-103265285D01*
X146911904Y-103265285D02*
X146840475Y-103265285D01*
X146840475Y-103265285D02*
X146792856Y-103289095D01*
X146792856Y-103289095D02*
X146769047Y-103312904D01*
X146769047Y-103312904D02*
X146745237Y-103360523D01*
X146745237Y-103360523D02*
X146745237Y-103479571D01*
X146745237Y-103479571D02*
X146769047Y-103527190D01*
X146769047Y-103527190D02*
X146792856Y-103551000D01*
X146792856Y-103551000D02*
X146840475Y-103574809D01*
X146840475Y-103574809D02*
X146983332Y-103574809D01*
X146983332Y-103574809D02*
X147030951Y-103551000D01*
X147030951Y-103551000D02*
X147054761Y-103527190D01*
X146435714Y-103074809D02*
X146388095Y-103074809D01*
X146388095Y-103074809D02*
X146340476Y-103098619D01*
X146340476Y-103098619D02*
X146316666Y-103122428D01*
X146316666Y-103122428D02*
X146292857Y-103170047D01*
X146292857Y-103170047D02*
X146269047Y-103265285D01*
X146269047Y-103265285D02*
X146269047Y-103384333D01*
X146269047Y-103384333D02*
X146292857Y-103479571D01*
X146292857Y-103479571D02*
X146316666Y-103527190D01*
X146316666Y-103527190D02*
X146340476Y-103551000D01*
X146340476Y-103551000D02*
X146388095Y-103574809D01*
X146388095Y-103574809D02*
X146435714Y-103574809D01*
X146435714Y-103574809D02*
X146483333Y-103551000D01*
X146483333Y-103551000D02*
X146507142Y-103527190D01*
X146507142Y-103527190D02*
X146530952Y-103479571D01*
X146530952Y-103479571D02*
X146554761Y-103384333D01*
X146554761Y-103384333D02*
X146554761Y-103265285D01*
X146554761Y-103265285D02*
X146530952Y-103170047D01*
X146530952Y-103170047D02*
X146507142Y-103122428D01*
X146507142Y-103122428D02*
X146483333Y-103098619D01*
X146483333Y-103098619D02*
X146435714Y-103074809D01*
X145840476Y-103074809D02*
X145935714Y-103074809D01*
X145935714Y-103074809D02*
X145983333Y-103098619D01*
X145983333Y-103098619D02*
X146007143Y-103122428D01*
X146007143Y-103122428D02*
X146054762Y-103193857D01*
X146054762Y-103193857D02*
X146078571Y-103289095D01*
X146078571Y-103289095D02*
X146078571Y-103479571D01*
X146078571Y-103479571D02*
X146054762Y-103527190D01*
X146054762Y-103527190D02*
X146030952Y-103551000D01*
X146030952Y-103551000D02*
X145983333Y-103574809D01*
X145983333Y-103574809D02*
X145888095Y-103574809D01*
X145888095Y-103574809D02*
X145840476Y-103551000D01*
X145840476Y-103551000D02*
X145816667Y-103527190D01*
X145816667Y-103527190D02*
X145792857Y-103479571D01*
X145792857Y-103479571D02*
X145792857Y-103360523D01*
X145792857Y-103360523D02*
X145816667Y-103312904D01*
X145816667Y-103312904D02*
X145840476Y-103289095D01*
X145840476Y-103289095D02*
X145888095Y-103265285D01*
X145888095Y-103265285D02*
X145983333Y-103265285D01*
X145983333Y-103265285D02*
X146030952Y-103289095D01*
X146030952Y-103289095D02*
X146054762Y-103312904D01*
X146054762Y-103312904D02*
X146078571Y-103360523D01*
X156624809Y-99254762D02*
X157029571Y-99254762D01*
X157029571Y-99254762D02*
X157077190Y-99278572D01*
X157077190Y-99278572D02*
X157101000Y-99302381D01*
X157101000Y-99302381D02*
X157124809Y-99350000D01*
X157124809Y-99350000D02*
X157124809Y-99445238D01*
X157124809Y-99445238D02*
X157101000Y-99492857D01*
X157101000Y-99492857D02*
X157077190Y-99516667D01*
X157077190Y-99516667D02*
X157029571Y-99540476D01*
X157029571Y-99540476D02*
X156624809Y-99540476D01*
X157124809Y-100040477D02*
X157124809Y-99754763D01*
X157124809Y-99897620D02*
X156624809Y-99897620D01*
X156624809Y-99897620D02*
X156696238Y-99850001D01*
X156696238Y-99850001D02*
X156743857Y-99802382D01*
X156743857Y-99802382D02*
X156767666Y-99754763D01*
X156624809Y-100207143D02*
X156624809Y-100516667D01*
X156624809Y-100516667D02*
X156815285Y-100350000D01*
X156815285Y-100350000D02*
X156815285Y-100421429D01*
X156815285Y-100421429D02*
X156839095Y-100469048D01*
X156839095Y-100469048D02*
X156862904Y-100492857D01*
X156862904Y-100492857D02*
X156910523Y-100516667D01*
X156910523Y-100516667D02*
X157029571Y-100516667D01*
X157029571Y-100516667D02*
X157077190Y-100492857D01*
X157077190Y-100492857D02*
X157101000Y-100469048D01*
X157101000Y-100469048D02*
X157124809Y-100421429D01*
X157124809Y-100421429D02*
X157124809Y-100278572D01*
X157124809Y-100278572D02*
X157101000Y-100230953D01*
X157101000Y-100230953D02*
X157077190Y-100207143D01*
X156624809Y-100826190D02*
X156624809Y-100873809D01*
X156624809Y-100873809D02*
X156648619Y-100921428D01*
X156648619Y-100921428D02*
X156672428Y-100945238D01*
X156672428Y-100945238D02*
X156720047Y-100969047D01*
X156720047Y-100969047D02*
X156815285Y-100992857D01*
X156815285Y-100992857D02*
X156934333Y-100992857D01*
X156934333Y-100992857D02*
X157029571Y-100969047D01*
X157029571Y-100969047D02*
X157077190Y-100945238D01*
X157077190Y-100945238D02*
X157101000Y-100921428D01*
X157101000Y-100921428D02*
X157124809Y-100873809D01*
X157124809Y-100873809D02*
X157124809Y-100826190D01*
X157124809Y-100826190D02*
X157101000Y-100778571D01*
X157101000Y-100778571D02*
X157077190Y-100754762D01*
X157077190Y-100754762D02*
X157029571Y-100730952D01*
X157029571Y-100730952D02*
X156934333Y-100707143D01*
X156934333Y-100707143D02*
X156815285Y-100707143D01*
X156815285Y-100707143D02*
X156720047Y-100730952D01*
X156720047Y-100730952D02*
X156672428Y-100754762D01*
X156672428Y-100754762D02*
X156648619Y-100778571D01*
X156648619Y-100778571D02*
X156624809Y-100826190D01*
X156672428Y-101183333D02*
X156648619Y-101207142D01*
X156648619Y-101207142D02*
X156624809Y-101254761D01*
X156624809Y-101254761D02*
X156624809Y-101373809D01*
X156624809Y-101373809D02*
X156648619Y-101421428D01*
X156648619Y-101421428D02*
X156672428Y-101445237D01*
X156672428Y-101445237D02*
X156720047Y-101469047D01*
X156720047Y-101469047D02*
X156767666Y-101469047D01*
X156767666Y-101469047D02*
X156839095Y-101445237D01*
X156839095Y-101445237D02*
X157124809Y-101159523D01*
X157124809Y-101159523D02*
X157124809Y-101469047D01*
X141327190Y-87302381D02*
X141351000Y-87278572D01*
X141351000Y-87278572D02*
X141374809Y-87207143D01*
X141374809Y-87207143D02*
X141374809Y-87159524D01*
X141374809Y-87159524D02*
X141351000Y-87088096D01*
X141351000Y-87088096D02*
X141303380Y-87040477D01*
X141303380Y-87040477D02*
X141255761Y-87016667D01*
X141255761Y-87016667D02*
X141160523Y-86992858D01*
X141160523Y-86992858D02*
X141089095Y-86992858D01*
X141089095Y-86992858D02*
X140993857Y-87016667D01*
X140993857Y-87016667D02*
X140946238Y-87040477D01*
X140946238Y-87040477D02*
X140898619Y-87088096D01*
X140898619Y-87088096D02*
X140874809Y-87159524D01*
X140874809Y-87159524D02*
X140874809Y-87207143D01*
X140874809Y-87207143D02*
X140898619Y-87278572D01*
X140898619Y-87278572D02*
X140922428Y-87302381D01*
X141374809Y-87778572D02*
X141374809Y-87492858D01*
X141374809Y-87635715D02*
X140874809Y-87635715D01*
X140874809Y-87635715D02*
X140946238Y-87588096D01*
X140946238Y-87588096D02*
X140993857Y-87540477D01*
X140993857Y-87540477D02*
X141017666Y-87492858D01*
X140874809Y-87945238D02*
X140874809Y-88254762D01*
X140874809Y-88254762D02*
X141065285Y-88088095D01*
X141065285Y-88088095D02*
X141065285Y-88159524D01*
X141065285Y-88159524D02*
X141089095Y-88207143D01*
X141089095Y-88207143D02*
X141112904Y-88230952D01*
X141112904Y-88230952D02*
X141160523Y-88254762D01*
X141160523Y-88254762D02*
X141279571Y-88254762D01*
X141279571Y-88254762D02*
X141327190Y-88230952D01*
X141327190Y-88230952D02*
X141351000Y-88207143D01*
X141351000Y-88207143D02*
X141374809Y-88159524D01*
X141374809Y-88159524D02*
X141374809Y-88016667D01*
X141374809Y-88016667D02*
X141351000Y-87969048D01*
X141351000Y-87969048D02*
X141327190Y-87945238D01*
X140874809Y-88564285D02*
X140874809Y-88611904D01*
X140874809Y-88611904D02*
X140898619Y-88659523D01*
X140898619Y-88659523D02*
X140922428Y-88683333D01*
X140922428Y-88683333D02*
X140970047Y-88707142D01*
X140970047Y-88707142D02*
X141065285Y-88730952D01*
X141065285Y-88730952D02*
X141184333Y-88730952D01*
X141184333Y-88730952D02*
X141279571Y-88707142D01*
X141279571Y-88707142D02*
X141327190Y-88683333D01*
X141327190Y-88683333D02*
X141351000Y-88659523D01*
X141351000Y-88659523D02*
X141374809Y-88611904D01*
X141374809Y-88611904D02*
X141374809Y-88564285D01*
X141374809Y-88564285D02*
X141351000Y-88516666D01*
X141351000Y-88516666D02*
X141327190Y-88492857D01*
X141327190Y-88492857D02*
X141279571Y-88469047D01*
X141279571Y-88469047D02*
X141184333Y-88445238D01*
X141184333Y-88445238D02*
X141065285Y-88445238D01*
X141065285Y-88445238D02*
X140970047Y-88469047D01*
X140970047Y-88469047D02*
X140922428Y-88492857D01*
X140922428Y-88492857D02*
X140898619Y-88516666D01*
X140898619Y-88516666D02*
X140874809Y-88564285D01*
X141374809Y-89207142D02*
X141374809Y-88921428D01*
X141374809Y-89064285D02*
X140874809Y-89064285D01*
X140874809Y-89064285D02*
X140946238Y-89016666D01*
X140946238Y-89016666D02*
X140993857Y-88969047D01*
X140993857Y-88969047D02*
X141017666Y-88921428D01*
X157624809Y-119207143D02*
X157981952Y-119207143D01*
X157981952Y-119207143D02*
X158053380Y-119183334D01*
X158053380Y-119183334D02*
X158101000Y-119135715D01*
X158101000Y-119135715D02*
X158124809Y-119064286D01*
X158124809Y-119064286D02*
X158124809Y-119016667D01*
X157791476Y-119659524D02*
X158124809Y-119659524D01*
X157601000Y-119540476D02*
X157958142Y-119421429D01*
X157958142Y-119421429D02*
X157958142Y-119730952D01*
X157624809Y-120016666D02*
X157624809Y-120064285D01*
X157624809Y-120064285D02*
X157648619Y-120111904D01*
X157648619Y-120111904D02*
X157672428Y-120135714D01*
X157672428Y-120135714D02*
X157720047Y-120159523D01*
X157720047Y-120159523D02*
X157815285Y-120183333D01*
X157815285Y-120183333D02*
X157934333Y-120183333D01*
X157934333Y-120183333D02*
X158029571Y-120159523D01*
X158029571Y-120159523D02*
X158077190Y-120135714D01*
X158077190Y-120135714D02*
X158101000Y-120111904D01*
X158101000Y-120111904D02*
X158124809Y-120064285D01*
X158124809Y-120064285D02*
X158124809Y-120016666D01*
X158124809Y-120016666D02*
X158101000Y-119969047D01*
X158101000Y-119969047D02*
X158077190Y-119945238D01*
X158077190Y-119945238D02*
X158029571Y-119921428D01*
X158029571Y-119921428D02*
X157934333Y-119897619D01*
X157934333Y-119897619D02*
X157815285Y-119897619D01*
X157815285Y-119897619D02*
X157720047Y-119921428D01*
X157720047Y-119921428D02*
X157672428Y-119945238D01*
X157672428Y-119945238D02*
X157648619Y-119969047D01*
X157648619Y-119969047D02*
X157624809Y-120016666D01*
X157672428Y-120373809D02*
X157648619Y-120397618D01*
X157648619Y-120397618D02*
X157624809Y-120445237D01*
X157624809Y-120445237D02*
X157624809Y-120564285D01*
X157624809Y-120564285D02*
X157648619Y-120611904D01*
X157648619Y-120611904D02*
X157672428Y-120635713D01*
X157672428Y-120635713D02*
X157720047Y-120659523D01*
X157720047Y-120659523D02*
X157767666Y-120659523D01*
X157767666Y-120659523D02*
X157839095Y-120635713D01*
X157839095Y-120635713D02*
X158124809Y-120349999D01*
X158124809Y-120349999D02*
X158124809Y-120659523D01*
X149577190Y-92802381D02*
X149601000Y-92778572D01*
X149601000Y-92778572D02*
X149624809Y-92707143D01*
X149624809Y-92707143D02*
X149624809Y-92659524D01*
X149624809Y-92659524D02*
X149601000Y-92588096D01*
X149601000Y-92588096D02*
X149553380Y-92540477D01*
X149553380Y-92540477D02*
X149505761Y-92516667D01*
X149505761Y-92516667D02*
X149410523Y-92492858D01*
X149410523Y-92492858D02*
X149339095Y-92492858D01*
X149339095Y-92492858D02*
X149243857Y-92516667D01*
X149243857Y-92516667D02*
X149196238Y-92540477D01*
X149196238Y-92540477D02*
X149148619Y-92588096D01*
X149148619Y-92588096D02*
X149124809Y-92659524D01*
X149124809Y-92659524D02*
X149124809Y-92707143D01*
X149124809Y-92707143D02*
X149148619Y-92778572D01*
X149148619Y-92778572D02*
X149172428Y-92802381D01*
X149624809Y-93278572D02*
X149624809Y-92992858D01*
X149624809Y-93135715D02*
X149124809Y-93135715D01*
X149124809Y-93135715D02*
X149196238Y-93088096D01*
X149196238Y-93088096D02*
X149243857Y-93040477D01*
X149243857Y-93040477D02*
X149267666Y-92992858D01*
X149124809Y-93445238D02*
X149124809Y-93754762D01*
X149124809Y-93754762D02*
X149315285Y-93588095D01*
X149315285Y-93588095D02*
X149315285Y-93659524D01*
X149315285Y-93659524D02*
X149339095Y-93707143D01*
X149339095Y-93707143D02*
X149362904Y-93730952D01*
X149362904Y-93730952D02*
X149410523Y-93754762D01*
X149410523Y-93754762D02*
X149529571Y-93754762D01*
X149529571Y-93754762D02*
X149577190Y-93730952D01*
X149577190Y-93730952D02*
X149601000Y-93707143D01*
X149601000Y-93707143D02*
X149624809Y-93659524D01*
X149624809Y-93659524D02*
X149624809Y-93516667D01*
X149624809Y-93516667D02*
X149601000Y-93469048D01*
X149601000Y-93469048D02*
X149577190Y-93445238D01*
X149624809Y-94230952D02*
X149624809Y-93945238D01*
X149624809Y-94088095D02*
X149124809Y-94088095D01*
X149124809Y-94088095D02*
X149196238Y-94040476D01*
X149196238Y-94040476D02*
X149243857Y-93992857D01*
X149243857Y-93992857D02*
X149267666Y-93945238D01*
X149624809Y-94707142D02*
X149624809Y-94421428D01*
X149624809Y-94564285D02*
X149124809Y-94564285D01*
X149124809Y-94564285D02*
X149196238Y-94516666D01*
X149196238Y-94516666D02*
X149243857Y-94469047D01*
X149243857Y-94469047D02*
X149267666Y-94421428D01*
X164327190Y-112540476D02*
X164351000Y-112516667D01*
X164351000Y-112516667D02*
X164374809Y-112445238D01*
X164374809Y-112445238D02*
X164374809Y-112397619D01*
X164374809Y-112397619D02*
X164351000Y-112326191D01*
X164351000Y-112326191D02*
X164303380Y-112278572D01*
X164303380Y-112278572D02*
X164255761Y-112254762D01*
X164255761Y-112254762D02*
X164160523Y-112230953D01*
X164160523Y-112230953D02*
X164089095Y-112230953D01*
X164089095Y-112230953D02*
X163993857Y-112254762D01*
X163993857Y-112254762D02*
X163946238Y-112278572D01*
X163946238Y-112278572D02*
X163898619Y-112326191D01*
X163898619Y-112326191D02*
X163874809Y-112397619D01*
X163874809Y-112397619D02*
X163874809Y-112445238D01*
X163874809Y-112445238D02*
X163898619Y-112516667D01*
X163898619Y-112516667D02*
X163922428Y-112540476D01*
X164041476Y-112969048D02*
X164374809Y-112969048D01*
X163851000Y-112850000D02*
X164208142Y-112730953D01*
X164208142Y-112730953D02*
X164208142Y-113040476D01*
X164374809Y-113492857D02*
X164374809Y-113207143D01*
X164374809Y-113350000D02*
X163874809Y-113350000D01*
X163874809Y-113350000D02*
X163946238Y-113302381D01*
X163946238Y-113302381D02*
X163993857Y-113254762D01*
X163993857Y-113254762D02*
X164017666Y-113207143D01*
X163874809Y-113659523D02*
X163874809Y-113992856D01*
X163874809Y-113992856D02*
X164374809Y-113778571D01*
D10*
X163125000Y-89253641D02*
X163125000Y-88946359D01*
X163675000Y-89253641D02*
X163675000Y-88946359D01*
X151675000Y-95446359D02*
X151675000Y-95753641D01*
X151125000Y-95446359D02*
X151125000Y-95753641D01*
X153150000Y-94707836D02*
X153150000Y-94492164D01*
X153650000Y-94707836D02*
X153650000Y-94492164D01*
D13*
X156900000Y-112750000D02*
X152900000Y-112750000D01*
X156900000Y-109450000D02*
X156900000Y-112750000D01*
D10*
X155792164Y-108350000D02*
X156007836Y-108350000D01*
X155792164Y-108850000D02*
X156007836Y-108850000D01*
D13*
X148135000Y-114838748D02*
X148135000Y-115361252D01*
X146665000Y-114838748D02*
X146665000Y-115361252D01*
D14*
X143800000Y-85700000D02*
X143000000Y-85700000D01*
D10*
X154007836Y-108850000D02*
X153792164Y-108850000D01*
X154007836Y-108350000D02*
X153792164Y-108350000D01*
X150675000Y-95446359D02*
X150675000Y-95753641D01*
X150125000Y-95446359D02*
X150125000Y-95753641D01*
X152150000Y-94707836D02*
X152150000Y-94492164D01*
X152650000Y-94707836D02*
X152650000Y-94492164D01*
X157792164Y-102350000D02*
X158007836Y-102350000D01*
X157792164Y-102850000D02*
X158007836Y-102850000D01*
D15*
X162474000Y-113800000D02*
X162474000Y-112400000D01*
X159326000Y-112400000D02*
X159326000Y-113800000D01*
D14*
X162600000Y-114200000D02*
G75*
G03*
X162400000Y-114200000I-100000J0D01*
G01*
X162400000Y-114200000D02*
G75*
G03*
X162600000Y-114200000I100000J0D01*
G01*
D15*
X172150000Y-97950000D02*
X167600000Y-97950000D01*
X166700000Y-98100000D02*
X166400000Y-98600000D01*
X166100000Y-98100000D02*
X166700000Y-98100000D01*
X167600000Y-98550000D02*
X167600000Y-97950000D01*
X166400000Y-98600000D02*
X166100000Y-98100000D01*
X172150000Y-105250000D02*
X167600000Y-105250000D01*
X167600000Y-105250000D02*
X167600000Y-104650000D01*
X147930000Y-87590000D02*
X147930000Y-85220000D01*
X156870000Y-87590000D02*
X156870000Y-85220000D01*
D14*
X149500000Y-90000000D02*
G75*
G03*
X149300000Y-90000000I-100000J0D01*
G01*
X149300000Y-90000000D02*
G75*
G03*
X149500000Y-90000000I100000J0D01*
G01*
X158550000Y-81850000D02*
X158550000Y-82100000D01*
X158550000Y-81850000D02*
X160550000Y-81850000D01*
X158550000Y-83800000D02*
X158550000Y-83400000D01*
X158550000Y-85350000D02*
X158550000Y-85100000D01*
X158550000Y-85350000D02*
X160550000Y-85350000D01*
X161250000Y-85350000D02*
X163250000Y-85350000D01*
X163250000Y-81850000D02*
X161250000Y-81850000D01*
X163250000Y-81850000D02*
X163250000Y-82100000D01*
X163250000Y-83800000D02*
X163250000Y-83400000D01*
X163250000Y-85350000D02*
X163250000Y-85100000D01*
D13*
X163900000Y-95710000D02*
X157900000Y-95710000D01*
X163890000Y-90490000D02*
X157900000Y-90490000D01*
X164610000Y-90790000D02*
X164130000Y-90790000D01*
X164130000Y-90310000D01*
X164610000Y-90790000D01*
G36*
X164610000Y-90790000D02*
G01*
X164130000Y-90790000D01*
X164130000Y-90310000D01*
X164610000Y-90790000D01*
G37*
D15*
X132650000Y-103750000D02*
X137200000Y-103750000D01*
X138075000Y-103600000D02*
X138375000Y-103100000D01*
X138675000Y-103600000D02*
X138075000Y-103600000D01*
X137200000Y-103150000D02*
X137200000Y-103750000D01*
X138375000Y-103100000D02*
X138675000Y-103600000D01*
X132650000Y-99450000D02*
X137200000Y-99450000D01*
X137200000Y-99450000D02*
X137200000Y-100050000D01*
D10*
X147007836Y-97850000D02*
X146792164Y-97850000D01*
X147007836Y-97350000D02*
X146792164Y-97350000D01*
X159150000Y-89207836D02*
X159150000Y-88992164D01*
X159650000Y-89207836D02*
X159650000Y-88992164D01*
X152650000Y-107992164D02*
X152650000Y-108207836D01*
X152150000Y-107992164D02*
X152150000Y-108207836D01*
X147007836Y-96350000D02*
X146792164Y-96350000D01*
X147007836Y-95850000D02*
X146792164Y-95850000D01*
X148150000Y-95707836D02*
X148150000Y-95492164D01*
X148650000Y-95707836D02*
X148650000Y-95492164D01*
X144507836Y-90850000D02*
X144292164Y-90850000D01*
X144507836Y-90350000D02*
X144292164Y-90350000D01*
D14*
X140400000Y-99300000D02*
X142400000Y-99300000D01*
X142530300Y-100025200D02*
X142530300Y-103174800D01*
X142329640Y-100025200D02*
X142530300Y-100025200D01*
X140269700Y-100025200D02*
X140470360Y-100025200D01*
X142530300Y-103174800D02*
X142329640Y-103174800D01*
X140470360Y-103174800D02*
X140269700Y-103174800D01*
X140269700Y-103174800D02*
X140269700Y-100025200D01*
X145800000Y-85700000D02*
X145000000Y-85700000D01*
D10*
X157792164Y-98350000D02*
X158007836Y-98350000D01*
X157792164Y-98850000D02*
X158007836Y-98850000D01*
D13*
X146665000Y-119361252D02*
X146665000Y-118838748D01*
X148135000Y-119361252D02*
X148135000Y-118838748D01*
D10*
X158675000Y-86946359D02*
X158675000Y-87253641D01*
X158125000Y-86946359D02*
X158125000Y-87253641D01*
D14*
X140900000Y-113850000D02*
X145900000Y-113850000D01*
X146130500Y-116302650D02*
X146130500Y-117897350D01*
X140669500Y-117897350D02*
X140669500Y-116302650D01*
D10*
X153675000Y-106946359D02*
X153675000Y-107253641D01*
X153125000Y-106946359D02*
X153125000Y-107253641D01*
X149053641Y-91375000D02*
X148746359Y-91375000D01*
X149053641Y-90825000D02*
X148746359Y-90825000D01*
X151650000Y-107992164D02*
X151650000Y-108207836D01*
X151150000Y-107992164D02*
X151150000Y-108207836D01*
X143650000Y-101492164D02*
X143650000Y-101707836D01*
X143150000Y-101492164D02*
X143150000Y-101707836D01*
X162125000Y-89253641D02*
X162125000Y-88946359D01*
X162675000Y-89253641D02*
X162675000Y-88946359D01*
D15*
X142900000Y-89600000D02*
X142900000Y-88860000D01*
X145900000Y-89600000D02*
X145900000Y-88860000D01*
X142900000Y-87340000D02*
X142900000Y-86600000D01*
X145900000Y-87340000D02*
X145900000Y-86600000D01*
D14*
X146250000Y-89850000D02*
G75*
G03*
X146050000Y-89850000I-100000J0D01*
G01*
X146050000Y-89850000D02*
G75*
G03*
X146250000Y-89850000I100000J0D01*
G01*
D13*
X152525000Y-115475000D02*
X152300000Y-115475000D01*
X152525000Y-115475000D02*
X152525000Y-116450000D01*
X149275000Y-115780000D02*
X149275000Y-116450000D01*
X152525000Y-117750000D02*
X152525000Y-118725000D01*
X149275000Y-117750000D02*
X149275000Y-118725000D01*
X152300000Y-118725000D02*
X152525000Y-118725000D01*
X149500000Y-118725000D02*
X149275000Y-118725000D01*
X149480000Y-115260000D02*
X149150000Y-115500000D01*
X149150000Y-115020000D01*
X149480000Y-115260000D01*
G36*
X149480000Y-115260000D02*
G01*
X149150000Y-115500000D01*
X149150000Y-115020000D01*
X149480000Y-115260000D01*
G37*
D10*
X147007836Y-102850000D02*
X146792164Y-102850000D01*
X147007836Y-102350000D02*
X146792164Y-102350000D01*
D13*
X156010000Y-105210000D02*
X156010000Y-104560000D01*
X156010000Y-98640000D02*
X156010000Y-98230000D01*
X155360000Y-105210000D02*
X156010000Y-105210000D01*
X155360000Y-97990000D02*
X155710000Y-97990000D01*
X149440000Y-105210000D02*
X148790000Y-105210000D01*
X149440000Y-97990000D02*
X148790000Y-97990000D01*
X148790000Y-105210000D02*
X148790000Y-104560000D01*
X148790000Y-97990000D02*
X148790000Y-98640000D01*
X156010000Y-97990000D02*
X155770000Y-97660000D01*
X156250000Y-97660000D01*
X156010000Y-97990000D01*
G36*
X156010000Y-97990000D02*
G01*
X155770000Y-97660000D01*
X156250000Y-97660000D01*
X156010000Y-97990000D01*
G37*
D10*
X142150000Y-87992164D02*
X142150000Y-88207836D01*
X141650000Y-87992164D02*
X141650000Y-88207836D01*
D15*
X162900000Y-118700000D02*
X162900000Y-116200000D01*
X162900000Y-116200000D02*
X162020000Y-116200000D01*
X162350000Y-115900000D02*
X162350000Y-115300000D01*
X162350000Y-115300000D02*
X161900000Y-115600000D01*
X161900000Y-115600000D02*
X162350000Y-115900000D01*
X159780000Y-116200000D02*
X158900000Y-116200000D01*
X158900000Y-116200000D02*
X158900000Y-118700000D01*
D10*
X149150000Y-95707836D02*
X149150000Y-95492164D01*
X149650000Y-95707836D02*
X149650000Y-95492164D01*
X163650000Y-112992164D02*
X163650000Y-113207836D01*
X163150000Y-112992164D02*
X163150000Y-113207836D01*
%LPC*%
D16*
X172101200Y-99851200D02*
X168398800Y-99851200D01*
X168398800Y-98848800D01*
X172101200Y-98848800D01*
X172101200Y-99851200D01*
G36*
X172101200Y-99851200D02*
G01*
X168398800Y-99851200D01*
X168398800Y-98848800D01*
X172101200Y-98848800D01*
X172101200Y-99851200D01*
G37*
X167751200Y-99851200D02*
X164948800Y-99851200D01*
X164948800Y-98848800D01*
X167751200Y-98848800D01*
X167751200Y-99851200D01*
G36*
X167751200Y-99851200D02*
G01*
X164948800Y-99851200D01*
X164948800Y-98848800D01*
X167751200Y-98848800D01*
X167751200Y-99851200D01*
G37*
X172101200Y-101351200D02*
X168398800Y-101351200D01*
X168398800Y-100348800D01*
X172101200Y-100348800D01*
X172101200Y-101351200D01*
G36*
X172101200Y-101351200D02*
G01*
X168398800Y-101351200D01*
X168398800Y-100348800D01*
X172101200Y-100348800D01*
X172101200Y-101351200D01*
G37*
X167751200Y-101351200D02*
X164948800Y-101351200D01*
X164948800Y-100348800D01*
X167751200Y-100348800D01*
X167751200Y-101351200D01*
G36*
X167751200Y-101351200D02*
G01*
X164948800Y-101351200D01*
X164948800Y-100348800D01*
X167751200Y-100348800D01*
X167751200Y-101351200D01*
G37*
X172101200Y-102851200D02*
X168398800Y-102851200D01*
X168398800Y-101848800D01*
X172101200Y-101848800D01*
X172101200Y-102851200D01*
G36*
X172101200Y-102851200D02*
G01*
X168398800Y-102851200D01*
X168398800Y-101848800D01*
X172101200Y-101848800D01*
X172101200Y-102851200D01*
G37*
X167751200Y-102851200D02*
X164948800Y-102851200D01*
X164948800Y-101848800D01*
X167751200Y-101848800D01*
X167751200Y-102851200D01*
G36*
X167751200Y-102851200D02*
G01*
X164948800Y-102851200D01*
X164948800Y-101848800D01*
X167751200Y-101848800D01*
X167751200Y-102851200D01*
G37*
X172101200Y-104351200D02*
X168398800Y-104351200D01*
X168398800Y-103348800D01*
X172101200Y-103348800D01*
X172101200Y-104351200D01*
G36*
X172101200Y-104351200D02*
G01*
X168398800Y-104351200D01*
X168398800Y-103348800D01*
X172101200Y-103348800D01*
X172101200Y-104351200D01*
G37*
X167751200Y-104351200D02*
X164948800Y-104351200D01*
X164948800Y-103348800D01*
X167751200Y-103348800D01*
X167751200Y-104351200D01*
G36*
X167751200Y-104351200D02*
G01*
X164948800Y-104351200D01*
X164948800Y-103348800D01*
X167751200Y-103348800D01*
X167751200Y-104351200D01*
G37*
X149800000Y-88420000D02*
X148800000Y-88420000D01*
X148800000Y-87720000D01*
X149800000Y-87720000D01*
X149800000Y-88420000D01*
G36*
X149800000Y-88420000D02*
G01*
X148800000Y-88420000D01*
X148800000Y-87720000D01*
X149800000Y-87720000D01*
X149800000Y-88420000D01*
G37*
X149550000Y-89720000D02*
X149250000Y-89720000D01*
X149250000Y-89020000D01*
X149550000Y-89020000D01*
X149550000Y-89720000D01*
G36*
X149550000Y-89720000D02*
G01*
X149250000Y-89720000D01*
X149250000Y-89020000D01*
X149550000Y-89020000D01*
X149550000Y-89720000D01*
G37*
X150050000Y-89720000D02*
X149750000Y-89720000D01*
X149750000Y-89020000D01*
X150050000Y-89020000D01*
X150050000Y-89720000D01*
G36*
X150050000Y-89720000D02*
G01*
X149750000Y-89720000D01*
X149750000Y-89020000D01*
X150050000Y-89020000D01*
X150050000Y-89720000D01*
G37*
X150300000Y-88420000D02*
X150000000Y-88420000D01*
X150000000Y-87720000D01*
X150300000Y-87720000D01*
X150300000Y-88420000D01*
G36*
X150300000Y-88420000D02*
G01*
X150000000Y-88420000D01*
X150000000Y-87720000D01*
X150300000Y-87720000D01*
X150300000Y-88420000D01*
G37*
X150550000Y-89720000D02*
X150250000Y-89720000D01*
X150250000Y-89020000D01*
X150550000Y-89020000D01*
X150550000Y-89720000D01*
G36*
X150550000Y-89720000D02*
G01*
X150250000Y-89720000D01*
X150250000Y-89020000D01*
X150550000Y-89020000D01*
X150550000Y-89720000D01*
G37*
X150800000Y-88420000D02*
X150500000Y-88420000D01*
X150500000Y-87720000D01*
X150800000Y-87720000D01*
X150800000Y-88420000D01*
G36*
X150800000Y-88420000D02*
G01*
X150500000Y-88420000D01*
X150500000Y-87720000D01*
X150800000Y-87720000D01*
X150800000Y-88420000D01*
G37*
X151050000Y-89720000D02*
X150750000Y-89720000D01*
X150750000Y-89020000D01*
X151050000Y-89020000D01*
X151050000Y-89720000D01*
G36*
X151050000Y-89720000D02*
G01*
X150750000Y-89720000D01*
X150750000Y-89020000D01*
X151050000Y-89020000D01*
X151050000Y-89720000D01*
G37*
X151300000Y-88420000D02*
X151000000Y-88420000D01*
X151000000Y-87720000D01*
X151300000Y-87720000D01*
X151300000Y-88420000D01*
G36*
X151300000Y-88420000D02*
G01*
X151000000Y-88420000D01*
X151000000Y-87720000D01*
X151300000Y-87720000D01*
X151300000Y-88420000D01*
G37*
X151550000Y-89720000D02*
X151250000Y-89720000D01*
X151250000Y-89020000D01*
X151550000Y-89020000D01*
X151550000Y-89720000D01*
G36*
X151550000Y-89720000D02*
G01*
X151250000Y-89720000D01*
X151250000Y-89020000D01*
X151550000Y-89020000D01*
X151550000Y-89720000D01*
G37*
X151800000Y-88420000D02*
X151500000Y-88420000D01*
X151500000Y-87720000D01*
X151800000Y-87720000D01*
X151800000Y-88420000D01*
G36*
X151800000Y-88420000D02*
G01*
X151500000Y-88420000D01*
X151500000Y-87720000D01*
X151800000Y-87720000D01*
X151800000Y-88420000D01*
G37*
X152050000Y-89720000D02*
X151750000Y-89720000D01*
X151750000Y-89020000D01*
X152050000Y-89020000D01*
X152050000Y-89720000D01*
G36*
X152050000Y-89720000D02*
G01*
X151750000Y-89720000D01*
X151750000Y-89020000D01*
X152050000Y-89020000D01*
X152050000Y-89720000D01*
G37*
X152300000Y-88420000D02*
X152000000Y-88420000D01*
X152000000Y-87720000D01*
X152300000Y-87720000D01*
X152300000Y-88420000D01*
G36*
X152300000Y-88420000D02*
G01*
X152000000Y-88420000D01*
X152000000Y-87720000D01*
X152300000Y-87720000D01*
X152300000Y-88420000D01*
G37*
X152800000Y-88420000D02*
X152500000Y-88420000D01*
X152500000Y-87720000D01*
X152800000Y-87720000D01*
X152800000Y-88420000D01*
G36*
X152800000Y-88420000D02*
G01*
X152500000Y-88420000D01*
X152500000Y-87720000D01*
X152800000Y-87720000D01*
X152800000Y-88420000D01*
G37*
X153050000Y-89720000D02*
X152750000Y-89720000D01*
X152750000Y-89020000D01*
X153050000Y-89020000D01*
X153050000Y-89720000D01*
G36*
X153050000Y-89720000D02*
G01*
X152750000Y-89720000D01*
X152750000Y-89020000D01*
X153050000Y-89020000D01*
X153050000Y-89720000D01*
G37*
X153300000Y-88420000D02*
X153000000Y-88420000D01*
X153000000Y-87720000D01*
X153300000Y-87720000D01*
X153300000Y-88420000D01*
G36*
X153300000Y-88420000D02*
G01*
X153000000Y-88420000D01*
X153000000Y-87720000D01*
X153300000Y-87720000D01*
X153300000Y-88420000D01*
G37*
X153550000Y-89720000D02*
X153250000Y-89720000D01*
X153250000Y-89020000D01*
X153550000Y-89020000D01*
X153550000Y-89720000D01*
G36*
X153550000Y-89720000D02*
G01*
X153250000Y-89720000D01*
X153250000Y-89020000D01*
X153550000Y-89020000D01*
X153550000Y-89720000D01*
G37*
X153800000Y-88420000D02*
X153500000Y-88420000D01*
X153500000Y-87720000D01*
X153800000Y-87720000D01*
X153800000Y-88420000D01*
G36*
X153800000Y-88420000D02*
G01*
X153500000Y-88420000D01*
X153500000Y-87720000D01*
X153800000Y-87720000D01*
X153800000Y-88420000D01*
G37*
X154050000Y-89720000D02*
X153750000Y-89720000D01*
X153750000Y-89020000D01*
X154050000Y-89020000D01*
X154050000Y-89720000D01*
G36*
X154050000Y-89720000D02*
G01*
X153750000Y-89720000D01*
X153750000Y-89020000D01*
X154050000Y-89020000D01*
X154050000Y-89720000D01*
G37*
X154300000Y-88420000D02*
X154000000Y-88420000D01*
X154000000Y-87720000D01*
X154300000Y-87720000D01*
X154300000Y-88420000D01*
G36*
X154300000Y-88420000D02*
G01*
X154000000Y-88420000D01*
X154000000Y-87720000D01*
X154300000Y-87720000D01*
X154300000Y-88420000D01*
G37*
X154550000Y-89720000D02*
X154250000Y-89720000D01*
X154250000Y-89020000D01*
X154550000Y-89020000D01*
X154550000Y-89720000D01*
G36*
X154550000Y-89720000D02*
G01*
X154250000Y-89720000D01*
X154250000Y-89020000D01*
X154550000Y-89020000D01*
X154550000Y-89720000D01*
G37*
X154800000Y-88420000D02*
X154500000Y-88420000D01*
X154500000Y-87720000D01*
X154800000Y-87720000D01*
X154800000Y-88420000D01*
G36*
X154800000Y-88420000D02*
G01*
X154500000Y-88420000D01*
X154500000Y-87720000D01*
X154800000Y-87720000D01*
X154800000Y-88420000D01*
G37*
X155050000Y-89720000D02*
X154750000Y-89720000D01*
X154750000Y-89020000D01*
X155050000Y-89020000D01*
X155050000Y-89720000D01*
G36*
X155050000Y-89720000D02*
G01*
X154750000Y-89720000D01*
X154750000Y-89020000D01*
X155050000Y-89020000D01*
X155050000Y-89720000D01*
G37*
X156000000Y-88420000D02*
X155000000Y-88420000D01*
X155000000Y-87720000D01*
X156000000Y-87720000D01*
X156000000Y-88420000D01*
G36*
X156000000Y-88420000D02*
G01*
X155000000Y-88420000D01*
X155000000Y-87720000D01*
X156000000Y-87720000D01*
X156000000Y-88420000D01*
G37*
X155550000Y-89720000D02*
X155250000Y-89720000D01*
X155250000Y-89020000D01*
X155550000Y-89020000D01*
X155550000Y-89720000D01*
G36*
X155550000Y-89720000D02*
G01*
X155250000Y-89720000D01*
X155250000Y-89020000D01*
X155550000Y-89020000D01*
X155550000Y-89720000D01*
G37*
X136401200Y-102851200D02*
X132698800Y-102851200D01*
X132698800Y-101848800D01*
X136401200Y-101848800D01*
X136401200Y-102851200D01*
G36*
X136401200Y-102851200D02*
G01*
X132698800Y-102851200D01*
X132698800Y-101848800D01*
X136401200Y-101848800D01*
X136401200Y-102851200D01*
G37*
X139851200Y-102851200D02*
X137048800Y-102851200D01*
X137048800Y-101848800D01*
X139851200Y-101848800D01*
X139851200Y-102851200D01*
G36*
X139851200Y-102851200D02*
G01*
X137048800Y-102851200D01*
X137048800Y-101848800D01*
X139851200Y-101848800D01*
X139851200Y-102851200D01*
G37*
X136401200Y-101351200D02*
X132698800Y-101351200D01*
X132698800Y-100348800D01*
X136401200Y-100348800D01*
X136401200Y-101351200D01*
G36*
X136401200Y-101351200D02*
G01*
X132698800Y-101351200D01*
X132698800Y-100348800D01*
X136401200Y-100348800D01*
X136401200Y-101351200D01*
G37*
X139851200Y-101351200D02*
X137048800Y-101351200D01*
X137048800Y-100348800D01*
X139851200Y-100348800D01*
X139851200Y-101351200D01*
G36*
X139851200Y-101351200D02*
G01*
X137048800Y-101351200D01*
X137048800Y-100348800D01*
X139851200Y-100348800D01*
X139851200Y-101351200D01*
G37*
X143650000Y-89870000D02*
X143200000Y-89870000D01*
X143200000Y-89130000D01*
X143650000Y-89130000D01*
X143650000Y-89870000D01*
G36*
X143650000Y-89870000D02*
G01*
X143200000Y-89870000D01*
X143200000Y-89130000D01*
X143650000Y-89130000D01*
X143650000Y-89870000D01*
G37*
X144300000Y-89870000D02*
X143850000Y-89870000D01*
X143850000Y-89130000D01*
X144300000Y-89130000D01*
X144300000Y-89870000D01*
G36*
X144300000Y-89870000D02*
G01*
X143850000Y-89870000D01*
X143850000Y-89130000D01*
X144300000Y-89130000D01*
X144300000Y-89870000D01*
G37*
X144950000Y-89870000D02*
X144500000Y-89870000D01*
X144500000Y-89130000D01*
X144950000Y-89130000D01*
X144950000Y-89870000D01*
G36*
X144950000Y-89870000D02*
G01*
X144500000Y-89870000D01*
X144500000Y-89130000D01*
X144950000Y-89130000D01*
X144950000Y-89870000D01*
G37*
X145600000Y-89870000D02*
X145150000Y-89870000D01*
X145150000Y-89130000D01*
X145600000Y-89130000D01*
X145600000Y-89870000D01*
G36*
X145600000Y-89870000D02*
G01*
X145150000Y-89870000D01*
X145150000Y-89130000D01*
X145600000Y-89130000D01*
X145600000Y-89870000D01*
G37*
X143650000Y-87070000D02*
X143200000Y-87070000D01*
X143200000Y-86330000D01*
X143650000Y-86330000D01*
X143650000Y-87070000D01*
G36*
X143650000Y-87070000D02*
G01*
X143200000Y-87070000D01*
X143200000Y-86330000D01*
X143650000Y-86330000D01*
X143650000Y-87070000D01*
G37*
X144300000Y-87070000D02*
X143850000Y-87070000D01*
X143850000Y-86330000D01*
X144300000Y-86330000D01*
X144300000Y-87070000D01*
G36*
X144300000Y-87070000D02*
G01*
X143850000Y-87070000D01*
X143850000Y-86330000D01*
X144300000Y-86330000D01*
X144300000Y-87070000D01*
G37*
X144950000Y-87070000D02*
X144500000Y-87070000D01*
X144500000Y-86330000D01*
X144950000Y-86330000D01*
X144950000Y-87070000D01*
G36*
X144950000Y-87070000D02*
G01*
X144500000Y-87070000D01*
X144500000Y-86330000D01*
X144950000Y-86330000D01*
X144950000Y-87070000D01*
G37*
X145600000Y-87070000D02*
X145150000Y-87070000D01*
X145150000Y-86330000D01*
X145600000Y-86330000D01*
X145600000Y-87070000D01*
G36*
X145600000Y-87070000D02*
G01*
X145150000Y-87070000D01*
X145150000Y-86330000D01*
X145600000Y-86330000D01*
X145600000Y-87070000D01*
G37*
X145345000Y-87590000D02*
X146170000Y-87590000D01*
X146170000Y-87960000D01*
X145345000Y-87960000D01*
X145345000Y-88240000D01*
X146170000Y-88240000D01*
X146170000Y-88610000D01*
X145345000Y-88610000D01*
X145345000Y-88920000D01*
X143455000Y-88920000D01*
X143455000Y-88610000D01*
X142630000Y-88610000D01*
X142630000Y-88240000D01*
X143455000Y-88240000D01*
X143455000Y-87960000D01*
X142630000Y-87960000D01*
X142630000Y-87590000D01*
X143455000Y-87590000D01*
X143455000Y-87280000D01*
X145345000Y-87280000D01*
X145345000Y-87590000D01*
G36*
X145345000Y-87590000D02*
G01*
X146170000Y-87590000D01*
X146170000Y-87960000D01*
X145345000Y-87960000D01*
X145345000Y-88240000D01*
X146170000Y-88240000D01*
X146170000Y-88610000D01*
X145345000Y-88610000D01*
X145345000Y-88920000D01*
X143455000Y-88920000D01*
X143455000Y-88610000D01*
X142630000Y-88610000D01*
X142630000Y-88240000D01*
X143455000Y-88240000D01*
X143455000Y-87960000D01*
X142630000Y-87960000D01*
X142630000Y-87590000D01*
X143455000Y-87590000D01*
X143455000Y-87280000D01*
X145345000Y-87280000D01*
X145345000Y-87590000D01*
G37*
X163376200Y-120926200D02*
X162023800Y-120926200D01*
X162023800Y-118973800D01*
X163376200Y-118973800D01*
X163376200Y-120926200D01*
G36*
X163376200Y-120926200D02*
G01*
X162023800Y-120926200D01*
X162023800Y-118973800D01*
X163376200Y-118973800D01*
X163376200Y-120926200D01*
G37*
X161776200Y-116876200D02*
X161023800Y-116876200D01*
X161023800Y-115223800D01*
X161776200Y-115223800D01*
X161776200Y-116876200D01*
G36*
X161776200Y-116876200D02*
G01*
X161023800Y-116876200D01*
X161023800Y-115223800D01*
X161776200Y-115223800D01*
X161776200Y-116876200D01*
G37*
X160776200Y-116876200D02*
X160023800Y-116876200D01*
X160023800Y-115223800D01*
X160776200Y-115223800D01*
X160776200Y-116876200D01*
G36*
X160776200Y-116876200D02*
G01*
X160023800Y-116876200D01*
X160023800Y-115223800D01*
X160776200Y-115223800D01*
X160776200Y-116876200D01*
G37*
X159776200Y-120926200D02*
X158423800Y-120926200D01*
X158423800Y-118973800D01*
X159776200Y-118973800D01*
X159776200Y-120926200D01*
G36*
X159776200Y-120926200D02*
G01*
X158423800Y-120926200D01*
X158423800Y-118973800D01*
X159776200Y-118973800D01*
X159776200Y-120926200D01*
G37*
D17*
X167900000Y-117100000D03*
X136900000Y-86100000D03*
X167900000Y-86100000D03*
D18*
X169900000Y-91600000D03*
X169900000Y-111600000D03*
X149900000Y-111600000D03*
D17*
X136900000Y-117100000D03*
D19*
X139400000Y-82600000D03*
D20*
X163400000Y-89610000D03*
X163400000Y-88590000D03*
D21*
X151400000Y-95090000D03*
X151400000Y-96110000D03*
D22*
X153400000Y-95080000D03*
X153400000Y-94120000D03*
D23*
X156050000Y-111975000D03*
X153800000Y-111900000D03*
X153750000Y-110225000D03*
X156050000Y-110225000D03*
D24*
X155420000Y-108600000D03*
X156380000Y-108600000D03*
D25*
X147400000Y-114150000D03*
X147400000Y-116050000D03*
D26*
X143400000Y-85240000D03*
D27*
X143400000Y-84325000D03*
D28*
X154380000Y-108600000D03*
X153420000Y-108600000D03*
D21*
X150400000Y-95090000D03*
X150400000Y-96110000D03*
D22*
X152400000Y-95080000D03*
X152400000Y-94120000D03*
D24*
X157420000Y-102600000D03*
X158380000Y-102600000D03*
D29*
X161665000Y-114125000D03*
D30*
X159940000Y-114125000D03*
X159940000Y-112075000D03*
X161860000Y-112075000D03*
D31*
X148080000Y-83600000D03*
X156720000Y-83600000D03*
D32*
X148080000Y-88960000D03*
X156720000Y-88960000D03*
D33*
X160900000Y-82225000D03*
X160900000Y-84975000D03*
D34*
X163700000Y-84450000D03*
X163700000Y-82750000D03*
X158100000Y-84450000D03*
X158100000Y-82750000D03*
D35*
X163600000Y-91195000D03*
X163600000Y-92465000D03*
X163600000Y-93735000D03*
X163600000Y-95005000D03*
X158200000Y-95005000D03*
X158200000Y-93735000D03*
X158200000Y-92465000D03*
X158200000Y-91195000D03*
D36*
X160900000Y-93100000D03*
D28*
X147380000Y-97600000D03*
X146420000Y-97600000D03*
D22*
X159400000Y-89580000D03*
X159400000Y-88620000D03*
D37*
X152400000Y-107620000D03*
X152400000Y-108580000D03*
D28*
X147380000Y-96100000D03*
X146420000Y-96100000D03*
D22*
X148400000Y-96080000D03*
X148400000Y-95120000D03*
D28*
X144880000Y-90600000D03*
X143920000Y-90600000D03*
D38*
X141400000Y-99987100D03*
X141400000Y-103212900D03*
D26*
X145400000Y-85240000D03*
D27*
X145400000Y-84325000D03*
D24*
X157420000Y-98600000D03*
X158380000Y-98600000D03*
D39*
X147400000Y-120050000D03*
X147400000Y-118150000D03*
D21*
X158400000Y-86590000D03*
X158400000Y-87610000D03*
D40*
X143400000Y-115068000D03*
X143400000Y-119132000D03*
D21*
X153400000Y-106590000D03*
X153400000Y-107610000D03*
D41*
X149410000Y-91100000D03*
X148390000Y-91100000D03*
D37*
X151400000Y-107620000D03*
X151400000Y-108580000D03*
X143400000Y-101120000D03*
X143400000Y-102080000D03*
D19*
X165400000Y-120600000D03*
D20*
X162400000Y-89610000D03*
X162400000Y-88590000D03*
D42*
X149900000Y-115340000D03*
D43*
X149900000Y-115625000D03*
D42*
X150400000Y-115340000D03*
D43*
X150400000Y-115625000D03*
D42*
X150900000Y-115340000D03*
D43*
X150900000Y-115625000D03*
D42*
X151400000Y-115340000D03*
D43*
X151400000Y-115625000D03*
D42*
X151900000Y-115340000D03*
D43*
X151900000Y-115625000D03*
X151900000Y-118575000D03*
D42*
X151900000Y-118860000D03*
D43*
X151400000Y-118575000D03*
D42*
X151400000Y-118860000D03*
D43*
X150900000Y-118575000D03*
D42*
X150900000Y-118860000D03*
D43*
X150400000Y-118575000D03*
D42*
X150400000Y-118860000D03*
D43*
X149900000Y-118575000D03*
D42*
X149900000Y-118860000D03*
D44*
X151650000Y-116600000D03*
X150150000Y-116600000D03*
D45*
X151535000Y-116650000D03*
X150265000Y-116650000D03*
D46*
X152530000Y-116850000D03*
D47*
X152450000Y-116850000D03*
X149350000Y-116850000D03*
D46*
X149270000Y-116850000D03*
D44*
X150900000Y-117100000D03*
D48*
X150900000Y-117100000D03*
D46*
X152530000Y-117350000D03*
D47*
X152450000Y-117350000D03*
X149350000Y-117350000D03*
D46*
X149270000Y-117350000D03*
D45*
X151535000Y-117550000D03*
X150265000Y-117550000D03*
D44*
X151650000Y-117600000D03*
X150150000Y-117600000D03*
D28*
X147380000Y-102600000D03*
X146420000Y-102600000D03*
D49*
X155837500Y-99000000D03*
X155837500Y-99400000D03*
X155837500Y-99800000D03*
X155837500Y-100200000D03*
X155837500Y-100600000D03*
X155837500Y-101000000D03*
X155837500Y-101400000D03*
X155837500Y-101800000D03*
X155837500Y-102200000D03*
X155837500Y-102600000D03*
X155837500Y-103000000D03*
X155837500Y-103400000D03*
X155837500Y-103800000D03*
X155837500Y-104200000D03*
D50*
X155000000Y-105037500D03*
X154600000Y-105037500D03*
X154200000Y-105037500D03*
X153800000Y-105037500D03*
X153400000Y-105037500D03*
X153000000Y-105037500D03*
X152600000Y-105037500D03*
X152200000Y-105037500D03*
X151800000Y-105037500D03*
X151400000Y-105037500D03*
X151000000Y-105037500D03*
X150600000Y-105037500D03*
X150200000Y-105037500D03*
X149800000Y-105037500D03*
D49*
X148962500Y-104200000D03*
X148962500Y-103800000D03*
X148962500Y-103400000D03*
X148962500Y-103000000D03*
X148962500Y-102600000D03*
X148962500Y-102200000D03*
X148962500Y-101800000D03*
X148962500Y-101400000D03*
X148962500Y-101000000D03*
X148962500Y-100600000D03*
X148962500Y-100200000D03*
X148962500Y-99800000D03*
X148962500Y-99400000D03*
X148962500Y-99000000D03*
D50*
X149800000Y-98162500D03*
X150200000Y-98162500D03*
X150600000Y-98162500D03*
X151000000Y-98162500D03*
X151400000Y-98162500D03*
X151800000Y-98162500D03*
X152200000Y-98162500D03*
X152600000Y-98162500D03*
X153000000Y-98162500D03*
X153400000Y-98162500D03*
X153800000Y-98162500D03*
X154200000Y-98162500D03*
X154600000Y-98162500D03*
X155000000Y-98162500D03*
D51*
X152400000Y-101600000D03*
D37*
X141900000Y-87620000D03*
X141900000Y-88580000D03*
D22*
X149400000Y-96080000D03*
X149400000Y-95120000D03*
D37*
X163400000Y-112620000D03*
X163400000Y-113580000D03*
%LPD*%
M02*
