G04 #@! TF.GenerationSoftware,KiCad,Pcbnew,7.0.11*
G04 #@! TF.CreationDate,2024-05-08T11:49:02-04:00*
G04 #@! TF.ProjectId,stepper-interface,73746570-7065-4722-9d69-6e7465726661,1.0*
G04 #@! TF.SameCoordinates,Original*
G04 #@! TF.FileFunction,Copper,L2,Inr*
G04 #@! TF.FilePolarity,Positive*
%FSLAX46Y46*%
G04 Gerber Fmt 4.6, Leading zero omitted, Abs format (unit mm)*
G04 Created by KiCad (PCBNEW 7.0.11) date 2024-05-08 11:49:02*
%MOMM*%
%LPD*%
G01*
G04 APERTURE LIST*
G04 Aperture macros list*
%AMRoundRect*
0 Rectangle with rounded corners*
0 $1 Rounding radius*
0 $2 $3 $4 $5 $6 $7 $8 $9 X,Y pos of 4 corners*
0 Add a 4 corners polygon primitive as box body*
4,1,4,$2,$3,$4,$5,$6,$7,$8,$9,$2,$3,0*
0 Add four circle primitives for the rounded corners*
1,1,$1+$1,$2,$3*
1,1,$1+$1,$4,$5*
1,1,$1+$1,$6,$7*
1,1,$1+$1,$8,$9*
0 Add four rect primitives between the rounded corners*
20,1,$1+$1,$2,$3,$4,$5,0*
20,1,$1+$1,$4,$5,$6,$7,0*
20,1,$1+$1,$6,$7,$8,$9,0*
20,1,$1+$1,$8,$9,$2,$3,0*%
G04 Aperture macros list end*
G04 #@! TA.AperFunction,ComponentPad*
%ADD10C,6.400000*%
G04 #@! TD*
G04 #@! TA.AperFunction,ComponentPad*
%ADD11C,4.400000*%
G04 #@! TD*
G04 #@! TA.AperFunction,ComponentPad*
%ADD12C,0.400000*%
G04 #@! TD*
G04 #@! TA.AperFunction,ComponentPad*
%ADD13O,1.100000X2.600000*%
G04 #@! TD*
G04 #@! TA.AperFunction,ComponentPad*
%ADD14RoundRect,0.275000X-0.275000X-0.775000X0.275000X-0.775000X0.275000X0.775000X-0.275000X0.775000X0*%
G04 #@! TD*
G04 #@! TA.AperFunction,ComponentPad*
%ADD15C,0.600000*%
G04 #@! TD*
G04 #@! TA.AperFunction,ViaPad*
%ADD16C,0.800000*%
G04 #@! TD*
G04 #@! TA.AperFunction,ViaPad*
%ADD17C,0.400000*%
G04 #@! TD*
G04 #@! TA.AperFunction,Conductor*
%ADD18C,0.200000*%
G04 #@! TD*
G04 APERTURE END LIST*
D10*
X167900000Y-117100000D03*
X136900000Y-86100000D03*
X167900000Y-86100000D03*
D11*
X169900000Y-91600000D03*
X169900000Y-111600000D03*
X149900000Y-111600000D03*
D12*
X137400000Y-111100000D03*
X136775000Y-110600000D03*
X138025000Y-110600000D03*
X137400000Y-110100000D03*
D10*
X136900000Y-117100000D03*
D13*
X148080000Y-83600000D03*
X156720000Y-83600000D03*
D14*
X148080000Y-88960000D03*
X156720000Y-88960000D03*
D12*
X144400000Y-88600000D03*
X143775000Y-88100000D03*
X145025000Y-88100000D03*
X144400000Y-87600000D03*
D15*
X151650000Y-116600000D03*
X150150000Y-116600000D03*
X150900000Y-117100000D03*
X151650000Y-117600000D03*
X150150000Y-117600000D03*
D16*
X160900000Y-90100000D03*
X147900000Y-86600000D03*
X136400000Y-105600000D03*
X153900000Y-93600000D03*
X151900000Y-91727000D03*
X146558001Y-101758001D03*
X148400000Y-105600000D03*
X152597515Y-93289197D03*
X165400000Y-107100000D03*
X168900000Y-97600000D03*
X157900000Y-106600000D03*
X168900000Y-105600000D03*
X162900000Y-103973000D03*
X158773000Y-96877000D03*
X162400000Y-100600000D03*
X162400000Y-102100000D03*
X165400000Y-96100000D03*
D17*
X134400000Y-92600000D03*
D16*
X145900000Y-91600000D03*
X156900000Y-91600000D03*
X157900000Y-97600000D03*
X152157175Y-106346924D03*
D17*
X145813000Y-102586376D03*
X147400000Y-99100000D03*
X146649999Y-99850001D03*
X146400000Y-100600000D03*
X147400000Y-100700000D03*
D16*
X144523000Y-111273000D03*
X135900000Y-97600000D03*
X153284829Y-96484829D03*
X154360395Y-107639605D03*
X160900000Y-110600000D03*
D17*
X149400000Y-106600000D03*
X150149999Y-106600000D03*
D16*
X140400000Y-84325000D03*
X134900000Y-95600000D03*
X134900000Y-107600000D03*
D17*
X157400000Y-103237000D03*
X168400000Y-95600000D03*
X168650000Y-100100000D03*
X155900000Y-106600000D03*
X168150000Y-101600000D03*
X156900000Y-105600000D03*
X157400000Y-104600000D03*
X168400000Y-94600000D03*
X160400000Y-102058126D03*
X157400000Y-100100000D03*
X156400000Y-96650000D03*
X162900000Y-95500000D03*
X157400000Y-96857740D03*
X160400000Y-96650000D03*
X160400000Y-101100000D03*
X157900000Y-99100000D03*
X145400000Y-100100000D03*
D18*
X153900000Y-94803870D02*
X153900000Y-93600000D01*
X137400000Y-111100000D02*
X137400000Y-116600000D01*
X144400000Y-87600000D02*
X144400000Y-86100000D01*
X169900000Y-115100000D02*
X169900000Y-111600000D01*
X137400000Y-106600000D02*
X137400000Y-110100000D01*
X150900000Y-117100000D02*
X150900000Y-112600000D01*
X146945869Y-101758001D02*
X153900000Y-94803870D01*
X138025000Y-110600000D02*
X148900000Y-110600000D01*
X169900000Y-111600000D02*
X169900000Y-91600000D01*
X152027000Y-91727000D02*
X151900000Y-91727000D01*
X151650000Y-117600000D02*
X167400000Y-117600000D01*
X148900000Y-110600000D02*
X149900000Y-111600000D01*
X146558001Y-108258001D02*
X146558001Y-101758001D01*
X150900000Y-112600000D02*
X149900000Y-111600000D01*
X136900000Y-86100000D02*
X136900000Y-105100000D01*
X144400000Y-86100000D02*
X136900000Y-86100000D01*
X167400000Y-117600000D02*
X167900000Y-117100000D01*
X169900000Y-88100000D02*
X167900000Y-86100000D01*
X136400000Y-105600000D02*
X137400000Y-106600000D01*
X169900000Y-91600000D02*
X169900000Y-88100000D01*
X167900000Y-86100000D02*
X144400000Y-86100000D01*
X153900000Y-93600000D02*
X152027000Y-91727000D01*
X149900000Y-111600000D02*
X146558001Y-108258001D01*
X137400000Y-116600000D02*
X136900000Y-117100000D01*
X146558001Y-101758001D02*
X146945869Y-101758001D01*
X136900000Y-105100000D02*
X136400000Y-105600000D01*
X167900000Y-117100000D02*
X169900000Y-115100000D01*
G04 #@! TA.AperFunction,Conductor*
G36*
X148047486Y-81912241D02*
G01*
X148087554Y-81900500D01*
X156651349Y-81900500D01*
X156687486Y-81912241D01*
X156727554Y-81900500D01*
X160263332Y-81900500D01*
X160321523Y-81919407D01*
X160357487Y-81968907D01*
X160357487Y-82030093D01*
X160354796Y-82037386D01*
X160339313Y-82074762D01*
X160339312Y-82074767D01*
X160319534Y-82224999D01*
X160319534Y-82225000D01*
X160337873Y-82364304D01*
X160339313Y-82375236D01*
X160397302Y-82515233D01*
X160489549Y-82635451D01*
X160609767Y-82727698D01*
X160749764Y-82785687D01*
X160862280Y-82800500D01*
X160862281Y-82800500D01*
X160937719Y-82800500D01*
X160937720Y-82800500D01*
X161050236Y-82785687D01*
X161190233Y-82727698D01*
X161310451Y-82635451D01*
X161402698Y-82515233D01*
X161460687Y-82375236D01*
X161480466Y-82225000D01*
X161460687Y-82074764D01*
X161445203Y-82037384D01*
X161440403Y-81976390D01*
X161472372Y-81924220D01*
X161528900Y-81900805D01*
X161536668Y-81900500D01*
X167852405Y-81900500D01*
X167897721Y-81900500D01*
X167902292Y-81900605D01*
X168282906Y-81918202D01*
X168292001Y-81919044D01*
X168667139Y-81971374D01*
X168676108Y-81973051D01*
X169044788Y-82059764D01*
X169053583Y-82062266D01*
X169412690Y-82182627D01*
X169421217Y-82185930D01*
X169767695Y-82338915D01*
X169775869Y-82342985D01*
X169940679Y-82434783D01*
X170106752Y-82527285D01*
X170114527Y-82532099D01*
X170426991Y-82746143D01*
X170434288Y-82751654D01*
X170725659Y-82993604D01*
X170732417Y-82999764D01*
X171000235Y-83267582D01*
X171006395Y-83274340D01*
X171248345Y-83565711D01*
X171253856Y-83573008D01*
X171467900Y-83885472D01*
X171472714Y-83893247D01*
X171657011Y-84224124D01*
X171661087Y-84232310D01*
X171814069Y-84578782D01*
X171817372Y-84587309D01*
X171937733Y-84946416D01*
X171940235Y-84955211D01*
X172026946Y-85323881D01*
X172028627Y-85332870D01*
X172080954Y-85707993D01*
X172081797Y-85717098D01*
X172099394Y-86097707D01*
X172099500Y-86102279D01*
X172099500Y-90246037D01*
X172080593Y-90304228D01*
X172031093Y-90340192D01*
X171969907Y-90340192D01*
X171920407Y-90304228D01*
X171916912Y-90299084D01*
X171845480Y-90186526D01*
X171668648Y-89972773D01*
X170747558Y-90893862D01*
X170735106Y-90876376D01*
X170605642Y-90752932D01*
X171524959Y-89833616D01*
X171432844Y-89747113D01*
X171188516Y-89569599D01*
X170923892Y-89424122D01*
X170923889Y-89424120D01*
X170643107Y-89312952D01*
X170350597Y-89237849D01*
X170350601Y-89237849D01*
X170050995Y-89200000D01*
X169749004Y-89200000D01*
X169699994Y-89206191D01*
X169639893Y-89194726D01*
X169598009Y-89150124D01*
X169590341Y-89089421D01*
X169619817Y-89035804D01*
X169636547Y-89023143D01*
X169810838Y-88918275D01*
X169810843Y-88918272D01*
X170104344Y-88695158D01*
X170232418Y-88573840D01*
X168958593Y-87300015D01*
X169034870Y-87234870D01*
X169100015Y-87158593D01*
X170377073Y-88435651D01*
X170610686Y-88160621D01*
X170610693Y-88160611D01*
X170817596Y-87855453D01*
X170990288Y-87529721D01*
X171126753Y-87187217D01*
X171126757Y-87187206D01*
X171225385Y-86831979D01*
X171285034Y-86468143D01*
X171304993Y-86100000D01*
X171285034Y-85731856D01*
X171225385Y-85368020D01*
X171126757Y-85012793D01*
X171126753Y-85012782D01*
X170990288Y-84670278D01*
X170817596Y-84344546D01*
X170610693Y-84039388D01*
X170610686Y-84039378D01*
X170377072Y-83764347D01*
X169100014Y-85041404D01*
X169034870Y-84965130D01*
X168958592Y-84899983D01*
X170232418Y-83626158D01*
X170104344Y-83504841D01*
X169810843Y-83281727D01*
X169810838Y-83281724D01*
X169494929Y-83091647D01*
X169160323Y-82936842D01*
X168810923Y-82819115D01*
X168450871Y-82739862D01*
X168450872Y-82739862D01*
X168084343Y-82700000D01*
X167715657Y-82700000D01*
X167349127Y-82739862D01*
X166989077Y-82819115D01*
X166989075Y-82819115D01*
X166639676Y-82936842D01*
X166305070Y-83091647D01*
X165989161Y-83281724D01*
X165989156Y-83281727D01*
X165695655Y-83504841D01*
X165567580Y-83626158D01*
X166841406Y-84899984D01*
X166765130Y-84965130D01*
X166699984Y-85041406D01*
X165422925Y-83764347D01*
X165189313Y-84039378D01*
X165189306Y-84039388D01*
X164982403Y-84344546D01*
X164809711Y-84670278D01*
X164673246Y-85012782D01*
X164673242Y-85012793D01*
X164574614Y-85368020D01*
X164514965Y-85731856D01*
X164495006Y-86100000D01*
X164514965Y-86468143D01*
X164574614Y-86831979D01*
X164673242Y-87187206D01*
X164673246Y-87187217D01*
X164809711Y-87529721D01*
X164982403Y-87855453D01*
X165189306Y-88160611D01*
X165189313Y-88160621D01*
X165422925Y-88435650D01*
X166699983Y-87158592D01*
X166765130Y-87234870D01*
X166841405Y-87300014D01*
X165567580Y-88573840D01*
X165695655Y-88695158D01*
X165989156Y-88918272D01*
X165989161Y-88918275D01*
X166305070Y-89108352D01*
X166639676Y-89263157D01*
X166989076Y-89380884D01*
X167349128Y-89460137D01*
X167349127Y-89460137D01*
X167715657Y-89500000D01*
X168084343Y-89500000D01*
X168446963Y-89460562D01*
X168506857Y-89473067D01*
X168547962Y-89518389D01*
X168554577Y-89579215D01*
X168524176Y-89632314D01*
X168515858Y-89639075D01*
X168367155Y-89747113D01*
X168275039Y-89833616D01*
X169195808Y-90754385D01*
X169137460Y-90800271D01*
X169054541Y-90895964D01*
X168131350Y-89972773D01*
X167954519Y-90186526D01*
X167792707Y-90441503D01*
X167792706Y-90441504D01*
X167664127Y-90714747D01*
X167570805Y-91001962D01*
X167570802Y-91001972D01*
X167514217Y-91298600D01*
X167495255Y-91600000D01*
X167514217Y-91901399D01*
X167570802Y-92198027D01*
X167570805Y-92198037D01*
X167664127Y-92485252D01*
X167792706Y-92758495D01*
X167792713Y-92758508D01*
X167954519Y-93013473D01*
X168131350Y-93227225D01*
X169052440Y-92306134D01*
X169064894Y-92323624D01*
X169194355Y-92447065D01*
X168275039Y-93366382D01*
X168367155Y-93452886D01*
X168611483Y-93630400D01*
X168876107Y-93775877D01*
X168876110Y-93775879D01*
X169156892Y-93887047D01*
X169449402Y-93962150D01*
X169449398Y-93962150D01*
X169749005Y-94000000D01*
X170050995Y-94000000D01*
X170350599Y-93962150D01*
X170643107Y-93887047D01*
X170923889Y-93775879D01*
X170923892Y-93775877D01*
X171188516Y-93630400D01*
X171432844Y-93452886D01*
X171524959Y-93366382D01*
X170604191Y-92445614D01*
X170662540Y-92399729D01*
X170745458Y-92304035D01*
X171668648Y-93227225D01*
X171845476Y-93013478D01*
X171916911Y-92900915D01*
X171964056Y-92861914D01*
X172025120Y-92858072D01*
X172076781Y-92890857D01*
X172099305Y-92947746D01*
X172099500Y-92953962D01*
X172099500Y-110246037D01*
X172080593Y-110304228D01*
X172031093Y-110340192D01*
X171969907Y-110340192D01*
X171920407Y-110304228D01*
X171916912Y-110299084D01*
X171845480Y-110186526D01*
X171668648Y-109972773D01*
X170747558Y-110893862D01*
X170735106Y-110876376D01*
X170605642Y-110752932D01*
X171524959Y-109833616D01*
X171432844Y-109747113D01*
X171188516Y-109569599D01*
X170923892Y-109424122D01*
X170923889Y-109424120D01*
X170643107Y-109312952D01*
X170350597Y-109237849D01*
X170350601Y-109237849D01*
X170050995Y-109200000D01*
X169749005Y-109200000D01*
X169449400Y-109237849D01*
X169156892Y-109312952D01*
X168876110Y-109424120D01*
X168876107Y-109424122D01*
X168611483Y-109569599D01*
X168367155Y-109747114D01*
X168275039Y-109833616D01*
X169195808Y-110754385D01*
X169137460Y-110800271D01*
X169054541Y-110895964D01*
X168131350Y-109972773D01*
X167954519Y-110186526D01*
X167792707Y-110441503D01*
X167792706Y-110441504D01*
X167664127Y-110714747D01*
X167570805Y-111001962D01*
X167570802Y-111001972D01*
X167514217Y-111298600D01*
X167495255Y-111600000D01*
X167514217Y-111901399D01*
X167570802Y-112198027D01*
X167570805Y-112198037D01*
X167664127Y-112485252D01*
X167792706Y-112758495D01*
X167792713Y-112758508D01*
X167954519Y-113013473D01*
X168131350Y-113227225D01*
X169052440Y-112306134D01*
X169064894Y-112323624D01*
X169194355Y-112447065D01*
X168275039Y-113366382D01*
X168367155Y-113452886D01*
X168515858Y-113560924D01*
X168551822Y-113610424D01*
X168551822Y-113671609D01*
X168515858Y-113721110D01*
X168457667Y-113740017D01*
X168446963Y-113739437D01*
X168084344Y-113700000D01*
X167715657Y-113700000D01*
X167349127Y-113739862D01*
X166989077Y-113819115D01*
X166989075Y-113819115D01*
X166639676Y-113936842D01*
X166305070Y-114091647D01*
X165989161Y-114281724D01*
X165989156Y-114281727D01*
X165695655Y-114504841D01*
X165567580Y-114626158D01*
X166841406Y-115899984D01*
X166765130Y-115965130D01*
X166699984Y-116041406D01*
X165422925Y-114764347D01*
X165189313Y-115039378D01*
X165189306Y-115039388D01*
X164982403Y-115344546D01*
X164809711Y-115670278D01*
X164673246Y-116012782D01*
X164673242Y-116012793D01*
X164574614Y-116368020D01*
X164514965Y-116731856D01*
X164495006Y-117100000D01*
X164514965Y-117468143D01*
X164574614Y-117831979D01*
X164673242Y-118187206D01*
X164673246Y-118187217D01*
X164809711Y-118529721D01*
X164982403Y-118855453D01*
X165189306Y-119160611D01*
X165189313Y-119160621D01*
X165422925Y-119435650D01*
X166699983Y-118158592D01*
X166765130Y-118234870D01*
X166841405Y-118300014D01*
X165567580Y-119573840D01*
X165695655Y-119695158D01*
X165989156Y-119918272D01*
X165989161Y-119918275D01*
X166305070Y-120108352D01*
X166639676Y-120263157D01*
X166989076Y-120380884D01*
X167349128Y-120460137D01*
X167349127Y-120460137D01*
X167715657Y-120500000D01*
X168084343Y-120500000D01*
X168450872Y-120460137D01*
X168810922Y-120380884D01*
X168810924Y-120380884D01*
X169160323Y-120263157D01*
X169494929Y-120108352D01*
X169810838Y-119918275D01*
X169810843Y-119918272D01*
X170104344Y-119695158D01*
X170232418Y-119573840D01*
X168958593Y-118300015D01*
X169034870Y-118234870D01*
X169100015Y-118158593D01*
X170377073Y-119435651D01*
X170610686Y-119160621D01*
X170610693Y-119160611D01*
X170817596Y-118855453D01*
X170990288Y-118529721D01*
X171126753Y-118187217D01*
X171126757Y-118187206D01*
X171225385Y-117831979D01*
X171285034Y-117468143D01*
X171304993Y-117100000D01*
X171285034Y-116731856D01*
X171225385Y-116368020D01*
X171126757Y-116012793D01*
X171126753Y-116012782D01*
X170990288Y-115670278D01*
X170817596Y-115344546D01*
X170610693Y-115039388D01*
X170610686Y-115039378D01*
X170377072Y-114764347D01*
X169100014Y-116041404D01*
X169034870Y-115965130D01*
X168958592Y-115899983D01*
X170232418Y-114626158D01*
X170104344Y-114504841D01*
X169810843Y-114281727D01*
X169810838Y-114281724D01*
X169636547Y-114176856D01*
X169596434Y-114130654D01*
X169591138Y-114069699D01*
X169622682Y-114017272D01*
X169679018Y-113993399D01*
X169699996Y-113993808D01*
X169749006Y-114000000D01*
X170050995Y-114000000D01*
X170350599Y-113962150D01*
X170643107Y-113887047D01*
X170923889Y-113775879D01*
X170923892Y-113775877D01*
X171188516Y-113630400D01*
X171432844Y-113452886D01*
X171524959Y-113366382D01*
X170604191Y-112445614D01*
X170662540Y-112399729D01*
X170745458Y-112304035D01*
X171668648Y-113227225D01*
X171845476Y-113013478D01*
X171916911Y-112900915D01*
X171964056Y-112861914D01*
X172025120Y-112858072D01*
X172076781Y-112890857D01*
X172099305Y-112947746D01*
X172099500Y-112953962D01*
X172099500Y-117097720D01*
X172099394Y-117102292D01*
X172081797Y-117482901D01*
X172080954Y-117492006D01*
X172028627Y-117867129D01*
X172026946Y-117876118D01*
X171940235Y-118244788D01*
X171937733Y-118253583D01*
X171817372Y-118612690D01*
X171814069Y-118621217D01*
X171661087Y-118967689D01*
X171657011Y-118975875D01*
X171472714Y-119306752D01*
X171467900Y-119314527D01*
X171253856Y-119626991D01*
X171248345Y-119634288D01*
X171006395Y-119925659D01*
X171000235Y-119932417D01*
X170732417Y-120200235D01*
X170725659Y-120206395D01*
X170434288Y-120448345D01*
X170426991Y-120453856D01*
X170114527Y-120667900D01*
X170106752Y-120672714D01*
X169775875Y-120857011D01*
X169767689Y-120861087D01*
X169421217Y-121014069D01*
X169412690Y-121017372D01*
X169053583Y-121137733D01*
X169044788Y-121140235D01*
X168676118Y-121226946D01*
X168667129Y-121228627D01*
X168292006Y-121280954D01*
X168282901Y-121281797D01*
X167902293Y-121299394D01*
X167897721Y-121299500D01*
X136902279Y-121299500D01*
X136897707Y-121299394D01*
X136517098Y-121281797D01*
X136507993Y-121280954D01*
X136132870Y-121228627D01*
X136123881Y-121226946D01*
X135755211Y-121140235D01*
X135746416Y-121137733D01*
X135387309Y-121017372D01*
X135378782Y-121014069D01*
X135032310Y-120861087D01*
X135024124Y-120857011D01*
X134693247Y-120672714D01*
X134685472Y-120667900D01*
X134373008Y-120453856D01*
X134365711Y-120448345D01*
X134074340Y-120206395D01*
X134067582Y-120200235D01*
X133799764Y-119932417D01*
X133793604Y-119925659D01*
X133551654Y-119634288D01*
X133546143Y-119626991D01*
X133332099Y-119314527D01*
X133327285Y-119306752D01*
X133142988Y-118975875D01*
X133138912Y-118967689D01*
X132985930Y-118621217D01*
X132982627Y-118612690D01*
X132862266Y-118253583D01*
X132859764Y-118244788D01*
X132825710Y-118099999D01*
X132773051Y-117876108D01*
X132771374Y-117867139D01*
X132719044Y-117492001D01*
X132718202Y-117482901D01*
X132706717Y-117234486D01*
X132700606Y-117102292D01*
X132700553Y-117100000D01*
X133495006Y-117100000D01*
X133514965Y-117468143D01*
X133574614Y-117831979D01*
X133673242Y-118187206D01*
X133673246Y-118187217D01*
X133809711Y-118529721D01*
X133982403Y-118855453D01*
X134189306Y-119160611D01*
X134189313Y-119160621D01*
X134422925Y-119435650D01*
X135699983Y-118158592D01*
X135765130Y-118234870D01*
X135841405Y-118300014D01*
X134567580Y-119573840D01*
X134695655Y-119695158D01*
X134989156Y-119918272D01*
X134989161Y-119918275D01*
X135305070Y-120108352D01*
X135639676Y-120263157D01*
X135989076Y-120380884D01*
X136349128Y-120460137D01*
X136349127Y-120460137D01*
X136715657Y-120500000D01*
X137084343Y-120500000D01*
X137450872Y-120460137D01*
X137810922Y-120380884D01*
X137810924Y-120380884D01*
X138160323Y-120263157D01*
X138494929Y-120108352D01*
X138810838Y-119918275D01*
X138810843Y-119918272D01*
X139104344Y-119695158D01*
X139232418Y-119573840D01*
X137958593Y-118300015D01*
X138034870Y-118234870D01*
X138100015Y-118158593D01*
X139377073Y-119435651D01*
X139610686Y-119160621D01*
X139610693Y-119160611D01*
X139817596Y-118855453D01*
X139990288Y-118529721D01*
X140126753Y-118187217D01*
X140126757Y-118187206D01*
X140225385Y-117831979D01*
X140263417Y-117600000D01*
X149644858Y-117600000D01*
X149665319Y-117742314D01*
X149725048Y-117873100D01*
X149729889Y-117878687D01*
X149997639Y-117610937D01*
X150015514Y-117677645D01*
X150072355Y-117734486D01*
X150130254Y-117750000D01*
X150141421Y-117750000D01*
X149874270Y-118017151D01*
X149940151Y-118059490D01*
X149940156Y-118059492D01*
X150078109Y-118099999D01*
X150078112Y-118100000D01*
X150221888Y-118100000D01*
X150221890Y-118099999D01*
X150359843Y-118059492D01*
X150359844Y-118059492D01*
X150425729Y-118017150D01*
X150158579Y-117750000D01*
X150169746Y-117750000D01*
X150227645Y-117734486D01*
X150284486Y-117677646D01*
X150302359Y-117610939D01*
X150570108Y-117878687D01*
X150570109Y-117878687D01*
X150574950Y-117873102D01*
X150574951Y-117873100D01*
X150634680Y-117742314D01*
X150645889Y-117664358D01*
X150672885Y-117609450D01*
X150726999Y-117580897D01*
X150771774Y-117583458D01*
X150828105Y-117599999D01*
X150828112Y-117600000D01*
X150971888Y-117600000D01*
X150971894Y-117599999D01*
X151028225Y-117583458D01*
X151089385Y-117585204D01*
X151137839Y-117622566D01*
X151154110Y-117664357D01*
X151165319Y-117742314D01*
X151225048Y-117873100D01*
X151229889Y-117878688D01*
X151229890Y-117878688D01*
X151497640Y-117610938D01*
X151515514Y-117677645D01*
X151572355Y-117734486D01*
X151630254Y-117750000D01*
X151641421Y-117750000D01*
X151374270Y-118017151D01*
X151440151Y-118059490D01*
X151440156Y-118059492D01*
X151578109Y-118099999D01*
X151578112Y-118100000D01*
X151721888Y-118100000D01*
X151721890Y-118099999D01*
X151859843Y-118059492D01*
X151859844Y-118059492D01*
X151925729Y-118017150D01*
X151658579Y-117750000D01*
X151669746Y-117750000D01*
X151727645Y-117734486D01*
X151784486Y-117677646D01*
X151802360Y-117610938D01*
X152070109Y-117878687D01*
X152074950Y-117873102D01*
X152074951Y-117873100D01*
X152134680Y-117742314D01*
X152155142Y-117600000D01*
X152155142Y-117599997D01*
X152134680Y-117457685D01*
X152074951Y-117326899D01*
X152070109Y-117321311D01*
X151802359Y-117589060D01*
X151784486Y-117522355D01*
X151727645Y-117465514D01*
X151669746Y-117450000D01*
X151658579Y-117450000D01*
X151925728Y-117182848D01*
X151925679Y-117182394D01*
X151887675Y-117135918D01*
X151884181Y-117074832D01*
X151917260Y-117023359D01*
X151925722Y-117017211D01*
X151925729Y-117017150D01*
X151658580Y-116750000D01*
X151669746Y-116750000D01*
X151727645Y-116734486D01*
X151784486Y-116677646D01*
X151802360Y-116610938D01*
X152070109Y-116878687D01*
X152074950Y-116873102D01*
X152074951Y-116873100D01*
X152134680Y-116742314D01*
X152155142Y-116600000D01*
X152155142Y-116599997D01*
X152134680Y-116457685D01*
X152074951Y-116326899D01*
X152070109Y-116321311D01*
X151802359Y-116589060D01*
X151784486Y-116522355D01*
X151727645Y-116465514D01*
X151669746Y-116450000D01*
X151658577Y-116450000D01*
X151925728Y-116182848D01*
X151859841Y-116140506D01*
X151721890Y-116100000D01*
X151578109Y-116100000D01*
X151440153Y-116140508D01*
X151374270Y-116182847D01*
X151641423Y-116450000D01*
X151630254Y-116450000D01*
X151572355Y-116465514D01*
X151515514Y-116522354D01*
X151497640Y-116589060D01*
X151229890Y-116321310D01*
X151225048Y-116326899D01*
X151225046Y-116326902D01*
X151165319Y-116457685D01*
X151154110Y-116535642D01*
X151127113Y-116590550D01*
X151072999Y-116619102D01*
X151028226Y-116616542D01*
X150971890Y-116600000D01*
X150828107Y-116600000D01*
X150771772Y-116616542D01*
X150710612Y-116614794D01*
X150662159Y-116577432D01*
X150645889Y-116535641D01*
X150634680Y-116457685D01*
X150574951Y-116326899D01*
X150570109Y-116321311D01*
X150302359Y-116589060D01*
X150284486Y-116522355D01*
X150227645Y-116465514D01*
X150169746Y-116450000D01*
X150158577Y-116450000D01*
X150425728Y-116182848D01*
X150359841Y-116140506D01*
X150221890Y-116100000D01*
X150078109Y-116100000D01*
X149940153Y-116140508D01*
X149874270Y-116182847D01*
X150141423Y-116450000D01*
X150130254Y-116450000D01*
X150072355Y-116465514D01*
X150015514Y-116522354D01*
X149997640Y-116589061D01*
X149729889Y-116321311D01*
X149725048Y-116326899D01*
X149725046Y-116326902D01*
X149665319Y-116457685D01*
X149644858Y-116599997D01*
X149644858Y-116600000D01*
X149665319Y-116742314D01*
X149725048Y-116873100D01*
X149729889Y-116878687D01*
X149997639Y-116610937D01*
X150015514Y-116677645D01*
X150072355Y-116734486D01*
X150130254Y-116750000D01*
X150141419Y-116750000D01*
X149874269Y-117017150D01*
X149874318Y-117017605D01*
X149912322Y-117064080D01*
X149915816Y-117125165D01*
X149882737Y-117176638D01*
X149874277Y-117182784D01*
X149874270Y-117182848D01*
X150141420Y-117450000D01*
X150130254Y-117450000D01*
X150072355Y-117465514D01*
X150015514Y-117522354D01*
X149997640Y-117589061D01*
X149729889Y-117321311D01*
X149725048Y-117326899D01*
X149725046Y-117326902D01*
X149665319Y-117457685D01*
X149644858Y-117599997D01*
X149644858Y-117600000D01*
X140263417Y-117600000D01*
X140285034Y-117468143D01*
X140304993Y-117100000D01*
X140285034Y-116731856D01*
X140225385Y-116368020D01*
X140126757Y-116012793D01*
X140126753Y-116012782D01*
X139990288Y-115670278D01*
X139817596Y-115344546D01*
X139610693Y-115039388D01*
X139610686Y-115039378D01*
X139377072Y-114764347D01*
X138100014Y-116041404D01*
X138034870Y-115965130D01*
X137958592Y-115899983D01*
X139232418Y-114626158D01*
X139104344Y-114504841D01*
X138810843Y-114281727D01*
X138810838Y-114281724D01*
X138494929Y-114091647D01*
X138160323Y-113936842D01*
X137810923Y-113819115D01*
X137450871Y-113739862D01*
X137450872Y-113739862D01*
X137084343Y-113700000D01*
X136715657Y-113700000D01*
X136349127Y-113739862D01*
X135989077Y-113819115D01*
X135989075Y-113819115D01*
X135639676Y-113936842D01*
X135305070Y-114091647D01*
X134989161Y-114281724D01*
X134989156Y-114281727D01*
X134695655Y-114504841D01*
X134567580Y-114626158D01*
X135841406Y-115899984D01*
X135765130Y-115965130D01*
X135699984Y-116041406D01*
X134422925Y-114764347D01*
X134189313Y-115039378D01*
X134189306Y-115039388D01*
X133982403Y-115344546D01*
X133809711Y-115670278D01*
X133673246Y-116012782D01*
X133673242Y-116012793D01*
X133574614Y-116368020D01*
X133514965Y-116731856D01*
X133495006Y-117100000D01*
X132700553Y-117100000D01*
X132700500Y-117097720D01*
X132700500Y-111445133D01*
X137196286Y-111445133D01*
X137274853Y-111485164D01*
X137399999Y-111504986D01*
X137400001Y-111504986D01*
X137525147Y-111485164D01*
X137525149Y-111485164D01*
X137603712Y-111445134D01*
X137399999Y-111241421D01*
X137196286Y-111445133D01*
X132700500Y-111445133D01*
X132700500Y-110945133D01*
X136571286Y-110945133D01*
X136649853Y-110985164D01*
X136774999Y-111004986D01*
X136775000Y-111004986D01*
X136881526Y-110988114D01*
X136941958Y-110997685D01*
X136985223Y-111040950D01*
X136993346Y-111092209D01*
X136995014Y-111092209D01*
X136995014Y-111100000D01*
X137014835Y-111225148D01*
X137054864Y-111303713D01*
X137054865Y-111303713D01*
X137226086Y-111132492D01*
X137300000Y-111132492D01*
X137338197Y-111185065D01*
X137384162Y-111200000D01*
X137415838Y-111200000D01*
X137461803Y-111185065D01*
X137500000Y-111132492D01*
X137500000Y-111099999D01*
X137541421Y-111099999D01*
X137745134Y-111303712D01*
X137760783Y-111273000D01*
X143917318Y-111273000D01*
X143937955Y-111429758D01*
X143937957Y-111429766D01*
X143998462Y-111575838D01*
X143998462Y-111575839D01*
X144057346Y-111652578D01*
X144094718Y-111701282D01*
X144220159Y-111797536D01*
X144366238Y-111858044D01*
X144483809Y-111873522D01*
X144522999Y-111878682D01*
X144523000Y-111878682D01*
X144523001Y-111878682D01*
X144554352Y-111874554D01*
X144679762Y-111858044D01*
X144825841Y-111797536D01*
X144951282Y-111701282D01*
X145028998Y-111600000D01*
X147495255Y-111600000D01*
X147514217Y-111901399D01*
X147570802Y-112198027D01*
X147570805Y-112198037D01*
X147664127Y-112485252D01*
X147792706Y-112758495D01*
X147792713Y-112758508D01*
X147954519Y-113013473D01*
X148131350Y-113227225D01*
X149052440Y-112306134D01*
X149064894Y-112323624D01*
X149194355Y-112447065D01*
X148275039Y-113366382D01*
X148367155Y-113452886D01*
X148611483Y-113630400D01*
X148876107Y-113775877D01*
X148876110Y-113775879D01*
X149156892Y-113887047D01*
X149449402Y-113962150D01*
X149449398Y-113962150D01*
X149749005Y-114000000D01*
X150050995Y-114000000D01*
X150350599Y-113962150D01*
X150643107Y-113887047D01*
X150923889Y-113775879D01*
X150923892Y-113775877D01*
X151188516Y-113630400D01*
X151432844Y-113452886D01*
X151524959Y-113366382D01*
X150604191Y-112445614D01*
X150662540Y-112399729D01*
X150745458Y-112304035D01*
X151668648Y-113227225D01*
X151845480Y-113013473D01*
X152007286Y-112758508D01*
X152007293Y-112758495D01*
X152135872Y-112485252D01*
X152229194Y-112198037D01*
X152229197Y-112198027D01*
X152285782Y-111901399D01*
X152304744Y-111600000D01*
X152285782Y-111298600D01*
X152229197Y-111001972D01*
X152229194Y-111001962D01*
X152135872Y-110714747D01*
X152081876Y-110600000D01*
X160294318Y-110600000D01*
X160314955Y-110756758D01*
X160314957Y-110756766D01*
X160375462Y-110902838D01*
X160375462Y-110902839D01*
X160471713Y-111028276D01*
X160471718Y-111028282D01*
X160597159Y-111124536D01*
X160743238Y-111185044D01*
X160856841Y-111200000D01*
X160899999Y-111205682D01*
X160900000Y-111205682D01*
X160900001Y-111205682D01*
X160943159Y-111200000D01*
X161056762Y-111185044D01*
X161202841Y-111124536D01*
X161328282Y-111028282D01*
X161424536Y-110902841D01*
X161485044Y-110756762D01*
X161505682Y-110600000D01*
X161485044Y-110443238D01*
X161427464Y-110304228D01*
X161424537Y-110297161D01*
X161424537Y-110297160D01*
X161328286Y-110171723D01*
X161328285Y-110171722D01*
X161328282Y-110171718D01*
X161328277Y-110171714D01*
X161328276Y-110171713D01*
X161202838Y-110075462D01*
X161056766Y-110014957D01*
X161056758Y-110014955D01*
X160900001Y-109994318D01*
X160899999Y-109994318D01*
X160743241Y-110014955D01*
X160743233Y-110014957D01*
X160597161Y-110075462D01*
X160597160Y-110075462D01*
X160471723Y-110171713D01*
X160471713Y-110171723D01*
X160375462Y-110297160D01*
X160375462Y-110297161D01*
X160314957Y-110443233D01*
X160314955Y-110443241D01*
X160294318Y-110599999D01*
X160294318Y-110600000D01*
X152081876Y-110600000D01*
X152007293Y-110441504D01*
X152007286Y-110441491D01*
X151845480Y-110186526D01*
X151668648Y-109972773D01*
X150747558Y-110893862D01*
X150735106Y-110876376D01*
X150605642Y-110752932D01*
X151524959Y-109833616D01*
X151432844Y-109747113D01*
X151188516Y-109569599D01*
X150923892Y-109424122D01*
X150923889Y-109424120D01*
X150643107Y-109312952D01*
X150350597Y-109237849D01*
X150350601Y-109237849D01*
X150050995Y-109200000D01*
X149749005Y-109200000D01*
X149449400Y-109237849D01*
X149156892Y-109312952D01*
X148876110Y-109424120D01*
X148876107Y-109424122D01*
X148611483Y-109569599D01*
X148367155Y-109747114D01*
X148275039Y-109833616D01*
X149195808Y-110754385D01*
X149137460Y-110800271D01*
X149054541Y-110895964D01*
X148131350Y-109972773D01*
X147954519Y-110186526D01*
X147792707Y-110441503D01*
X147792706Y-110441504D01*
X147664127Y-110714747D01*
X147570805Y-111001962D01*
X147570802Y-111001972D01*
X147514217Y-111298600D01*
X147495255Y-111600000D01*
X145028998Y-111600000D01*
X145047536Y-111575841D01*
X145108044Y-111429762D01*
X145128682Y-111273000D01*
X145108044Y-111116238D01*
X145098091Y-111092209D01*
X145047537Y-110970161D01*
X145047537Y-110970160D01*
X144951286Y-110844723D01*
X144951285Y-110844722D01*
X144951282Y-110844718D01*
X144951277Y-110844714D01*
X144951276Y-110844713D01*
X144851090Y-110767838D01*
X144825841Y-110748464D01*
X144825840Y-110748463D01*
X144825838Y-110748462D01*
X144679766Y-110687957D01*
X144679758Y-110687955D01*
X144523001Y-110667318D01*
X144522999Y-110667318D01*
X144366241Y-110687955D01*
X144366233Y-110687957D01*
X144220161Y-110748462D01*
X144220160Y-110748462D01*
X144094723Y-110844713D01*
X144094713Y-110844723D01*
X143998462Y-110970160D01*
X143998462Y-110970161D01*
X143937957Y-111116233D01*
X143937955Y-111116241D01*
X143917318Y-111272999D01*
X143917318Y-111273000D01*
X137760783Y-111273000D01*
X137785164Y-111225149D01*
X137785164Y-111225147D01*
X137804986Y-111100000D01*
X137804986Y-111092208D01*
X137806658Y-111092208D01*
X137814776Y-111040952D01*
X137858039Y-110997686D01*
X137918471Y-110988114D01*
X137918473Y-110988114D01*
X138024999Y-111004986D01*
X138025001Y-111004986D01*
X138150147Y-110985164D01*
X138150149Y-110985164D01*
X138228712Y-110945134D01*
X138024999Y-110741421D01*
X137852465Y-110913954D01*
X137797949Y-110941731D01*
X137737517Y-110932159D01*
X137719862Y-110919333D01*
X137713954Y-110927465D01*
X137541421Y-111099999D01*
X137500000Y-111099999D01*
X137500000Y-111067508D01*
X137461803Y-111014935D01*
X137415838Y-111000000D01*
X137384162Y-111000000D01*
X137338197Y-111014935D01*
X137300000Y-111067508D01*
X137300000Y-111132492D01*
X137226086Y-111132492D01*
X137258578Y-111100000D01*
X137086044Y-110927466D01*
X137080886Y-110917343D01*
X137033023Y-110941731D01*
X136972591Y-110932160D01*
X136947532Y-110913954D01*
X136774999Y-110741421D01*
X136571286Y-110945133D01*
X132700500Y-110945133D01*
X132700500Y-110600000D01*
X136370014Y-110600000D01*
X136389835Y-110725148D01*
X136429864Y-110803713D01*
X136429865Y-110803713D01*
X136601086Y-110632492D01*
X136675000Y-110632492D01*
X136713197Y-110685065D01*
X136759162Y-110700000D01*
X136790838Y-110700000D01*
X136836803Y-110685065D01*
X136875000Y-110632492D01*
X136875000Y-110599999D01*
X136916421Y-110599999D01*
X137088954Y-110772532D01*
X137094111Y-110782654D01*
X137141975Y-110758267D01*
X137202407Y-110767838D01*
X137227466Y-110786044D01*
X137400000Y-110958578D01*
X137572532Y-110786045D01*
X137627049Y-110758267D01*
X137687481Y-110767838D01*
X137705135Y-110780664D01*
X137711045Y-110772532D01*
X137851086Y-110632492D01*
X137925000Y-110632492D01*
X137963197Y-110685065D01*
X138009162Y-110700000D01*
X138040838Y-110700000D01*
X138086803Y-110685065D01*
X138125000Y-110632492D01*
X138125000Y-110599999D01*
X138166421Y-110599999D01*
X138370134Y-110803712D01*
X138410164Y-110725149D01*
X138410164Y-110725147D01*
X138429986Y-110600000D01*
X138429986Y-110599999D01*
X138410164Y-110474853D01*
X138370133Y-110396286D01*
X138166421Y-110599999D01*
X138125000Y-110599999D01*
X138125000Y-110567508D01*
X138086803Y-110514935D01*
X138040838Y-110500000D01*
X138009162Y-110500000D01*
X137963197Y-110514935D01*
X137925000Y-110567508D01*
X137925000Y-110632492D01*
X137851086Y-110632492D01*
X137883578Y-110600000D01*
X137711044Y-110427466D01*
X137705886Y-110417343D01*
X137658023Y-110441731D01*
X137597591Y-110432160D01*
X137572532Y-110413954D01*
X137399999Y-110241421D01*
X137227465Y-110413954D01*
X137172949Y-110441731D01*
X137112517Y-110432159D01*
X137094862Y-110419333D01*
X137088954Y-110427465D01*
X136916421Y-110599999D01*
X136875000Y-110599999D01*
X136875000Y-110567508D01*
X136836803Y-110514935D01*
X136790838Y-110500000D01*
X136759162Y-110500000D01*
X136713197Y-110514935D01*
X136675000Y-110567508D01*
X136675000Y-110632492D01*
X136601086Y-110632492D01*
X136633578Y-110600000D01*
X136429864Y-110396286D01*
X136389835Y-110474850D01*
X136389835Y-110474851D01*
X136370014Y-110599999D01*
X136370014Y-110600000D01*
X132700500Y-110600000D01*
X132700500Y-110254864D01*
X136571286Y-110254864D01*
X136775000Y-110458578D01*
X136947532Y-110286045D01*
X137002049Y-110258267D01*
X137062481Y-110267838D01*
X137080135Y-110280664D01*
X137086045Y-110272532D01*
X137226086Y-110132492D01*
X137300000Y-110132492D01*
X137338197Y-110185065D01*
X137384162Y-110200000D01*
X137415838Y-110200000D01*
X137461803Y-110185065D01*
X137500000Y-110132492D01*
X137500000Y-110099999D01*
X137541421Y-110099999D01*
X137713954Y-110272532D01*
X137719111Y-110282654D01*
X137766975Y-110258267D01*
X137827407Y-110267838D01*
X137852466Y-110286044D01*
X138025000Y-110458578D01*
X138228713Y-110254865D01*
X138228713Y-110254864D01*
X138150148Y-110214835D01*
X138025001Y-110195014D01*
X138024998Y-110195014D01*
X137918472Y-110211885D01*
X137858040Y-110202313D01*
X137814776Y-110159048D01*
X137806658Y-110107792D01*
X137804986Y-110107792D01*
X137804986Y-110099999D01*
X137785164Y-109974853D01*
X137745133Y-109896286D01*
X137541421Y-110099999D01*
X137500000Y-110099999D01*
X137500000Y-110067508D01*
X137461803Y-110014935D01*
X137415838Y-110000000D01*
X137384162Y-110000000D01*
X137338197Y-110014935D01*
X137300000Y-110067508D01*
X137300000Y-110132492D01*
X137226086Y-110132492D01*
X137258578Y-110100000D01*
X137054864Y-109896286D01*
X137014835Y-109974850D01*
X137014835Y-109974851D01*
X136995014Y-110099999D01*
X136995014Y-110107791D01*
X136993344Y-110107791D01*
X136985217Y-110159061D01*
X136941946Y-110202320D01*
X136881527Y-110211885D01*
X136775002Y-110195014D01*
X136774999Y-110195014D01*
X136649851Y-110214835D01*
X136649850Y-110214835D01*
X136571286Y-110254864D01*
X132700500Y-110254864D01*
X132700500Y-109754864D01*
X137196286Y-109754864D01*
X137400000Y-109958578D01*
X137603713Y-109754865D01*
X137603713Y-109754864D01*
X137525148Y-109714835D01*
X137400001Y-109695014D01*
X137399999Y-109695014D01*
X137274851Y-109714835D01*
X137274850Y-109714835D01*
X137196286Y-109754864D01*
X132700500Y-109754864D01*
X132700500Y-107600000D01*
X134294318Y-107600000D01*
X134314955Y-107756758D01*
X134314957Y-107756766D01*
X134375462Y-107902838D01*
X134375462Y-107902839D01*
X134471713Y-108028276D01*
X134471718Y-108028282D01*
X134597159Y-108124536D01*
X134743238Y-108185044D01*
X134860809Y-108200522D01*
X134899999Y-108205682D01*
X134900000Y-108205682D01*
X134900001Y-108205682D01*
X134931352Y-108201554D01*
X135056762Y-108185044D01*
X135202841Y-108124536D01*
X135328282Y-108028282D01*
X135424536Y-107902841D01*
X135485044Y-107756762D01*
X135500468Y-107639605D01*
X153754713Y-107639605D01*
X153775350Y-107796363D01*
X153775352Y-107796371D01*
X153835857Y-107942443D01*
X153835857Y-107942444D01*
X153835859Y-107942446D01*
X153932113Y-108067887D01*
X154057554Y-108164141D01*
X154057555Y-108164141D01*
X154057556Y-108164142D01*
X154203628Y-108224647D01*
X154203633Y-108224649D01*
X154321204Y-108240127D01*
X154360394Y-108245287D01*
X154360395Y-108245287D01*
X154360396Y-108245287D01*
X154391747Y-108241159D01*
X154517157Y-108224649D01*
X154663236Y-108164141D01*
X154788677Y-108067887D01*
X154884931Y-107942446D01*
X154945439Y-107796367D01*
X154966077Y-107639605D01*
X154945439Y-107482843D01*
X154884932Y-107336766D01*
X154884932Y-107336765D01*
X154788681Y-107211328D01*
X154788680Y-107211327D01*
X154788677Y-107211323D01*
X154788672Y-107211319D01*
X154788671Y-107211318D01*
X154675575Y-107124537D01*
X154663236Y-107115069D01*
X154663235Y-107115068D01*
X154663233Y-107115067D01*
X154517161Y-107054562D01*
X154517153Y-107054560D01*
X154360396Y-107033923D01*
X154360394Y-107033923D01*
X154203636Y-107054560D01*
X154203628Y-107054562D01*
X154057556Y-107115067D01*
X154057555Y-107115067D01*
X153932118Y-107211318D01*
X153932108Y-107211328D01*
X153835857Y-107336765D01*
X153835857Y-107336766D01*
X153775352Y-107482838D01*
X153775350Y-107482846D01*
X153754713Y-107639604D01*
X153754713Y-107639605D01*
X135500468Y-107639605D01*
X135505682Y-107600000D01*
X135485044Y-107443238D01*
X135440942Y-107336766D01*
X135424537Y-107297161D01*
X135424537Y-107297160D01*
X135328286Y-107171723D01*
X135328285Y-107171722D01*
X135328282Y-107171718D01*
X135328277Y-107171714D01*
X135328276Y-107171713D01*
X135202838Y-107075462D01*
X135056766Y-107014957D01*
X135056758Y-107014955D01*
X134900001Y-106994318D01*
X134899999Y-106994318D01*
X134743241Y-107014955D01*
X134743233Y-107014957D01*
X134597161Y-107075462D01*
X134597160Y-107075462D01*
X134471723Y-107171713D01*
X134471713Y-107171723D01*
X134375462Y-107297160D01*
X134375462Y-107297161D01*
X134314957Y-107443233D01*
X134314955Y-107443241D01*
X134294318Y-107599999D01*
X134294318Y-107600000D01*
X132700500Y-107600000D01*
X132700500Y-106600000D01*
X148994508Y-106600000D01*
X149002389Y-106649762D01*
X149014354Y-106725303D01*
X149014355Y-106725307D01*
X149050967Y-106797161D01*
X149071950Y-106838342D01*
X149161658Y-106928050D01*
X149274696Y-106985646D01*
X149400000Y-107005492D01*
X149525304Y-106985646D01*
X149638342Y-106928050D01*
X149704997Y-106861394D01*
X149759511Y-106833618D01*
X149819943Y-106843189D01*
X149844999Y-106861392D01*
X149911657Y-106928050D01*
X150024695Y-106985646D01*
X150149999Y-107005492D01*
X150275303Y-106985646D01*
X150388341Y-106928050D01*
X150478049Y-106838342D01*
X150535645Y-106725304D01*
X150555491Y-106600000D01*
X150535645Y-106474696D01*
X150478049Y-106361658D01*
X150463315Y-106346924D01*
X151551493Y-106346924D01*
X151572130Y-106503682D01*
X151572132Y-106503690D01*
X151632637Y-106649762D01*
X151632637Y-106649763D01*
X151728888Y-106775200D01*
X151728893Y-106775206D01*
X151854334Y-106871460D01*
X152000413Y-106931968D01*
X152117984Y-106947446D01*
X152157174Y-106952606D01*
X152157175Y-106952606D01*
X152157176Y-106952606D01*
X152188527Y-106948478D01*
X152313937Y-106931968D01*
X152460016Y-106871460D01*
X152585457Y-106775206D01*
X152681711Y-106649765D01*
X152702324Y-106600000D01*
X155494508Y-106600000D01*
X155502389Y-106649762D01*
X155514354Y-106725303D01*
X155514355Y-106725307D01*
X155550967Y-106797161D01*
X155571950Y-106838342D01*
X155661658Y-106928050D01*
X155774696Y-106985646D01*
X155900000Y-107005492D01*
X156025304Y-106985646D01*
X156138342Y-106928050D01*
X156228050Y-106838342D01*
X156285646Y-106725304D01*
X156305492Y-106600000D01*
X157294318Y-106600000D01*
X157314955Y-106756758D01*
X157314957Y-106756766D01*
X157375461Y-106902836D01*
X157375462Y-106902839D01*
X157461493Y-107014957D01*
X157471718Y-107028282D01*
X157471722Y-107028285D01*
X157471723Y-107028286D01*
X157501082Y-107050813D01*
X157597159Y-107124536D01*
X157743238Y-107185044D01*
X157860809Y-107200522D01*
X157899999Y-107205682D01*
X157900000Y-107205682D01*
X157900001Y-107205682D01*
X157931352Y-107201554D01*
X158056762Y-107185044D01*
X158202841Y-107124536D01*
X158234817Y-107100000D01*
X164794318Y-107100000D01*
X164814955Y-107256758D01*
X164814957Y-107256766D01*
X164875462Y-107402838D01*
X164875462Y-107402839D01*
X164971713Y-107528276D01*
X164971718Y-107528282D01*
X165097159Y-107624536D01*
X165097160Y-107624536D01*
X165097161Y-107624537D01*
X165243233Y-107685042D01*
X165243238Y-107685044D01*
X165360809Y-107700522D01*
X165399999Y-107705682D01*
X165400000Y-107705682D01*
X165400001Y-107705682D01*
X165431352Y-107701554D01*
X165556762Y-107685044D01*
X165702841Y-107624536D01*
X165828282Y-107528282D01*
X165924536Y-107402841D01*
X165985044Y-107256762D01*
X166005682Y-107100000D01*
X165985044Y-106943238D01*
X165951144Y-106861396D01*
X165924537Y-106797161D01*
X165924537Y-106797160D01*
X165828286Y-106671723D01*
X165828285Y-106671722D01*
X165828282Y-106671718D01*
X165828277Y-106671714D01*
X165828276Y-106671713D01*
X165702838Y-106575462D01*
X165556766Y-106514957D01*
X165556758Y-106514955D01*
X165400001Y-106494318D01*
X165399999Y-106494318D01*
X165243241Y-106514955D01*
X165243233Y-106514957D01*
X165097161Y-106575462D01*
X165097160Y-106575462D01*
X164971723Y-106671713D01*
X164971713Y-106671723D01*
X164875462Y-106797160D01*
X164875462Y-106797161D01*
X164814957Y-106943233D01*
X164814955Y-106943241D01*
X164794318Y-107099999D01*
X164794318Y-107100000D01*
X158234817Y-107100000D01*
X158328282Y-107028282D01*
X158424536Y-106902841D01*
X158424537Y-106902839D01*
X158424539Y-106902836D01*
X158468721Y-106796168D01*
X158485044Y-106756762D01*
X158505682Y-106600000D01*
X158485044Y-106443238D01*
X158451253Y-106361659D01*
X158424537Y-106297161D01*
X158424537Y-106297160D01*
X158328286Y-106171723D01*
X158328285Y-106171722D01*
X158328282Y-106171718D01*
X158328277Y-106171714D01*
X158328276Y-106171713D01*
X158202838Y-106075462D01*
X158056766Y-106014957D01*
X158056758Y-106014955D01*
X157900001Y-105994318D01*
X157899999Y-105994318D01*
X157743241Y-106014955D01*
X157743233Y-106014957D01*
X157597161Y-106075462D01*
X157597160Y-106075462D01*
X157471723Y-106171713D01*
X157471713Y-106171723D01*
X157375462Y-106297160D01*
X157375462Y-106297161D01*
X157314957Y-106443233D01*
X157314955Y-106443241D01*
X157294318Y-106599999D01*
X157294318Y-106600000D01*
X156305492Y-106600000D01*
X156285646Y-106474696D01*
X156228050Y-106361658D01*
X156138342Y-106271950D01*
X156134406Y-106269944D01*
X156025307Y-106214355D01*
X156025304Y-106214354D01*
X155900000Y-106194508D01*
X155774696Y-106214354D01*
X155774692Y-106214355D01*
X155661659Y-106271949D01*
X155571949Y-106361659D01*
X155514355Y-106474692D01*
X155514354Y-106474696D01*
X155507978Y-106514956D01*
X155494508Y-106600000D01*
X152702324Y-106600000D01*
X152742219Y-106503686D01*
X152762857Y-106346924D01*
X152742219Y-106190162D01*
X152715036Y-106124536D01*
X152681712Y-106044085D01*
X152681712Y-106044084D01*
X152585461Y-105918647D01*
X152585460Y-105918646D01*
X152585457Y-105918642D01*
X152585452Y-105918638D01*
X152585451Y-105918637D01*
X152514279Y-105864025D01*
X152460016Y-105822388D01*
X152460015Y-105822387D01*
X152460013Y-105822386D01*
X152313941Y-105761881D01*
X152313933Y-105761879D01*
X152157176Y-105741242D01*
X152157174Y-105741242D01*
X152000416Y-105761879D01*
X152000408Y-105761881D01*
X151854336Y-105822386D01*
X151854335Y-105822386D01*
X151728898Y-105918637D01*
X151728888Y-105918647D01*
X151632637Y-106044084D01*
X151632637Y-106044085D01*
X151572132Y-106190157D01*
X151572130Y-106190165D01*
X151551493Y-106346923D01*
X151551493Y-106346924D01*
X150463315Y-106346924D01*
X150388341Y-106271950D01*
X150384405Y-106269944D01*
X150275306Y-106214355D01*
X150275303Y-106214354D01*
X150149999Y-106194508D01*
X150024695Y-106214354D01*
X150024691Y-106214355D01*
X149911657Y-106271950D01*
X149911655Y-106271951D01*
X149845002Y-106338604D01*
X149790485Y-106366381D01*
X149730053Y-106356809D01*
X149704998Y-106338606D01*
X149638342Y-106271950D01*
X149634406Y-106269944D01*
X149525307Y-106214355D01*
X149525304Y-106214354D01*
X149400000Y-106194508D01*
X149274696Y-106214354D01*
X149274692Y-106214355D01*
X149161659Y-106271949D01*
X149071949Y-106361659D01*
X149014355Y-106474692D01*
X149014354Y-106474696D01*
X149007978Y-106514956D01*
X148994508Y-106600000D01*
X132700500Y-106600000D01*
X132700500Y-105600000D01*
X147794318Y-105600000D01*
X147814955Y-105756758D01*
X147814957Y-105756766D01*
X147875461Y-105902836D01*
X147875462Y-105902839D01*
X147961493Y-106014957D01*
X147971718Y-106028282D01*
X148097159Y-106124536D01*
X148243238Y-106185044D01*
X148360809Y-106200522D01*
X148399999Y-106205682D01*
X148400000Y-106205682D01*
X148400001Y-106205682D01*
X148431352Y-106201554D01*
X148556762Y-106185044D01*
X148702841Y-106124536D01*
X148828282Y-106028282D01*
X148924536Y-105902841D01*
X148924537Y-105902839D01*
X148924539Y-105902836D01*
X148968721Y-105796168D01*
X148985044Y-105756762D01*
X149005682Y-105600000D01*
X156494508Y-105600000D01*
X156514354Y-105725303D01*
X156514355Y-105725307D01*
X156532990Y-105761879D01*
X156571950Y-105838342D01*
X156661658Y-105928050D01*
X156774696Y-105985646D01*
X156900000Y-106005492D01*
X157025304Y-105985646D01*
X157138342Y-105928050D01*
X157228050Y-105838342D01*
X157285646Y-105725304D01*
X157305492Y-105600000D01*
X168294318Y-105600000D01*
X168314955Y-105756758D01*
X168314957Y-105756766D01*
X168375461Y-105902836D01*
X168375462Y-105902839D01*
X168461493Y-106014957D01*
X168471718Y-106028282D01*
X168597159Y-106124536D01*
X168743238Y-106185044D01*
X168860809Y-106200522D01*
X168899999Y-106205682D01*
X168900000Y-106205682D01*
X168900001Y-106205682D01*
X168931352Y-106201554D01*
X169056762Y-106185044D01*
X169202841Y-106124536D01*
X169328282Y-106028282D01*
X169424536Y-105902841D01*
X169424537Y-105902839D01*
X169424539Y-105902836D01*
X169468721Y-105796168D01*
X169485044Y-105756762D01*
X169505682Y-105600000D01*
X169485044Y-105443238D01*
X169451253Y-105361659D01*
X169424537Y-105297161D01*
X169424537Y-105297160D01*
X169328286Y-105171723D01*
X169328285Y-105171722D01*
X169328282Y-105171718D01*
X169328277Y-105171714D01*
X169328276Y-105171713D01*
X169202838Y-105075462D01*
X169056766Y-105014957D01*
X169056758Y-105014955D01*
X168900001Y-104994318D01*
X168899999Y-104994318D01*
X168743241Y-105014955D01*
X168743233Y-105014957D01*
X168597161Y-105075462D01*
X168597160Y-105075462D01*
X168471723Y-105171713D01*
X168471713Y-105171723D01*
X168375462Y-105297160D01*
X168375462Y-105297161D01*
X168314957Y-105443233D01*
X168314955Y-105443241D01*
X168294318Y-105599999D01*
X168294318Y-105600000D01*
X157305492Y-105600000D01*
X157285646Y-105474696D01*
X157228050Y-105361658D01*
X157138342Y-105271950D01*
X157134406Y-105269944D01*
X157025307Y-105214355D01*
X157025304Y-105214354D01*
X156900000Y-105194508D01*
X156774696Y-105214354D01*
X156774692Y-105214355D01*
X156661659Y-105271949D01*
X156571949Y-105361659D01*
X156514355Y-105474692D01*
X156514354Y-105474696D01*
X156494508Y-105599999D01*
X156494508Y-105600000D01*
X149005682Y-105600000D01*
X148985044Y-105443238D01*
X148951253Y-105361659D01*
X148924537Y-105297161D01*
X148924537Y-105297160D01*
X148828286Y-105171723D01*
X148828285Y-105171722D01*
X148828282Y-105171718D01*
X148828277Y-105171714D01*
X148828276Y-105171713D01*
X148702838Y-105075462D01*
X148556766Y-105014957D01*
X148556758Y-105014955D01*
X148400001Y-104994318D01*
X148399999Y-104994318D01*
X148243241Y-105014955D01*
X148243233Y-105014957D01*
X148097161Y-105075462D01*
X148097160Y-105075462D01*
X147971723Y-105171713D01*
X147971713Y-105171723D01*
X147875462Y-105297160D01*
X147875462Y-105297161D01*
X147814957Y-105443233D01*
X147814955Y-105443241D01*
X147794318Y-105599999D01*
X147794318Y-105600000D01*
X132700500Y-105600000D01*
X132700500Y-104600000D01*
X156994508Y-104600000D01*
X157014354Y-104725303D01*
X157014355Y-104725307D01*
X157069944Y-104834406D01*
X157071950Y-104838342D01*
X157161658Y-104928050D01*
X157274696Y-104985646D01*
X157400000Y-105005492D01*
X157525304Y-104985646D01*
X157638342Y-104928050D01*
X157728050Y-104838342D01*
X157785646Y-104725304D01*
X157805492Y-104600000D01*
X157785646Y-104474696D01*
X157728050Y-104361658D01*
X157638342Y-104271950D01*
X157634406Y-104269944D01*
X157525307Y-104214355D01*
X157525304Y-104214354D01*
X157400000Y-104194508D01*
X157274696Y-104214354D01*
X157274692Y-104214355D01*
X157161659Y-104271949D01*
X157071949Y-104361659D01*
X157014355Y-104474692D01*
X157014354Y-104474696D01*
X156994508Y-104599999D01*
X156994508Y-104600000D01*
X132700500Y-104600000D01*
X132700500Y-103973000D01*
X162294318Y-103973000D01*
X162314955Y-104129758D01*
X162314957Y-104129766D01*
X162375462Y-104275838D01*
X162375462Y-104275839D01*
X162441314Y-104361659D01*
X162471718Y-104401282D01*
X162597159Y-104497536D01*
X162743238Y-104558044D01*
X162860809Y-104573522D01*
X162899999Y-104578682D01*
X162900000Y-104578682D01*
X162900001Y-104578682D01*
X162931352Y-104574554D01*
X163056762Y-104558044D01*
X163202841Y-104497536D01*
X163328282Y-104401282D01*
X163424536Y-104275841D01*
X163485044Y-104129762D01*
X163505682Y-103973000D01*
X163485044Y-103816238D01*
X163424537Y-103670161D01*
X163424537Y-103670160D01*
X163328286Y-103544723D01*
X163328285Y-103544722D01*
X163328282Y-103544718D01*
X163328277Y-103544714D01*
X163328276Y-103544713D01*
X163237869Y-103475342D01*
X163202841Y-103448464D01*
X163202840Y-103448463D01*
X163202838Y-103448462D01*
X163056766Y-103387957D01*
X163056758Y-103387955D01*
X162900001Y-103367318D01*
X162899999Y-103367318D01*
X162743241Y-103387955D01*
X162743233Y-103387957D01*
X162597161Y-103448462D01*
X162597160Y-103448462D01*
X162471723Y-103544713D01*
X162471713Y-103544723D01*
X162375462Y-103670160D01*
X162375462Y-103670161D01*
X162314957Y-103816233D01*
X162314955Y-103816241D01*
X162294318Y-103972999D01*
X162294318Y-103973000D01*
X132700500Y-103973000D01*
X132700500Y-103237000D01*
X156994508Y-103237000D01*
X157014354Y-103362303D01*
X157014355Y-103362307D01*
X157027424Y-103387956D01*
X157071950Y-103475342D01*
X157161658Y-103565050D01*
X157274696Y-103622646D01*
X157400000Y-103642492D01*
X157525304Y-103622646D01*
X157638342Y-103565050D01*
X157728050Y-103475342D01*
X157785646Y-103362304D01*
X157805492Y-103237000D01*
X157785646Y-103111696D01*
X157728050Y-102998658D01*
X157638342Y-102908950D01*
X157634406Y-102906944D01*
X157525307Y-102851355D01*
X157525304Y-102851354D01*
X157400000Y-102831508D01*
X157274696Y-102851354D01*
X157274692Y-102851355D01*
X157161659Y-102908949D01*
X157071949Y-102998659D01*
X157014355Y-103111692D01*
X157014354Y-103111696D01*
X156994508Y-103236999D01*
X156994508Y-103237000D01*
X132700500Y-103237000D01*
X132700500Y-102586376D01*
X145407508Y-102586376D01*
X145427354Y-102711679D01*
X145427355Y-102711683D01*
X145482944Y-102820782D01*
X145484950Y-102824718D01*
X145574658Y-102914426D01*
X145687696Y-102972022D01*
X145813000Y-102991868D01*
X145938304Y-102972022D01*
X146051342Y-102914426D01*
X146141050Y-102824718D01*
X146198646Y-102711680D01*
X146218492Y-102586376D01*
X146198646Y-102461072D01*
X146141050Y-102348034D01*
X146051342Y-102258326D01*
X146047406Y-102256320D01*
X145938307Y-102200731D01*
X145938304Y-102200730D01*
X145813000Y-102180884D01*
X145687696Y-102200730D01*
X145687692Y-102200731D01*
X145574659Y-102258325D01*
X145484949Y-102348035D01*
X145427355Y-102461068D01*
X145427354Y-102461072D01*
X145407508Y-102586375D01*
X145407508Y-102586376D01*
X132700500Y-102586376D01*
X132700500Y-102058126D01*
X159994508Y-102058126D01*
X160014354Y-102183429D01*
X160014355Y-102183433D01*
X160069944Y-102292532D01*
X160071950Y-102296468D01*
X160161658Y-102386176D01*
X160274696Y-102443772D01*
X160400000Y-102463618D01*
X160525304Y-102443772D01*
X160638342Y-102386176D01*
X160728050Y-102296468D01*
X160785646Y-102183430D01*
X160798860Y-102100000D01*
X161794318Y-102100000D01*
X161814955Y-102256758D01*
X161814957Y-102256766D01*
X161875462Y-102402838D01*
X161875462Y-102402839D01*
X161971713Y-102528276D01*
X161971718Y-102528282D01*
X162097159Y-102624536D01*
X162243238Y-102685044D01*
X162360809Y-102700522D01*
X162399999Y-102705682D01*
X162400000Y-102705682D01*
X162400001Y-102705682D01*
X162431352Y-102701554D01*
X162556762Y-102685044D01*
X162702841Y-102624536D01*
X162828282Y-102528282D01*
X162924536Y-102402841D01*
X162985044Y-102256762D01*
X163005682Y-102100000D01*
X162985044Y-101943238D01*
X162924537Y-101797161D01*
X162924537Y-101797160D01*
X162828286Y-101671723D01*
X162828285Y-101671722D01*
X162828282Y-101671718D01*
X162828277Y-101671714D01*
X162828276Y-101671713D01*
X162734817Y-101600000D01*
X167744508Y-101600000D01*
X167764354Y-101725303D01*
X167764355Y-101725307D01*
X167800967Y-101797161D01*
X167821950Y-101838342D01*
X167911658Y-101928050D01*
X168024696Y-101985646D01*
X168150000Y-102005492D01*
X168275304Y-101985646D01*
X168388342Y-101928050D01*
X168478050Y-101838342D01*
X168535646Y-101725304D01*
X168555492Y-101600000D01*
X168535646Y-101474696D01*
X168478050Y-101361658D01*
X168388342Y-101271950D01*
X168384406Y-101269944D01*
X168275307Y-101214355D01*
X168275304Y-101214354D01*
X168150000Y-101194508D01*
X168024696Y-101214354D01*
X168024692Y-101214355D01*
X167911659Y-101271949D01*
X167821949Y-101361659D01*
X167764355Y-101474692D01*
X167764354Y-101474696D01*
X167744508Y-101599999D01*
X167744508Y-101600000D01*
X162734817Y-101600000D01*
X162707540Y-101579070D01*
X162702841Y-101575464D01*
X162702840Y-101575463D01*
X162702838Y-101575462D01*
X162556766Y-101514957D01*
X162556758Y-101514955D01*
X162400001Y-101494318D01*
X162399999Y-101494318D01*
X162243241Y-101514955D01*
X162243233Y-101514957D01*
X162097161Y-101575462D01*
X162097160Y-101575462D01*
X161971723Y-101671713D01*
X161971713Y-101671723D01*
X161875462Y-101797160D01*
X161875462Y-101797161D01*
X161814957Y-101943233D01*
X161814955Y-101943241D01*
X161794318Y-102099999D01*
X161794318Y-102100000D01*
X160798860Y-102100000D01*
X160805492Y-102058126D01*
X160785646Y-101932822D01*
X160728050Y-101819784D01*
X160638342Y-101730076D01*
X160628975Y-101725303D01*
X160518361Y-101668942D01*
X160519260Y-101667176D01*
X160478078Y-101637260D01*
X160459166Y-101579070D01*
X160478069Y-101520878D01*
X160519259Y-101490947D01*
X160518361Y-101489184D01*
X160548948Y-101473598D01*
X160638342Y-101428050D01*
X160728050Y-101338342D01*
X160785646Y-101225304D01*
X160805492Y-101100000D01*
X160785646Y-100974696D01*
X160728050Y-100861658D01*
X160638342Y-100771950D01*
X160608526Y-100756758D01*
X160525307Y-100714355D01*
X160525304Y-100714354D01*
X160400000Y-100694508D01*
X160274696Y-100714354D01*
X160274692Y-100714355D01*
X160161659Y-100771949D01*
X160071949Y-100861659D01*
X160014355Y-100974692D01*
X160014354Y-100974696D01*
X159996782Y-101085645D01*
X159994508Y-101100000D01*
X160009476Y-101194508D01*
X160014354Y-101225303D01*
X160014355Y-101225307D01*
X160038121Y-101271949D01*
X160071950Y-101338342D01*
X160161658Y-101428050D01*
X160232891Y-101464345D01*
X160281639Y-101489184D01*
X160280739Y-101490949D01*
X160321925Y-101520871D01*
X160340833Y-101579061D01*
X160321927Y-101637253D01*
X160280739Y-101667177D01*
X160281639Y-101668942D01*
X160161659Y-101730075D01*
X160071949Y-101819785D01*
X160014355Y-101932818D01*
X160014354Y-101932822D01*
X159994508Y-102058125D01*
X159994508Y-102058126D01*
X132700500Y-102058126D01*
X132700500Y-100600000D01*
X145994508Y-100600000D01*
X146009476Y-100694508D01*
X146014354Y-100725303D01*
X146014355Y-100725307D01*
X146038121Y-100771949D01*
X146071950Y-100838342D01*
X146161658Y-100928050D01*
X146274696Y-100985646D01*
X146400000Y-101005492D01*
X146525304Y-100985646D01*
X146638342Y-100928050D01*
X146728050Y-100838342D01*
X146785646Y-100725304D01*
X146789654Y-100700000D01*
X146994508Y-100700000D01*
X147005903Y-100771949D01*
X147014354Y-100825303D01*
X147014355Y-100825307D01*
X147020996Y-100838340D01*
X147071950Y-100938342D01*
X147161658Y-101028050D01*
X147274696Y-101085646D01*
X147400000Y-101105492D01*
X147525304Y-101085646D01*
X147638342Y-101028050D01*
X147728050Y-100938342D01*
X147785646Y-100825304D01*
X147805492Y-100700000D01*
X147789654Y-100600000D01*
X161794318Y-100600000D01*
X161814955Y-100756758D01*
X161814957Y-100756766D01*
X161875461Y-100902836D01*
X161875462Y-100902839D01*
X161971540Y-101028050D01*
X161971718Y-101028282D01*
X162097159Y-101124536D01*
X162243238Y-101185044D01*
X162360809Y-101200522D01*
X162399999Y-101205682D01*
X162400000Y-101205682D01*
X162400001Y-101205682D01*
X162431352Y-101201554D01*
X162556762Y-101185044D01*
X162702841Y-101124536D01*
X162828282Y-101028282D01*
X162924536Y-100902841D01*
X162924537Y-100902839D01*
X162924539Y-100902836D01*
X162985042Y-100756766D01*
X162985044Y-100756762D01*
X163005682Y-100600000D01*
X162985044Y-100443238D01*
X162978753Y-100428050D01*
X162924537Y-100297161D01*
X162924537Y-100297160D01*
X162828286Y-100171723D01*
X162828285Y-100171722D01*
X162828282Y-100171718D01*
X162828277Y-100171714D01*
X162828276Y-100171713D01*
X162734817Y-100100000D01*
X168244508Y-100100000D01*
X168259476Y-100194508D01*
X168264354Y-100225303D01*
X168264355Y-100225307D01*
X168300967Y-100297161D01*
X168321950Y-100338342D01*
X168411658Y-100428050D01*
X168524696Y-100485646D01*
X168650000Y-100505492D01*
X168775304Y-100485646D01*
X168888342Y-100428050D01*
X168978050Y-100338342D01*
X169035646Y-100225304D01*
X169055492Y-100100000D01*
X169035646Y-99974696D01*
X168978050Y-99861658D01*
X168888342Y-99771950D01*
X168884406Y-99769944D01*
X168775307Y-99714355D01*
X168775304Y-99714354D01*
X168650000Y-99694508D01*
X168524696Y-99714354D01*
X168524692Y-99714355D01*
X168411659Y-99771949D01*
X168321949Y-99861659D01*
X168264355Y-99974692D01*
X168264354Y-99974696D01*
X168246355Y-100088341D01*
X168244508Y-100100000D01*
X162734817Y-100100000D01*
X162719625Y-100088343D01*
X162702841Y-100075464D01*
X162702840Y-100075463D01*
X162702838Y-100075462D01*
X162556766Y-100014957D01*
X162556758Y-100014955D01*
X162400001Y-99994318D01*
X162399999Y-99994318D01*
X162243241Y-100014955D01*
X162243233Y-100014957D01*
X162097161Y-100075462D01*
X162097160Y-100075462D01*
X161971723Y-100171713D01*
X161971713Y-100171723D01*
X161875462Y-100297160D01*
X161875462Y-100297161D01*
X161814957Y-100443233D01*
X161814955Y-100443241D01*
X161794318Y-100599999D01*
X161794318Y-100600000D01*
X147789654Y-100600000D01*
X147785646Y-100574696D01*
X147728050Y-100461658D01*
X147638342Y-100371950D01*
X147634406Y-100369944D01*
X147525307Y-100314355D01*
X147525304Y-100314354D01*
X147400000Y-100294508D01*
X147274696Y-100314354D01*
X147274692Y-100314355D01*
X147161659Y-100371949D01*
X147071949Y-100461659D01*
X147014355Y-100574692D01*
X147014354Y-100574696D01*
X146994508Y-100700000D01*
X146789654Y-100700000D01*
X146805492Y-100600000D01*
X146785646Y-100474696D01*
X146785643Y-100474691D01*
X146785643Y-100474689D01*
X146731762Y-100368942D01*
X146722190Y-100308510D01*
X146749967Y-100253994D01*
X146775026Y-100235787D01*
X146775299Y-100235647D01*
X146775303Y-100235647D01*
X146888341Y-100178051D01*
X146966392Y-100100000D01*
X156994508Y-100100000D01*
X157009476Y-100194508D01*
X157014354Y-100225303D01*
X157014355Y-100225307D01*
X157050967Y-100297161D01*
X157071950Y-100338342D01*
X157161658Y-100428050D01*
X157274696Y-100485646D01*
X157400000Y-100505492D01*
X157525304Y-100485646D01*
X157638342Y-100428050D01*
X157728050Y-100338342D01*
X157785646Y-100225304D01*
X157805492Y-100100000D01*
X157785646Y-99974696D01*
X157728050Y-99861658D01*
X157638342Y-99771950D01*
X157634406Y-99769944D01*
X157525307Y-99714355D01*
X157525304Y-99714354D01*
X157400000Y-99694508D01*
X157274696Y-99714354D01*
X157274692Y-99714355D01*
X157161659Y-99771949D01*
X157071949Y-99861659D01*
X157014355Y-99974692D01*
X157014354Y-99974696D01*
X156996355Y-100088341D01*
X156994508Y-100100000D01*
X146966392Y-100100000D01*
X146978049Y-100088343D01*
X147035645Y-99975305D01*
X147055491Y-99850001D01*
X147035645Y-99724697D01*
X146978049Y-99611659D01*
X146888341Y-99521951D01*
X146817085Y-99485644D01*
X146775306Y-99464356D01*
X146775303Y-99464355D01*
X146649999Y-99444509D01*
X146524695Y-99464355D01*
X146524691Y-99464356D01*
X146411658Y-99521950D01*
X146321948Y-99611660D01*
X146264354Y-99724693D01*
X146264353Y-99724697D01*
X146244507Y-99850000D01*
X146244507Y-99850001D01*
X146264353Y-99975304D01*
X146264353Y-99975306D01*
X146318237Y-100081058D01*
X146327808Y-100141490D01*
X146300031Y-100196007D01*
X146274973Y-100214212D01*
X146161659Y-100271949D01*
X146071949Y-100361659D01*
X146014355Y-100474692D01*
X146014354Y-100474696D01*
X145994508Y-100600000D01*
X132700500Y-100600000D01*
X132700500Y-100100000D01*
X144994508Y-100100000D01*
X145009476Y-100194508D01*
X145014354Y-100225303D01*
X145014355Y-100225307D01*
X145050967Y-100297161D01*
X145071950Y-100338342D01*
X145161658Y-100428050D01*
X145274696Y-100485646D01*
X145400000Y-100505492D01*
X145525304Y-100485646D01*
X145638342Y-100428050D01*
X145728050Y-100338342D01*
X145785646Y-100225304D01*
X145805492Y-100100000D01*
X145785646Y-99974696D01*
X145728050Y-99861658D01*
X145638342Y-99771950D01*
X145634406Y-99769944D01*
X145525307Y-99714355D01*
X145525304Y-99714354D01*
X145400000Y-99694508D01*
X145274696Y-99714354D01*
X145274692Y-99714355D01*
X145161659Y-99771949D01*
X145071949Y-99861659D01*
X145014355Y-99974692D01*
X145014354Y-99974696D01*
X144996355Y-100088341D01*
X144994508Y-100100000D01*
X132700500Y-100100000D01*
X132700500Y-99100000D01*
X146994508Y-99100000D01*
X147014354Y-99225303D01*
X147014355Y-99225307D01*
X147069944Y-99334406D01*
X147071950Y-99338342D01*
X147161658Y-99428050D01*
X147274696Y-99485646D01*
X147400000Y-99505492D01*
X147525304Y-99485646D01*
X147638342Y-99428050D01*
X147728050Y-99338342D01*
X147785646Y-99225304D01*
X147805492Y-99100000D01*
X157494508Y-99100000D01*
X157514354Y-99225303D01*
X157514355Y-99225307D01*
X157569944Y-99334406D01*
X157571950Y-99338342D01*
X157661658Y-99428050D01*
X157774696Y-99485646D01*
X157900000Y-99505492D01*
X158025304Y-99485646D01*
X158138342Y-99428050D01*
X158228050Y-99338342D01*
X158285646Y-99225304D01*
X158305492Y-99100000D01*
X158285646Y-98974696D01*
X158228050Y-98861658D01*
X158138342Y-98771950D01*
X158134406Y-98769944D01*
X158025307Y-98714355D01*
X158025304Y-98714354D01*
X157900000Y-98694508D01*
X157774696Y-98714354D01*
X157774692Y-98714355D01*
X157661659Y-98771949D01*
X157571949Y-98861659D01*
X157514355Y-98974692D01*
X157514354Y-98974696D01*
X157494508Y-99099999D01*
X157494508Y-99100000D01*
X147805492Y-99100000D01*
X147785646Y-98974696D01*
X147728050Y-98861658D01*
X147638342Y-98771950D01*
X147634406Y-98769944D01*
X147525307Y-98714355D01*
X147525304Y-98714354D01*
X147400000Y-98694508D01*
X147274696Y-98714354D01*
X147274692Y-98714355D01*
X147161659Y-98771949D01*
X147071949Y-98861659D01*
X147014355Y-98974692D01*
X147014354Y-98974696D01*
X146994508Y-99099999D01*
X146994508Y-99100000D01*
X132700500Y-99100000D01*
X132700500Y-97600000D01*
X135294318Y-97600000D01*
X135314955Y-97756758D01*
X135314957Y-97756766D01*
X135375462Y-97902838D01*
X135375462Y-97902839D01*
X135375464Y-97902841D01*
X135471718Y-98028282D01*
X135597159Y-98124536D01*
X135743238Y-98185044D01*
X135860809Y-98200522D01*
X135899999Y-98205682D01*
X135900000Y-98205682D01*
X135900001Y-98205682D01*
X135931352Y-98201554D01*
X136056762Y-98185044D01*
X136202841Y-98124536D01*
X136328282Y-98028282D01*
X136424536Y-97902841D01*
X136485044Y-97756762D01*
X136505682Y-97600000D01*
X136485044Y-97443238D01*
X136467771Y-97401537D01*
X136424537Y-97297161D01*
X136424537Y-97297160D01*
X136328286Y-97171723D01*
X136328285Y-97171722D01*
X136328282Y-97171718D01*
X136328277Y-97171714D01*
X136328276Y-97171713D01*
X136229708Y-97096080D01*
X136202841Y-97075464D01*
X136202840Y-97075463D01*
X136202838Y-97075462D01*
X136056766Y-97014957D01*
X136056758Y-97014955D01*
X135900001Y-96994318D01*
X135899999Y-96994318D01*
X135743241Y-97014955D01*
X135743233Y-97014957D01*
X135597161Y-97075462D01*
X135597160Y-97075462D01*
X135471723Y-97171713D01*
X135471713Y-97171723D01*
X135375462Y-97297160D01*
X135375462Y-97297161D01*
X135314957Y-97443233D01*
X135314955Y-97443241D01*
X135294318Y-97599999D01*
X135294318Y-97600000D01*
X132700500Y-97600000D01*
X132700500Y-96484829D01*
X152679147Y-96484829D01*
X152699784Y-96641587D01*
X152699786Y-96641595D01*
X152760291Y-96787667D01*
X152760291Y-96787668D01*
X152856542Y-96913105D01*
X152856547Y-96913111D01*
X152981988Y-97009365D01*
X152981989Y-97009365D01*
X152981990Y-97009366D01*
X152995488Y-97014957D01*
X153128067Y-97069873D01*
X153245638Y-97085351D01*
X153284828Y-97090511D01*
X153284829Y-97090511D01*
X153284830Y-97090511D01*
X153316181Y-97086383D01*
X153441591Y-97069873D01*
X153587670Y-97009365D01*
X153713111Y-96913111D01*
X153809365Y-96787670D01*
X153866390Y-96650000D01*
X155994508Y-96650000D01*
X156007564Y-96732436D01*
X156014354Y-96775303D01*
X156014355Y-96775307D01*
X156056357Y-96857739D01*
X156071950Y-96888342D01*
X156161658Y-96978050D01*
X156274696Y-97035646D01*
X156400000Y-97055492D01*
X156525304Y-97035646D01*
X156638342Y-96978050D01*
X156728050Y-96888342D01*
X156743643Y-96857740D01*
X156994508Y-96857740D01*
X157011408Y-96964446D01*
X157014354Y-96983043D01*
X157014355Y-96983047D01*
X157062813Y-97078150D01*
X157071950Y-97096082D01*
X157161658Y-97185790D01*
X157274696Y-97243386D01*
X157274700Y-97243386D01*
X157281280Y-97245525D01*
X157330782Y-97281486D01*
X157349693Y-97339675D01*
X157342158Y-97377566D01*
X157314956Y-97443239D01*
X157314955Y-97443241D01*
X157294318Y-97599999D01*
X157294318Y-97600000D01*
X157314955Y-97756758D01*
X157314957Y-97756766D01*
X157375462Y-97902838D01*
X157375462Y-97902839D01*
X157375464Y-97902841D01*
X157471718Y-98028282D01*
X157597159Y-98124536D01*
X157743238Y-98185044D01*
X157860809Y-98200522D01*
X157899999Y-98205682D01*
X157900000Y-98205682D01*
X157900001Y-98205682D01*
X157931352Y-98201554D01*
X158056762Y-98185044D01*
X158202841Y-98124536D01*
X158328282Y-98028282D01*
X158424536Y-97902841D01*
X158485044Y-97756762D01*
X158505682Y-97600000D01*
X168294318Y-97600000D01*
X168314955Y-97756758D01*
X168314957Y-97756766D01*
X168375462Y-97902838D01*
X168375462Y-97902839D01*
X168375464Y-97902841D01*
X168471718Y-98028282D01*
X168597159Y-98124536D01*
X168743238Y-98185044D01*
X168860809Y-98200522D01*
X168899999Y-98205682D01*
X168900000Y-98205682D01*
X168900001Y-98205682D01*
X168931352Y-98201554D01*
X169056762Y-98185044D01*
X169202841Y-98124536D01*
X169328282Y-98028282D01*
X169424536Y-97902841D01*
X169485044Y-97756762D01*
X169505682Y-97600000D01*
X169485044Y-97443238D01*
X169467771Y-97401537D01*
X169424537Y-97297161D01*
X169424537Y-97297160D01*
X169328286Y-97171723D01*
X169328285Y-97171722D01*
X169328282Y-97171718D01*
X169328277Y-97171714D01*
X169328276Y-97171713D01*
X169229708Y-97096080D01*
X169202841Y-97075464D01*
X169202840Y-97075463D01*
X169202838Y-97075462D01*
X169056766Y-97014957D01*
X169056758Y-97014955D01*
X168900001Y-96994318D01*
X168899999Y-96994318D01*
X168743241Y-97014955D01*
X168743233Y-97014957D01*
X168597161Y-97075462D01*
X168597160Y-97075462D01*
X168471723Y-97171713D01*
X168471713Y-97171723D01*
X168375462Y-97297160D01*
X168375462Y-97297161D01*
X168314957Y-97443233D01*
X168314955Y-97443241D01*
X168294318Y-97599999D01*
X168294318Y-97600000D01*
X158505682Y-97600000D01*
X158502089Y-97572712D01*
X158513238Y-97512555D01*
X158557619Y-97470437D01*
X158613164Y-97461639D01*
X158616236Y-97462043D01*
X158616238Y-97462044D01*
X158679990Y-97470437D01*
X158772999Y-97482682D01*
X158773000Y-97482682D01*
X158773001Y-97482682D01*
X158804352Y-97478554D01*
X158929762Y-97462044D01*
X159075841Y-97401536D01*
X159201282Y-97305282D01*
X159297536Y-97179841D01*
X159358044Y-97033762D01*
X159378682Y-96877000D01*
X159358044Y-96720238D01*
X159343465Y-96685042D01*
X159328950Y-96650000D01*
X159994508Y-96650000D01*
X160007564Y-96732436D01*
X160014354Y-96775303D01*
X160014355Y-96775307D01*
X160056357Y-96857739D01*
X160071950Y-96888342D01*
X160161658Y-96978050D01*
X160274696Y-97035646D01*
X160400000Y-97055492D01*
X160525304Y-97035646D01*
X160638342Y-96978050D01*
X160728050Y-96888342D01*
X160785646Y-96775304D01*
X160805492Y-96650000D01*
X160785646Y-96524696D01*
X160728050Y-96411658D01*
X160638342Y-96321950D01*
X160538972Y-96271318D01*
X160525307Y-96264355D01*
X160525304Y-96264354D01*
X160400000Y-96244508D01*
X160274696Y-96264354D01*
X160274692Y-96264355D01*
X160161659Y-96321949D01*
X160071949Y-96411659D01*
X160014355Y-96524692D01*
X160014354Y-96524696D01*
X159994508Y-96650000D01*
X159328950Y-96650000D01*
X159297537Y-96574161D01*
X159297537Y-96574160D01*
X159201286Y-96448723D01*
X159201285Y-96448722D01*
X159201282Y-96448718D01*
X159201277Y-96448714D01*
X159201276Y-96448713D01*
X159075838Y-96352462D01*
X158929766Y-96291957D01*
X158929758Y-96291955D01*
X158773001Y-96271318D01*
X158772999Y-96271318D01*
X158616241Y-96291955D01*
X158616233Y-96291957D01*
X158470161Y-96352462D01*
X158470160Y-96352462D01*
X158344723Y-96448713D01*
X158344713Y-96448723D01*
X158248462Y-96574160D01*
X158248462Y-96574161D01*
X158187957Y-96720233D01*
X158187955Y-96720241D01*
X158167318Y-96876999D01*
X158167318Y-96877000D01*
X158170910Y-96904285D01*
X158159760Y-96964446D01*
X158115377Y-97006563D01*
X158059835Y-97015360D01*
X157900001Y-96994318D01*
X157899774Y-96994318D01*
X157899619Y-96994267D01*
X157893567Y-96993471D01*
X157893714Y-96992349D01*
X157841583Y-96975411D01*
X157805619Y-96925911D01*
X157801993Y-96879830D01*
X157802442Y-96877000D01*
X157805492Y-96857740D01*
X157785646Y-96732436D01*
X157728050Y-96619398D01*
X157638342Y-96529690D01*
X157628533Y-96524692D01*
X157525307Y-96472095D01*
X157525304Y-96472094D01*
X157400000Y-96452248D01*
X157274696Y-96472094D01*
X157274692Y-96472095D01*
X157161659Y-96529689D01*
X157071949Y-96619399D01*
X157014355Y-96732432D01*
X157014354Y-96732436D01*
X156994508Y-96857740D01*
X156743643Y-96857740D01*
X156785646Y-96775304D01*
X156805492Y-96650000D01*
X156785646Y-96524696D01*
X156728050Y-96411658D01*
X156638342Y-96321950D01*
X156538972Y-96271318D01*
X156525307Y-96264355D01*
X156525304Y-96264354D01*
X156400000Y-96244508D01*
X156274696Y-96264354D01*
X156274692Y-96264355D01*
X156161659Y-96321949D01*
X156071949Y-96411659D01*
X156014355Y-96524692D01*
X156014354Y-96524696D01*
X155994508Y-96650000D01*
X153866390Y-96650000D01*
X153869873Y-96641591D01*
X153890511Y-96484829D01*
X153888834Y-96472094D01*
X153873085Y-96352464D01*
X153869873Y-96328067D01*
X153840339Y-96256766D01*
X153809366Y-96181990D01*
X153809366Y-96181989D01*
X153746454Y-96100000D01*
X164794318Y-96100000D01*
X164814955Y-96256758D01*
X164814957Y-96256766D01*
X164875462Y-96402838D01*
X164875462Y-96402839D01*
X164938375Y-96484829D01*
X164971718Y-96528282D01*
X164971722Y-96528285D01*
X164971723Y-96528286D01*
X164973553Y-96529690D01*
X165097159Y-96624536D01*
X165097160Y-96624536D01*
X165097161Y-96624537D01*
X165138333Y-96641591D01*
X165243238Y-96685044D01*
X165360809Y-96700522D01*
X165399999Y-96705682D01*
X165400000Y-96705682D01*
X165400001Y-96705682D01*
X165431352Y-96701554D01*
X165556762Y-96685044D01*
X165702841Y-96624536D01*
X165828282Y-96528282D01*
X165924536Y-96402841D01*
X165985044Y-96256762D01*
X166005682Y-96100000D01*
X165985044Y-95943238D01*
X165941594Y-95838340D01*
X165924537Y-95797161D01*
X165924537Y-95797160D01*
X165828286Y-95671723D01*
X165828285Y-95671722D01*
X165828282Y-95671718D01*
X165828277Y-95671714D01*
X165828276Y-95671713D01*
X165734817Y-95600000D01*
X167994508Y-95600000D01*
X168014354Y-95725303D01*
X168014355Y-95725307D01*
X168050967Y-95797161D01*
X168071950Y-95838342D01*
X168161658Y-95928050D01*
X168274696Y-95985646D01*
X168400000Y-96005492D01*
X168525304Y-95985646D01*
X168638342Y-95928050D01*
X168728050Y-95838342D01*
X168785646Y-95725304D01*
X168805492Y-95600000D01*
X168785646Y-95474696D01*
X168728050Y-95361658D01*
X168638342Y-95271950D01*
X168618143Y-95261658D01*
X168525307Y-95214355D01*
X168525304Y-95214354D01*
X168420664Y-95197780D01*
X168404571Y-95189581D01*
X168379334Y-95197781D01*
X168274696Y-95214354D01*
X168274692Y-95214355D01*
X168161659Y-95271949D01*
X168071949Y-95361659D01*
X168014355Y-95474692D01*
X168014354Y-95474696D01*
X167994508Y-95599999D01*
X167994508Y-95600000D01*
X165734817Y-95600000D01*
X165702838Y-95575462D01*
X165556766Y-95514957D01*
X165556758Y-95514955D01*
X165400001Y-95494318D01*
X165399999Y-95494318D01*
X165243241Y-95514955D01*
X165243233Y-95514957D01*
X165097161Y-95575462D01*
X165097160Y-95575462D01*
X164971723Y-95671713D01*
X164971713Y-95671723D01*
X164875462Y-95797160D01*
X164875462Y-95797161D01*
X164814957Y-95943233D01*
X164814955Y-95943241D01*
X164794318Y-96099999D01*
X164794318Y-96100000D01*
X153746454Y-96100000D01*
X153713115Y-96056552D01*
X153713114Y-96056551D01*
X153713111Y-96056547D01*
X153713106Y-96056543D01*
X153713105Y-96056542D01*
X153587667Y-95960291D01*
X153441595Y-95899786D01*
X153441587Y-95899784D01*
X153284830Y-95879147D01*
X153284828Y-95879147D01*
X153128070Y-95899784D01*
X153128062Y-95899786D01*
X152981990Y-95960291D01*
X152981989Y-95960291D01*
X152856552Y-96056542D01*
X152856542Y-96056552D01*
X152760291Y-96181989D01*
X152760291Y-96181990D01*
X152699786Y-96328062D01*
X152699784Y-96328070D01*
X152679147Y-96484828D01*
X152679147Y-96484829D01*
X132700500Y-96484829D01*
X132700500Y-95600000D01*
X134294318Y-95600000D01*
X134314955Y-95756758D01*
X134314957Y-95756766D01*
X134375461Y-95902836D01*
X134375462Y-95902839D01*
X134471713Y-96028276D01*
X134471718Y-96028282D01*
X134597159Y-96124536D01*
X134597160Y-96124536D01*
X134597161Y-96124537D01*
X134735865Y-96181990D01*
X134743238Y-96185044D01*
X134860809Y-96200522D01*
X134899999Y-96205682D01*
X134900000Y-96205682D01*
X134900001Y-96205682D01*
X134931352Y-96201554D01*
X135056762Y-96185044D01*
X135202841Y-96124536D01*
X135328282Y-96028282D01*
X135424536Y-95902841D01*
X135424537Y-95902839D01*
X135424539Y-95902836D01*
X135485042Y-95756766D01*
X135485044Y-95756762D01*
X135505682Y-95600000D01*
X135492517Y-95500000D01*
X162494508Y-95500000D01*
X162514354Y-95625303D01*
X162514355Y-95625307D01*
X162565306Y-95725303D01*
X162571950Y-95738342D01*
X162661658Y-95828050D01*
X162774696Y-95885646D01*
X162900000Y-95905492D01*
X163025304Y-95885646D01*
X163138342Y-95828050D01*
X163228050Y-95738342D01*
X163285646Y-95625304D01*
X163305492Y-95500000D01*
X163285646Y-95374696D01*
X163228050Y-95261658D01*
X163138342Y-95171950D01*
X163134406Y-95169944D01*
X163025307Y-95114355D01*
X163025304Y-95114354D01*
X162900000Y-95094508D01*
X162774696Y-95114354D01*
X162774692Y-95114355D01*
X162661659Y-95171949D01*
X162571949Y-95261659D01*
X162514355Y-95374692D01*
X162514354Y-95374696D01*
X162494508Y-95499999D01*
X162494508Y-95500000D01*
X135492517Y-95500000D01*
X135485044Y-95443238D01*
X135451253Y-95361659D01*
X135424537Y-95297161D01*
X135424537Y-95297160D01*
X135328286Y-95171723D01*
X135328285Y-95171722D01*
X135328282Y-95171718D01*
X135328277Y-95171714D01*
X135328276Y-95171713D01*
X135253524Y-95114354D01*
X135202841Y-95075464D01*
X135202840Y-95075463D01*
X135202838Y-95075462D01*
X135056766Y-95014957D01*
X135056758Y-95014955D01*
X134900001Y-94994318D01*
X134899999Y-94994318D01*
X134743241Y-95014955D01*
X134743233Y-95014957D01*
X134597161Y-95075462D01*
X134597160Y-95075462D01*
X134471723Y-95171713D01*
X134471713Y-95171723D01*
X134375462Y-95297160D01*
X134375462Y-95297161D01*
X134314957Y-95443233D01*
X134314955Y-95443241D01*
X134294318Y-95599999D01*
X134294318Y-95600000D01*
X132700500Y-95600000D01*
X132700500Y-94600000D01*
X167994508Y-94600000D01*
X168014354Y-94725303D01*
X168014355Y-94725307D01*
X168069944Y-94834406D01*
X168071950Y-94838342D01*
X168161658Y-94928050D01*
X168274696Y-94985646D01*
X168366547Y-95000193D01*
X168379334Y-95002219D01*
X168395427Y-95010418D01*
X168420665Y-95002219D01*
X168525304Y-94985646D01*
X168638342Y-94928050D01*
X168728050Y-94838342D01*
X168785646Y-94725304D01*
X168805492Y-94600000D01*
X168785646Y-94474696D01*
X168728050Y-94361658D01*
X168638342Y-94271950D01*
X168634406Y-94269944D01*
X168525307Y-94214355D01*
X168525304Y-94214354D01*
X168400000Y-94194508D01*
X168274696Y-94214354D01*
X168274692Y-94214355D01*
X168161659Y-94271949D01*
X168071949Y-94361659D01*
X168014355Y-94474692D01*
X168014354Y-94474696D01*
X167994508Y-94599999D01*
X167994508Y-94600000D01*
X132700500Y-94600000D01*
X132700500Y-93289197D01*
X151991833Y-93289197D01*
X152012470Y-93445955D01*
X152012472Y-93445963D01*
X152072977Y-93592035D01*
X152072977Y-93592036D01*
X152072979Y-93592038D01*
X152169233Y-93717479D01*
X152294674Y-93813733D01*
X152440753Y-93874241D01*
X152538025Y-93887047D01*
X152597514Y-93894879D01*
X152597515Y-93894879D01*
X152597516Y-93894879D01*
X152628867Y-93890751D01*
X152754277Y-93874241D01*
X152900356Y-93813733D01*
X153025797Y-93717479D01*
X153122051Y-93592038D01*
X153182559Y-93445959D01*
X153203197Y-93289197D01*
X153182559Y-93132435D01*
X153133283Y-93013473D01*
X153122052Y-92986358D01*
X153122052Y-92986357D01*
X153025801Y-92860920D01*
X153025800Y-92860919D01*
X153025797Y-92860915D01*
X153025792Y-92860911D01*
X153025791Y-92860910D01*
X152900353Y-92764659D01*
X152754281Y-92704154D01*
X152754273Y-92704152D01*
X152597516Y-92683515D01*
X152597514Y-92683515D01*
X152440756Y-92704152D01*
X152440748Y-92704154D01*
X152294676Y-92764659D01*
X152294675Y-92764659D01*
X152169238Y-92860910D01*
X152169228Y-92860920D01*
X152072977Y-92986357D01*
X152072977Y-92986358D01*
X152012472Y-93132430D01*
X152012470Y-93132438D01*
X151991833Y-93289196D01*
X151991833Y-93289197D01*
X132700500Y-93289197D01*
X132700500Y-92600000D01*
X133994508Y-92600000D01*
X134014354Y-92725303D01*
X134014355Y-92725307D01*
X134031272Y-92758508D01*
X134071950Y-92838342D01*
X134161658Y-92928050D01*
X134274696Y-92985646D01*
X134400000Y-93005492D01*
X134525304Y-92985646D01*
X134638342Y-92928050D01*
X134728050Y-92838342D01*
X134785646Y-92725304D01*
X134805492Y-92600000D01*
X134785646Y-92474696D01*
X134728050Y-92361658D01*
X134638342Y-92271950D01*
X134577531Y-92240965D01*
X134525307Y-92214355D01*
X134525304Y-92214354D01*
X134400000Y-92194508D01*
X134274696Y-92214354D01*
X134274692Y-92214355D01*
X134161659Y-92271949D01*
X134071949Y-92361659D01*
X134014355Y-92474692D01*
X134014354Y-92474696D01*
X133994508Y-92599999D01*
X133994508Y-92600000D01*
X132700500Y-92600000D01*
X132700500Y-91600000D01*
X145294318Y-91600000D01*
X145314955Y-91756758D01*
X145314957Y-91756766D01*
X145375462Y-91902838D01*
X145375462Y-91902839D01*
X145375464Y-91902841D01*
X145471718Y-92028282D01*
X145597159Y-92124536D01*
X145597160Y-92124536D01*
X145597161Y-92124537D01*
X145743233Y-92185042D01*
X145743238Y-92185044D01*
X145860809Y-92200522D01*
X145899999Y-92205682D01*
X145900000Y-92205682D01*
X145900001Y-92205682D01*
X145931352Y-92201554D01*
X146056762Y-92185044D01*
X146202841Y-92124536D01*
X146328282Y-92028282D01*
X146424536Y-91902841D01*
X146485044Y-91756762D01*
X146505682Y-91600000D01*
X156294318Y-91600000D01*
X156314955Y-91756758D01*
X156314957Y-91756766D01*
X156375462Y-91902838D01*
X156375462Y-91902839D01*
X156375464Y-91902841D01*
X156471718Y-92028282D01*
X156597159Y-92124536D01*
X156597160Y-92124536D01*
X156597161Y-92124537D01*
X156743233Y-92185042D01*
X156743238Y-92185044D01*
X156860809Y-92200522D01*
X156899999Y-92205682D01*
X156900000Y-92205682D01*
X156900001Y-92205682D01*
X156931352Y-92201554D01*
X157056762Y-92185044D01*
X157202841Y-92124536D01*
X157328282Y-92028282D01*
X157424536Y-91902841D01*
X157485044Y-91756762D01*
X157505682Y-91600000D01*
X157485044Y-91443238D01*
X157424537Y-91297161D01*
X157424537Y-91297160D01*
X157328286Y-91171723D01*
X157328285Y-91171722D01*
X157328282Y-91171718D01*
X157328277Y-91171714D01*
X157328276Y-91171713D01*
X157202838Y-91075462D01*
X157056766Y-91014957D01*
X157056758Y-91014955D01*
X156900001Y-90994318D01*
X156899999Y-90994318D01*
X156743241Y-91014955D01*
X156743233Y-91014957D01*
X156597161Y-91075462D01*
X156597160Y-91075462D01*
X156471723Y-91171713D01*
X156471713Y-91171723D01*
X156375462Y-91297160D01*
X156375462Y-91297161D01*
X156314957Y-91443233D01*
X156314955Y-91443241D01*
X156294318Y-91599999D01*
X156294318Y-91600000D01*
X146505682Y-91600000D01*
X146485044Y-91443238D01*
X146424537Y-91297161D01*
X146424537Y-91297160D01*
X146328286Y-91171723D01*
X146328285Y-91171722D01*
X146328282Y-91171718D01*
X146328277Y-91171714D01*
X146328276Y-91171713D01*
X146202838Y-91075462D01*
X146056766Y-91014957D01*
X146056758Y-91014955D01*
X145900001Y-90994318D01*
X145899999Y-90994318D01*
X145743241Y-91014955D01*
X145743233Y-91014957D01*
X145597161Y-91075462D01*
X145597160Y-91075462D01*
X145471723Y-91171713D01*
X145471713Y-91171723D01*
X145375462Y-91297160D01*
X145375462Y-91297161D01*
X145314957Y-91443233D01*
X145314955Y-91443241D01*
X145294318Y-91599999D01*
X145294318Y-91600000D01*
X132700500Y-91600000D01*
X132700500Y-89780478D01*
X147329500Y-89780478D01*
X147329501Y-89780484D01*
X147335587Y-89837111D01*
X147335587Y-89837112D01*
X147335588Y-89837114D01*
X147383372Y-89965226D01*
X147465313Y-90074687D01*
X147574774Y-90156628D01*
X147702886Y-90204412D01*
X147759515Y-90210500D01*
X148400484Y-90210499D01*
X148457114Y-90204412D01*
X148585226Y-90156628D01*
X148694687Y-90074687D01*
X148776628Y-89965226D01*
X148824412Y-89837114D01*
X148830500Y-89780485D01*
X148830500Y-89780478D01*
X155969500Y-89780478D01*
X155969501Y-89780484D01*
X155975587Y-89837111D01*
X155975587Y-89837112D01*
X155975588Y-89837114D01*
X156023372Y-89965226D01*
X156105313Y-90074687D01*
X156214774Y-90156628D01*
X156342886Y-90204412D01*
X156399515Y-90210500D01*
X157040484Y-90210499D01*
X157097114Y-90204412D01*
X157225226Y-90156628D01*
X157334687Y-90074687D01*
X157416628Y-89965226D01*
X157464412Y-89837114D01*
X157470500Y-89780485D01*
X157470499Y-88139516D01*
X157464412Y-88082886D01*
X157416628Y-87954774D01*
X157334687Y-87845313D01*
X157255514Y-87786045D01*
X157225228Y-87763373D01*
X157225226Y-87763372D01*
X157097114Y-87715588D01*
X157097113Y-87715587D01*
X157058895Y-87711479D01*
X157040485Y-87709500D01*
X157040481Y-87709500D01*
X156399521Y-87709500D01*
X156399515Y-87709501D01*
X156342888Y-87715587D01*
X156342886Y-87715588D01*
X156214774Y-87763372D01*
X156214773Y-87763372D01*
X156214772Y-87763373D01*
X156105315Y-87845311D01*
X156105311Y-87845315D01*
X156023373Y-87954771D01*
X155975587Y-88082887D01*
X155969500Y-88139518D01*
X155969500Y-89780478D01*
X148830500Y-89780478D01*
X148830499Y-88139516D01*
X148824412Y-88082886D01*
X148776628Y-87954774D01*
X148694687Y-87845313D01*
X148615514Y-87786045D01*
X148585228Y-87763373D01*
X148585226Y-87763372D01*
X148457114Y-87715588D01*
X148457113Y-87715587D01*
X148418895Y-87711479D01*
X148400485Y-87709500D01*
X148400481Y-87709500D01*
X147759521Y-87709500D01*
X147759515Y-87709501D01*
X147702888Y-87715587D01*
X147702886Y-87715588D01*
X147574774Y-87763372D01*
X147574773Y-87763372D01*
X147574772Y-87763373D01*
X147465315Y-87845311D01*
X147465311Y-87845315D01*
X147383373Y-87954771D01*
X147335587Y-88082887D01*
X147329500Y-88139518D01*
X147329500Y-89780478D01*
X132700500Y-89780478D01*
X132700500Y-86102279D01*
X132700553Y-86100000D01*
X133495006Y-86100000D01*
X133514965Y-86468143D01*
X133574614Y-86831979D01*
X133673242Y-87187206D01*
X133673246Y-87187217D01*
X133809711Y-87529721D01*
X133982403Y-87855453D01*
X134189306Y-88160611D01*
X134189313Y-88160621D01*
X134422925Y-88435650D01*
X135699983Y-87158592D01*
X135765130Y-87234870D01*
X135841405Y-87300014D01*
X134567580Y-88573840D01*
X134695655Y-88695158D01*
X134989156Y-88918272D01*
X134989161Y-88918275D01*
X135305070Y-89108352D01*
X135639676Y-89263157D01*
X135989076Y-89380884D01*
X136349128Y-89460137D01*
X136349127Y-89460137D01*
X136715657Y-89500000D01*
X137084343Y-89500000D01*
X137450872Y-89460137D01*
X137810922Y-89380884D01*
X137810924Y-89380884D01*
X138160323Y-89263157D01*
X138494929Y-89108352D01*
X138766200Y-88945133D01*
X144196286Y-88945133D01*
X144274853Y-88985164D01*
X144399999Y-89004986D01*
X144400001Y-89004986D01*
X144525147Y-88985164D01*
X144525149Y-88985164D01*
X144603712Y-88945134D01*
X144399999Y-88741421D01*
X144196286Y-88945133D01*
X138766200Y-88945133D01*
X138810838Y-88918275D01*
X138810843Y-88918272D01*
X139104344Y-88695158D01*
X139232418Y-88573840D01*
X139103711Y-88445133D01*
X143571286Y-88445133D01*
X143649853Y-88485164D01*
X143774999Y-88504986D01*
X143775000Y-88504986D01*
X143881526Y-88488114D01*
X143941958Y-88497685D01*
X143985223Y-88540950D01*
X143993346Y-88592209D01*
X143995014Y-88592209D01*
X143995014Y-88600000D01*
X144014835Y-88725148D01*
X144054864Y-88803713D01*
X144054865Y-88803713D01*
X144226086Y-88632492D01*
X144300000Y-88632492D01*
X144338197Y-88685065D01*
X144384162Y-88700000D01*
X144415838Y-88700000D01*
X144461803Y-88685065D01*
X144500000Y-88632492D01*
X144500000Y-88599999D01*
X144541421Y-88599999D01*
X144745134Y-88803712D01*
X144785164Y-88725149D01*
X144785164Y-88725147D01*
X144804986Y-88600000D01*
X144804986Y-88592208D01*
X144806658Y-88592208D01*
X144814776Y-88540952D01*
X144858039Y-88497686D01*
X144918471Y-88488114D01*
X144918473Y-88488114D01*
X145024999Y-88504986D01*
X145025001Y-88504986D01*
X145150147Y-88485164D01*
X145150149Y-88485164D01*
X145228712Y-88445134D01*
X145024999Y-88241421D01*
X144852465Y-88413954D01*
X144797949Y-88441731D01*
X144737517Y-88432159D01*
X144719862Y-88419333D01*
X144713954Y-88427465D01*
X144541421Y-88599999D01*
X144500000Y-88599999D01*
X144500000Y-88567508D01*
X144461803Y-88514935D01*
X144415838Y-88500000D01*
X144384162Y-88500000D01*
X144338197Y-88514935D01*
X144300000Y-88567508D01*
X144300000Y-88632492D01*
X144226086Y-88632492D01*
X144258578Y-88600000D01*
X144086044Y-88427466D01*
X144080886Y-88417343D01*
X144033023Y-88441731D01*
X143972591Y-88432160D01*
X143947532Y-88413954D01*
X143774999Y-88241421D01*
X143571286Y-88445133D01*
X139103711Y-88445133D01*
X137958593Y-87300015D01*
X138034870Y-87234870D01*
X138100015Y-87158593D01*
X139377073Y-88435651D01*
X139610686Y-88160621D01*
X139610693Y-88160611D01*
X139651788Y-88100000D01*
X143370014Y-88100000D01*
X143389835Y-88225148D01*
X143429864Y-88303713D01*
X143429865Y-88303713D01*
X143601086Y-88132492D01*
X143675000Y-88132492D01*
X143713197Y-88185065D01*
X143759162Y-88200000D01*
X143790838Y-88200000D01*
X143836803Y-88185065D01*
X143875000Y-88132492D01*
X143875000Y-88099999D01*
X143916421Y-88099999D01*
X144088954Y-88272532D01*
X144094111Y-88282654D01*
X144141975Y-88258267D01*
X144202407Y-88267838D01*
X144227466Y-88286044D01*
X144400000Y-88458578D01*
X144572532Y-88286045D01*
X144627049Y-88258267D01*
X144687481Y-88267838D01*
X144705135Y-88280664D01*
X144711045Y-88272532D01*
X144851086Y-88132492D01*
X144925000Y-88132492D01*
X144963197Y-88185065D01*
X145009162Y-88200000D01*
X145040838Y-88200000D01*
X145086803Y-88185065D01*
X145125000Y-88132492D01*
X145125000Y-88099999D01*
X145166421Y-88099999D01*
X145370134Y-88303712D01*
X145410164Y-88225149D01*
X145410164Y-88225147D01*
X145429986Y-88100000D01*
X145429986Y-88099999D01*
X145410164Y-87974853D01*
X145370133Y-87896286D01*
X145166421Y-88099999D01*
X145125000Y-88099999D01*
X145125000Y-88067508D01*
X145086803Y-88014935D01*
X145040838Y-88000000D01*
X145009162Y-88000000D01*
X144963197Y-88014935D01*
X144925000Y-88067508D01*
X144925000Y-88132492D01*
X144851086Y-88132492D01*
X144883578Y-88100000D01*
X144711044Y-87927466D01*
X144705886Y-87917343D01*
X144658023Y-87941731D01*
X144597591Y-87932160D01*
X144572532Y-87913954D01*
X144399999Y-87741421D01*
X144227465Y-87913954D01*
X144172949Y-87941731D01*
X144112517Y-87932159D01*
X144094862Y-87919333D01*
X144088954Y-87927465D01*
X143916421Y-88099999D01*
X143875000Y-88099999D01*
X143875000Y-88067508D01*
X143836803Y-88014935D01*
X143790838Y-88000000D01*
X143759162Y-88000000D01*
X143713197Y-88014935D01*
X143675000Y-88067508D01*
X143675000Y-88132492D01*
X143601086Y-88132492D01*
X143633578Y-88100000D01*
X143429864Y-87896286D01*
X143389835Y-87974850D01*
X143389835Y-87974851D01*
X143370014Y-88099999D01*
X143370014Y-88100000D01*
X139651788Y-88100000D01*
X139817596Y-87855453D01*
X139870925Y-87754864D01*
X143571286Y-87754864D01*
X143775000Y-87958578D01*
X143947532Y-87786045D01*
X144002049Y-87758267D01*
X144062481Y-87767838D01*
X144080135Y-87780664D01*
X144086045Y-87772532D01*
X144226086Y-87632492D01*
X144300000Y-87632492D01*
X144338197Y-87685065D01*
X144384162Y-87700000D01*
X144415838Y-87700000D01*
X144461803Y-87685065D01*
X144500000Y-87632492D01*
X144500000Y-87599999D01*
X144541421Y-87599999D01*
X144713954Y-87772532D01*
X144719111Y-87782654D01*
X144766975Y-87758267D01*
X144827407Y-87767838D01*
X144852466Y-87786044D01*
X145025000Y-87958578D01*
X145228713Y-87754865D01*
X145228713Y-87754864D01*
X145150148Y-87714835D01*
X145025001Y-87695014D01*
X145024998Y-87695014D01*
X144918472Y-87711885D01*
X144858040Y-87702313D01*
X144814776Y-87659048D01*
X144806658Y-87607792D01*
X144804986Y-87607792D01*
X144804986Y-87599999D01*
X144785164Y-87474853D01*
X144745133Y-87396286D01*
X144541421Y-87599999D01*
X144500000Y-87599999D01*
X144500000Y-87567508D01*
X144461803Y-87514935D01*
X144415838Y-87500000D01*
X144384162Y-87500000D01*
X144338197Y-87514935D01*
X144300000Y-87567508D01*
X144300000Y-87632492D01*
X144226086Y-87632492D01*
X144258578Y-87600000D01*
X144054864Y-87396286D01*
X144014835Y-87474850D01*
X144014835Y-87474851D01*
X143995014Y-87599999D01*
X143995014Y-87607791D01*
X143993344Y-87607791D01*
X143985217Y-87659061D01*
X143941946Y-87702320D01*
X143881527Y-87711885D01*
X143775002Y-87695014D01*
X143774999Y-87695014D01*
X143649851Y-87714835D01*
X143649850Y-87714835D01*
X143571286Y-87754864D01*
X139870925Y-87754864D01*
X139990288Y-87529721D01*
X140099800Y-87254864D01*
X144196286Y-87254864D01*
X144400000Y-87458578D01*
X144603713Y-87254865D01*
X144603713Y-87254864D01*
X144525148Y-87214835D01*
X144400001Y-87195014D01*
X144399999Y-87195014D01*
X144274851Y-87214835D01*
X144274850Y-87214835D01*
X144196286Y-87254864D01*
X140099800Y-87254864D01*
X140126753Y-87187217D01*
X140126757Y-87187206D01*
X140225385Y-86831979D01*
X140285034Y-86468143D01*
X140304993Y-86100000D01*
X140285034Y-85731856D01*
X140225385Y-85368020D01*
X140132755Y-85034396D01*
X140135405Y-84973268D01*
X140173479Y-84925373D01*
X140232434Y-84909004D01*
X140241068Y-84909758D01*
X140243236Y-84910043D01*
X140243238Y-84910044D01*
X140353215Y-84924522D01*
X140399999Y-84930682D01*
X140400000Y-84930682D01*
X140400001Y-84930682D01*
X140440326Y-84925373D01*
X140556762Y-84910044D01*
X140702841Y-84849536D01*
X140828282Y-84753282D01*
X140924536Y-84627841D01*
X140985044Y-84481762D01*
X140996636Y-84393709D01*
X147329500Y-84393709D01*
X147344759Y-84524255D01*
X147344759Y-84524257D01*
X147344760Y-84524258D01*
X147404762Y-84689116D01*
X147501168Y-84835693D01*
X147501170Y-84835696D01*
X147628780Y-84956090D01*
X147628780Y-84956091D01*
X147628782Y-84956092D01*
X147780719Y-85043812D01*
X147921062Y-85085828D01*
X147948786Y-85094129D01*
X147948787Y-85094129D01*
X147948790Y-85094130D01*
X148023852Y-85098501D01*
X148123931Y-85104331D01*
X148123931Y-85104330D01*
X148123935Y-85104331D01*
X148245795Y-85082843D01*
X148296707Y-85073866D01*
X148296708Y-85073865D01*
X148296711Y-85073865D01*
X148457804Y-85004377D01*
X148598530Y-84899610D01*
X148711302Y-84765214D01*
X148790040Y-84608433D01*
X148790041Y-84608425D01*
X148790043Y-84608423D01*
X148830500Y-84437722D01*
X148830500Y-84393709D01*
X155969500Y-84393709D01*
X155984759Y-84524255D01*
X155984759Y-84524257D01*
X155984760Y-84524258D01*
X156044762Y-84689116D01*
X156141168Y-84835693D01*
X156141170Y-84835696D01*
X156268780Y-84956090D01*
X156268780Y-84956091D01*
X156268782Y-84956092D01*
X156420719Y-85043812D01*
X156561062Y-85085828D01*
X156588786Y-85094129D01*
X156588787Y-85094129D01*
X156588790Y-85094130D01*
X156663852Y-85098501D01*
X156763931Y-85104331D01*
X156763931Y-85104330D01*
X156763935Y-85104331D01*
X156885795Y-85082843D01*
X156936707Y-85073866D01*
X156936708Y-85073865D01*
X156936711Y-85073865D01*
X157097804Y-85004377D01*
X157137264Y-84975000D01*
X160319534Y-84975000D01*
X160336560Y-85104331D01*
X160339313Y-85125236D01*
X160397302Y-85265233D01*
X160489549Y-85385451D01*
X160609767Y-85477698D01*
X160749764Y-85535687D01*
X160862280Y-85550500D01*
X160862281Y-85550500D01*
X160937719Y-85550500D01*
X160937720Y-85550500D01*
X161050236Y-85535687D01*
X161190233Y-85477698D01*
X161310451Y-85385451D01*
X161402698Y-85265233D01*
X161460687Y-85125236D01*
X161480466Y-84975000D01*
X161477976Y-84956090D01*
X161462126Y-84835696D01*
X161460687Y-84824764D01*
X161402698Y-84684767D01*
X161310451Y-84564549D01*
X161190233Y-84472302D01*
X161050236Y-84414313D01*
X161050234Y-84414312D01*
X161050232Y-84414312D01*
X160937720Y-84399500D01*
X160862280Y-84399500D01*
X160862279Y-84399500D01*
X160749767Y-84414312D01*
X160749761Y-84414314D01*
X160609768Y-84472301D01*
X160489551Y-84564547D01*
X160489547Y-84564551D01*
X160397301Y-84684768D01*
X160339314Y-84824761D01*
X160339312Y-84824767D01*
X160319534Y-84974999D01*
X160319534Y-84975000D01*
X157137264Y-84975000D01*
X157238530Y-84899610D01*
X157351302Y-84765214D01*
X157430040Y-84608433D01*
X157430041Y-84608425D01*
X157430043Y-84608423D01*
X157470500Y-84437722D01*
X157470500Y-82806295D01*
X157469823Y-82800500D01*
X157455241Y-82675745D01*
X157395237Y-82510883D01*
X157298830Y-82364304D01*
X157171219Y-82243908D01*
X157065075Y-82182627D01*
X157019281Y-82156188D01*
X156977263Y-82143608D01*
X156851213Y-82105870D01*
X156851206Y-82105869D01*
X156721797Y-82098332D01*
X156692421Y-82086859D01*
X156668540Y-82096995D01*
X156660963Y-82098332D01*
X156503292Y-82126133D01*
X156342197Y-82195622D01*
X156342195Y-82195623D01*
X156201470Y-82300389D01*
X156201468Y-82300391D01*
X156088699Y-82434783D01*
X156050481Y-82510883D01*
X156009960Y-82591567D01*
X156009959Y-82591568D01*
X156009959Y-82591570D01*
X156009956Y-82591576D01*
X155972018Y-82751654D01*
X155969500Y-82762279D01*
X155969500Y-84393709D01*
X148830500Y-84393709D01*
X148830500Y-82806295D01*
X148829823Y-82800500D01*
X148815241Y-82675745D01*
X148755237Y-82510883D01*
X148658830Y-82364304D01*
X148531219Y-82243908D01*
X148425075Y-82182627D01*
X148379281Y-82156188D01*
X148337263Y-82143608D01*
X148211213Y-82105870D01*
X148211206Y-82105869D01*
X148081797Y-82098332D01*
X148052421Y-82086859D01*
X148028540Y-82096995D01*
X148020963Y-82098332D01*
X147863292Y-82126133D01*
X147702197Y-82195622D01*
X147702195Y-82195623D01*
X147561470Y-82300389D01*
X147561468Y-82300391D01*
X147448699Y-82434783D01*
X147410481Y-82510883D01*
X147369960Y-82591567D01*
X147369959Y-82591568D01*
X147369959Y-82591570D01*
X147369956Y-82591576D01*
X147332018Y-82751654D01*
X147329500Y-82762279D01*
X147329500Y-84393709D01*
X140996636Y-84393709D01*
X141005682Y-84325000D01*
X140985044Y-84168238D01*
X140984259Y-84166342D01*
X140924537Y-84022161D01*
X140924537Y-84022160D01*
X140828286Y-83896723D01*
X140828285Y-83896722D01*
X140828282Y-83896718D01*
X140828277Y-83896714D01*
X140828276Y-83896713D01*
X140702838Y-83800462D01*
X140556766Y-83739957D01*
X140556758Y-83739955D01*
X140400001Y-83719318D01*
X140399999Y-83719318D01*
X140243241Y-83739955D01*
X140243233Y-83739957D01*
X140097161Y-83800462D01*
X140097160Y-83800462D01*
X139971723Y-83896713D01*
X139971713Y-83896723D01*
X139875464Y-84022159D01*
X139840928Y-84105534D01*
X139801190Y-84152059D01*
X139741695Y-84166342D01*
X139685168Y-84142926D01*
X139667523Y-84123205D01*
X139610693Y-84039388D01*
X139610686Y-84039378D01*
X139377072Y-83764347D01*
X138100014Y-85041404D01*
X138034870Y-84965130D01*
X137958592Y-84899983D01*
X139232418Y-83626158D01*
X139104344Y-83504841D01*
X138810843Y-83281727D01*
X138810838Y-83281724D01*
X138494929Y-83091647D01*
X138160323Y-82936842D01*
X137810923Y-82819115D01*
X137450871Y-82739862D01*
X137450872Y-82739862D01*
X137084343Y-82700000D01*
X136715657Y-82700000D01*
X136349127Y-82739862D01*
X135989077Y-82819115D01*
X135989075Y-82819115D01*
X135639676Y-82936842D01*
X135305070Y-83091647D01*
X134989161Y-83281724D01*
X134989156Y-83281727D01*
X134695655Y-83504841D01*
X134567580Y-83626158D01*
X135841406Y-84899984D01*
X135765130Y-84965130D01*
X135699984Y-85041406D01*
X134422925Y-83764347D01*
X134189313Y-84039378D01*
X134189306Y-84039388D01*
X133982403Y-84344546D01*
X133809711Y-84670278D01*
X133673246Y-85012782D01*
X133673242Y-85012793D01*
X133574614Y-85368020D01*
X133514965Y-85731856D01*
X133495006Y-86100000D01*
X132700553Y-86100000D01*
X132700606Y-86097707D01*
X132718202Y-85717098D01*
X132719045Y-85707993D01*
X132771374Y-85332856D01*
X132773050Y-85323895D01*
X132859765Y-84955205D01*
X132862266Y-84946416D01*
X132874457Y-84910044D01*
X132982629Y-84587301D01*
X132985930Y-84578782D01*
X133138919Y-84232295D01*
X133142980Y-84224138D01*
X133327290Y-83893237D01*
X133332093Y-83885481D01*
X133546144Y-83573006D01*
X133551654Y-83565711D01*
X133602200Y-83504841D01*
X133793613Y-83274329D01*
X133799753Y-83267593D01*
X134067593Y-82999753D01*
X134074329Y-82993613D01*
X134365712Y-82751652D01*
X134373008Y-82746143D01*
X134475782Y-82675741D01*
X134685481Y-82532093D01*
X134693237Y-82527290D01*
X135024138Y-82342980D01*
X135032295Y-82338919D01*
X135378789Y-82185927D01*
X135387301Y-82182629D01*
X135746421Y-82062264D01*
X135755205Y-82059765D01*
X136123895Y-81973050D01*
X136132856Y-81971374D01*
X136508000Y-81919044D01*
X136517091Y-81918202D01*
X136897707Y-81900605D01*
X136902279Y-81900500D01*
X136947595Y-81900500D01*
X148011349Y-81900500D01*
X148047486Y-81912241D01*
G37*
G04 #@! TD.AperFunction*
M02*
