G04 #@! TF.GenerationSoftware,KiCad,Pcbnew,7.0.11*
G04 #@! TF.CreationDate,2024-05-08T11:49:02-04:00*
G04 #@! TF.ProjectId,stepper-interface,73746570-7065-4722-9d69-6e7465726661,1.0*
G04 #@! TF.SameCoordinates,Original*
G04 #@! TF.FileFunction,Copper,L3,Inr*
G04 #@! TF.FilePolarity,Positive*
%FSLAX46Y46*%
G04 Gerber Fmt 4.6, Leading zero omitted, Abs format (unit mm)*
G04 Created by KiCad (PCBNEW 7.0.11) date 2024-05-08 11:49:02*
%MOMM*%
%LPD*%
G01*
G04 APERTURE LIST*
G04 Aperture macros list*
%AMRoundRect*
0 Rectangle with rounded corners*
0 $1 Rounding radius*
0 $2 $3 $4 $5 $6 $7 $8 $9 X,Y pos of 4 corners*
0 Add a 4 corners polygon primitive as box body*
4,1,4,$2,$3,$4,$5,$6,$7,$8,$9,$2,$3,0*
0 Add four circle primitives for the rounded corners*
1,1,$1+$1,$2,$3*
1,1,$1+$1,$4,$5*
1,1,$1+$1,$6,$7*
1,1,$1+$1,$8,$9*
0 Add four rect primitives between the rounded corners*
20,1,$1+$1,$2,$3,$4,$5,0*
20,1,$1+$1,$4,$5,$6,$7,0*
20,1,$1+$1,$6,$7,$8,$9,0*
20,1,$1+$1,$8,$9,$2,$3,0*%
G04 Aperture macros list end*
G04 #@! TA.AperFunction,ComponentPad*
%ADD10C,6.400000*%
G04 #@! TD*
G04 #@! TA.AperFunction,ComponentPad*
%ADD11C,4.400000*%
G04 #@! TD*
G04 #@! TA.AperFunction,ComponentPad*
%ADD12C,0.400000*%
G04 #@! TD*
G04 #@! TA.AperFunction,ComponentPad*
%ADD13O,1.100000X2.600000*%
G04 #@! TD*
G04 #@! TA.AperFunction,ComponentPad*
%ADD14RoundRect,0.275000X-0.275000X-0.775000X0.275000X-0.775000X0.275000X0.775000X-0.275000X0.775000X0*%
G04 #@! TD*
G04 #@! TA.AperFunction,ComponentPad*
%ADD15C,0.600000*%
G04 #@! TD*
G04 #@! TA.AperFunction,ViaPad*
%ADD16C,0.800000*%
G04 #@! TD*
G04 #@! TA.AperFunction,ViaPad*
%ADD17C,0.400000*%
G04 #@! TD*
G04 #@! TA.AperFunction,Conductor*
%ADD18C,0.200000*%
G04 #@! TD*
G04 #@! TA.AperFunction,Conductor*
%ADD19C,0.100000*%
G04 #@! TD*
G04 APERTURE END LIST*
D10*
X167900000Y-117100000D03*
X136900000Y-86100000D03*
X167900000Y-86100000D03*
D11*
X169900000Y-91600000D03*
X169900000Y-111600000D03*
X149900000Y-111600000D03*
D12*
X137400000Y-111100000D03*
X136775000Y-110600000D03*
X138025000Y-110600000D03*
X137400000Y-110100000D03*
D10*
X136900000Y-117100000D03*
D13*
X148080000Y-83600000D03*
X156720000Y-83600000D03*
D14*
X148080000Y-88960000D03*
X156720000Y-88960000D03*
D12*
X144400000Y-88600000D03*
X143775000Y-88100000D03*
X145025000Y-88100000D03*
X144400000Y-87600000D03*
D15*
X151650000Y-116600000D03*
X150150000Y-116600000D03*
X150900000Y-117100000D03*
X151650000Y-117600000D03*
X150150000Y-117600000D03*
D16*
X160900000Y-90100000D03*
X147900000Y-86600000D03*
X136400000Y-105600000D03*
X153900000Y-93600000D03*
X151900000Y-91727000D03*
X146558001Y-101758001D03*
X148400000Y-105600000D03*
X152597515Y-93289197D03*
X165400000Y-107100000D03*
X168900000Y-97600000D03*
X157900000Y-106600000D03*
X168900000Y-105600000D03*
X162900000Y-103973000D03*
X158773000Y-96877000D03*
X162400000Y-100600000D03*
X162400000Y-102100000D03*
X165400000Y-96100000D03*
D17*
X134400000Y-92600000D03*
D16*
X145900000Y-91600000D03*
X156900000Y-91600000D03*
X157900000Y-97600000D03*
X152157175Y-106346924D03*
D17*
X145813000Y-102586376D03*
X147400000Y-99100000D03*
X146649999Y-99850001D03*
X146400000Y-100600000D03*
X147400000Y-100700000D03*
D16*
X144523000Y-111273000D03*
X135900000Y-97600000D03*
X153284829Y-96484829D03*
X154360395Y-107639605D03*
X160900000Y-110600000D03*
D17*
X149400000Y-106600000D03*
X150149999Y-106600000D03*
D16*
X140400000Y-84325000D03*
X134900000Y-95600000D03*
X134900000Y-107600000D03*
D17*
X157400000Y-103237000D03*
X168400000Y-95600000D03*
X168650000Y-100100000D03*
X155900000Y-106600000D03*
X168150000Y-101600000D03*
X156900000Y-105600000D03*
X157400000Y-104600000D03*
X168400000Y-94600000D03*
X160400000Y-102058126D03*
X157400000Y-100100000D03*
X156400000Y-96650000D03*
X162900000Y-95500000D03*
X157400000Y-96857740D03*
X160400000Y-96650000D03*
X160400000Y-101100000D03*
X157900000Y-99100000D03*
X145400000Y-100100000D03*
D18*
X148400000Y-105600000D02*
X148400000Y-97486712D01*
X148400000Y-97486712D02*
X152597515Y-93289197D01*
X168900000Y-97600000D02*
X169527000Y-98227000D01*
X169527000Y-98227000D02*
X169527000Y-105859712D01*
X168286712Y-107100000D02*
X165400000Y-107100000D01*
X169527000Y-105859712D02*
X168286712Y-107100000D01*
X164273000Y-103973000D02*
X165900000Y-105600000D01*
X162900000Y-103973000D02*
X164273000Y-103973000D01*
X157900000Y-106600000D02*
X160527000Y-103973000D01*
X160527000Y-103973000D02*
X162900000Y-103973000D01*
X165900000Y-105600000D02*
X168900000Y-105600000D01*
X161046130Y-100600000D02*
X162400000Y-100600000D01*
X158773000Y-98326870D02*
X161046130Y-100600000D01*
X158773000Y-96877000D02*
X158773000Y-98326870D01*
X162400000Y-102100000D02*
X165400000Y-99100000D01*
X165400000Y-99100000D02*
X165400000Y-96100000D01*
X155900000Y-96753870D02*
X155900000Y-92600000D01*
X145900000Y-91600000D02*
X146400000Y-91100000D01*
X146400000Y-91100000D02*
X156400000Y-91100000D01*
X155900000Y-92600000D02*
X156900000Y-91600000D01*
X152157175Y-96725771D02*
X153282946Y-95600000D01*
X153282946Y-95600000D02*
X154746130Y-95600000D01*
X152157175Y-106346924D02*
X152157175Y-96725771D01*
X156400000Y-91100000D02*
X156900000Y-91600000D01*
X154746130Y-95600000D02*
X155900000Y-96753870D01*
X157900000Y-97600000D02*
X156746130Y-97600000D01*
X156746130Y-97600000D02*
X155900000Y-96753870D01*
X144523000Y-111273000D02*
X148156395Y-107639605D01*
X153284829Y-96484829D02*
X154360395Y-97560395D01*
X148156395Y-107639605D02*
X154360395Y-107639605D01*
X154360395Y-97560395D02*
X154360395Y-107639605D01*
X133900000Y-96600000D02*
X133900000Y-106600000D01*
X133900000Y-106600000D02*
X134900000Y-107600000D01*
X134900000Y-95600000D02*
X133900000Y-96600000D01*
D19*
X168400000Y-95600000D02*
X167900000Y-96100000D01*
X157841000Y-102796000D02*
X157400000Y-103237000D01*
X167900000Y-96100000D02*
X167900000Y-99100000D01*
X164204000Y-102796000D02*
X157841000Y-102796000D01*
X167900000Y-99100000D02*
X164204000Y-102796000D01*
X156900000Y-106600000D02*
X159900000Y-103600000D01*
X155900000Y-106600000D02*
X156900000Y-106600000D01*
X163139002Y-103396000D02*
X163343002Y-103600000D01*
X162660998Y-103396000D02*
X163139002Y-103396000D01*
X162456998Y-103600000D02*
X162660998Y-103396000D01*
X166900000Y-103600000D02*
X168650000Y-101850000D01*
X159900000Y-103600000D02*
X162456998Y-103600000D01*
X163343002Y-103600000D02*
X166900000Y-103600000D01*
X168650000Y-101850000D02*
X168650000Y-100100000D01*
X162578156Y-103196000D02*
X166554000Y-103196000D01*
X166554000Y-103196000D02*
X168150000Y-101600000D01*
X157400000Y-105600000D02*
X159600000Y-103400000D01*
X162374156Y-103400000D02*
X162578156Y-103196000D01*
X156900000Y-105600000D02*
X157400000Y-105600000D01*
X159600000Y-103400000D02*
X162374156Y-103400000D01*
X164504000Y-102996000D02*
X159004000Y-102996000D01*
X168323000Y-99177000D02*
X164504000Y-102996000D01*
X159004000Y-102996000D02*
X157400000Y-104600000D01*
X168900000Y-95100000D02*
X168900000Y-96100000D01*
X168400000Y-94600000D02*
X168900000Y-95100000D01*
X168900000Y-96100000D02*
X168323000Y-96677000D01*
X168323000Y-96677000D02*
X168323000Y-99177000D01*
X160400000Y-102058126D02*
X159358126Y-102058126D01*
X159358126Y-102058126D02*
X157400000Y-100100000D01*
X156400000Y-96650000D02*
X157550000Y-95500000D01*
X157550000Y-95500000D02*
X162900000Y-95500000D01*
X157400000Y-96857740D02*
X157957740Y-96300000D01*
X157957740Y-96300000D02*
X160050000Y-96300000D01*
X160050000Y-96300000D02*
X160400000Y-96650000D01*
X157900000Y-99100000D02*
X158400000Y-99100000D01*
X158400000Y-99100000D02*
X160400000Y-101100000D01*
G04 #@! TA.AperFunction,Conductor*
G36*
X148047486Y-81912241D02*
G01*
X148087554Y-81900500D01*
X156651349Y-81900500D01*
X156687486Y-81912241D01*
X156727554Y-81900500D01*
X160263332Y-81900500D01*
X160321523Y-81919407D01*
X160357487Y-81968907D01*
X160357487Y-82030093D01*
X160354796Y-82037386D01*
X160339313Y-82074762D01*
X160339312Y-82074767D01*
X160319534Y-82224999D01*
X160319534Y-82225000D01*
X160337873Y-82364304D01*
X160339313Y-82375236D01*
X160397302Y-82515233D01*
X160489549Y-82635451D01*
X160609767Y-82727698D01*
X160749764Y-82785687D01*
X160862280Y-82800500D01*
X160862281Y-82800500D01*
X160937719Y-82800500D01*
X160937720Y-82800500D01*
X161050236Y-82785687D01*
X161190233Y-82727698D01*
X161310451Y-82635451D01*
X161402698Y-82515233D01*
X161460687Y-82375236D01*
X161480466Y-82225000D01*
X161460687Y-82074764D01*
X161445203Y-82037384D01*
X161440403Y-81976390D01*
X161472372Y-81924220D01*
X161528900Y-81900805D01*
X161536668Y-81900500D01*
X167852405Y-81900500D01*
X167897721Y-81900500D01*
X167902292Y-81900605D01*
X168282906Y-81918202D01*
X168292001Y-81919044D01*
X168667139Y-81971374D01*
X168676108Y-81973051D01*
X169044788Y-82059764D01*
X169053583Y-82062266D01*
X169412690Y-82182627D01*
X169421217Y-82185930D01*
X169767695Y-82338915D01*
X169775869Y-82342985D01*
X169940679Y-82434783D01*
X170106752Y-82527285D01*
X170114527Y-82532099D01*
X170426991Y-82746143D01*
X170434288Y-82751654D01*
X170725659Y-82993604D01*
X170732417Y-82999764D01*
X171000235Y-83267582D01*
X171006395Y-83274340D01*
X171248345Y-83565711D01*
X171253856Y-83573008D01*
X171467900Y-83885472D01*
X171472714Y-83893247D01*
X171657011Y-84224124D01*
X171661087Y-84232310D01*
X171814069Y-84578782D01*
X171817372Y-84587309D01*
X171937733Y-84946416D01*
X171940235Y-84955211D01*
X172026946Y-85323881D01*
X172028627Y-85332870D01*
X172080954Y-85707993D01*
X172081797Y-85717098D01*
X172099394Y-86097707D01*
X172099500Y-86102279D01*
X172099500Y-90245105D01*
X172080593Y-90303296D01*
X172031093Y-90339260D01*
X171969907Y-90339260D01*
X171920407Y-90303296D01*
X171916912Y-90298152D01*
X171845885Y-90186232D01*
X171653354Y-89953502D01*
X171653344Y-89953491D01*
X171433162Y-89746725D01*
X171433159Y-89746723D01*
X171188807Y-89569192D01*
X171188800Y-89569187D01*
X171188795Y-89569184D01*
X170924104Y-89423668D01*
X170924102Y-89423667D01*
X170924100Y-89423666D01*
X170643262Y-89312475D01*
X170350698Y-89237358D01*
X170350691Y-89237357D01*
X170350695Y-89237357D01*
X170051028Y-89199500D01*
X170051027Y-89199500D01*
X169748973Y-89199500D01*
X169748971Y-89199500D01*
X169702279Y-89205398D01*
X169642177Y-89193933D01*
X169600294Y-89149330D01*
X169592626Y-89088627D01*
X169622103Y-89035010D01*
X169638826Y-89022355D01*
X169811119Y-88918690D01*
X170104670Y-88695538D01*
X170372373Y-88441956D01*
X170611090Y-88160917D01*
X170818022Y-87855716D01*
X170990743Y-87529930D01*
X171127227Y-87187379D01*
X171225875Y-86832081D01*
X171285531Y-86468199D01*
X171305494Y-86100000D01*
X171285531Y-85731801D01*
X171225875Y-85367919D01*
X171158495Y-85125238D01*
X171127231Y-85012634D01*
X171127229Y-85012629D01*
X171127227Y-85012621D01*
X170990743Y-84670070D01*
X170818022Y-84344284D01*
X170611090Y-84039083D01*
X170483819Y-83889248D01*
X170372377Y-83758048D01*
X170372367Y-83758038D01*
X170104673Y-83504464D01*
X169811123Y-83281313D01*
X169811122Y-83281312D01*
X169811119Y-83281310D01*
X169495162Y-83091205D01*
X169290530Y-82996532D01*
X169160508Y-82936377D01*
X169160505Y-82936376D01*
X169160503Y-82936375D01*
X168811066Y-82818636D01*
X168811065Y-82818635D01*
X168811057Y-82818633D01*
X168450952Y-82739368D01*
X168450953Y-82739368D01*
X168084370Y-82699500D01*
X167715630Y-82699500D01*
X167349046Y-82739368D01*
X166988943Y-82818633D01*
X166988941Y-82818633D01*
X166639491Y-82936377D01*
X166304846Y-83091201D01*
X166304840Y-83091204D01*
X165988881Y-83281310D01*
X165988876Y-83281313D01*
X165695326Y-83504464D01*
X165427632Y-83758038D01*
X165427622Y-83758048D01*
X165188915Y-84039076D01*
X165188908Y-84039086D01*
X164981981Y-84344278D01*
X164809255Y-84670072D01*
X164672772Y-85012623D01*
X164672768Y-85012634D01*
X164574126Y-85367912D01*
X164514468Y-85731802D01*
X164494506Y-86100000D01*
X164514468Y-86468197D01*
X164574126Y-86832087D01*
X164672768Y-87187365D01*
X164672772Y-87187376D01*
X164672773Y-87187379D01*
X164680066Y-87205682D01*
X164809255Y-87529927D01*
X164877400Y-87658462D01*
X164937567Y-87771949D01*
X164981981Y-87855721D01*
X164986007Y-87861659D01*
X165188910Y-88160917D01*
X165188914Y-88160922D01*
X165188915Y-88160923D01*
X165427622Y-88441951D01*
X165427632Y-88441961D01*
X165695326Y-88695535D01*
X165695330Y-88695538D01*
X165988881Y-88918690D01*
X166304838Y-89108795D01*
X166639497Y-89263625D01*
X166988934Y-89381364D01*
X166988939Y-89381365D01*
X166988942Y-89381366D01*
X167349047Y-89460631D01*
X167349048Y-89460631D01*
X167349052Y-89460632D01*
X167715630Y-89500500D01*
X168084370Y-89500500D01*
X168445151Y-89461262D01*
X168505043Y-89473767D01*
X168546148Y-89519089D01*
X168552763Y-89579915D01*
X168522362Y-89633013D01*
X168514044Y-89639775D01*
X168366835Y-89746727D01*
X168146655Y-89953491D01*
X168146645Y-89953502D01*
X167954114Y-90186232D01*
X167792274Y-90441250D01*
X167792267Y-90441263D01*
X167663661Y-90714563D01*
X167570320Y-91001838D01*
X167570317Y-91001848D01*
X167513720Y-91298537D01*
X167494754Y-91600000D01*
X167513720Y-91901462D01*
X167567817Y-92185044D01*
X167570319Y-92198160D01*
X167660170Y-92474692D01*
X167663661Y-92485436D01*
X167792267Y-92758736D01*
X167792274Y-92758749D01*
X167954114Y-93013767D01*
X168146645Y-93246497D01*
X168146655Y-93246508D01*
X168366837Y-93453274D01*
X168366840Y-93453276D01*
X168611192Y-93630807D01*
X168611196Y-93630809D01*
X168611205Y-93630816D01*
X168875896Y-93776332D01*
X169156738Y-93887525D01*
X169449302Y-93962642D01*
X169649082Y-93987880D01*
X169748972Y-94000500D01*
X169748973Y-94000500D01*
X170051028Y-94000500D01*
X170100972Y-93994190D01*
X170350698Y-93962642D01*
X170643262Y-93887525D01*
X170924104Y-93776332D01*
X171188795Y-93630816D01*
X171433162Y-93453274D01*
X171653349Y-93246504D01*
X171845885Y-93013768D01*
X171916913Y-92901845D01*
X171964055Y-92862846D01*
X172025120Y-92859004D01*
X172076781Y-92891789D01*
X172099305Y-92948678D01*
X172099500Y-92954894D01*
X172099500Y-110245105D01*
X172080593Y-110303296D01*
X172031093Y-110339260D01*
X171969907Y-110339260D01*
X171920407Y-110303296D01*
X171916912Y-110298152D01*
X171845885Y-110186232D01*
X171653354Y-109953502D01*
X171653344Y-109953491D01*
X171433162Y-109746725D01*
X171433159Y-109746723D01*
X171188807Y-109569192D01*
X171188800Y-109569187D01*
X171188795Y-109569184D01*
X170924104Y-109423668D01*
X170924102Y-109423667D01*
X170924100Y-109423666D01*
X170643262Y-109312475D01*
X170350698Y-109237358D01*
X170350691Y-109237357D01*
X170350695Y-109237357D01*
X170051028Y-109199500D01*
X170051027Y-109199500D01*
X169748973Y-109199500D01*
X169748972Y-109199500D01*
X169449306Y-109237357D01*
X169156737Y-109312475D01*
X168875899Y-109423666D01*
X168611213Y-109569179D01*
X168611192Y-109569192D01*
X168366840Y-109746723D01*
X168366837Y-109746725D01*
X168146655Y-109953491D01*
X168146645Y-109953502D01*
X167954114Y-110186232D01*
X167792274Y-110441250D01*
X167792267Y-110441263D01*
X167663661Y-110714563D01*
X167645015Y-110771950D01*
X167575582Y-110985644D01*
X167570320Y-111001838D01*
X167570317Y-111001848D01*
X167513720Y-111298537D01*
X167494754Y-111600000D01*
X167513720Y-111901462D01*
X167570317Y-112198151D01*
X167570319Y-112198160D01*
X167663659Y-112485430D01*
X167663661Y-112485436D01*
X167792267Y-112758736D01*
X167792274Y-112758749D01*
X167954114Y-113013767D01*
X168146645Y-113246497D01*
X168146655Y-113246508D01*
X168366837Y-113453274D01*
X168366840Y-113453276D01*
X168514043Y-113560224D01*
X168550007Y-113609724D01*
X168550008Y-113670909D01*
X168514044Y-113720409D01*
X168455853Y-113739317D01*
X168445149Y-113738737D01*
X168084371Y-113699500D01*
X168084370Y-113699500D01*
X167715630Y-113699500D01*
X167349046Y-113739368D01*
X166988943Y-113818633D01*
X166988941Y-113818633D01*
X166639491Y-113936377D01*
X166304846Y-114091201D01*
X166304840Y-114091204D01*
X165988881Y-114281310D01*
X165988876Y-114281313D01*
X165695326Y-114504464D01*
X165427632Y-114758038D01*
X165427622Y-114758048D01*
X165188915Y-115039076D01*
X165188908Y-115039086D01*
X164981981Y-115344278D01*
X164809255Y-115670072D01*
X164672772Y-116012623D01*
X164672768Y-116012634D01*
X164574126Y-116367912D01*
X164514468Y-116731802D01*
X164494506Y-117100000D01*
X164514468Y-117468197D01*
X164574126Y-117832087D01*
X164672768Y-118187365D01*
X164672772Y-118187376D01*
X164809255Y-118529927D01*
X164857654Y-118621217D01*
X164981978Y-118855716D01*
X165188910Y-119160917D01*
X165188914Y-119160922D01*
X165188915Y-119160923D01*
X165427622Y-119441951D01*
X165427632Y-119441961D01*
X165695326Y-119695535D01*
X165695330Y-119695538D01*
X165988881Y-119918690D01*
X166304838Y-120108795D01*
X166639497Y-120263625D01*
X166988934Y-120381364D01*
X166988939Y-120381365D01*
X166988942Y-120381366D01*
X167349047Y-120460631D01*
X167349048Y-120460631D01*
X167349052Y-120460632D01*
X167715630Y-120500500D01*
X168084370Y-120500500D01*
X168450948Y-120460632D01*
X168493467Y-120451273D01*
X168570987Y-120434209D01*
X168811057Y-120381366D01*
X168811058Y-120381366D01*
X168811060Y-120381365D01*
X168811066Y-120381364D01*
X169160503Y-120263625D01*
X169495162Y-120108795D01*
X169811119Y-119918690D01*
X170104670Y-119695538D01*
X170372373Y-119441956D01*
X170611090Y-119160917D01*
X170818022Y-118855716D01*
X170990743Y-118529930D01*
X171127227Y-118187379D01*
X171140380Y-118140008D01*
X171225873Y-117832087D01*
X171225875Y-117832081D01*
X171285531Y-117468199D01*
X171305494Y-117100000D01*
X171285531Y-116731801D01*
X171225875Y-116367919D01*
X171213414Y-116323040D01*
X171127231Y-116012634D01*
X171127229Y-116012629D01*
X171127227Y-116012621D01*
X170990743Y-115670070D01*
X170818022Y-115344284D01*
X170611090Y-115039083D01*
X170591399Y-115015901D01*
X170372377Y-114758048D01*
X170372367Y-114758038D01*
X170104673Y-114504464D01*
X169811123Y-114281313D01*
X169811122Y-114281312D01*
X169811119Y-114281310D01*
X169638830Y-114177647D01*
X169598719Y-114131448D01*
X169593423Y-114070492D01*
X169624967Y-114018065D01*
X169681303Y-113994192D01*
X169702278Y-113994600D01*
X169748973Y-114000500D01*
X170051028Y-114000500D01*
X170100972Y-113994190D01*
X170350698Y-113962642D01*
X170643262Y-113887525D01*
X170924104Y-113776332D01*
X171188795Y-113630816D01*
X171433162Y-113453274D01*
X171653349Y-113246504D01*
X171845885Y-113013768D01*
X171916913Y-112901845D01*
X171964055Y-112862846D01*
X172025120Y-112859004D01*
X172076781Y-112891789D01*
X172099305Y-112948678D01*
X172099500Y-112954894D01*
X172099500Y-117097720D01*
X172099394Y-117102292D01*
X172081797Y-117482901D01*
X172080954Y-117492006D01*
X172028627Y-117867129D01*
X172026946Y-117876118D01*
X171940235Y-118244788D01*
X171937733Y-118253583D01*
X171817372Y-118612690D01*
X171814069Y-118621217D01*
X171661087Y-118967689D01*
X171657011Y-118975875D01*
X171472714Y-119306752D01*
X171467900Y-119314527D01*
X171253856Y-119626991D01*
X171248345Y-119634288D01*
X171006395Y-119925659D01*
X171000235Y-119932417D01*
X170732417Y-120200235D01*
X170725659Y-120206395D01*
X170434288Y-120448345D01*
X170426991Y-120453856D01*
X170114527Y-120667900D01*
X170106752Y-120672714D01*
X169775875Y-120857011D01*
X169767689Y-120861087D01*
X169421217Y-121014069D01*
X169412690Y-121017372D01*
X169053583Y-121137733D01*
X169044788Y-121140235D01*
X168676118Y-121226946D01*
X168667129Y-121228627D01*
X168292006Y-121280954D01*
X168282901Y-121281797D01*
X167902293Y-121299394D01*
X167897721Y-121299500D01*
X136902279Y-121299500D01*
X136897707Y-121299394D01*
X136517098Y-121281797D01*
X136507993Y-121280954D01*
X136132870Y-121228627D01*
X136123881Y-121226946D01*
X135755211Y-121140235D01*
X135746416Y-121137733D01*
X135387309Y-121017372D01*
X135378782Y-121014069D01*
X135032310Y-120861087D01*
X135024124Y-120857011D01*
X134693247Y-120672714D01*
X134685472Y-120667900D01*
X134373008Y-120453856D01*
X134365711Y-120448345D01*
X134074340Y-120206395D01*
X134067582Y-120200235D01*
X133799764Y-119932417D01*
X133793604Y-119925659D01*
X133551654Y-119634288D01*
X133546143Y-119626991D01*
X133332099Y-119314527D01*
X133327285Y-119306752D01*
X133142988Y-118975875D01*
X133138912Y-118967689D01*
X133089473Y-118855721D01*
X132985930Y-118621217D01*
X132982627Y-118612690D01*
X132862266Y-118253583D01*
X132859764Y-118244788D01*
X132773051Y-117876108D01*
X132771374Y-117867139D01*
X132719044Y-117492001D01*
X132718202Y-117482901D01*
X132717522Y-117468199D01*
X132700606Y-117102292D01*
X132700553Y-117100000D01*
X133494506Y-117100000D01*
X133514468Y-117468197D01*
X133574126Y-117832087D01*
X133672768Y-118187365D01*
X133672772Y-118187376D01*
X133809255Y-118529927D01*
X133857654Y-118621217D01*
X133981978Y-118855716D01*
X134188910Y-119160917D01*
X134188914Y-119160922D01*
X134188915Y-119160923D01*
X134427622Y-119441951D01*
X134427632Y-119441961D01*
X134695326Y-119695535D01*
X134695330Y-119695538D01*
X134988881Y-119918690D01*
X135304838Y-120108795D01*
X135639497Y-120263625D01*
X135988934Y-120381364D01*
X135988939Y-120381365D01*
X135988942Y-120381366D01*
X136349047Y-120460631D01*
X136349048Y-120460631D01*
X136349052Y-120460632D01*
X136715630Y-120500500D01*
X137084370Y-120500500D01*
X137450948Y-120460632D01*
X137493467Y-120451273D01*
X137570987Y-120434209D01*
X137811057Y-120381366D01*
X137811058Y-120381366D01*
X137811060Y-120381365D01*
X137811066Y-120381364D01*
X138160503Y-120263625D01*
X138495162Y-120108795D01*
X138811119Y-119918690D01*
X139104670Y-119695538D01*
X139372373Y-119441956D01*
X139611090Y-119160917D01*
X139818022Y-118855716D01*
X139990743Y-118529930D01*
X140127227Y-118187379D01*
X140140380Y-118140008D01*
X140225873Y-117832087D01*
X140225875Y-117832081D01*
X140263923Y-117600002D01*
X149644353Y-117600002D01*
X149664834Y-117742456D01*
X149705765Y-117832081D01*
X149724623Y-117873373D01*
X149727002Y-117876118D01*
X149818873Y-117982144D01*
X149939942Y-118059950D01*
X149939947Y-118059953D01*
X150046403Y-118091211D01*
X150078035Y-118100499D01*
X150078036Y-118100499D01*
X150078039Y-118100500D01*
X150078041Y-118100500D01*
X150221959Y-118100500D01*
X150221961Y-118100500D01*
X150360053Y-118059953D01*
X150481128Y-117982143D01*
X150575377Y-117873373D01*
X150635165Y-117742457D01*
X150646301Y-117664997D01*
X150673296Y-117610093D01*
X150727410Y-117581539D01*
X150772180Y-117584098D01*
X150828039Y-117600500D01*
X150828041Y-117600500D01*
X150971959Y-117600500D01*
X150971961Y-117600500D01*
X151027815Y-117584100D01*
X151088975Y-117585847D01*
X151137428Y-117623210D01*
X151153698Y-117665001D01*
X151164834Y-117742456D01*
X151205765Y-117832081D01*
X151224623Y-117873373D01*
X151227002Y-117876118D01*
X151318873Y-117982144D01*
X151439942Y-118059950D01*
X151439947Y-118059953D01*
X151546403Y-118091211D01*
X151578035Y-118100499D01*
X151578036Y-118100499D01*
X151578039Y-118100500D01*
X151578041Y-118100500D01*
X151721959Y-118100500D01*
X151721961Y-118100500D01*
X151860053Y-118059953D01*
X151981128Y-117982143D01*
X152075377Y-117873373D01*
X152135165Y-117742457D01*
X152155575Y-117600500D01*
X152155647Y-117600002D01*
X152155647Y-117599997D01*
X152135165Y-117457543D01*
X152075377Y-117326628D01*
X152075377Y-117326627D01*
X151981128Y-117217857D01*
X151981127Y-117217856D01*
X151981126Y-117217855D01*
X151927331Y-117183284D01*
X151888600Y-117135919D01*
X151885106Y-117074833D01*
X151918185Y-117023360D01*
X151927331Y-117016716D01*
X151981126Y-116982144D01*
X151981125Y-116982144D01*
X151981128Y-116982143D01*
X152075377Y-116873373D01*
X152135165Y-116742457D01*
X152153361Y-116615900D01*
X152155647Y-116600002D01*
X152155647Y-116599997D01*
X152135165Y-116457543D01*
X152135164Y-116457540D01*
X152075377Y-116326627D01*
X151981128Y-116217857D01*
X151981127Y-116217856D01*
X151981126Y-116217855D01*
X151860057Y-116140049D01*
X151860054Y-116140047D01*
X151860053Y-116140047D01*
X151860050Y-116140046D01*
X151721964Y-116099500D01*
X151721961Y-116099500D01*
X151578039Y-116099500D01*
X151578035Y-116099500D01*
X151439949Y-116140046D01*
X151439942Y-116140049D01*
X151318873Y-116217855D01*
X151224622Y-116326628D01*
X151164834Y-116457543D01*
X151153698Y-116534999D01*
X151126702Y-116589907D01*
X151072588Y-116618460D01*
X151027815Y-116615900D01*
X150971964Y-116599500D01*
X150971961Y-116599500D01*
X150828039Y-116599500D01*
X150828035Y-116599500D01*
X150772184Y-116615900D01*
X150711024Y-116614152D01*
X150662571Y-116576789D01*
X150646301Y-116535002D01*
X150635165Y-116457543D01*
X150575377Y-116326627D01*
X150481128Y-116217857D01*
X150481127Y-116217856D01*
X150481126Y-116217855D01*
X150360057Y-116140049D01*
X150360054Y-116140047D01*
X150360053Y-116140047D01*
X150360050Y-116140046D01*
X150221964Y-116099500D01*
X150221961Y-116099500D01*
X150078039Y-116099500D01*
X150078035Y-116099500D01*
X149939949Y-116140046D01*
X149939942Y-116140049D01*
X149818873Y-116217855D01*
X149724622Y-116326628D01*
X149664834Y-116457543D01*
X149644353Y-116599997D01*
X149644353Y-116600002D01*
X149664834Y-116742456D01*
X149724622Y-116873371D01*
X149724623Y-116873373D01*
X149818872Y-116982143D01*
X149872669Y-117016716D01*
X149911400Y-117064082D01*
X149914893Y-117125168D01*
X149881813Y-117176640D01*
X149872669Y-117183284D01*
X149818872Y-117217857D01*
X149724622Y-117326628D01*
X149664834Y-117457543D01*
X149644353Y-117599997D01*
X149644353Y-117600002D01*
X140263923Y-117600002D01*
X140285531Y-117468199D01*
X140305494Y-117100000D01*
X140285531Y-116731801D01*
X140225875Y-116367919D01*
X140213414Y-116323040D01*
X140127231Y-116012634D01*
X140127229Y-116012629D01*
X140127227Y-116012621D01*
X139990743Y-115670070D01*
X139818022Y-115344284D01*
X139611090Y-115039083D01*
X139591399Y-115015901D01*
X139372377Y-114758048D01*
X139372367Y-114758038D01*
X139104673Y-114504464D01*
X138811123Y-114281313D01*
X138811122Y-114281312D01*
X138811119Y-114281310D01*
X138495162Y-114091205D01*
X138299107Y-114000500D01*
X138160508Y-113936377D01*
X138160505Y-113936376D01*
X138160503Y-113936375D01*
X137811066Y-113818636D01*
X137811065Y-113818635D01*
X137811057Y-113818633D01*
X137450952Y-113739368D01*
X137450953Y-113739368D01*
X137084370Y-113699500D01*
X136715630Y-113699500D01*
X136349046Y-113739368D01*
X135988943Y-113818633D01*
X135988941Y-113818633D01*
X135639491Y-113936377D01*
X135304846Y-114091201D01*
X135304840Y-114091204D01*
X134988881Y-114281310D01*
X134988876Y-114281313D01*
X134695326Y-114504464D01*
X134427632Y-114758038D01*
X134427622Y-114758048D01*
X134188915Y-115039076D01*
X134188908Y-115039086D01*
X133981981Y-115344278D01*
X133809255Y-115670072D01*
X133672772Y-116012623D01*
X133672768Y-116012634D01*
X133574126Y-116367912D01*
X133514468Y-116731802D01*
X133494506Y-117100000D01*
X132700553Y-117100000D01*
X132700500Y-117097720D01*
X132700500Y-111600000D01*
X147494754Y-111600000D01*
X147513720Y-111901462D01*
X147570317Y-112198151D01*
X147570319Y-112198160D01*
X147663659Y-112485430D01*
X147663661Y-112485436D01*
X147792267Y-112758736D01*
X147792274Y-112758749D01*
X147954114Y-113013767D01*
X148146645Y-113246497D01*
X148146655Y-113246508D01*
X148366837Y-113453274D01*
X148366840Y-113453276D01*
X148611192Y-113630807D01*
X148611196Y-113630809D01*
X148611205Y-113630816D01*
X148875896Y-113776332D01*
X149156738Y-113887525D01*
X149449302Y-113962642D01*
X149649082Y-113987880D01*
X149748972Y-114000500D01*
X149748973Y-114000500D01*
X150051028Y-114000500D01*
X150100972Y-113994190D01*
X150350698Y-113962642D01*
X150643262Y-113887525D01*
X150924104Y-113776332D01*
X151188795Y-113630816D01*
X151433162Y-113453274D01*
X151653349Y-113246504D01*
X151845885Y-113013768D01*
X152007733Y-112758736D01*
X152136341Y-112485430D01*
X152229681Y-112198160D01*
X152286280Y-111901457D01*
X152305246Y-111600000D01*
X152286280Y-111298543D01*
X152229681Y-111001840D01*
X152136341Y-110714570D01*
X152136239Y-110714354D01*
X152082428Y-110600000D01*
X160294318Y-110600000D01*
X160314955Y-110756758D01*
X160314957Y-110756766D01*
X160375461Y-110902836D01*
X160375462Y-110902839D01*
X160471713Y-111028276D01*
X160471718Y-111028282D01*
X160597159Y-111124536D01*
X160743238Y-111185044D01*
X160860809Y-111200522D01*
X160899999Y-111205682D01*
X160900000Y-111205682D01*
X160900001Y-111205682D01*
X160931352Y-111201554D01*
X161056762Y-111185044D01*
X161202841Y-111124536D01*
X161328282Y-111028282D01*
X161424536Y-110902841D01*
X161424537Y-110902839D01*
X161424539Y-110902836D01*
X161485042Y-110756766D01*
X161485044Y-110756762D01*
X161505682Y-110600000D01*
X161485044Y-110443238D01*
X161451253Y-110361659D01*
X161424537Y-110297161D01*
X161424537Y-110297160D01*
X161328286Y-110171723D01*
X161328285Y-110171722D01*
X161328282Y-110171718D01*
X161328277Y-110171714D01*
X161328276Y-110171713D01*
X161202838Y-110075462D01*
X161056766Y-110014957D01*
X161056758Y-110014955D01*
X160900001Y-109994318D01*
X160899999Y-109994318D01*
X160743241Y-110014955D01*
X160743233Y-110014957D01*
X160597161Y-110075462D01*
X160597160Y-110075462D01*
X160471723Y-110171713D01*
X160471713Y-110171723D01*
X160375462Y-110297160D01*
X160375462Y-110297161D01*
X160314957Y-110443233D01*
X160314955Y-110443241D01*
X160294318Y-110599999D01*
X160294318Y-110600000D01*
X152082428Y-110600000D01*
X152037956Y-110505492D01*
X152007733Y-110441264D01*
X152007729Y-110441259D01*
X152007725Y-110441250D01*
X151845885Y-110186232D01*
X151653354Y-109953502D01*
X151653344Y-109953491D01*
X151433162Y-109746725D01*
X151433159Y-109746723D01*
X151188807Y-109569192D01*
X151188800Y-109569187D01*
X151188795Y-109569184D01*
X150924104Y-109423668D01*
X150924102Y-109423667D01*
X150924100Y-109423666D01*
X150643262Y-109312475D01*
X150350698Y-109237358D01*
X150350691Y-109237357D01*
X150350695Y-109237357D01*
X150051028Y-109199500D01*
X150051027Y-109199500D01*
X149748973Y-109199500D01*
X149748972Y-109199500D01*
X149449306Y-109237357D01*
X149156737Y-109312475D01*
X148875899Y-109423666D01*
X148611213Y-109569179D01*
X148611192Y-109569192D01*
X148366840Y-109746723D01*
X148366837Y-109746725D01*
X148146655Y-109953491D01*
X148146645Y-109953502D01*
X147954114Y-110186232D01*
X147792274Y-110441250D01*
X147792267Y-110441263D01*
X147663661Y-110714563D01*
X147645015Y-110771950D01*
X147575582Y-110985644D01*
X147570320Y-111001838D01*
X147570317Y-111001848D01*
X147513720Y-111298537D01*
X147494754Y-111600000D01*
X132700500Y-111600000D01*
X132700500Y-110600000D01*
X136369508Y-110600000D01*
X136384476Y-110694508D01*
X136389354Y-110725303D01*
X136389355Y-110725307D01*
X136413121Y-110771950D01*
X136446950Y-110838342D01*
X136536658Y-110928050D01*
X136649696Y-110985646D01*
X136775000Y-111005492D01*
X136880928Y-110988714D01*
X136941356Y-110998285D01*
X136984621Y-111041549D01*
X136992650Y-111092209D01*
X136994508Y-111092209D01*
X136994508Y-111100000D01*
X137014354Y-111225303D01*
X137014355Y-111225307D01*
X137051668Y-111298537D01*
X137071950Y-111338342D01*
X137161658Y-111428050D01*
X137274696Y-111485646D01*
X137400000Y-111505492D01*
X137525304Y-111485646D01*
X137638342Y-111428050D01*
X137728050Y-111338342D01*
X137785646Y-111225304D01*
X137805492Y-111100000D01*
X137805492Y-111092209D01*
X137807354Y-111092209D01*
X137815377Y-111041550D01*
X137858642Y-110998285D01*
X137919070Y-110988714D01*
X138025000Y-111005492D01*
X138150304Y-110985646D01*
X138263342Y-110928050D01*
X138353050Y-110838342D01*
X138410646Y-110725304D01*
X138430492Y-110600000D01*
X138410646Y-110474696D01*
X138353050Y-110361658D01*
X138263342Y-110271950D01*
X138210656Y-110245105D01*
X138150307Y-110214355D01*
X138150304Y-110214354D01*
X138025000Y-110194508D01*
X137919073Y-110211284D01*
X137858642Y-110201714D01*
X137815377Y-110158449D01*
X137807354Y-110107791D01*
X137805492Y-110107791D01*
X137805492Y-110099999D01*
X137801606Y-110075462D01*
X137785646Y-109974696D01*
X137728050Y-109861658D01*
X137638342Y-109771950D01*
X137634406Y-109769944D01*
X137525307Y-109714355D01*
X137525304Y-109714354D01*
X137400000Y-109694508D01*
X137274696Y-109714354D01*
X137274692Y-109714355D01*
X137161659Y-109771949D01*
X137071949Y-109861659D01*
X137014355Y-109974692D01*
X137014354Y-109974696D01*
X136994508Y-110099999D01*
X136994508Y-110107791D01*
X136992648Y-110107791D01*
X136984615Y-110158462D01*
X136941344Y-110201720D01*
X136880925Y-110211284D01*
X136775000Y-110194508D01*
X136649696Y-110214354D01*
X136649692Y-110214355D01*
X136536659Y-110271949D01*
X136446949Y-110361659D01*
X136389355Y-110474692D01*
X136389354Y-110474696D01*
X136369508Y-110600000D01*
X132700500Y-110600000D01*
X132700500Y-96585881D01*
X133594621Y-96585881D01*
X133596910Y-96602290D01*
X133598551Y-96614053D01*
X133599500Y-96627730D01*
X133599500Y-106534835D01*
X133597280Y-106548513D01*
X133598494Y-106548683D01*
X133597226Y-106557766D01*
X133599394Y-106604641D01*
X133599500Y-106609213D01*
X133599500Y-106627844D01*
X133599522Y-106627966D01*
X133601101Y-106641577D01*
X133602414Y-106669987D01*
X133602415Y-106669994D01*
X133606384Y-106678982D01*
X133613132Y-106700772D01*
X133614939Y-106710433D01*
X133623809Y-106724760D01*
X133629912Y-106734617D01*
X133636301Y-106746738D01*
X133647794Y-106772765D01*
X133654745Y-106779716D01*
X133668907Y-106797596D01*
X133674081Y-106805952D01*
X133696781Y-106823094D01*
X133707117Y-106832088D01*
X134280819Y-107405791D01*
X134308596Y-107460308D01*
X134308968Y-107488717D01*
X134294318Y-107599999D01*
X134294318Y-107600000D01*
X134314955Y-107756758D01*
X134314957Y-107756766D01*
X134375462Y-107902838D01*
X134375462Y-107902839D01*
X134375464Y-107902841D01*
X134471718Y-108028282D01*
X134597159Y-108124536D01*
X134743238Y-108185044D01*
X134860809Y-108200522D01*
X134899999Y-108205682D01*
X134900000Y-108205682D01*
X134900001Y-108205682D01*
X134931352Y-108201554D01*
X135056762Y-108185044D01*
X135202841Y-108124536D01*
X135328282Y-108028282D01*
X135424536Y-107902841D01*
X135485044Y-107756762D01*
X135505682Y-107600000D01*
X135485044Y-107443238D01*
X135467341Y-107400500D01*
X135424537Y-107297161D01*
X135424537Y-107297160D01*
X135328286Y-107171723D01*
X135328285Y-107171722D01*
X135328282Y-107171718D01*
X135328277Y-107171714D01*
X135328276Y-107171713D01*
X135202838Y-107075462D01*
X135056766Y-107014957D01*
X135056758Y-107014955D01*
X134900001Y-106994318D01*
X134899998Y-106994318D01*
X134788715Y-107008968D01*
X134728555Y-106997818D01*
X134705790Y-106980819D01*
X134324971Y-106600000D01*
X148994508Y-106600000D01*
X149006977Y-106678730D01*
X149014354Y-106725303D01*
X149014355Y-106725307D01*
X149060026Y-106814940D01*
X149071950Y-106838342D01*
X149161658Y-106928050D01*
X149274696Y-106985646D01*
X149400000Y-107005492D01*
X149525304Y-106985646D01*
X149638342Y-106928050D01*
X149704997Y-106861394D01*
X149759511Y-106833618D01*
X149819943Y-106843189D01*
X149844999Y-106861392D01*
X149911657Y-106928050D01*
X150024695Y-106985646D01*
X150149999Y-107005492D01*
X150275303Y-106985646D01*
X150388341Y-106928050D01*
X150478049Y-106838342D01*
X150535645Y-106725304D01*
X150555491Y-106600000D01*
X150535645Y-106474696D01*
X150478049Y-106361658D01*
X150388341Y-106271950D01*
X150384405Y-106269944D01*
X150275306Y-106214355D01*
X150275303Y-106214354D01*
X150149999Y-106194508D01*
X150024695Y-106214354D01*
X150024691Y-106214355D01*
X149911657Y-106271950D01*
X149911655Y-106271951D01*
X149845002Y-106338604D01*
X149790485Y-106366381D01*
X149730053Y-106356809D01*
X149704998Y-106338606D01*
X149638342Y-106271950D01*
X149634406Y-106269944D01*
X149525307Y-106214355D01*
X149525304Y-106214354D01*
X149400000Y-106194508D01*
X149274696Y-106214354D01*
X149274692Y-106214355D01*
X149161659Y-106271949D01*
X149071949Y-106361659D01*
X149014355Y-106474692D01*
X149014354Y-106474696D01*
X149001815Y-106553868D01*
X148994508Y-106600000D01*
X134324971Y-106600000D01*
X134229496Y-106504525D01*
X134201719Y-106450008D01*
X134200500Y-106434521D01*
X134200500Y-105600000D01*
X135794318Y-105600000D01*
X135814955Y-105756758D01*
X135814957Y-105756766D01*
X135875461Y-105902836D01*
X135875462Y-105902839D01*
X135962236Y-106015925D01*
X135971718Y-106028282D01*
X135971722Y-106028285D01*
X135971723Y-106028286D01*
X136001082Y-106050813D01*
X136097159Y-106124536D01*
X136097160Y-106124536D01*
X136097161Y-106124537D01*
X136217773Y-106174496D01*
X136243238Y-106185044D01*
X136360809Y-106200522D01*
X136399999Y-106205682D01*
X136400000Y-106205682D01*
X136400001Y-106205682D01*
X136431352Y-106201554D01*
X136556762Y-106185044D01*
X136702841Y-106124536D01*
X136828282Y-106028282D01*
X136924536Y-105902841D01*
X136924537Y-105902839D01*
X136924539Y-105902836D01*
X136985042Y-105756766D01*
X136985044Y-105756762D01*
X137005682Y-105600000D01*
X147794318Y-105600000D01*
X147814955Y-105756758D01*
X147814957Y-105756766D01*
X147875461Y-105902836D01*
X147875462Y-105902839D01*
X147962236Y-106015925D01*
X147971718Y-106028282D01*
X147971722Y-106028285D01*
X147971723Y-106028286D01*
X148001082Y-106050813D01*
X148097159Y-106124536D01*
X148097160Y-106124536D01*
X148097161Y-106124537D01*
X148217773Y-106174496D01*
X148243238Y-106185044D01*
X148360809Y-106200522D01*
X148399999Y-106205682D01*
X148400000Y-106205682D01*
X148400001Y-106205682D01*
X148431352Y-106201554D01*
X148556762Y-106185044D01*
X148702841Y-106124536D01*
X148828282Y-106028282D01*
X148924536Y-105902841D01*
X148924537Y-105902839D01*
X148924539Y-105902836D01*
X148985042Y-105756766D01*
X148985044Y-105756762D01*
X149005682Y-105600000D01*
X148985044Y-105443238D01*
X148951253Y-105361659D01*
X148924537Y-105297161D01*
X148924537Y-105297160D01*
X148828286Y-105171723D01*
X148828285Y-105171722D01*
X148828282Y-105171718D01*
X148828277Y-105171714D01*
X148828276Y-105171713D01*
X148739233Y-105103388D01*
X148704577Y-105052963D01*
X148700500Y-105024846D01*
X148700500Y-97652191D01*
X148719407Y-97594000D01*
X148729496Y-97582187D01*
X150561183Y-95750500D01*
X152403307Y-93908375D01*
X152457822Y-93880600D01*
X152486229Y-93880228D01*
X152597515Y-93894879D01*
X152597516Y-93894879D01*
X152653374Y-93887525D01*
X152754277Y-93874241D01*
X152900356Y-93813733D01*
X153025797Y-93717479D01*
X153122051Y-93592038D01*
X153122054Y-93592029D01*
X153122695Y-93591195D01*
X153173119Y-93556539D01*
X153234284Y-93558140D01*
X153282826Y-93595387D01*
X153299391Y-93638539D01*
X153314955Y-93756759D01*
X153314957Y-93756766D01*
X153375462Y-93902838D01*
X153375462Y-93902839D01*
X153450400Y-94000500D01*
X153471718Y-94028282D01*
X153597159Y-94124536D01*
X153743238Y-94185044D01*
X153860809Y-94200522D01*
X153899999Y-94205682D01*
X153900000Y-94205682D01*
X153900001Y-94205682D01*
X153931352Y-94201554D01*
X154056762Y-94185044D01*
X154202841Y-94124536D01*
X154328282Y-94028282D01*
X154424536Y-93902841D01*
X154485044Y-93756762D01*
X154505682Y-93600000D01*
X154485044Y-93443238D01*
X154424537Y-93297161D01*
X154424537Y-93297160D01*
X154328286Y-93171723D01*
X154328285Y-93171722D01*
X154328282Y-93171718D01*
X154328277Y-93171714D01*
X154328276Y-93171713D01*
X154202838Y-93075462D01*
X154056766Y-93014957D01*
X154056758Y-93014955D01*
X153900001Y-92994318D01*
X153899999Y-92994318D01*
X153743241Y-93014955D01*
X153743233Y-93014957D01*
X153597161Y-93075462D01*
X153597160Y-93075462D01*
X153471723Y-93171713D01*
X153471713Y-93171723D01*
X153374818Y-93298001D01*
X153324394Y-93332657D01*
X153263229Y-93331056D01*
X153214688Y-93293808D01*
X153198123Y-93250656D01*
X153187731Y-93171723D01*
X153182559Y-93132435D01*
X153133407Y-93013772D01*
X153122052Y-92986358D01*
X153122052Y-92986357D01*
X153025801Y-92860920D01*
X153025800Y-92860919D01*
X153025797Y-92860915D01*
X153025792Y-92860911D01*
X153025791Y-92860910D01*
X152900353Y-92764659D01*
X152754281Y-92704154D01*
X152754273Y-92704152D01*
X152597516Y-92683515D01*
X152597514Y-92683515D01*
X152440756Y-92704152D01*
X152440748Y-92704154D01*
X152294676Y-92764659D01*
X152294675Y-92764659D01*
X152169238Y-92860910D01*
X152169228Y-92860920D01*
X152072977Y-92986357D01*
X152072977Y-92986358D01*
X152012472Y-93132430D01*
X152012470Y-93132438D01*
X151991833Y-93289196D01*
X151991833Y-93289197D01*
X152006483Y-93400479D01*
X151995333Y-93460640D01*
X151978334Y-93483405D01*
X148233590Y-97228149D01*
X148222361Y-97236262D01*
X148223090Y-97237227D01*
X148215771Y-97242753D01*
X148184141Y-97277449D01*
X148180989Y-97280750D01*
X148167830Y-97293910D01*
X148167818Y-97293924D01*
X148167749Y-97294026D01*
X148159255Y-97304747D01*
X148140083Y-97325778D01*
X148140083Y-97325779D01*
X148136529Y-97334952D01*
X148125896Y-97355124D01*
X148120346Y-97363227D01*
X148120341Y-97363236D01*
X148113830Y-97390918D01*
X148109777Y-97404008D01*
X148099501Y-97430535D01*
X148099500Y-97430541D01*
X148099500Y-97440363D01*
X148096870Y-97463030D01*
X148094621Y-97472591D01*
X148098551Y-97500765D01*
X148099500Y-97514442D01*
X148099500Y-105024846D01*
X148080593Y-105083037D01*
X148060767Y-105103388D01*
X147971723Y-105171713D01*
X147971713Y-105171723D01*
X147875462Y-105297160D01*
X147875462Y-105297161D01*
X147814957Y-105443233D01*
X147814955Y-105443241D01*
X147794318Y-105599999D01*
X147794318Y-105600000D01*
X137005682Y-105600000D01*
X136985044Y-105443238D01*
X136951253Y-105361659D01*
X136924537Y-105297161D01*
X136924537Y-105297160D01*
X136828286Y-105171723D01*
X136828285Y-105171722D01*
X136828282Y-105171718D01*
X136828277Y-105171714D01*
X136828276Y-105171713D01*
X136702838Y-105075462D01*
X136556766Y-105014957D01*
X136556758Y-105014955D01*
X136400001Y-104994318D01*
X136399999Y-104994318D01*
X136243241Y-105014955D01*
X136243233Y-105014957D01*
X136097161Y-105075462D01*
X136097160Y-105075462D01*
X135971723Y-105171713D01*
X135971713Y-105171723D01*
X135875462Y-105297160D01*
X135875462Y-105297161D01*
X135814957Y-105443233D01*
X135814955Y-105443241D01*
X135794318Y-105599999D01*
X135794318Y-105600000D01*
X134200500Y-105600000D01*
X134200500Y-102586376D01*
X145407508Y-102586376D01*
X145427354Y-102711679D01*
X145427355Y-102711683D01*
X145473805Y-102802844D01*
X145484950Y-102824718D01*
X145574658Y-102914426D01*
X145687696Y-102972022D01*
X145813000Y-102991868D01*
X145938304Y-102972022D01*
X146051342Y-102914426D01*
X146141050Y-102824718D01*
X146198646Y-102711680D01*
X146218492Y-102586376D01*
X146198646Y-102461072D01*
X146190054Y-102444209D01*
X146180482Y-102383777D01*
X146208259Y-102329260D01*
X146262775Y-102301482D01*
X146316147Y-102307798D01*
X146401239Y-102343045D01*
X146518810Y-102358523D01*
X146558000Y-102363683D01*
X146558001Y-102363683D01*
X146558002Y-102363683D01*
X146589353Y-102359555D01*
X146714763Y-102343045D01*
X146860842Y-102282537D01*
X146986283Y-102186283D01*
X147082537Y-102060842D01*
X147143045Y-101914763D01*
X147163683Y-101758001D01*
X147160006Y-101730075D01*
X147143045Y-101601242D01*
X147143045Y-101601239D01*
X147109758Y-101520878D01*
X147082538Y-101455162D01*
X147082538Y-101455161D01*
X146986287Y-101329724D01*
X146986286Y-101329723D01*
X146986283Y-101329719D01*
X146986278Y-101329715D01*
X146986277Y-101329714D01*
X146860839Y-101233463D01*
X146714767Y-101172958D01*
X146714759Y-101172956D01*
X146588173Y-101156291D01*
X146532948Y-101129950D01*
X146503753Y-101076179D01*
X146511739Y-101015517D01*
X146553856Y-100971135D01*
X146556083Y-100969963D01*
X146638342Y-100928050D01*
X146728050Y-100838342D01*
X146785646Y-100725304D01*
X146789654Y-100700000D01*
X146994508Y-100700000D01*
X147003497Y-100756758D01*
X147014354Y-100825303D01*
X147014355Y-100825307D01*
X147055154Y-100905378D01*
X147071950Y-100938342D01*
X147161658Y-101028050D01*
X147274696Y-101085646D01*
X147400000Y-101105492D01*
X147525304Y-101085646D01*
X147638342Y-101028050D01*
X147728050Y-100938342D01*
X147785646Y-100825304D01*
X147805492Y-100700000D01*
X147785646Y-100574696D01*
X147728050Y-100461658D01*
X147638342Y-100371950D01*
X147634406Y-100369944D01*
X147525307Y-100314355D01*
X147525304Y-100314354D01*
X147400000Y-100294508D01*
X147274696Y-100314354D01*
X147274692Y-100314355D01*
X147161659Y-100371949D01*
X147071949Y-100461659D01*
X147014355Y-100574692D01*
X147014354Y-100574696D01*
X147001887Y-100653413D01*
X146994508Y-100700000D01*
X146789654Y-100700000D01*
X146805492Y-100600000D01*
X146785646Y-100474696D01*
X146785643Y-100474691D01*
X146785643Y-100474689D01*
X146731762Y-100368942D01*
X146722190Y-100308510D01*
X146749967Y-100253994D01*
X146775026Y-100235787D01*
X146775299Y-100235647D01*
X146775303Y-100235647D01*
X146888341Y-100178051D01*
X146978049Y-100088343D01*
X147035645Y-99975305D01*
X147055491Y-99850001D01*
X147035645Y-99724697D01*
X146978049Y-99611659D01*
X146888341Y-99521951D01*
X146817085Y-99485644D01*
X146775306Y-99464356D01*
X146775303Y-99464355D01*
X146649999Y-99444509D01*
X146524695Y-99464355D01*
X146524691Y-99464356D01*
X146411658Y-99521950D01*
X146321948Y-99611660D01*
X146264354Y-99724693D01*
X146264353Y-99724697D01*
X146244507Y-99850000D01*
X146244507Y-99850001D01*
X146264353Y-99975304D01*
X146264353Y-99975306D01*
X146318237Y-100081058D01*
X146327808Y-100141490D01*
X146300031Y-100196007D01*
X146274973Y-100214212D01*
X146161659Y-100271949D01*
X146071949Y-100361659D01*
X146014355Y-100474692D01*
X146014354Y-100474696D01*
X145994508Y-100600000D01*
X146009476Y-100694508D01*
X146014354Y-100725303D01*
X146014355Y-100725307D01*
X146030383Y-100756763D01*
X146071950Y-100838342D01*
X146161658Y-100928050D01*
X146274696Y-100985646D01*
X146346656Y-100997043D01*
X146401172Y-101024820D01*
X146428950Y-101079337D01*
X146419379Y-101139769D01*
X146376114Y-101183034D01*
X146369055Y-101186288D01*
X146255161Y-101233464D01*
X146129724Y-101329714D01*
X146129714Y-101329724D01*
X146033463Y-101455161D01*
X146033463Y-101455162D01*
X145972958Y-101601234D01*
X145972956Y-101601242D01*
X145952319Y-101758000D01*
X145952319Y-101758001D01*
X145972956Y-101914759D01*
X145972958Y-101914767D01*
X146034508Y-102063362D01*
X146039309Y-102124358D01*
X146007339Y-102176527D01*
X145950811Y-102199942D01*
X145927558Y-102199028D01*
X145813000Y-102180884D01*
X145687696Y-102200730D01*
X145687692Y-102200731D01*
X145574659Y-102258325D01*
X145484949Y-102348035D01*
X145427355Y-102461068D01*
X145427354Y-102461072D01*
X145407508Y-102586375D01*
X145407508Y-102586376D01*
X134200500Y-102586376D01*
X134200500Y-100100000D01*
X144994508Y-100100000D01*
X145009476Y-100194508D01*
X145014354Y-100225303D01*
X145014355Y-100225307D01*
X145050967Y-100297161D01*
X145071950Y-100338342D01*
X145161658Y-100428050D01*
X145274696Y-100485646D01*
X145400000Y-100505492D01*
X145525304Y-100485646D01*
X145638342Y-100428050D01*
X145728050Y-100338342D01*
X145785646Y-100225304D01*
X145805492Y-100100000D01*
X145785646Y-99974696D01*
X145728050Y-99861658D01*
X145638342Y-99771950D01*
X145634406Y-99769944D01*
X145525307Y-99714355D01*
X145525304Y-99714354D01*
X145400000Y-99694508D01*
X145274696Y-99714354D01*
X145274692Y-99714355D01*
X145161659Y-99771949D01*
X145071949Y-99861659D01*
X145014355Y-99974692D01*
X145014354Y-99974696D01*
X144996355Y-100088341D01*
X144994508Y-100100000D01*
X134200500Y-100100000D01*
X134200500Y-99100000D01*
X146994508Y-99100000D01*
X147006703Y-99177000D01*
X147014354Y-99225303D01*
X147014355Y-99225307D01*
X147055445Y-99305950D01*
X147071950Y-99338342D01*
X147161658Y-99428050D01*
X147274696Y-99485646D01*
X147400000Y-99505492D01*
X147525304Y-99485646D01*
X147638342Y-99428050D01*
X147728050Y-99338342D01*
X147785646Y-99225304D01*
X147805492Y-99100000D01*
X147785646Y-98974696D01*
X147728050Y-98861658D01*
X147638342Y-98771950D01*
X147634406Y-98769944D01*
X147525307Y-98714355D01*
X147525304Y-98714354D01*
X147400000Y-98694508D01*
X147274696Y-98714354D01*
X147274692Y-98714355D01*
X147161659Y-98771949D01*
X147071949Y-98861659D01*
X147014355Y-98974692D01*
X147014354Y-98974696D01*
X146994508Y-99100000D01*
X134200500Y-99100000D01*
X134200500Y-96765479D01*
X134219407Y-96707288D01*
X134229496Y-96695476D01*
X134705790Y-96219181D01*
X134760307Y-96191403D01*
X134788714Y-96191031D01*
X134900000Y-96205682D01*
X134900001Y-96205682D01*
X134931352Y-96201554D01*
X135056762Y-96185044D01*
X135202841Y-96124536D01*
X135328282Y-96028282D01*
X135424536Y-95902841D01*
X135485044Y-95756762D01*
X135505682Y-95600000D01*
X135485044Y-95443238D01*
X135459929Y-95382606D01*
X135424537Y-95297161D01*
X135424537Y-95297160D01*
X135328286Y-95171723D01*
X135328285Y-95171722D01*
X135328282Y-95171718D01*
X135328277Y-95171714D01*
X135328276Y-95171713D01*
X135234813Y-95099997D01*
X135202841Y-95075464D01*
X135202840Y-95075463D01*
X135202838Y-95075462D01*
X135056766Y-95014957D01*
X135056758Y-95014955D01*
X134900001Y-94994318D01*
X134899999Y-94994318D01*
X134743241Y-95014955D01*
X134743233Y-95014957D01*
X134597161Y-95075462D01*
X134597160Y-95075462D01*
X134471723Y-95171713D01*
X134471713Y-95171723D01*
X134375462Y-95297160D01*
X134375462Y-95297161D01*
X134314957Y-95443233D01*
X134314955Y-95443241D01*
X134294318Y-95599999D01*
X134294318Y-95600000D01*
X134308968Y-95711282D01*
X134297818Y-95771443D01*
X134280819Y-95794208D01*
X133733590Y-96341437D01*
X133722361Y-96349550D01*
X133723090Y-96350515D01*
X133715771Y-96356041D01*
X133684141Y-96390737D01*
X133680989Y-96394038D01*
X133667830Y-96407198D01*
X133667818Y-96407212D01*
X133667749Y-96407314D01*
X133659255Y-96418035D01*
X133640083Y-96439066D01*
X133640083Y-96439067D01*
X133636529Y-96448240D01*
X133625896Y-96468412D01*
X133620346Y-96476515D01*
X133620341Y-96476524D01*
X133613830Y-96504206D01*
X133609777Y-96517296D01*
X133599501Y-96543823D01*
X133599500Y-96543829D01*
X133599500Y-96553651D01*
X133596870Y-96576318D01*
X133596123Y-96579496D01*
X133594621Y-96585881D01*
X132700500Y-96585881D01*
X132700500Y-92600000D01*
X133994508Y-92600000D01*
X134014354Y-92725303D01*
X134014355Y-92725307D01*
X134031395Y-92758749D01*
X134071950Y-92838342D01*
X134161658Y-92928050D01*
X134274696Y-92985646D01*
X134400000Y-93005492D01*
X134525304Y-92985646D01*
X134638342Y-92928050D01*
X134728050Y-92838342D01*
X134785646Y-92725304D01*
X134805492Y-92600000D01*
X134803255Y-92585879D01*
X134796595Y-92543827D01*
X134785646Y-92474696D01*
X134728050Y-92361658D01*
X134638342Y-92271950D01*
X134634406Y-92269944D01*
X134525307Y-92214355D01*
X134525304Y-92214354D01*
X134400000Y-92194508D01*
X134274696Y-92214354D01*
X134274692Y-92214355D01*
X134161659Y-92271949D01*
X134071949Y-92361659D01*
X134014355Y-92474692D01*
X134014354Y-92474696D01*
X133994508Y-92599999D01*
X133994508Y-92600000D01*
X132700500Y-92600000D01*
X132700500Y-91600000D01*
X145294318Y-91600000D01*
X145314955Y-91756758D01*
X145314957Y-91756766D01*
X145375462Y-91902838D01*
X145375462Y-91902839D01*
X145375464Y-91902841D01*
X145471718Y-92028282D01*
X145597159Y-92124536D01*
X145743238Y-92185044D01*
X145842872Y-92198161D01*
X145899999Y-92205682D01*
X145900000Y-92205682D01*
X145900001Y-92205682D01*
X145931352Y-92201554D01*
X146056762Y-92185044D01*
X146202841Y-92124536D01*
X146328282Y-92028282D01*
X146424536Y-91902841D01*
X146485044Y-91756762D01*
X146505682Y-91600000D01*
X146494152Y-91512421D01*
X146505302Y-91452261D01*
X146549684Y-91410144D01*
X146592305Y-91400500D01*
X151237100Y-91400500D01*
X151295291Y-91419407D01*
X151331255Y-91468907D01*
X151331255Y-91530093D01*
X151328564Y-91537386D01*
X151314957Y-91570236D01*
X151314955Y-91570241D01*
X151294318Y-91726999D01*
X151294318Y-91727000D01*
X151314955Y-91883758D01*
X151314957Y-91883766D01*
X151375462Y-92029838D01*
X151375462Y-92029839D01*
X151471713Y-92155276D01*
X151471718Y-92155282D01*
X151597159Y-92251536D01*
X151597160Y-92251536D01*
X151597161Y-92251537D01*
X151743233Y-92312042D01*
X151743238Y-92312044D01*
X151860809Y-92327522D01*
X151899999Y-92332682D01*
X151900000Y-92332682D01*
X151900001Y-92332682D01*
X151931352Y-92328554D01*
X152056762Y-92312044D01*
X152202841Y-92251536D01*
X152328282Y-92155282D01*
X152424536Y-92029841D01*
X152485044Y-91883762D01*
X152505682Y-91727000D01*
X152485044Y-91570238D01*
X152471435Y-91537385D01*
X152466635Y-91476389D01*
X152498605Y-91424220D01*
X152555132Y-91400805D01*
X152562900Y-91400500D01*
X156207695Y-91400500D01*
X156265886Y-91419407D01*
X156301850Y-91468907D01*
X156305847Y-91512421D01*
X156302561Y-91537386D01*
X156294318Y-91599999D01*
X156294318Y-91600000D01*
X156308968Y-91711282D01*
X156297818Y-91771443D01*
X156280819Y-91794208D01*
X155733590Y-92341437D01*
X155722361Y-92349550D01*
X155723090Y-92350515D01*
X155715771Y-92356041D01*
X155684141Y-92390737D01*
X155680989Y-92394038D01*
X155667830Y-92407198D01*
X155667818Y-92407212D01*
X155667749Y-92407314D01*
X155659255Y-92418035D01*
X155640083Y-92439066D01*
X155640083Y-92439067D01*
X155636529Y-92448240D01*
X155625896Y-92468412D01*
X155620346Y-92476515D01*
X155620341Y-92476524D01*
X155613830Y-92504206D01*
X155609777Y-92517296D01*
X155599501Y-92543823D01*
X155599500Y-92543829D01*
X155599500Y-92553651D01*
X155596870Y-92576318D01*
X155594621Y-92585881D01*
X155596591Y-92600000D01*
X155598551Y-92614053D01*
X155599500Y-92627730D01*
X155599500Y-95789391D01*
X155580593Y-95847582D01*
X155531093Y-95883546D01*
X155469907Y-95883546D01*
X155430496Y-95859395D01*
X155004695Y-95433594D01*
X154996609Y-95422344D01*
X154995617Y-95423094D01*
X154990088Y-95415772D01*
X154955402Y-95384151D01*
X154952098Y-95380996D01*
X154938930Y-95367828D01*
X154938926Y-95367825D01*
X154938823Y-95367755D01*
X154928092Y-95359255D01*
X154907063Y-95340084D01*
X154897892Y-95336531D01*
X154877716Y-95325895D01*
X154869614Y-95320345D01*
X154869609Y-95320343D01*
X154841927Y-95313832D01*
X154828833Y-95309777D01*
X154802307Y-95299500D01*
X154802303Y-95299500D01*
X154792478Y-95299500D01*
X154769813Y-95296870D01*
X154760249Y-95294621D01*
X154760248Y-95294621D01*
X154732076Y-95298551D01*
X154718399Y-95299500D01*
X153348111Y-95299500D01*
X153334435Y-95297267D01*
X153334264Y-95298494D01*
X153325180Y-95297226D01*
X153278305Y-95299394D01*
X153273733Y-95299500D01*
X153255098Y-95299500D01*
X153254975Y-95299523D01*
X153241365Y-95301101D01*
X153212957Y-95302414D01*
X153212953Y-95302415D01*
X153203959Y-95306386D01*
X153182174Y-95313132D01*
X153172517Y-95314937D01*
X153172511Y-95314939D01*
X153148327Y-95329913D01*
X153136205Y-95336302D01*
X153110184Y-95347792D01*
X153110177Y-95347796D01*
X153103232Y-95354742D01*
X153085352Y-95368905D01*
X153076994Y-95374080D01*
X153059853Y-95396778D01*
X153050855Y-95407118D01*
X151990765Y-96467208D01*
X151979536Y-96475321D01*
X151980265Y-96476286D01*
X151972946Y-96481812D01*
X151941316Y-96516508D01*
X151938164Y-96519809D01*
X151925005Y-96532969D01*
X151924993Y-96532983D01*
X151924924Y-96533085D01*
X151916430Y-96543806D01*
X151897258Y-96564837D01*
X151897258Y-96564838D01*
X151893704Y-96574011D01*
X151883071Y-96594183D01*
X151877521Y-96602286D01*
X151877516Y-96602295D01*
X151871005Y-96629977D01*
X151866952Y-96643067D01*
X151856676Y-96669594D01*
X151856675Y-96669600D01*
X151856675Y-96679422D01*
X151854045Y-96702089D01*
X151851796Y-96711652D01*
X151852994Y-96720238D01*
X151855726Y-96739824D01*
X151856675Y-96753501D01*
X151856675Y-105771770D01*
X151837768Y-105829961D01*
X151817942Y-105850312D01*
X151728898Y-105918637D01*
X151728888Y-105918647D01*
X151632637Y-106044084D01*
X151632637Y-106044085D01*
X151572132Y-106190157D01*
X151572130Y-106190165D01*
X151551493Y-106346923D01*
X151551493Y-106346924D01*
X151572130Y-106503682D01*
X151572132Y-106503690D01*
X151632637Y-106649762D01*
X151632637Y-106649763D01*
X151725284Y-106770503D01*
X151728893Y-106775206D01*
X151854334Y-106871460D01*
X151854335Y-106871460D01*
X151854336Y-106871461D01*
X151930082Y-106902836D01*
X152000413Y-106931968D01*
X152117984Y-106947446D01*
X152157174Y-106952606D01*
X152157175Y-106952606D01*
X152157176Y-106952606D01*
X152188527Y-106948478D01*
X152313937Y-106931968D01*
X152460016Y-106871460D01*
X152585457Y-106775206D01*
X152681711Y-106649765D01*
X152742219Y-106503686D01*
X152762857Y-106346924D01*
X152742219Y-106190162D01*
X152685201Y-106052508D01*
X152681712Y-106044085D01*
X152681712Y-106044084D01*
X152585461Y-105918647D01*
X152585460Y-105918646D01*
X152585457Y-105918642D01*
X152585452Y-105918638D01*
X152585451Y-105918637D01*
X152496408Y-105850312D01*
X152461752Y-105799887D01*
X152457675Y-105771770D01*
X152457675Y-96891250D01*
X152476582Y-96833059D01*
X152486671Y-96821246D01*
X153378422Y-95929496D01*
X153432939Y-95901719D01*
X153448426Y-95900500D01*
X154580651Y-95900500D01*
X154638842Y-95919407D01*
X154650654Y-95929495D01*
X155160224Y-96439066D01*
X155654744Y-96933586D01*
X155668909Y-96951470D01*
X155674081Y-96959822D01*
X155696777Y-96976961D01*
X155707113Y-96985955D01*
X156487567Y-97766409D01*
X156495667Y-97777648D01*
X156496646Y-97776909D01*
X156502174Y-97784230D01*
X156536844Y-97815836D01*
X156540149Y-97818992D01*
X156553330Y-97832172D01*
X156553333Y-97832175D01*
X156553430Y-97832241D01*
X156564179Y-97840756D01*
X156579933Y-97855117D01*
X156585197Y-97859916D01*
X156585200Y-97859917D01*
X156594356Y-97863464D01*
X156614546Y-97874105D01*
X156622650Y-97879657D01*
X156650342Y-97886169D01*
X156663429Y-97890222D01*
X156689957Y-97900500D01*
X156699783Y-97900500D01*
X156722447Y-97903129D01*
X156732012Y-97905379D01*
X156760186Y-97901448D01*
X156773862Y-97900500D01*
X157324846Y-97900500D01*
X157383037Y-97919407D01*
X157403388Y-97939233D01*
X157471718Y-98028282D01*
X157597159Y-98124536D01*
X157597160Y-98124536D01*
X157597161Y-98124537D01*
X157740896Y-98184074D01*
X157743238Y-98185044D01*
X157850430Y-98199156D01*
X157899999Y-98205682D01*
X157900000Y-98205682D01*
X157900001Y-98205682D01*
X157931352Y-98201554D01*
X158056762Y-98185044D01*
X158202841Y-98124536D01*
X158313234Y-98039828D01*
X158370908Y-98019405D01*
X158429574Y-98036782D01*
X158466822Y-98085324D01*
X158472500Y-98118371D01*
X158472500Y-98261705D01*
X158470280Y-98275383D01*
X158471494Y-98275553D01*
X158470226Y-98284636D01*
X158472394Y-98331511D01*
X158472500Y-98336083D01*
X158472500Y-98354714D01*
X158472522Y-98354836D01*
X158474101Y-98368447D01*
X158475414Y-98396857D01*
X158475415Y-98396864D01*
X158479384Y-98405852D01*
X158486132Y-98427642D01*
X158487939Y-98437303D01*
X158496809Y-98451630D01*
X158502912Y-98461487D01*
X158509301Y-98473608D01*
X158520794Y-98499635D01*
X158527745Y-98506586D01*
X158541907Y-98524466D01*
X158547081Y-98532822D01*
X158569781Y-98549964D01*
X158580117Y-98558958D01*
X160559623Y-100538464D01*
X160587400Y-100592981D01*
X160577829Y-100653413D01*
X160534564Y-100696678D01*
X160474132Y-100706249D01*
X160400002Y-100694508D01*
X160392210Y-100694508D01*
X160392210Y-100691508D01*
X160345125Y-100684030D01*
X160320104Y-100665844D01*
X158601472Y-98947212D01*
X158589160Y-98932209D01*
X158580602Y-98919401D01*
X158580601Y-98919399D01*
X158527536Y-98883942D01*
X158497741Y-98864034D01*
X158497740Y-98864033D01*
X158497741Y-98864033D01*
X158415112Y-98847598D01*
X158400000Y-98844592D01*
X158399999Y-98844592D01*
X158384887Y-98847598D01*
X158365574Y-98849500D01*
X158256900Y-98849500D01*
X158198709Y-98830593D01*
X158186897Y-98820504D01*
X158138343Y-98771951D01*
X158138342Y-98771950D01*
X158082861Y-98743681D01*
X158025307Y-98714355D01*
X158025304Y-98714354D01*
X157900000Y-98694508D01*
X157774696Y-98714354D01*
X157774692Y-98714355D01*
X157661659Y-98771949D01*
X157571949Y-98861659D01*
X157514355Y-98974692D01*
X157514354Y-98974696D01*
X157494508Y-99100000D01*
X157506703Y-99177000D01*
X157514354Y-99225303D01*
X157514355Y-99225307D01*
X157555445Y-99305950D01*
X157571950Y-99338342D01*
X157661658Y-99428050D01*
X157774696Y-99485646D01*
X157900000Y-99505492D01*
X158025304Y-99485646D01*
X158138342Y-99428050D01*
X158186063Y-99380328D01*
X158240577Y-99352552D01*
X158301009Y-99362123D01*
X158326069Y-99380329D01*
X159965844Y-101020104D01*
X159993621Y-101074621D01*
X159993625Y-101092210D01*
X159994508Y-101092210D01*
X159994508Y-101100001D01*
X160000065Y-101135084D01*
X160009476Y-101194508D01*
X160014354Y-101225303D01*
X160014355Y-101225307D01*
X160053103Y-101301353D01*
X160071950Y-101338342D01*
X160161658Y-101428050D01*
X160214864Y-101455160D01*
X160281639Y-101489184D01*
X160280739Y-101490949D01*
X160321925Y-101520871D01*
X160340833Y-101579061D01*
X160321927Y-101637253D01*
X160280739Y-101667177D01*
X160281639Y-101668942D01*
X160161658Y-101730076D01*
X160161656Y-101730077D01*
X160113103Y-101778630D01*
X160058586Y-101806407D01*
X160043100Y-101807626D01*
X159502894Y-101807626D01*
X159444703Y-101788719D01*
X159432890Y-101778630D01*
X157834155Y-100179895D01*
X157806378Y-100125378D01*
X157806380Y-100107792D01*
X157805492Y-100107792D01*
X157805492Y-100099999D01*
X157801606Y-100075462D01*
X157785646Y-99974696D01*
X157728050Y-99861658D01*
X157638342Y-99771950D01*
X157634406Y-99769944D01*
X157525307Y-99714355D01*
X157525304Y-99714354D01*
X157400000Y-99694508D01*
X157274696Y-99714354D01*
X157274692Y-99714355D01*
X157161659Y-99771949D01*
X157071949Y-99861659D01*
X157014355Y-99974692D01*
X157014354Y-99974696D01*
X156996355Y-100088341D01*
X156994508Y-100100000D01*
X157009476Y-100194508D01*
X157014354Y-100225303D01*
X157014355Y-100225307D01*
X157050967Y-100297161D01*
X157071950Y-100338342D01*
X157161658Y-100428050D01*
X157274696Y-100485646D01*
X157400000Y-100505492D01*
X157407792Y-100505492D01*
X157407792Y-100508502D01*
X157454813Y-100515938D01*
X157479895Y-100534155D01*
X159156653Y-102210913D01*
X159168964Y-102225915D01*
X159177525Y-102238727D01*
X159204238Y-102256576D01*
X159230590Y-102274184D01*
X159230589Y-102274184D01*
X159260378Y-102294088D01*
X159260380Y-102294089D01*
X159260385Y-102294092D01*
X159358126Y-102313534D01*
X159370406Y-102311091D01*
X159373239Y-102310528D01*
X159392552Y-102308626D01*
X160043100Y-102308626D01*
X160101291Y-102327533D01*
X160113103Y-102337622D01*
X160151978Y-102376496D01*
X160179756Y-102431012D01*
X160170185Y-102491444D01*
X160126921Y-102534709D01*
X160081975Y-102545500D01*
X157875426Y-102545500D01*
X157856113Y-102543598D01*
X157841000Y-102540592D01*
X157743260Y-102560033D01*
X157713464Y-102579940D01*
X157713463Y-102579942D01*
X157703836Y-102586375D01*
X157660400Y-102615398D01*
X157660396Y-102615402D01*
X157651838Y-102628210D01*
X157639529Y-102643209D01*
X157479894Y-102802844D01*
X157425377Y-102830621D01*
X157407790Y-102830623D01*
X157407790Y-102831508D01*
X157399999Y-102831508D01*
X157274696Y-102851354D01*
X157274692Y-102851355D01*
X157161659Y-102908949D01*
X157071949Y-102998659D01*
X157014355Y-103111692D01*
X157014354Y-103111696D01*
X156994508Y-103236999D01*
X156994508Y-103237000D01*
X157014354Y-103362303D01*
X157014355Y-103362307D01*
X157041461Y-103415504D01*
X157071950Y-103475342D01*
X157161658Y-103565050D01*
X157274696Y-103622646D01*
X157400000Y-103642492D01*
X157525304Y-103622646D01*
X157638342Y-103565050D01*
X157728050Y-103475342D01*
X157785646Y-103362304D01*
X157805492Y-103237000D01*
X157805492Y-103236999D01*
X157805492Y-103229209D01*
X157808498Y-103229209D01*
X157815948Y-103182165D01*
X157834156Y-103157103D01*
X157915764Y-103075496D01*
X157970281Y-103047719D01*
X157985767Y-103046500D01*
X158360231Y-103046500D01*
X158418422Y-103065407D01*
X158454386Y-103114907D01*
X158454386Y-103176093D01*
X158430235Y-103215504D01*
X157479894Y-104165844D01*
X157425377Y-104193621D01*
X157407790Y-104193623D01*
X157407790Y-104194508D01*
X157399999Y-104194508D01*
X157274696Y-104214354D01*
X157274692Y-104214355D01*
X157161659Y-104271949D01*
X157071949Y-104361659D01*
X157014355Y-104474692D01*
X157014354Y-104474696D01*
X156994508Y-104599999D01*
X156994508Y-104600000D01*
X157014354Y-104725303D01*
X157014355Y-104725307D01*
X157069944Y-104834406D01*
X157071950Y-104838342D01*
X157161658Y-104928050D01*
X157274696Y-104985646D01*
X157400000Y-105005492D01*
X157401240Y-105005492D01*
X157402419Y-105005875D01*
X157407696Y-105006711D01*
X157407563Y-105007546D01*
X157459431Y-105024399D01*
X157495395Y-105073899D01*
X157495395Y-105135085D01*
X157471243Y-105174496D01*
X157326068Y-105319670D01*
X157271552Y-105347447D01*
X157211120Y-105337875D01*
X157186064Y-105319672D01*
X157138342Y-105271950D01*
X157116394Y-105260767D01*
X157025307Y-105214355D01*
X157025304Y-105214354D01*
X156900000Y-105194508D01*
X156774696Y-105214354D01*
X156774692Y-105214355D01*
X156661659Y-105271949D01*
X156571949Y-105361659D01*
X156514355Y-105474692D01*
X156514354Y-105474696D01*
X156494508Y-105599999D01*
X156494508Y-105600000D01*
X156514354Y-105725303D01*
X156514355Y-105725307D01*
X156540648Y-105776909D01*
X156571950Y-105838342D01*
X156661658Y-105928050D01*
X156774696Y-105985646D01*
X156900000Y-106005492D01*
X156901240Y-106005492D01*
X156902419Y-106005875D01*
X156907696Y-106006711D01*
X156907563Y-106007546D01*
X156959431Y-106024399D01*
X156995395Y-106073899D01*
X156995395Y-106135085D01*
X156971244Y-106174496D01*
X156825236Y-106320504D01*
X156770719Y-106348281D01*
X156755232Y-106349500D01*
X156256900Y-106349500D01*
X156198709Y-106330593D01*
X156186897Y-106320504D01*
X156138343Y-106271951D01*
X156138342Y-106271950D01*
X156070481Y-106237373D01*
X156025307Y-106214355D01*
X156025304Y-106214354D01*
X155900000Y-106194508D01*
X155774696Y-106214354D01*
X155774692Y-106214355D01*
X155661659Y-106271949D01*
X155571949Y-106361659D01*
X155514355Y-106474692D01*
X155514354Y-106474696D01*
X155501815Y-106553868D01*
X155494508Y-106600000D01*
X155506977Y-106678730D01*
X155514354Y-106725303D01*
X155514355Y-106725307D01*
X155560026Y-106814940D01*
X155571950Y-106838342D01*
X155661658Y-106928050D01*
X155774696Y-106985646D01*
X155900000Y-107005492D01*
X156025304Y-106985646D01*
X156138342Y-106928050D01*
X156163556Y-106902836D01*
X156186897Y-106879496D01*
X156241414Y-106851719D01*
X156256900Y-106850500D01*
X156865574Y-106850500D01*
X156884887Y-106852402D01*
X156888435Y-106853107D01*
X156900000Y-106855408D01*
X156997741Y-106835966D01*
X157029209Y-106814940D01*
X157029210Y-106814940D01*
X157069777Y-106787833D01*
X157080601Y-106780601D01*
X157089161Y-106767788D01*
X157101467Y-106752791D01*
X157147753Y-106706505D01*
X157202268Y-106678730D01*
X157262700Y-106688301D01*
X157305965Y-106731566D01*
X157313381Y-106750884D01*
X157314957Y-106756765D01*
X157375461Y-106902836D01*
X157375462Y-106902839D01*
X157461493Y-107014957D01*
X157471718Y-107028282D01*
X157597159Y-107124536D01*
X157743238Y-107185044D01*
X157860809Y-107200522D01*
X157899999Y-107205682D01*
X157900000Y-107205682D01*
X157900001Y-107205682D01*
X157931352Y-107201554D01*
X158056762Y-107185044D01*
X158202841Y-107124536D01*
X158328282Y-107028282D01*
X158424536Y-106902841D01*
X158424537Y-106902839D01*
X158424539Y-106902836D01*
X158475168Y-106780604D01*
X158485044Y-106756762D01*
X158505682Y-106600000D01*
X158491031Y-106488714D01*
X158502181Y-106428554D01*
X158519177Y-106405793D01*
X160622475Y-104302496D01*
X160676992Y-104274719D01*
X160692479Y-104273500D01*
X162324846Y-104273500D01*
X162383037Y-104292407D01*
X162403388Y-104312233D01*
X162441314Y-104361659D01*
X162471718Y-104401282D01*
X162597159Y-104497536D01*
X162743238Y-104558044D01*
X162860809Y-104573522D01*
X162899999Y-104578682D01*
X162900000Y-104578682D01*
X162900001Y-104578682D01*
X162931352Y-104574554D01*
X163056762Y-104558044D01*
X163202841Y-104497536D01*
X163328282Y-104401282D01*
X163396612Y-104312233D01*
X163447037Y-104277577D01*
X163475154Y-104273500D01*
X164107521Y-104273500D01*
X164165712Y-104292407D01*
X164177525Y-104302496D01*
X165641436Y-105766407D01*
X165649537Y-105777647D01*
X165650516Y-105776909D01*
X165656044Y-105784230D01*
X165690724Y-105815845D01*
X165694032Y-105819003D01*
X165707203Y-105832174D01*
X165707295Y-105832237D01*
X165718042Y-105840750D01*
X165739064Y-105859914D01*
X165739065Y-105859914D01*
X165739067Y-105859916D01*
X165748230Y-105863466D01*
X165768416Y-105874105D01*
X165776519Y-105879656D01*
X165804215Y-105886170D01*
X165817293Y-105890220D01*
X165843827Y-105900500D01*
X165853652Y-105900500D01*
X165876316Y-105903129D01*
X165885881Y-105905379D01*
X165910958Y-105901880D01*
X165914054Y-105901449D01*
X165927731Y-105900500D01*
X168324846Y-105900500D01*
X168383037Y-105919407D01*
X168403388Y-105939233D01*
X168462236Y-106015925D01*
X168471718Y-106028282D01*
X168471722Y-106028285D01*
X168471723Y-106028286D01*
X168503173Y-106052418D01*
X168597159Y-106124536D01*
X168630011Y-106138143D01*
X168676535Y-106177879D01*
X168690819Y-106237373D01*
X168667405Y-106293901D01*
X168662128Y-106299610D01*
X168191237Y-106770503D01*
X168136720Y-106798281D01*
X168121233Y-106799500D01*
X165975154Y-106799500D01*
X165916963Y-106780593D01*
X165896612Y-106760767D01*
X165828286Y-106671723D01*
X165828285Y-106671722D01*
X165828282Y-106671718D01*
X165828277Y-106671714D01*
X165828276Y-106671713D01*
X165702838Y-106575462D01*
X165556766Y-106514957D01*
X165556758Y-106514955D01*
X165400001Y-106494318D01*
X165399999Y-106494318D01*
X165243241Y-106514955D01*
X165243233Y-106514957D01*
X165097161Y-106575462D01*
X165097160Y-106575462D01*
X164971723Y-106671713D01*
X164971713Y-106671723D01*
X164875462Y-106797160D01*
X164875462Y-106797161D01*
X164814957Y-106943233D01*
X164814955Y-106943241D01*
X164794318Y-107099999D01*
X164794318Y-107100000D01*
X164814955Y-107256758D01*
X164814957Y-107256766D01*
X164875462Y-107402838D01*
X164875462Y-107402839D01*
X164971713Y-107528276D01*
X164971718Y-107528282D01*
X165097159Y-107624536D01*
X165243238Y-107685044D01*
X165360809Y-107700522D01*
X165399999Y-107705682D01*
X165400000Y-107705682D01*
X165400001Y-107705682D01*
X165431352Y-107701554D01*
X165556762Y-107685044D01*
X165702841Y-107624536D01*
X165828282Y-107528282D01*
X165880440Y-107460308D01*
X165896612Y-107439233D01*
X165947037Y-107404577D01*
X165975154Y-107400500D01*
X168221548Y-107400500D01*
X168235223Y-107402732D01*
X168235395Y-107401506D01*
X168244476Y-107402772D01*
X168244477Y-107402773D01*
X168244477Y-107402772D01*
X168244478Y-107402773D01*
X168291354Y-107400606D01*
X168295926Y-107400500D01*
X168314554Y-107400500D01*
X168314556Y-107400500D01*
X168314660Y-107400480D01*
X168328283Y-107398898D01*
X168356704Y-107397585D01*
X168365688Y-107393617D01*
X168387489Y-107386865D01*
X168397145Y-107385061D01*
X168421330Y-107370086D01*
X168433440Y-107363701D01*
X168459477Y-107352206D01*
X168466421Y-107345260D01*
X168484313Y-107331089D01*
X168492664Y-107325919D01*
X168509801Y-107303223D01*
X168518794Y-107292887D01*
X169693405Y-106118276D01*
X169704664Y-106110205D01*
X169703905Y-106109199D01*
X169711221Y-106103673D01*
X169711228Y-106103670D01*
X169742877Y-106068951D01*
X169745995Y-106065686D01*
X169759174Y-106052509D01*
X169759238Y-106052414D01*
X169767753Y-106041665D01*
X169786916Y-106020645D01*
X169790465Y-106011482D01*
X169801106Y-105991294D01*
X169806656Y-105983193D01*
X169813169Y-105955497D01*
X169817220Y-105942418D01*
X169827500Y-105915885D01*
X169827500Y-105906060D01*
X169830129Y-105883395D01*
X169832379Y-105873831D01*
X169829439Y-105852758D01*
X169828449Y-105845656D01*
X169827500Y-105831980D01*
X169827500Y-98292169D01*
X169829731Y-98278496D01*
X169828505Y-98278325D01*
X169829773Y-98269233D01*
X169827606Y-98222358D01*
X169827500Y-98217786D01*
X169827500Y-98199160D01*
X169827500Y-98199156D01*
X169827478Y-98199042D01*
X169825898Y-98185430D01*
X169824585Y-98157009D01*
X169820613Y-98148014D01*
X169813865Y-98126220D01*
X169812061Y-98116567D01*
X169797087Y-98092383D01*
X169790692Y-98080250D01*
X169779207Y-98054236D01*
X169772257Y-98047286D01*
X169758088Y-98029396D01*
X169752920Y-98021049D01*
X169752919Y-98021048D01*
X169730221Y-98003907D01*
X169719879Y-97994908D01*
X169519180Y-97794209D01*
X169491403Y-97739692D01*
X169491031Y-97711283D01*
X169505682Y-97600000D01*
X169505682Y-97599999D01*
X169493513Y-97507568D01*
X169485044Y-97443238D01*
X169468172Y-97402505D01*
X169424537Y-97297161D01*
X169424537Y-97297160D01*
X169328286Y-97171723D01*
X169328285Y-97171722D01*
X169328282Y-97171718D01*
X169328277Y-97171714D01*
X169328276Y-97171713D01*
X169202838Y-97075462D01*
X169056766Y-97014957D01*
X169056758Y-97014955D01*
X168900001Y-96994318D01*
X168899999Y-96994318D01*
X168743241Y-97014955D01*
X168743236Y-97014956D01*
X168710384Y-97028564D01*
X168649387Y-97033363D01*
X168597218Y-97001393D01*
X168573805Y-96944864D01*
X168573500Y-96937099D01*
X168573500Y-96821766D01*
X168592407Y-96763575D01*
X168602490Y-96751769D01*
X169052788Y-96301470D01*
X169067785Y-96289163D01*
X169080601Y-96280601D01*
X169117549Y-96225304D01*
X169135966Y-96197741D01*
X169155408Y-96100000D01*
X169152402Y-96084887D01*
X169150500Y-96065574D01*
X169150500Y-95134427D01*
X169152403Y-95115110D01*
X169152554Y-95114354D01*
X169155409Y-95100000D01*
X169155409Y-95099997D01*
X169143743Y-95041356D01*
X169135966Y-95002260D01*
X169133445Y-94998487D01*
X169091879Y-94936277D01*
X169091875Y-94936273D01*
X169080601Y-94919399D01*
X169067792Y-94910840D01*
X169052790Y-94898529D01*
X168834155Y-94679894D01*
X168806378Y-94625377D01*
X168806381Y-94607792D01*
X168805492Y-94607792D01*
X168805492Y-94599999D01*
X168802778Y-94582866D01*
X168785646Y-94474696D01*
X168728050Y-94361658D01*
X168638342Y-94271950D01*
X168634406Y-94269944D01*
X168525307Y-94214355D01*
X168525304Y-94214354D01*
X168400000Y-94194508D01*
X168274696Y-94214354D01*
X168274692Y-94214355D01*
X168161659Y-94271949D01*
X168071949Y-94361659D01*
X168014355Y-94474692D01*
X168014354Y-94474696D01*
X167994508Y-94599999D01*
X167994508Y-94600000D01*
X168014354Y-94725303D01*
X168014355Y-94725307D01*
X168069944Y-94834406D01*
X168071950Y-94838342D01*
X168161658Y-94928050D01*
X168274696Y-94985646D01*
X168355772Y-94998487D01*
X168379334Y-95002219D01*
X168433851Y-95029997D01*
X168461628Y-95084513D01*
X168452057Y-95144945D01*
X168408792Y-95188210D01*
X168379334Y-95197781D01*
X168274696Y-95214354D01*
X168274692Y-95214355D01*
X168161659Y-95271949D01*
X168071949Y-95361659D01*
X168014355Y-95474692D01*
X168014354Y-95474696D01*
X167994508Y-95599998D01*
X167994508Y-95607790D01*
X167991504Y-95607790D01*
X167984040Y-95654852D01*
X167965844Y-95679893D01*
X167747209Y-95898528D01*
X167732212Y-95910836D01*
X167719398Y-95919398D01*
X167719397Y-95919399D01*
X167703470Y-95943238D01*
X167703470Y-95943239D01*
X167664034Y-96002258D01*
X167644592Y-96100000D01*
X167647598Y-96115111D01*
X167649500Y-96134425D01*
X167649500Y-98955232D01*
X167630593Y-99013423D01*
X167620504Y-99025236D01*
X164129236Y-102516504D01*
X164074719Y-102544281D01*
X164059232Y-102545500D01*
X163013609Y-102545500D01*
X162955418Y-102526593D01*
X162919454Y-102477093D01*
X162919454Y-102415907D01*
X162922145Y-102408615D01*
X162974367Y-102282538D01*
X162985044Y-102256762D01*
X163005682Y-102100000D01*
X162991031Y-101988714D01*
X163002181Y-101928554D01*
X163019177Y-101905792D01*
X165566405Y-99358564D01*
X165577664Y-99350493D01*
X165576905Y-99349487D01*
X165584221Y-99343961D01*
X165584228Y-99343958D01*
X165615877Y-99309239D01*
X165618995Y-99305974D01*
X165632174Y-99292797D01*
X165632238Y-99292702D01*
X165640753Y-99281953D01*
X165647328Y-99274741D01*
X165659916Y-99260933D01*
X165663466Y-99251767D01*
X165674107Y-99231581D01*
X165679657Y-99223480D01*
X165686170Y-99195786D01*
X165690218Y-99182712D01*
X165700500Y-99156173D01*
X165700500Y-99146348D01*
X165703129Y-99123683D01*
X165705379Y-99114119D01*
X165701449Y-99085944D01*
X165700500Y-99072268D01*
X165700500Y-96675154D01*
X165719407Y-96616963D01*
X165739233Y-96596612D01*
X165799327Y-96550500D01*
X165828282Y-96528282D01*
X165924536Y-96402841D01*
X165985044Y-96256762D01*
X166005682Y-96100000D01*
X166002016Y-96072157D01*
X165985044Y-95943239D01*
X165985042Y-95943233D01*
X165924537Y-95797161D01*
X165924537Y-95797160D01*
X165828286Y-95671723D01*
X165828285Y-95671722D01*
X165828282Y-95671718D01*
X165828277Y-95671714D01*
X165828276Y-95671713D01*
X165702838Y-95575462D01*
X165556766Y-95514957D01*
X165556758Y-95514955D01*
X165400001Y-95494318D01*
X165399999Y-95494318D01*
X165243241Y-95514955D01*
X165243233Y-95514957D01*
X165097161Y-95575462D01*
X165097160Y-95575462D01*
X164971723Y-95671713D01*
X164971713Y-95671723D01*
X164875462Y-95797160D01*
X164875462Y-95797161D01*
X164814957Y-95943233D01*
X164814956Y-95943239D01*
X164794318Y-96099999D01*
X164794318Y-96100000D01*
X164814955Y-96256758D01*
X164814957Y-96256766D01*
X164875462Y-96402838D01*
X164875462Y-96402839D01*
X164963288Y-96517296D01*
X164971718Y-96528282D01*
X164971722Y-96528285D01*
X164971723Y-96528286D01*
X165060767Y-96596612D01*
X165095423Y-96647037D01*
X165099500Y-96675154D01*
X165099500Y-98934520D01*
X165080593Y-98992711D01*
X165070504Y-99004524D01*
X163101353Y-100973674D01*
X163046836Y-101001451D01*
X162986404Y-100991880D01*
X162943139Y-100948615D01*
X162933568Y-100888183D01*
X162939883Y-100865788D01*
X162985044Y-100756762D01*
X163005682Y-100600000D01*
X162985044Y-100443238D01*
X162961706Y-100386895D01*
X162924537Y-100297161D01*
X162924537Y-100297160D01*
X162828286Y-100171723D01*
X162828285Y-100171722D01*
X162828282Y-100171718D01*
X162828277Y-100171714D01*
X162828276Y-100171713D01*
X162719625Y-100088343D01*
X162702841Y-100075464D01*
X162702840Y-100075463D01*
X162702838Y-100075462D01*
X162556766Y-100014957D01*
X162556758Y-100014955D01*
X162400001Y-99994318D01*
X162399999Y-99994318D01*
X162243241Y-100014955D01*
X162243233Y-100014957D01*
X162097161Y-100075462D01*
X162097160Y-100075462D01*
X161971723Y-100171713D01*
X161971713Y-100171723D01*
X161903388Y-100260767D01*
X161852963Y-100295423D01*
X161824846Y-100299500D01*
X161211609Y-100299500D01*
X161153418Y-100280593D01*
X161141605Y-100270504D01*
X159102496Y-98231395D01*
X159074719Y-98176878D01*
X159073500Y-98161391D01*
X159073500Y-97452154D01*
X159092407Y-97393963D01*
X159112233Y-97373612D01*
X159162615Y-97334952D01*
X159201282Y-97305282D01*
X159297536Y-97179841D01*
X159358044Y-97033762D01*
X159378682Y-96877000D01*
X159358044Y-96720238D01*
X159344435Y-96687385D01*
X159339635Y-96626389D01*
X159371605Y-96574220D01*
X159428132Y-96550805D01*
X159435900Y-96550500D01*
X159895508Y-96550500D01*
X159953699Y-96569407D01*
X159989663Y-96618907D01*
X159994508Y-96649500D01*
X159994508Y-96649999D01*
X159994508Y-96650000D01*
X160005632Y-96720238D01*
X160014354Y-96775303D01*
X160014355Y-96775307D01*
X160043782Y-96833059D01*
X160071950Y-96888342D01*
X160161658Y-96978050D01*
X160274696Y-97035646D01*
X160400000Y-97055492D01*
X160525304Y-97035646D01*
X160638342Y-96978050D01*
X160728050Y-96888342D01*
X160785646Y-96775304D01*
X160805492Y-96650000D01*
X160803379Y-96636662D01*
X160800567Y-96618907D01*
X160785646Y-96524696D01*
X160728050Y-96411658D01*
X160638342Y-96321950D01*
X160634406Y-96319944D01*
X160525307Y-96264355D01*
X160525304Y-96264354D01*
X160444222Y-96251512D01*
X160400001Y-96244508D01*
X160392210Y-96244508D01*
X160392210Y-96241508D01*
X160345125Y-96234030D01*
X160320105Y-96215844D01*
X160251475Y-96147215D01*
X160239162Y-96132212D01*
X160230602Y-96119401D01*
X160230601Y-96119399D01*
X160159896Y-96072156D01*
X160147741Y-96064034D01*
X160147742Y-96064034D01*
X160069898Y-96048550D01*
X160050000Y-96044592D01*
X160049999Y-96044592D01*
X160034887Y-96047598D01*
X160015574Y-96049500D01*
X157992166Y-96049500D01*
X157972853Y-96047598D01*
X157957740Y-96044592D01*
X157957736Y-96044592D01*
X157937839Y-96048549D01*
X157937837Y-96048550D01*
X157860003Y-96064033D01*
X157859997Y-96064035D01*
X157777141Y-96119397D01*
X157777136Y-96119402D01*
X157768578Y-96132210D01*
X157756269Y-96147209D01*
X157479894Y-96423584D01*
X157425377Y-96451361D01*
X157407790Y-96451363D01*
X157407790Y-96452248D01*
X157399999Y-96452248D01*
X157274696Y-96472094D01*
X157274692Y-96472095D01*
X157161659Y-96529689D01*
X157071949Y-96619399D01*
X157014355Y-96732432D01*
X157014354Y-96732436D01*
X156995696Y-96850242D01*
X156994508Y-96857740D01*
X157013389Y-96976954D01*
X157014354Y-96983043D01*
X157014355Y-96983047D01*
X157062813Y-97078150D01*
X157071950Y-97096082D01*
X157106366Y-97130498D01*
X157134142Y-97185013D01*
X157124571Y-97245445D01*
X157081306Y-97288710D01*
X157036361Y-97299500D01*
X156911609Y-97299500D01*
X156853418Y-97280593D01*
X156841605Y-97270504D01*
X156663750Y-97092649D01*
X156635973Y-97038132D01*
X156645544Y-96977700D01*
X156663747Y-96952644D01*
X156728050Y-96888342D01*
X156785646Y-96775304D01*
X156805492Y-96650000D01*
X156805492Y-96649999D01*
X156805492Y-96642209D01*
X156808498Y-96642209D01*
X156815948Y-96595165D01*
X156834156Y-96570103D01*
X157013523Y-96390737D01*
X157624765Y-95779496D01*
X157679281Y-95751719D01*
X157694768Y-95750500D01*
X162543100Y-95750500D01*
X162601291Y-95769407D01*
X162613103Y-95779496D01*
X162661656Y-95828048D01*
X162661658Y-95828050D01*
X162774696Y-95885646D01*
X162900000Y-95905492D01*
X163025304Y-95885646D01*
X163138342Y-95828050D01*
X163228050Y-95738342D01*
X163285646Y-95625304D01*
X163305492Y-95500000D01*
X163285646Y-95374696D01*
X163228050Y-95261658D01*
X163138342Y-95171950D01*
X163085342Y-95144945D01*
X163025307Y-95114355D01*
X163025304Y-95114354D01*
X162900000Y-95094508D01*
X162774696Y-95114354D01*
X162774692Y-95114355D01*
X162661658Y-95171950D01*
X162661656Y-95171951D01*
X162613103Y-95220504D01*
X162558586Y-95248281D01*
X162543100Y-95249500D01*
X157584431Y-95249500D01*
X157565118Y-95247598D01*
X157550000Y-95244591D01*
X157549998Y-95244591D01*
X157452262Y-95264033D01*
X157452258Y-95264034D01*
X157394818Y-95302415D01*
X157369401Y-95319397D01*
X157369396Y-95319402D01*
X157360840Y-95332207D01*
X157348531Y-95347206D01*
X156479894Y-96215844D01*
X156425377Y-96243621D01*
X156407790Y-96243623D01*
X156407790Y-96244508D01*
X156399997Y-96244508D01*
X156314986Y-96257972D01*
X156254554Y-96248400D01*
X156211290Y-96205136D01*
X156200500Y-96160191D01*
X156200500Y-92765479D01*
X156219407Y-92707288D01*
X156229496Y-92695476D01*
X156705790Y-92219181D01*
X156760307Y-92191403D01*
X156788714Y-92191031D01*
X156900000Y-92205682D01*
X156900001Y-92205682D01*
X156931352Y-92201554D01*
X157056762Y-92185044D01*
X157202841Y-92124536D01*
X157328282Y-92028282D01*
X157424536Y-91902841D01*
X157485044Y-91756762D01*
X157505682Y-91600000D01*
X157485044Y-91443238D01*
X157484074Y-91440896D01*
X157424537Y-91297161D01*
X157424537Y-91297160D01*
X157328286Y-91171723D01*
X157328285Y-91171722D01*
X157328282Y-91171718D01*
X157328277Y-91171714D01*
X157328276Y-91171713D01*
X157202838Y-91075462D01*
X157056766Y-91014957D01*
X157056758Y-91014955D01*
X156900001Y-90994318D01*
X156899998Y-90994318D01*
X156788715Y-91008968D01*
X156728555Y-90997818D01*
X156705790Y-90980819D01*
X156658565Y-90933594D01*
X156650479Y-90922344D01*
X156649487Y-90923094D01*
X156643958Y-90915772D01*
X156609272Y-90884151D01*
X156605968Y-90880996D01*
X156592800Y-90867828D01*
X156592796Y-90867825D01*
X156592693Y-90867755D01*
X156581962Y-90859255D01*
X156560933Y-90840084D01*
X156551762Y-90836531D01*
X156531586Y-90825895D01*
X156523484Y-90820345D01*
X156523479Y-90820343D01*
X156495797Y-90813832D01*
X156482703Y-90809777D01*
X156456177Y-90799500D01*
X156456173Y-90799500D01*
X156446348Y-90799500D01*
X156423683Y-90796870D01*
X156414119Y-90794621D01*
X156414118Y-90794621D01*
X156385946Y-90798551D01*
X156372269Y-90799500D01*
X146465165Y-90799500D01*
X146451489Y-90797267D01*
X146451318Y-90798494D01*
X146442234Y-90797226D01*
X146395359Y-90799394D01*
X146390787Y-90799500D01*
X146372152Y-90799500D01*
X146372029Y-90799523D01*
X146358419Y-90801101D01*
X146330011Y-90802414D01*
X146330007Y-90802415D01*
X146321013Y-90806386D01*
X146299228Y-90813132D01*
X146289571Y-90814937D01*
X146289565Y-90814939D01*
X146265381Y-90829913D01*
X146253259Y-90836302D01*
X146227238Y-90847792D01*
X146227231Y-90847796D01*
X146220286Y-90854742D01*
X146202406Y-90868905D01*
X146194048Y-90874080D01*
X146176907Y-90896778D01*
X146167909Y-90907118D01*
X146094208Y-90980819D01*
X146039691Y-91008596D01*
X146011282Y-91008968D01*
X145900001Y-90994318D01*
X145899999Y-90994318D01*
X145743241Y-91014955D01*
X145743233Y-91014957D01*
X145597161Y-91075462D01*
X145597160Y-91075462D01*
X145471723Y-91171713D01*
X145471713Y-91171723D01*
X145375462Y-91297160D01*
X145375462Y-91297161D01*
X145314957Y-91443233D01*
X145314955Y-91443241D01*
X145294318Y-91599999D01*
X145294318Y-91600000D01*
X132700500Y-91600000D01*
X132700500Y-89780478D01*
X147329500Y-89780478D01*
X147329501Y-89780484D01*
X147335587Y-89837111D01*
X147335587Y-89837112D01*
X147335588Y-89837114D01*
X147383372Y-89965226D01*
X147465313Y-90074687D01*
X147574774Y-90156628D01*
X147702886Y-90204412D01*
X147759515Y-90210500D01*
X148400484Y-90210499D01*
X148457114Y-90204412D01*
X148585226Y-90156628D01*
X148694687Y-90074687D01*
X148776628Y-89965226D01*
X148824412Y-89837114D01*
X148830500Y-89780485D01*
X148830500Y-89780478D01*
X155969500Y-89780478D01*
X155969501Y-89780484D01*
X155975587Y-89837111D01*
X155975587Y-89837112D01*
X155975588Y-89837114D01*
X156023372Y-89965226D01*
X156105313Y-90074687D01*
X156214774Y-90156628D01*
X156342886Y-90204412D01*
X156399515Y-90210500D01*
X157040484Y-90210499D01*
X157097114Y-90204412D01*
X157225226Y-90156628D01*
X157300873Y-90100000D01*
X160294318Y-90100000D01*
X160314955Y-90256758D01*
X160314957Y-90256766D01*
X160375462Y-90402838D01*
X160375462Y-90402839D01*
X160471713Y-90528276D01*
X160471718Y-90528282D01*
X160597159Y-90624536D01*
X160597160Y-90624536D01*
X160597161Y-90624537D01*
X160743233Y-90685042D01*
X160743238Y-90685044D01*
X160860809Y-90700522D01*
X160899999Y-90705682D01*
X160900000Y-90705682D01*
X160900001Y-90705682D01*
X160931352Y-90701554D01*
X161056762Y-90685044D01*
X161202841Y-90624536D01*
X161328282Y-90528282D01*
X161424536Y-90402841D01*
X161485044Y-90256762D01*
X161505682Y-90100000D01*
X161502349Y-90074687D01*
X161487939Y-89965227D01*
X161485044Y-89943238D01*
X161424537Y-89797161D01*
X161424537Y-89797160D01*
X161328286Y-89671723D01*
X161328285Y-89671722D01*
X161328282Y-89671718D01*
X161328277Y-89671714D01*
X161328276Y-89671713D01*
X161257104Y-89617101D01*
X161202841Y-89575464D01*
X161202840Y-89575463D01*
X161202838Y-89575462D01*
X161056766Y-89514957D01*
X161056758Y-89514955D01*
X160900001Y-89494318D01*
X160899999Y-89494318D01*
X160743241Y-89514955D01*
X160743233Y-89514957D01*
X160597161Y-89575462D01*
X160597160Y-89575462D01*
X160471723Y-89671713D01*
X160471713Y-89671723D01*
X160375462Y-89797160D01*
X160375462Y-89797161D01*
X160314957Y-89943233D01*
X160314955Y-89943241D01*
X160294318Y-90099999D01*
X160294318Y-90100000D01*
X157300873Y-90100000D01*
X157334687Y-90074687D01*
X157416628Y-89965226D01*
X157464412Y-89837114D01*
X157470500Y-89780485D01*
X157470499Y-88139516D01*
X157464412Y-88082886D01*
X157416628Y-87954774D01*
X157334687Y-87845313D01*
X157236684Y-87771949D01*
X157225228Y-87763373D01*
X157225226Y-87763372D01*
X157097114Y-87715588D01*
X157097113Y-87715587D01*
X157058895Y-87711479D01*
X157040485Y-87709500D01*
X157040481Y-87709500D01*
X156399521Y-87709500D01*
X156399515Y-87709501D01*
X156342888Y-87715587D01*
X156342886Y-87715588D01*
X156214774Y-87763372D01*
X156214773Y-87763372D01*
X156214772Y-87763373D01*
X156105315Y-87845311D01*
X156105311Y-87845315D01*
X156023373Y-87954771D01*
X155975587Y-88082887D01*
X155969500Y-88139518D01*
X155969500Y-89780478D01*
X148830500Y-89780478D01*
X148830499Y-88139516D01*
X148824412Y-88082886D01*
X148776628Y-87954774D01*
X148694687Y-87845313D01*
X148596684Y-87771949D01*
X148585228Y-87763373D01*
X148585226Y-87763372D01*
X148457114Y-87715588D01*
X148457113Y-87715587D01*
X148418895Y-87711479D01*
X148400485Y-87709500D01*
X148400481Y-87709500D01*
X147759521Y-87709500D01*
X147759515Y-87709501D01*
X147702888Y-87715587D01*
X147702886Y-87715588D01*
X147574774Y-87763372D01*
X147574773Y-87763372D01*
X147574772Y-87763373D01*
X147465315Y-87845311D01*
X147465311Y-87845315D01*
X147383373Y-87954771D01*
X147335587Y-88082887D01*
X147329500Y-88139518D01*
X147329500Y-89780478D01*
X132700500Y-89780478D01*
X132700500Y-86102279D01*
X132700553Y-86100000D01*
X133494506Y-86100000D01*
X133514468Y-86468197D01*
X133574126Y-86832087D01*
X133672768Y-87187365D01*
X133672772Y-87187376D01*
X133672773Y-87187379D01*
X133680066Y-87205682D01*
X133809255Y-87529927D01*
X133877400Y-87658462D01*
X133937567Y-87771949D01*
X133981981Y-87855721D01*
X133986007Y-87861659D01*
X134188910Y-88160917D01*
X134188914Y-88160922D01*
X134188915Y-88160923D01*
X134427622Y-88441951D01*
X134427632Y-88441961D01*
X134695326Y-88695535D01*
X134695330Y-88695538D01*
X134988881Y-88918690D01*
X135304838Y-89108795D01*
X135639497Y-89263625D01*
X135988934Y-89381364D01*
X135988939Y-89381365D01*
X135988942Y-89381366D01*
X136349047Y-89460631D01*
X136349048Y-89460631D01*
X136349052Y-89460632D01*
X136715630Y-89500500D01*
X137084370Y-89500500D01*
X137450948Y-89460632D01*
X137811057Y-89381366D01*
X137811058Y-89381366D01*
X137811060Y-89381365D01*
X137811066Y-89381364D01*
X138160503Y-89263625D01*
X138495162Y-89108795D01*
X138811119Y-88918690D01*
X139104670Y-88695538D01*
X139372373Y-88441956D01*
X139611090Y-88160917D01*
X139652393Y-88100000D01*
X143369508Y-88100000D01*
X143384476Y-88194508D01*
X143389354Y-88225303D01*
X143389355Y-88225307D01*
X143413121Y-88271950D01*
X143446950Y-88338342D01*
X143536658Y-88428050D01*
X143649696Y-88485646D01*
X143775000Y-88505492D01*
X143880928Y-88488714D01*
X143941356Y-88498285D01*
X143984621Y-88541549D01*
X143992650Y-88592209D01*
X143994508Y-88592209D01*
X143994508Y-88600000D01*
X144014354Y-88725303D01*
X144014355Y-88725307D01*
X144069944Y-88834406D01*
X144071950Y-88838342D01*
X144161658Y-88928050D01*
X144274696Y-88985646D01*
X144400000Y-89005492D01*
X144525304Y-88985646D01*
X144638342Y-88928050D01*
X144728050Y-88838342D01*
X144785646Y-88725304D01*
X144805492Y-88600000D01*
X144805492Y-88592209D01*
X144807354Y-88592209D01*
X144815377Y-88541550D01*
X144858642Y-88498285D01*
X144919070Y-88488714D01*
X145025000Y-88505492D01*
X145150304Y-88485646D01*
X145263342Y-88428050D01*
X145353050Y-88338342D01*
X145410646Y-88225304D01*
X145430492Y-88100000D01*
X145410646Y-87974696D01*
X145353050Y-87861658D01*
X145263342Y-87771950D01*
X145246507Y-87763372D01*
X145150307Y-87714355D01*
X145150304Y-87714354D01*
X145025000Y-87694508D01*
X144919073Y-87711284D01*
X144858642Y-87701714D01*
X144815377Y-87658449D01*
X144807354Y-87607791D01*
X144805492Y-87607791D01*
X144805492Y-87599999D01*
X144794394Y-87529930D01*
X144785646Y-87474696D01*
X144728050Y-87361658D01*
X144638342Y-87271950D01*
X144634406Y-87269944D01*
X144525307Y-87214355D01*
X144525304Y-87214354D01*
X144400000Y-87194508D01*
X144274696Y-87214354D01*
X144274692Y-87214355D01*
X144161659Y-87271949D01*
X144071949Y-87361659D01*
X144014355Y-87474692D01*
X144014354Y-87474696D01*
X143994508Y-87599999D01*
X143994508Y-87607791D01*
X143992648Y-87607791D01*
X143984615Y-87658462D01*
X143941344Y-87701720D01*
X143880925Y-87711284D01*
X143775000Y-87694508D01*
X143649696Y-87714354D01*
X143649692Y-87714355D01*
X143536659Y-87771949D01*
X143446949Y-87861659D01*
X143389355Y-87974692D01*
X143389354Y-87974696D01*
X143372219Y-88082886D01*
X143369508Y-88100000D01*
X139652393Y-88100000D01*
X139818022Y-87855716D01*
X139990743Y-87529930D01*
X140127227Y-87187379D01*
X140225875Y-86832081D01*
X140263923Y-86600000D01*
X147294318Y-86600000D01*
X147314955Y-86756758D01*
X147314957Y-86756766D01*
X147375462Y-86902838D01*
X147375462Y-86902839D01*
X147375464Y-86902841D01*
X147471718Y-87028282D01*
X147597159Y-87124536D01*
X147743238Y-87185044D01*
X147860809Y-87200522D01*
X147899999Y-87205682D01*
X147900000Y-87205682D01*
X147900001Y-87205682D01*
X147931352Y-87201554D01*
X148056762Y-87185044D01*
X148202841Y-87124536D01*
X148328282Y-87028282D01*
X148424536Y-86902841D01*
X148485044Y-86756762D01*
X148505682Y-86600000D01*
X148485044Y-86443238D01*
X148424537Y-86297161D01*
X148424537Y-86297160D01*
X148328286Y-86171723D01*
X148328285Y-86171722D01*
X148328282Y-86171718D01*
X148328277Y-86171714D01*
X148328276Y-86171713D01*
X148202838Y-86075462D01*
X148056766Y-86014957D01*
X148056758Y-86014955D01*
X147900001Y-85994318D01*
X147899999Y-85994318D01*
X147743241Y-86014955D01*
X147743233Y-86014957D01*
X147597161Y-86075462D01*
X147597160Y-86075462D01*
X147471723Y-86171713D01*
X147471713Y-86171723D01*
X147375462Y-86297160D01*
X147375462Y-86297161D01*
X147314957Y-86443233D01*
X147314955Y-86443241D01*
X147294318Y-86599999D01*
X147294318Y-86600000D01*
X140263923Y-86600000D01*
X140285531Y-86468199D01*
X140305494Y-86100000D01*
X140285531Y-85731801D01*
X140225875Y-85367919D01*
X140133292Y-85034465D01*
X140135942Y-84973340D01*
X140174016Y-84925444D01*
X140232971Y-84909075D01*
X140241605Y-84909829D01*
X140399999Y-84930682D01*
X140400000Y-84930682D01*
X140400001Y-84930682D01*
X140439787Y-84925444D01*
X140556762Y-84910044D01*
X140702841Y-84849536D01*
X140828282Y-84753282D01*
X140924536Y-84627841D01*
X140985044Y-84481762D01*
X140996636Y-84393709D01*
X147329500Y-84393709D01*
X147344759Y-84524255D01*
X147344759Y-84524257D01*
X147344760Y-84524258D01*
X147404762Y-84689116D01*
X147501168Y-84835693D01*
X147501170Y-84835696D01*
X147628780Y-84956090D01*
X147628780Y-84956091D01*
X147628782Y-84956092D01*
X147780719Y-85043812D01*
X147921062Y-85085828D01*
X147948786Y-85094129D01*
X147948787Y-85094129D01*
X147948790Y-85094130D01*
X148023852Y-85098501D01*
X148123931Y-85104331D01*
X148123931Y-85104330D01*
X148123935Y-85104331D01*
X148245795Y-85082843D01*
X148296707Y-85073866D01*
X148296708Y-85073865D01*
X148296711Y-85073865D01*
X148457804Y-85004377D01*
X148598530Y-84899610D01*
X148711302Y-84765214D01*
X148790040Y-84608433D01*
X148790041Y-84608425D01*
X148790043Y-84608423D01*
X148830500Y-84437722D01*
X148830500Y-84393709D01*
X155969500Y-84393709D01*
X155984759Y-84524255D01*
X155984759Y-84524257D01*
X155984760Y-84524258D01*
X156044762Y-84689116D01*
X156141168Y-84835693D01*
X156141170Y-84835696D01*
X156268780Y-84956090D01*
X156268780Y-84956091D01*
X156268782Y-84956092D01*
X156420719Y-85043812D01*
X156561062Y-85085828D01*
X156588786Y-85094129D01*
X156588787Y-85094129D01*
X156588790Y-85094130D01*
X156663852Y-85098501D01*
X156763931Y-85104331D01*
X156763931Y-85104330D01*
X156763935Y-85104331D01*
X156885795Y-85082843D01*
X156936707Y-85073866D01*
X156936708Y-85073865D01*
X156936711Y-85073865D01*
X157097804Y-85004377D01*
X157137264Y-84975000D01*
X160319534Y-84975000D01*
X160336560Y-85104331D01*
X160339313Y-85125236D01*
X160397302Y-85265233D01*
X160489549Y-85385451D01*
X160609767Y-85477698D01*
X160749764Y-85535687D01*
X160862280Y-85550500D01*
X160862281Y-85550500D01*
X160937719Y-85550500D01*
X160937720Y-85550500D01*
X161050236Y-85535687D01*
X161190233Y-85477698D01*
X161310451Y-85385451D01*
X161402698Y-85265233D01*
X161460687Y-85125236D01*
X161480466Y-84975000D01*
X161480247Y-84973340D01*
X161462126Y-84835696D01*
X161460687Y-84824764D01*
X161402698Y-84684767D01*
X161310451Y-84564549D01*
X161190233Y-84472302D01*
X161050236Y-84414313D01*
X161050234Y-84414312D01*
X161050232Y-84414312D01*
X160937720Y-84399500D01*
X160862280Y-84399500D01*
X160862279Y-84399500D01*
X160749767Y-84414312D01*
X160749761Y-84414314D01*
X160609768Y-84472301D01*
X160489551Y-84564547D01*
X160489547Y-84564551D01*
X160397301Y-84684768D01*
X160339314Y-84824761D01*
X160339312Y-84824767D01*
X160319534Y-84974999D01*
X160319534Y-84975000D01*
X157137264Y-84975000D01*
X157238530Y-84899610D01*
X157351302Y-84765214D01*
X157430040Y-84608433D01*
X157430041Y-84608425D01*
X157430043Y-84608423D01*
X157470500Y-84437722D01*
X157470500Y-82806295D01*
X157469823Y-82800500D01*
X157455241Y-82675745D01*
X157395237Y-82510883D01*
X157298830Y-82364304D01*
X157171219Y-82243908D01*
X157065075Y-82182627D01*
X157019281Y-82156188D01*
X156977263Y-82143608D01*
X156851213Y-82105870D01*
X156851206Y-82105869D01*
X156721797Y-82098332D01*
X156692421Y-82086859D01*
X156668540Y-82096995D01*
X156660963Y-82098332D01*
X156503292Y-82126133D01*
X156342197Y-82195622D01*
X156342195Y-82195623D01*
X156201470Y-82300389D01*
X156201468Y-82300391D01*
X156088699Y-82434783D01*
X156050481Y-82510883D01*
X156009960Y-82591567D01*
X156009959Y-82591568D01*
X156009959Y-82591570D01*
X156009956Y-82591576D01*
X155972018Y-82751654D01*
X155969500Y-82762279D01*
X155969500Y-84393709D01*
X148830500Y-84393709D01*
X148830500Y-82806295D01*
X148829823Y-82800500D01*
X148815241Y-82675745D01*
X148755237Y-82510883D01*
X148658830Y-82364304D01*
X148531219Y-82243908D01*
X148425075Y-82182627D01*
X148379281Y-82156188D01*
X148337263Y-82143608D01*
X148211213Y-82105870D01*
X148211206Y-82105869D01*
X148081797Y-82098332D01*
X148052421Y-82086859D01*
X148028540Y-82096995D01*
X148020963Y-82098332D01*
X147863292Y-82126133D01*
X147702197Y-82195622D01*
X147702195Y-82195623D01*
X147561470Y-82300389D01*
X147561468Y-82300391D01*
X147448699Y-82434783D01*
X147410481Y-82510883D01*
X147369960Y-82591567D01*
X147369959Y-82591568D01*
X147369959Y-82591570D01*
X147369956Y-82591576D01*
X147332018Y-82751654D01*
X147329500Y-82762279D01*
X147329500Y-84393709D01*
X140996636Y-84393709D01*
X141005682Y-84325000D01*
X140985044Y-84168238D01*
X140966162Y-84122653D01*
X140924537Y-84022161D01*
X140924537Y-84022160D01*
X140828286Y-83896723D01*
X140828285Y-83896722D01*
X140828282Y-83896718D01*
X140828277Y-83896714D01*
X140828276Y-83896713D01*
X140702838Y-83800462D01*
X140556766Y-83739957D01*
X140556758Y-83739955D01*
X140400001Y-83719318D01*
X140399999Y-83719318D01*
X140243241Y-83739955D01*
X140243233Y-83739957D01*
X140097161Y-83800462D01*
X140097160Y-83800462D01*
X139971723Y-83896713D01*
X139971713Y-83896723D01*
X139875463Y-84022160D01*
X139841157Y-84104982D01*
X139801420Y-84151508D01*
X139741925Y-84165791D01*
X139685397Y-84142376D01*
X139667752Y-84122653D01*
X139611098Y-84039094D01*
X139611092Y-84039086D01*
X139611090Y-84039083D01*
X139483819Y-83889248D01*
X139372377Y-83758048D01*
X139372367Y-83758038D01*
X139104673Y-83504464D01*
X138811123Y-83281313D01*
X138811122Y-83281312D01*
X138811119Y-83281310D01*
X138495162Y-83091205D01*
X138290530Y-82996532D01*
X138160508Y-82936377D01*
X138160505Y-82936376D01*
X138160503Y-82936375D01*
X137811066Y-82818636D01*
X137811065Y-82818635D01*
X137811057Y-82818633D01*
X137450952Y-82739368D01*
X137450953Y-82739368D01*
X137084370Y-82699500D01*
X136715630Y-82699500D01*
X136349046Y-82739368D01*
X135988943Y-82818633D01*
X135988941Y-82818633D01*
X135639491Y-82936377D01*
X135304846Y-83091201D01*
X135304840Y-83091204D01*
X134988881Y-83281310D01*
X134988876Y-83281313D01*
X134695326Y-83504464D01*
X134427632Y-83758038D01*
X134427622Y-83758048D01*
X134188915Y-84039076D01*
X134188908Y-84039086D01*
X133981981Y-84344278D01*
X133809255Y-84670072D01*
X133672772Y-85012623D01*
X133672768Y-85012634D01*
X133574126Y-85367912D01*
X133514468Y-85731802D01*
X133494506Y-86100000D01*
X132700553Y-86100000D01*
X132700606Y-86097707D01*
X132710190Y-85890406D01*
X132718202Y-85717091D01*
X132719045Y-85707993D01*
X132771374Y-85332856D01*
X132773050Y-85323895D01*
X132859765Y-84955205D01*
X132862266Y-84946416D01*
X132874457Y-84910044D01*
X132982629Y-84587301D01*
X132985930Y-84578782D01*
X132992214Y-84564551D01*
X133138919Y-84232295D01*
X133142980Y-84224138D01*
X133327290Y-83893237D01*
X133332093Y-83885481D01*
X133546144Y-83573006D01*
X133551654Y-83565711D01*
X133602513Y-83504464D01*
X133793613Y-83274329D01*
X133799753Y-83267593D01*
X134067593Y-82999753D01*
X134074329Y-82993613D01*
X134365712Y-82751652D01*
X134373008Y-82746143D01*
X134475782Y-82675741D01*
X134685481Y-82532093D01*
X134693237Y-82527290D01*
X135024138Y-82342980D01*
X135032295Y-82338919D01*
X135378789Y-82185927D01*
X135387301Y-82182629D01*
X135746421Y-82062264D01*
X135755205Y-82059765D01*
X136123895Y-81973050D01*
X136132856Y-81971374D01*
X136508000Y-81919044D01*
X136517091Y-81918202D01*
X136897707Y-81900605D01*
X136902279Y-81900500D01*
X136947595Y-81900500D01*
X148011349Y-81900500D01*
X148047486Y-81912241D01*
G37*
G04 #@! TD.AperFunction*
M02*
